<?xml version="1.0" encoding="UTF-8" standalone="no"?>
<svg width="90px" height="124px" viewBox="0 0 90 124" version="1.1" xmlns="http://www.w3.org/2000/svg" xmlns:xlink="http://www.w3.org/1999/xlink">
    <!-- Generator: Sketch 50.2 (55047) - http://www.bohemiancoding.com/sketch -->
    <title>1draft</title>
    <desc>Created with Sketch.</desc>
    <defs></defs>
    <g id="Page-1" stroke="none" stroke-width="1" fill="none" fill-rule="evenodd">
        <g id="1draft" transform="translate(-5.000000, 2.000000)">
            <polygon id="Polygon-Copy-3" stroke="#FFFFFF" stroke-width="2" points="50.2325581 0 93.7352296 30 93.7352296 90 50.2325581 120 6.72988669 90 6.72988669 30"></polygon>
            <g transform="translate(25.000000, 35.000000)" fill="#FFFFFF" fill-rule="nonzero">
                <path d="M0,0.562837838 L0,11.5993243 L0,49.4371622 L50,49.4371622 L50,11.5993243 L50,0.562837838 L0,0.562837838 Z M1.04166667,1.91418919 L48.9583333,1.91418919 L48.9583333,10.247973 L1.04166667,10.247973 L1.04166667,1.91418919 Z M48.9583333,48.0858108 L1.04166667,48.0858108 L1.04166667,11.5993243 L48.9583333,11.5993243 L48.9583333,48.0858108 Z" id="Shape"></path>
                <rect id="Rectangle-path" x="38.628125" y="5.40540541" width="6.85833333" height="1.35135135"></rect>
                <rect id="Rectangle-path" x="4.5140625" y="5.40540541" width="1.47552083" height="1.35135135"></rect>
                <rect id="Rectangle-path" x="8.59375" y="5.40540541" width="1.47552083" height="1.35135135"></rect>
                <rect id="Rectangle-path" x="12.6734375" y="5.40540541" width="1.47552083" height="1.35135135"></rect>
                <path d="M11.9786458,14.8648649 L3.6453125,14.8648649 L3.6453125,25.6756757 L11.9786458,25.6756757 L11.9786458,14.8648649 Z M10.9369792,24.3243243 L4.68697917,24.3243243 L4.68697917,16.2162162 L10.9369792,16.2162162 L10.9369792,24.3243243 Z" id="Shape"></path>
                <path d="M23.4375,14.8648649 L15.1036458,14.8648649 L15.1036458,25.6756757 L23.4375,25.6756757 L23.4375,14.8648649 Z M22.3958333,24.3243243 L16.1453125,24.3243243 L16.1453125,16.2162162 L22.3958333,16.2162162 L22.3958333,24.3243243 Z" id="Shape"></path>
                <path d="M34.896875,14.8648649 L26.5625,14.8648649 L26.5625,25.6756757 L34.896875,25.6756757 L34.896875,14.8648649 Z M33.8552083,24.3243243 L27.6041667,24.3243243 L27.6041667,16.2162162 L33.8552083,16.2162162 L33.8552083,24.3243243 Z" id="Shape"></path>
                <path d="M46.3552083,14.8648649 L38.021875,14.8648649 L38.021875,25.6756757 L46.3552083,25.6756757 L46.3552083,14.8648649 Z M45.3135417,24.3243243 L39.0635417,24.3243243 L39.0635417,16.2162162 L45.3135417,16.2162162 L45.3135417,24.3243243 Z" id="Shape"></path>
                <path d="M46.0072917,44.5945946 L46.0072917,29.2797297 L3.6453125,29.2797297 L3.6453125,44.5945946 L46.0072917,44.5945946 Z M4.68697917,30.6310811 L44.965625,30.6310811 L44.965625,43.2432432 L4.68697917,43.2432432 L4.68697917,30.6310811 Z" id="Shape"></path>
            </g>
        </g>
    </g>
</svg>