<?xml version="1.0" encoding="UTF-8" standalone="no"?>
<svg width="30px" height="30px" viewBox="0 0 30 30" version="1.1" xmlns="http://www.w3.org/2000/svg" xmlns:xlink="http://www.w3.org/1999/xlink">
    <!-- Generator: Sketch 50.2 (55047) - http://www.bohemiancoding.com/sketch -->
    <title>custom</title>
    <desc>Created with Sketch.</desc>
    <defs></defs>
    <g id="Page-1" stroke="none" stroke-width="1" fill="none" fill-rule="evenodd">
        <g id="MOCKUP" transform="translate(-247.000000, -2577.000000)" fill="#FFFFFF" fill-rule="nonzero">
            <g id="WHY-/-WHAT" transform="translate(164.000000, 2145.000000)">
                <g id="custom" transform="translate(83.000000, 432.000000)">
                    <path d="M26.8002031,0 L3.19933539,0 C1.43259334,0 0,1.45497727 0,3.24932423 L0,26.750207 C0,28.544554 1.43259334,29.9995313 3.19933539,30 L26.8002031,30 C28.5669451,30 29.9995385,28.5450227 29.9995385,26.750207 L30,26.750207 L30,3.24932423 C30,1.45497727 28.5669451,0 26.8002031,0 Z M3.19933539,1.8749707 L26.8002031,1.8749707 C27.5474223,1.8749707 28.153413,2.49042984 28.153413,3.24932423 L28.1538746,3.24932423 L28.1538746,6.09365479 L1.84612544,6.09365479 L1.84612544,3.24932423 C1.84612544,2.49042984 2.45211612,1.8749707 3.19933539,1.8749707 Z M26.8002031,28.1245606 L3.19933539,28.1245606 C2.45211612,28.1245606 1.84612544,27.5095702 1.84612544,26.750207 L1.84612544,7.03114014 L28.1538746,7.03114014 L28.1538746,26.750207 C28.1538746,27.5095702 27.5478839,28.1245606 26.8002031,28.1245606 Z" id="Shape"></path>
                    <path d="M3.88888889,5 L4.44444444,5 C4.75111111,5 5,4.6275 5,4.16666667 C5,3.70583333 4.75111111,3.33333333 4.44444444,3.33333333 L3.88888889,3.33333333 C3.58166667,3.33333333 3.33333333,3.70583333 3.33333333,4.16666667 C3.33333333,4.6275 3.58166667,5 3.88888889,5 Z" id="Shape"></path>
                    <path d="M7.22222222,5 L7.77777778,5 C8.08444444,5 8.33333333,4.6275 8.33333333,4.16666667 C8.33333333,3.70583333 8.08444444,3.33333333 7.77777778,3.33333333 L7.22222222,3.33333333 C6.915,3.33333333 6.66666667,3.70583333 6.66666667,4.16666667 C6.66666667,4.6275 6.915,5 7.22222222,5 Z" id="Shape"></path>
                    <path d="M10.5555556,5 L11.1111111,5 C11.4177778,5 11.6666667,4.6275 11.6666667,4.16666667 C11.6666667,3.70583333 11.4177778,3.33333333 11.1111111,3.33333333 L10.5555556,3.33333333 C10.2483333,3.33333333 10,3.70583333 10,4.16666667 C10,4.6275 10.2483333,5 10.5555556,5 Z" id="Shape"></path>
                    <path d="M17.7268294,13.4834258 C17.5190539,13.3096159 17.1423117,13.2828134 16.8879659,13.4237294 C16.6318289,13.5646454 16.5924232,13.8204872 16.8001986,13.9951093 L21.9683143,18.3330484 L16.8001986,22.6717997 C16.5924232,22.8464218 16.6312318,23.1018575 16.8879659,23.2427735 C16.9984212,23.3040943 17.1309676,23.3333333 17.263514,23.3333333 C17.4372573,23.3333333 17.6092094,23.2817589 17.7268294,23.1834832 L23.1994436,18.5892963 C23.3779633,18.4402583 23.3779633,18.2266507 23.1994436,18.0776128 L17.7268294,13.4834258 Z" id="Shape"></path>
                    <path d="M7.72682937,13.4834258 C7.51905393,13.3096159 7.14231167,13.2828134 6.88796586,13.4237294 C6.63182889,13.5646454 6.5924232,13.8204872 6.80019865,13.9951093 L11.9683143,18.3330484 L6.80019865,22.6717997 C6.5924232,22.8464218 6.63123184,23.1018575 6.88796586,23.2427735 C6.9984212,23.3040943 7.13096761,23.3333333 7.26351401,23.3333333 C7.43725727,23.3333333 7.60920936,23.2817589 7.72682937,23.1834832 L13.1994436,18.5892963 C13.3779633,18.4402583 13.3779633,18.2266507 13.1994436,18.0776128 L7.72682937,13.4834258 Z" id="Shape" transform="translate(10.000000, 18.333333) scale(-1, 1) translate(-10.000000, -18.333333) "></path>
                </g>
            </g>
        </g>
    </g>
</svg>