<?xml version="1.0" encoding="UTF-8" standalone="no"?>
<svg width="90px" height="124px" viewBox="0 0 90 124" version="1.1" xmlns="http://www.w3.org/2000/svg" xmlns:xlink="http://www.w3.org/1999/xlink">
    <!-- Generator: Sketch 50.2 (55047) - http://www.bohemiancoding.com/sketch -->
    <title>final</title>
    <desc>Created with Sketch.</desc>
    <defs></defs>
    <g id="Page-1" stroke="none" stroke-width="1" fill="none" fill-rule="evenodd">
        <g id="final" transform="translate(-5.000000, 2.000000)">
            <polygon id="Polygon-Copy-6" stroke="#FFFFFF" stroke-width="2" points="50.2325581 0 93.7352296 30 93.7352296 90 50.2325581 120 6.72988669 90 6.72988669 30"></polygon>
            <g transform="translate(25.000000, 35.000000)" fill="#FFFFFF" fill-rule="nonzero">
                <rect id="Rectangle-path" x="20.462766" y="14.7934783" width="15.1914894" height="2.17391304"></rect>
                <polygon id="Shape" points="9.75 17.298913 7.08510638 14.6195652 5.59042553 16.1684783 9.77659574 20.375 16.4734043 13.3967391 14.9521277 11.875"></polygon>
                <polygon id="Shape" points="9.75 27.7663043 7.08510638 25.0815217 5.59042553 26.6358696 9.77659574 30.8423913 16.4734043 23.8641304 14.9521277 22.3423913"></polygon>
                <path d="M40.8776596,24.4565217 L40.8776596,1.44565217 C40.8776596,0.845342663 40.4013668,0.358695652 39.8138298,0.358695652 L1.14893617,0.358695652 C0.561399202,0.358695652 0.085106383,0.845342663 0.085106383,1.44565217 L0.085106383,37.8858696 C0.085106383,38.4861791 0.561399202,38.9728261 1.14893617,38.9728261 L24.9255319,38.9728261 C25.9788619,45.2304587 31.3448383,49.7657345 37.5582141,49.6498574 C43.7715898,49.5339802 48.9720052,44.8016451 49.8011295,38.5089055 C50.6302538,32.2161658 46.8398371,26.2471436 40.8776596,24.4565217 Z M2.21276596,2.5326087 L38.75,2.5326087 L38.75,6.44565217 L2.21276596,6.44565217 L2.21276596,2.5326087 Z M2.21276596,36.798913 L2.21276596,8.61956522 L38.75,8.61956522 L38.75,24 C38.2768036,23.9436203 37.8008686,23.9145886 37.3244681,23.9130435 C35.2511563,23.9094267 33.2094673,24.4323457 31.3829787,25.4347826 L31.3829787,25.2554348 L20.462766,25.2554348 L20.462766,27.4293478 L28.6914894,27.4293478 C26.1681227,29.8546067 24.7378727,33.2375257 24.7393617,36.7771739 L2.21276596,36.798913 Z M37.3191489,47.4673913 C31.5414162,47.4643901 26.8597448,42.6768886 26.8617027,36.7735526 C26.8636607,30.8702165 31.5485068,26.0859582 37.3262402,26.0869581 C43.1039736,26.0879579 47.7872333,30.8738375 47.787234,36.7771739 C47.7813701,42.6787344 43.1004635,47.4613999 37.3244681,47.4673913 L37.3191489,47.4673913 Z" id="Shape"></path>
                <polygon id="Shape" points="38.3882979 30.298913 36.2606383 30.298913 36.2606383 35.7771739 30.8989362 35.7771739 30.8989362 37.951087 36.2606383 37.951087 36.2606383 43.4347826 38.3882979 43.4347826 38.3882979 37.951087 43.7553191 37.951087 43.7553191 35.7771739 38.3882979 35.7771739"></polygon>
            </g>
        </g>
    </g>
</svg>