<?xml version="1.0" encoding="UTF-8" standalone="no"?>
<svg width="44px" height="26px" viewBox="0 0 44 26" version="1.1" xmlns="http://www.w3.org/2000/svg" xmlns:xlink="http://www.w3.org/1999/xlink">
    <!-- Generator: Sketch 50.2 (55047) - http://www.bohemiancoding.com/sketch -->
    <title>glasses 2</title>
    <desc>Created with Sketch.</desc>
    <defs></defs>
    <g id="Page-1" stroke="none" stroke-width="1" fill="none" fill-rule="evenodd">
        <g id="MOCKUP" transform="translate(-969.000000, -238.000000)" fill="#212121">
            <g id="HERO">
                <g id="Hero-IMG" transform="translate(325.000000, 126.000000)">
                    <g id="glasses-2" transform="translate(667.000000, 125.000000) rotate(-13.000000) translate(-667.000000, -125.000000) translate(645.000000, 116.000000)">
                        <path d="M20.7262183,5.15343181 C20.9664636,5.59265948 21.2620172,5.40907154 21.5034148,5.41541209 C21.8116432,5.4237701 22.1198716,5.43126349 22.4281,5.42924604 C22.6769872,5.427805 22.9970262,5.59381231 23.1286714,5.15343181 C22.3281418,5.15343181 21.5745666,5.15343181 20.7262183,5.15343181 Z M20.4712818,4.47614504 C20.472434,4.54070344 20.4738743,4.60526183 20.4750266,4.66982023 C21.4077776,4.67183768 22.3416808,4.72457959 23.2724153,4.62975944 C23.2718392,4.57845857 23.2715511,4.5271577 23.270975,4.47614504 C22.3376479,4.47614504 21.4046089,4.47614504 20.4712818,4.47614504 Z M7.8336294,15.7692535 C7.02474591,15.5591505 6.61857577,15.8531218 6.1712125,16.9232348 C6.98672147,17.3163494 7.45568953,17.0428408 7.8336294,15.7692535 Z M37.7211256,16.8604057 C37.4777116,16.5442425 37.2573427,16.2352844 37.0130645,15.9462127 C36.6760297,15.5470458 36.6178408,15.5479104 36.0373919,15.8341001 C36.321423,17.0367885 36.7077167,17.2932928 37.7211256,16.8604057 Z M12.0687452,0.622815622 C9.01786019,0.649330679 5.86874538,0.870385552 3.48328804,1.27243451 C2.53613386,1.43210126 1.87877199,1.95000949 1.53338335,2.86910204 C1.43861032,3.12128329 1.26951679,3.3803815 1.0626869,3.54754164 C0.763388481,3.78934743 0.644706144,4.07323146 0.658533213,4.4300319 C0.673800601,4.82084077 0.695693459,5.21222606 0.741207559,5.60044108 C0.794499384,6.0575376 0.951494222,6.48120209 1.39223202,6.69793385 C1.6926827,6.84549591 1.67914369,7.10834081 1.72033683,7.35648716 C2.01502622,9.13328416 2.35292521,10.9048934 2.57387024,12.690913 C2.67181197,13.4803124 3.04370249,13.9134877 3.71057047,14.2201401 C4.95154985,14.790502 6.27606777,14.9501688 7.60865148,14.9291297 C10.0618038,14.8905099 12.5126517,14.7409304 14.943047,14.3821125 C15.5842773,14.2875806 16.2246434,14.1192676 16.8359151,13.9022476 C17.6370208,13.6177872 18.2819959,13.1255294 18.7529805,12.3712913 C19.3924824,11.3470032 19.7237559,10.2440345 19.8153602,9.06036775 C19.9023555,7.9357835 20.373052,7.41297576 21.5022625,7.31527354 C21.8879801,7.28184151 22.28378,7.31267967 22.6703617,7.35504612 C23.3118801,7.42508046 23.9266085,8.00264756 23.9410117,8.6421792 C23.9588717,9.441954 24.1746315,10.1840874 24.3955766,10.9368844 C24.8273844,12.4078936 25.6676669,13.503369 27.1725128,13.9693999 C27.7924264,14.1613459 28.4330805,14.3155367 29.0757511,14.3965229 C30.3694462,14.5593599 31.6697668,14.6752192 32.9695112,14.7832969 C34.6353848,14.9222127 36.3096124,15.0305786 37.9700128,14.8017421 C38.7336703,14.6962583 39.4788916,14.4094922 40.2125904,14.148953 C40.8241502,13.9316448 41.1366995,13.472819 41.2297442,12.795244 C41.4789194,10.985015 41.792333,9.1837204 42.0711789,7.37723807 C42.1215901,7.05041118 42.2552517,6.82532141 42.5300647,6.61233633 C42.7544665,6.43854743 42.9345065,6.12728372 42.9996089,5.84570535 C43.1099374,5.36843433 43.1194435,4.86724212 43.1617889,4.37527254 C43.1914595,4.03345888 43.0246705,3.79741723 42.7769355,3.56541049 C42.5603114,3.36251266 42.3612592,3.09851492 42.2604369,2.82270069 C41.941262,1.95029769 41.3078095,1.42057298 40.4372803,1.29866136 C38.1111641,0.9732755 35.7815912,0.6421255 33.4234999,0.657688685 C32.2216972,0.665758485 31.0198945,0.715041906 29.818956,0.69342637 C28.3918874,0.667487728 27.0183986,0.90381758 25.6535517,1.30644295 C24.8492773,1.54392563 24.406523,2.01053298 24.2959065,2.82644739 C24.2328205,3.29190191 24.1884586,3.76427341 24.0723689,4.21704682 C23.9643449,4.63927028 23.7814243,5.04362489 23.6146353,5.44855592 C23.4628256,5.81659643 23.1525807,5.91112837 22.7818425,5.89498877 C22.3390882,5.8759671 21.8940295,5.84167045 21.4530036,5.86703268 C20.4897178,5.92236845 20.175152,5.7428154 19.8614504,4.86551288 C19.8095989,4.72025648 19.8035496,4.55886049 19.7767596,4.40495787 C19.6693118,3.78704177 19.5748268,3.16653181 19.4515355,2.55207419 C19.3345815,1.96960757 19.0087812,1.55257184 18.4073037,1.40616262 C17.5468568,1.19634782 16.6938995,0.908428894 15.8202017,0.811303089 C14.57807,0.673540078 13.3200949,0.678727806 12.0687452,0.622815622 Z M35.3538163,0 C35.9164051,0.0853093124 36.4772656,0.186758224 37.042447,0.252469452 C38.1054029,0.375822106 39.1692229,0.500904003 40.2359236,0.584195866 C41.6546384,0.695155613 42.5410111,1.41452063 42.9212555,2.78494556 C42.963889,2.93827176 43.0972626,3.0973621 43.2326526,3.18699452 C43.5944609,3.42707106 43.7451183,3.76657907 43.7868876,4.17439217 C43.9067222,5.34883625 43.8102208,6.48062567 42.968498,7.39770078 C42.6933969,7.6974362 42.6334797,8.01388764 42.5905581,8.38452202 C42.4044688,9.99271784 42.193318,11.5983198 41.9965703,13.2053628 C41.9311798,13.738546 41.6523339,14.1192676 41.21102,14.4060337 C40.2704913,15.0173211 39.2086877,15.2755546 38.128448,15.4801817 C37.9046223,15.5225482 37.6767637,15.5441637 37.3227332,15.5931589 C37.5626904,15.8905887 37.7070104,16.1404643 37.9149926,16.3142532 C38.588198,16.8762571 38.0057327,17.6645036 37.4007985,17.7673936 C36.8157407,17.8665368 36.1805597,17.5861113 35.8196156,16.9771296 C35.569,16.5540415 35.3791659,16.0949275 35.159085,15.6456126 C33.8201639,15.5652028 32.4901728,15.5335 31.1719923,15.3925667 C29.8258696,15.2484632 28.4875246,15.0181857 27.1537886,14.780703 C26.7516514,14.7089394 26.366798,14.5074826 25.9900104,14.3313881 C24.6234351,13.6932975 24.1057843,12.43902 23.7364863,11.1083677 C23.5348416,10.3815093 23.4288341,9.62813581 23.2764482,8.88744347 C23.1036099,8.04818429 22.4039026,7.56111423 21.5783114,7.74556679 C21.0465454,7.86459634 20.6236676,8.1133191 20.5421455,8.75486819 C20.4666727,9.34828668 20.2569622,9.92556557 20.1912836,10.5192723 C20.0875806,11.4568101 19.6762253,12.2649429 19.2524833,13.0756696 C18.8777121,13.7930171 18.2022022,14.1498176 17.5168982,14.4760681 C16.4375226,14.9902296 15.2648144,15.1334685 14.0946988,15.241258 C12.3038054,15.4064007 10.5091671,15.5323472 8.63646355,15.6810621 C8.48177323,16.0058715 8.33802933,16.4327063 8.09144661,16.7883539 C7.8615716,17.1195039 7.56083287,17.4371082 7.22149356,17.6472112 C6.79314251,17.9120735 6.30861899,17.8518382 5.90561757,17.518959 C5.52335674,17.2033722 5.49627873,16.8186157 5.8079639,16.4269422 C5.99837415,16.1877302 6.20088309,15.9577409 6.45265095,15.6582937 C5.66047517,15.4689416 4.95385436,15.3378074 4.27287125,15.1253987 C3.72987076,14.9562211 3.20703474,14.7092276 2.69485708,14.4573346 C2.13543694,14.1826732 1.8571672,13.6907036 1.78227058,13.0808573 C1.60972029,11.6818999 1.40893973,10.2849599 1.28190354,8.88167933 C1.21881754,8.18537088 1.04741951,7.57754203 0.601208492,7.0267782 C-0.181461186,6.06128429 -0.0135199191,4.92257789 0.0913353488,3.80462241 C0.0959443716,3.75533899 0.119277549,3.68933955 0.156437795,3.66484195 C0.955527117,3.1336762 0.969354185,2.08517863 1.63622217,1.44478238 C2.01128139,1.08452345 2.36992098,0.77902389 2.88065831,0.71158342 C4.04443656,0.557680809 5.21138351,0.427699391 6.37631402,0.283019408 C7.09762608,0.193675196 7.81778588,0.0948201479 8.53852182,0 C10.733857,0 12.9291921,0 15.1245273,0 C15.2193003,0.0386197563 15.3120569,0.104619191 15.4088464,0.111247955 C16.5138596,0.187046432 17.5454165,0.550763838 18.5861914,0.889407223 C19.3567624,1.14014743 19.8121915,1.64739199 19.9749476,2.42843333 C20.0547413,2.8108842 20.1178273,3.19679356 20.1875388,3.58126188 C20.2327648,3.83084926 20.3278259,4.03749378 20.6251079,4.0383584 C21.5826324,4.04124047 22.5401568,4.03951123 23.5169816,4.03951123 C23.6483388,3.39997959 23.7534821,2.83855209 23.8808063,2.28202411 C24.0248383,1.65373255 24.397305,1.18770161 25.0065602,0.979904264 C25.7932627,0.71158342 26.5946566,0.483611575 27.3977788,0.268032637 C27.8460062,0.147562054 28.3103653,0.0873267624 28.7675227,0 C30.9628579,0 33.158193,0 35.3538163,0 Z" id="Fill-613"></path>
                        <path d="M8.3106721,13.8226245 L8.2977943,13.8119381 C8.53222879,13.8405313 8.76841934,13.9026276 9.00080509,13.8916525 C10.1922942,13.8359102 11.3855394,13.7899878 12.5732237,13.685435 C13.8112486,13.576261 15.0460539,13.4228975 16.2770545,13.2519161 C16.870604,13.1693135 17.4132276,12.8992668 17.7243435,12.3750584 C18.0992631,11.743409 18.3837454,11.0667036 18.464817,10.3201038 C18.6029607,9.04611857 18.7753476,7.77559919 18.9047109,6.50074751 C18.9562221,5.99300188 19.0472448,5.47399225 18.9061743,4.95296089 C18.2956496,4.75887382 17.6306868,5.03671871 16.9150909,4.58933645 C17.690393,4.54399171 18.2830644,4.5093333 18.9292958,4.4717867 C18.9292958,4.17228031 18.9474418,3.94093545 18.9257837,3.71305644 C18.8537851,2.95490382 18.7598357,2.84399692 18.0070698,2.65077631 C17.4176178,2.49943461 16.8278731,2.3394283 16.2287627,2.23516427 C15.4236076,2.09508654 14.6123062,1.93912372 13.7986634,1.90562059 C10.8751103,1.78547145 7.98170286,2.28917361 5.06751537,2.36542211 C4.09524151,2.39083827 3.51749659,2.78536645 3.25759919,3.67868685 C3.17857633,3.95046651 3.07526125,4.23235488 3.07994409,4.50817802 C3.09604134,5.44857609 3.13730883,6.38984062 3.20169783,7.32850576 C3.3050129,8.84105634 3.42969342,10.3527405 3.55671535,11.8638469 C3.58510504,12.2003223 3.61203135,12.5521051 3.73290706,12.8614314 C3.81749079,13.0771799 4.02821842,13.3301863 4.23865337,13.3992143 C5.5600912,13.8324444 6.91986976,13.9976494 8.3106721,13.8226245 Z M9.63796348,14.3139074 C8.71193263,14.3139074 7.40893346,14.3794695 6.11705603,14.2902241 C5.3104375,14.2344819 4.51669676,13.959814 3.72441942,13.7561959 C3.19584428,13.6201616 3.07672464,13.1571831 3.0334084,12.7109561 C2.94970271,11.8522941 2.91282537,10.989011 2.86131417,10.1274608 C2.77643777,8.71830782 2.64590371,7.30973246 2.63039182,5.90000182 C2.62044079,4.99252924 2.72463389,4.07350385 2.884143,3.17845053 C3.02345738,2.39719231 3.74022399,1.89868891 4.54303772,1.83688142 C6.47119552,1.68842792 8.39642654,1.48885327 10.3272184,1.39123209 C11.833921,1.31527242 13.3599402,1.23989039 14.8540576,1.38921035 C16.1851538,1.52206757 17.4878603,1.95009888 18.795835,2.27588789 C19.2216804,2.38217367 19.4005062,2.7385776 19.5006018,3.14841325 C19.7783526,4.28636423 19.7678162,5.43500155 19.6226483,6.58161713 C19.4514321,7.9312732 19.2866548,9.28526157 19.0191477,10.6175884 C18.877492,11.3220205 18.5728149,12.0085458 18.2499919,12.6586797 C17.9704851,13.2218788 17.4111789,13.5485343 16.8024102,13.6767704 C15.8714038,13.8734568 14.928983,14.0539693 13.9821721,14.1319508 C12.6624903,14.2405471 11.3343209,14.2486341 9.63796348,14.3139074 Z" id="Fill-614"></path>
                        <path d="M35.911661,13.5733393 C36.0769821,13.8303851 36.3293451,13.8522859 36.6071196,13.8462344 C37.6676866,13.8228928 38.7133573,13.7442229 39.7450078,13.4482744 C40.2891654,13.2923755 40.5532119,13.0039193 40.6116292,12.4797417 C40.6376249,12.2463256 40.6677099,12.0131977 40.6875718,11.7792053 C40.8099561,10.3228042 40.9446081,8.86755581 41.0456702,7.41000206 C41.115771,6.39593887 41.2194618,5.37409514 41.1616286,4.36406629 C41.0830573,2.98719958 40.4352088,2.44140939 39.0618168,2.34429677 C37.3206876,2.22124904 35.5792662,2.09503145 33.8401816,1.94431959 C31.2590108,1.72041305 28.7155192,1.85354667 26.2289845,2.63246477 C25.9281351,2.72640754 25.5568928,2.74369762 25.4669301,3.10563663 C25.3635314,3.52203939 25.3331544,3.95630857 25.2618852,4.44648234 C25.9760374,4.49057204 26.5678052,4.52716938 27.159573,4.56376672 C27.1578204,4.62774001 27.1560679,4.69142514 27.1546075,4.75539844 C26.5418094,4.80640417 25.9293035,4.85769808 25.3410407,4.90697481 C25.304822,5.0061046 25.2674348,5.056534 25.2724003,5.10235271 C25.4835791,7.0215516 25.6240728,8.9522772 25.9392344,10.8550505 C26.1577153,12.1737073 26.8902689,13.1771083 28.4228482,13.2958335 C28.6579781,13.3139881 28.8875583,13.4056255 29.1229802,13.4223392 C31.1801474,13.5698812 33.2376066,13.7142534 35.2962341,13.8384538 C35.4720704,13.849116 35.6572534,13.706761 35.837763,13.6355836 C35.8622983,13.6148355 35.8871257,13.5940874 35.911661,13.5733393 Z M34.3002183,14.2767574 C32.5567523,14.1787802 30.9441413,14.1096199 29.3356194,13.986284 C28.7333365,13.9401771 28.136019,13.7891771 27.5457117,13.6476866 C26.7602903,13.4598011 26.1746564,13.0157342 25.8186026,12.2751424 C25.4862078,11.5849801 25.2487413,10.8809856 25.1593627,10.1144587 C25.005433,8.79263213 24.7998039,7.47656887 24.6146209,6.15848843 C24.4750034,5.16315616 24.5541589,4.17790976 24.7539463,3.19900306 C24.8477062,2.74023961 25.0483698,2.33968609 25.5536799,2.22268988 C26.9156805,1.90772225 28.2700869,1.45443399 29.6504889,1.34925267 C31.2739072,1.22505226 32.922737,1.38325649 34.5581309,1.46740155 C36.1952772,1.5515466 37.8286265,1.76911344 39.4651886,1.78553902 C40.4822348,1.79591307 41.321108,2.59903729 41.4735773,3.52924359 C41.6996524,4.90985649 41.6479531,6.28729953 41.5766839,7.66791242 C41.5054147,9.04881348 41.3982189,10.4276974 41.3070878,11.8077339 C41.3021223,11.8858275 41.3097166,11.9653618 41.2992015,12.0425908 C41.0833494,13.6373126 41.0342788,13.6010034 39.6086032,13.9718756 C37.810225,14.4395723 35.9916928,14.3528337 34.3002183,14.2767574 Z" id="Fill-615"></path>
                        <path d="M43.3906475,5.29012998 C43.0071386,5.46094417 42.7866453,5.62964627 42.5502401,5.64654289 C42.2693466,5.6663436 42.0793781,5.4757287 42.075806,5.22280754 C42.0725587,4.9730545 42.367091,4.71511716 42.6333716,4.79326399 C42.8668542,4.86164247 43.045457,5.05489747 43.3906475,5.29012998" id="Fill-616"></path>
                        <path d="M1.7656641,4.34458168 C1.96718933,4.71489858 2.13844595,4.91287076 2.18544196,5.14736208 C2.23748273,5.4061995 1.94063792,5.68649992 1.70618893,5.64357391 C1.47200546,5.6006479 1.26516994,5.43150662 1.32544165,5.13230595 C1.37270317,4.89973668 1.55511139,4.70689 1.7656641,4.34458168" id="Fill-617"></path>
                        <path d="M9.40312436,3.99150243 C8.56250881,3.72592399 7.71381597,3.78522791 6.85243024,3.81645558 C6.00402587,3.84682378 5.15100591,3.74597845 4.29308187,3.56004489 C4.42347248,3.53368759 4.55386309,3.48326493 4.68396522,3.48498389 C6.19816941,3.50561134 7.71266207,3.52280088 9.22628931,3.56778019 C9.61861503,3.57923988 9.94891867,3.54572028 10.1880643,3.19648605 C10.2483555,3.1082464 10.3657647,3.05868321 10.5189449,3.04120718 C8.82559782,5.73881951 6.86858483,8.27026626 5.76805349,11.2959124 C5.70660836,11.273566 5.64516323,11.2509331 5.5837181,11.2283002 C5.66276019,10.9228993 5.69074225,10.5920006 5.8297871,10.3161084 C6.42519907,9.13490029 7.0474392,7.96658433 7.6734295,6.8008468 C7.87738118,6.4206714 8.1220078,6.06198293 8.41134802,5.59041645 C7.52371108,5.59041645 6.77569594,5.62279009 6.03200793,5.58096221 C5.33793757,5.54199924 4.60723092,5.76489032 3.94460432,5.27441535 C4.13297836,5.24662559 4.32106393,5.20021382 4.51001492,5.19419748 C5.65987544,5.15895892 6.80944749,5.13231512 7.95930802,5.10366589 C8.90665924,5.07960052 9.03733832,4.98190662 9.40312436,3.99150243" id="Fill-618"></path>
                        <path d="M16.2102819,4.18378375 C16.2751003,4.70889247 15.8339833,4.97543355 15.5840953,5.33964941 C15.5840953,5.33936464 15.5245562,5.28924581 15.5245562,5.28924581 C15.5368746,5.16565731 15.5494864,5.04206882 15.567964,4.85867944 C13.8595158,4.97002299 12.1997546,5.0867771 10.538527,5.17989562 C10.1595888,5.20125308 9.97275937,5.41881439 9.80030142,5.68535547 C8.86908714,7.12427865 7.94021924,8.56434089 7.00988485,10.0032641 C6.91749666,10.1459319 6.82041574,10.285752 6.72568119,10.426996 C6.6752343,10.40393 6.62478742,10.3808639 6.57434054,10.3577979 C6.72597448,10.047118 6.84798555,9.71821318 7.0345217,9.42917558 C7.8513506,8.1642445 8.68079122,6.90671734 9.51873742,5.6548855 C9.82171201,5.20239214 10.1534296,4.76698475 10.4874936,4.33499456 C10.6100912,4.1766646 10.7778564,4.05079798 10.9247976,3.91012352 C10.8464877,4.14391649 10.7681777,4.37770947 10.6617113,4.69579322 C11.0280378,4.67358147 11.3140012,4.66019746 11.5993781,4.6379857 C11.9152577,4.61321105 12.2296708,4.56309222 12.5458437,4.55369493 C13.443329,4.52664215 14.3428673,4.54031093 15.2380062,4.48307294 C15.5673774,4.46200024 15.8864833,4.28800815 16.2102819,4.18378375" id="Fill-619"></path>
                        <path d="M14.9018386,7.02244933 C14.8760433,7.39663372 14.7488668,7.69881416 14.5011126,8.01663481 C14.1609755,8.45278979 13.9726104,9.00226244 13.7158579,9.50156842 C13.5091961,9.90349202 13.2980351,10.3027597 13.0886738,10.703503 L13.0436821,10.6672059 C13.2848376,9.99438223 13.525693,9.32185368 13.7902441,8.58381335 C12.7446374,9.20056836 12.271325,10.2399038 11.6183457,11.1142795 C10.967766,11.9854091 10.3930723,12.911722 9.72539574,13.9026614 C9.52203334,13.4319799 9.73679363,13.1967867 9.89426451,12.9669053 C10.6828187,11.8148424 11.4503768,10.646549 12.2932209,9.53343901 C12.7431377,8.93911145 13.3283295,8.44305156 13.8562319,7.90626812 C14.1729733,7.5843161 14.4972134,7.26944644 14.818154,6.95133069 C14.8460489,6.97493854 14.8739437,6.99854639 14.9018386,7.02244933" id="Fill-620"></path>
                        <path d="M13.1486811,12.1206817 C13.1967082,11.9097882 13.2049495,11.6797737 13.2987303,11.4913755 C14.3087205,9.45976819 15.3309307,7.43434709 16.354846,5.40976956 C16.3986103,5.32260025 16.490686,5.25933221 16.5335978,5.21349802 C17.007901,5.21349802 17.4441236,5.21349802 17.9698641,5.21349802 C17.5109068,5.79275215 16.5773621,5.29673065 16.2837999,6.20497862 C16.8476212,6.08322278 17.3199351,5.98143152 17.7925333,5.87964026 C17.810721,5.94487665 17.829193,6.01039423 17.8473808,6.07591181 C17.4745313,6.20413505 17.1096389,6.36835078 16.7268429,6.45270818 C16.1456865,6.58036904 15.7978451,6.91273718 15.5548678,7.43997091 C14.9040862,8.8532385 14.2206235,10.2513218 13.5482439,11.6547477 C13.4652621,11.8276803 13.3694921,11.9949892 13.2799741,12.1648287 C13.2362098,12.1502068 13.1924454,12.1353036 13.1486811,12.1206817" id="Fill-621"></path>
                        <path d="M16.2614898,4.34458168 C15.2338733,4.08278356 14.2056797,3.86620249 13.1293076,4.00156566 C12.4092259,4.09199977 11.6816433,4.12195247 10.9572342,4.17897781 C11.0916726,3.91170755 11.2261109,3.6447253 11.3115052,3.47566535 C11.6617372,3.52520251 11.8925326,3.57589169 12.1253475,3.58769997 C13.4296301,3.65451753 14.7344897,3.7086628 16.0384838,3.7772084 C16.2112918,3.78613661 16.381215,3.85295418 16.654996,3.91689167 C16.4850729,4.101792 16.3734256,4.22304284 16.2614898,4.34458168" id="Fill-622"></path>
                        <path d="M11.3955236,9.46147835 C11.9116235,8.76791537 12.3985603,8.05034665 12.9550174,7.38917693 C13.3111617,6.96603988 13.7229811,6.54521663 14.4635492,6.51687253 C13.430171,7.57890893 12.4671969,8.56863893 11.5045173,9.5580797 C11.4682843,9.52597566 11.4317566,9.49387162 11.3955236,9.46147835" id="Fill-623"></path>
                        <path d="M18.8464429,4.34458168 C18.3330564,4.34458168 17.9474152,4.34458168 17.5315748,4.34458168 C17.7833239,3.76636439 17.9687951,3.76424483 18.8464429,4.34458168" id="Fill-625"></path>
                        <path d="M14.9018386,6.45539265 C15.1742251,6.04142813 15.4466116,5.62746362 15.718704,5.21349911 C15.718704,5.21324294 15.7784173,5.25832819 15.7784173,5.25858435 C15.5136787,5.67818452 15.248646,6.09752852 14.9836133,6.51687253 C14.9565512,6.49637923 14.9291949,6.47588594 14.9018386,6.45539265" id="Fill-626"></path>
                        <path d="M11.3955236,9.19849719 C11.2860874,9.31843276 11.1766511,9.43836832 11.0672149,9.5580797 C11.0304639,9.53902452 10.9939852,9.51996934 10.9572342,9.50068998 C11.0699372,9.37514995 11.182368,9.24938574 11.2947987,9.12362154 C11.3282829,9.14872954 11.3620394,9.17361337 11.3955236,9.19849719" id="Fill-628"></path>
                        <path d="M27.9984362,4.21955077 C27.8696024,4.11659135 27.7407686,4.01363193 27.6122303,3.91067251 C27.6267093,3.85467192 27.6411883,3.79867133 27.6556673,3.74267074 C29.4156083,3.54491865 31.1835274,3.43962587 33.1189896,3.48687637 C34.6815429,5.79748409 36.6116863,8.06025798 37.6928857,10.8614542 C37.5962604,10.7255361 37.4928387,10.5939931 37.4041916,10.4534082 C36.4571448,8.94955903 35.5086206,7.4468765 34.5698476,5.93836058 C34.324886,5.54518976 34.015803,5.36872957 33.5249934,5.34889602 C32.057588,5.28968707 30.5928421,5.17126915 29.1275051,5.06918474 C28.8949541,5.0531429 28.6928387,5.05139288 28.6437873,5.33839591 L28.6479242,5.33489588 C28.236897,5.06743472 27.9895715,4.70722258 27.9922309,4.20584229 C28.2549219,4.56984613 28.6632897,4.63722184 29.0592468,4.65822207 C30.5449726,4.73668123 32.0318804,4.7880151 33.5181972,4.84372402 C33.5489282,4.8448907 33.5823186,4.77401496 33.6384618,4.70955594 C33.4848068,4.25221778 33.1860659,3.97775655 32.6592065,3.96579809 C32.1790346,3.95529798 31.6917709,3.97454818 31.2204637,3.90163075 C30.1126701,3.73012894 29.0598378,3.99584008 27.9984362,4.21955077" id="Fill-629"></path>
                        <path d="M35.8847589,5.60272412 C36.4829387,6.62290405 37.0315052,7.51735152 37.5386331,8.43528433 C38.0333578,9.33059103 38.4888991,10.2485238 38.587844,11.2959124 C37.8492807,9.89910791 37.1603309,8.47223077 36.3586233,7.11409118 C35.550714,5.74478174 34.6311746,4.44363705 33.7482814,3.09408966 C33.8593478,3.06430338 33.9332041,3.03136663 33.9419429,3.04396852 C34.3518173,3.64943184 34.9175793,3.59845149 35.5608622,3.56436912 C36.9345335,3.49133546 38.3144065,3.53773331 39.6917424,3.54031097 C39.7529134,3.54031097 39.8135207,3.59215055 39.997034,3.67606765 C38.9495145,3.83416403 38.0277199,3.95531398 37.0876021,3.84819795 C36.3490389,3.76370804 35.6220333,3.81841168 34.8640193,4.0489689 C35.1642369,4.73663089 35.4940533,5.20433269 36.3321252,5.16881829 C37.4768983,5.12041559 38.6270273,5.2049055 39.7749012,5.23898788 C39.9429102,5.24414319 40.1100736,5.28653135 40.322622,5.31832248 C40.1331889,5.69637905 39.8284611,5.63537446 39.5719372,5.63537446 C38.6532435,5.63594728 37.7348316,5.61446679 36.8164198,5.60329694 C36.5452374,5.59986006 36.274055,5.60272412 35.8847589,5.60272412" id="Fill-630"></path>
                        <path d="M30.6709922,8.11613469 C31.0209904,9.00756632 31.3473775,9.83898938 31.6737647,10.6701225 C31.6340427,10.6909951 31.5940429,10.7118676 31.5543209,10.7324503 C31.4793213,10.5909808 31.3995995,10.4518305 31.3298776,10.3074621 C30.8471024,9.30731926 30.5823816,8.18773912 29.8271078,7.33399403 C29.7715526,7.27108649 29.8312745,7.09714862 29.8384967,6.95133069 C31.4512659,8.08279659 34.4498611,12.10511 34.6248602,13.4682032 C33.8131978,12.5651757 33.3718113,11.5372029 32.7334813,10.6602661 C32.1034846,9.79405543 31.6287649,8.79188335 30.6709922,8.11613469" id="Fill-631"></path>
                        <path d="M30.9361645,12.5992869 C30.8409119,12.3862724 30.7456592,12.1732578 30.6501265,11.9602433 C29.9855994,10.4789321 29.3079051,9.00414772 28.6641095,7.51274942 C28.4430674,7.00098056 28.1119245,6.71528003 27.604284,6.58474189 C27.2008612,6.48090473 26.8134072,6.30705166 26.4189493,6.16434973 C26.4365991,6.09700391 26.4542488,6.02936142 26.4718986,5.96201561 C26.9450799,6.07030293 27.4182613,6.17888693 27.960921,6.30289817 C27.7452019,5.29478768 26.7556953,5.90357012 26.2973621,5.21349802 C26.8554304,5.24731927 27.310962,5.25265946 27.7586493,5.31792854 C27.8707112,5.3342458 27.9858548,5.52945966 28.051411,5.66771143 C28.9851668,7.63765069 29.9166813,9.60877667 30.8319469,11.5885063 C30.9706235,11.8884474 31.0252537,12.2322967 31.1185452,12.555972 C31.0577516,12.5705092 30.996958,12.5850464 30.9361645,12.5992869" id="Fill-632"></path>
                        <path d="M33.2821885,9.99253787 C33.0181924,9.70826697 32.7462131,9.4321613 32.4915766,9.1382131 C31.7337234,8.26302163 30.9824769,7.38057219 30.2419665,6.51687253 C31.1688433,6.61062144 32.4527618,8.04225806 33.3099921,9.96501803 L33.2821885,9.99253787" id="Fill-633"></path>
                        <path d="M27.1681539,4.34458168 C26.7319966,4.34458168 26.2955347,4.34458168 25.8590728,4.34458168 C26.2921843,4.06256726 26.7173768,3.69387488 27.1739409,4.07003235 C27.1721134,4.16168704 27.1702859,4.252927 27.1681539,4.34458168" id="Fill-635"></path>
                        <path d="M28.9270984,5.21730999 C29.219396,5.65060339 29.5113794,6.08389679 29.8036771,6.51687253 C29.2618263,6.15124151 29.1254208,5.91267601 28.9314985,5.21349802 L28.9270984,5.21730999" id="Fill-636"></path>
                        <path d="M33.3409265,9.5580797 C33.4769157,9.67563321 33.6125985,9.79318672 33.7482814,9.91074022 C33.7023391,9.93792447 33.6563969,9.96535362 33.6107609,9.99253787 C33.5106067,9.85514721 33.4101462,9.71775655 33.3099921,9.58036589 L33.3409265,9.5580797" id="Fill-637"></path>
                    </g>
                </g>
            </g>
        </g>
    </g>
</svg>