<?xml version="1.0" encoding="UTF-8" standalone="no"?>
<svg width="90px" height="124px" viewBox="0 0 90 124" version="1.1" xmlns="http://www.w3.org/2000/svg" xmlns:xlink="http://www.w3.org/1999/xlink">
    <!-- Generator: Sketch 50.2 (55047) - http://www.bohemiancoding.com/sketch -->
    <title>launch</title>
    <desc>Created with Sketch.</desc>
    <defs></defs>
    <g id="Page-1" stroke="none" stroke-width="1" fill="none" fill-rule="evenodd">
        <g id="launch" transform="translate(-5.000000, 2.000000)">
            <polygon id="Polygon-Copy-7" stroke="#FEFEFE" stroke-width="2" points="50.2325581 0 93.7352296 30 93.7352296 90 50.2325581 120 6.72988669 90 6.72988669 30"></polygon>
            <path d="M36.550308,75.4946118 L46.8172485,75.4946118 L46.8172485,77.0972644 L53.0800821,77.0972644 L53.0800821,75.4946118 L63.3983573,75.4946118 C64.835729,75.4946118 66.0164271,76.7656811 66.0164271,78.3130699 L55.4928131,78.3130699 C55.0821355,79.252556 54.2094456,79.9157226 53.1827515,79.9157226 L46.8172485,79.9157226 C45.7905544,79.9157226 44.9178645,79.252556 44.5071869,78.3130699 L33.9322382,78.3130699 C33.9322382,76.7656811 35.1129363,75.4946118 36.550308,75.4946118 Z M71.4065708,75.7709312 L71.4065708,52.6706272 C71.4065708,49.9626969 69.3531828,47.7521415 66.8377823,47.7521415 L58.8809035,47.7521415 C58.8809035,49.2995303 60.0616016,50.5705996 61.4989733,50.5705996 L66.8377823,50.5705996 C67.9158111,50.5705996 68.788501,51.5100857 68.788501,52.6706272 L68.788501,78.5893893 L72.3819302,78.5893893 L72.3819302,79.5841393 C72.3819302,80.9657364 71.3039014,82.126278 70.0205339,82.126278 L29.9794661,82.126278 C28.6960986,82.126278 27.6180698,80.9657364 27.6180698,79.5841393 L27.6180698,78.5893893 L31.211499,78.5893893 L31.211499,52.6706272 C31.211499,51.5100857 32.0841889,50.5705996 33.1622177,50.5705996 L38.9117043,50.5705996 C40.349076,50.5705996 41.5297741,49.2995303 41.5297741,47.7521415 L33.1622177,47.7521415 C30.6468172,47.7521415 28.5934292,49.9626969 28.5934292,52.6706272 L28.5934292,75.7709312 L25,75.7709312 L25,79.6394032 C25,82.6236529 27.2073922,85 29.9794661,85 L70.0205339,85 C72.7926078,85 75,82.6236529 75,79.6394032 L75,75.7709312 L71.4065708,75.7709312 Z M41.7351129,69.9129594 C42.5564682,69.4708483 43.0698152,68.5866261 43.0698152,67.5918762 L43.0698152,66.707654 C40.0410678,66.707654 37.3203285,69.5261122 37.3203285,73.0077369 L39.9383984,73.0077369 C39.9897331,71.6261398 40.7597536,70.4655982 41.7351129,69.9129594 Z M56.6221766,66.707654 L56.6221766,67.4813484 C56.6221766,68.5313623 57.1868583,69.4708483 58.110883,69.9129594 C59.1889117,70.4655982 59.9075975,71.6261398 59.9075975,73.0077369 L62.5256674,73.0077369 C62.5256674,69.5261122 59.8562628,66.707654 56.6221766,66.707654 Z M48.7679671,60.1312517 L48.7679671,66.0444874 C45.687885,66.6523902 43.3778234,69.5261122 43.3778234,73.0077369 L44.0451745,73.0077369 C45.0718686,73.0077369 45.9445585,72.3445703 46.3039014,71.3498204 C46.9199179,69.8024316 48.3059548,68.7524178 49.9486653,68.7524178 C51.5913758,68.7524178 53.0287474,69.8024316 53.5934292,71.3498204 C54.0041068,72.3445703 54.8767967,73.0077369 55.8521561,73.0077369 L56.5195072,73.0077369 C56.5195072,69.63664 54.312115,66.7629179 51.3347023,66.0997513 L51.3347023,62.9497099 C51.386037,61.3470572 50.2053388,60.1312517 48.7679671,60.1312517 Z M41.37577,62.9497099 L44.0451745,62.9497099 C45.4825462,62.9497099 46.6632444,61.6786405 46.6632444,60.1312517 L43.9938398,60.1312517 L43.9938398,59.3575573 C43.9938398,59.025974 44.0965092,58.7496546 44.2505133,58.5285991 L45.9445585,55.8759326 C46.4065708,55.1575021 46.6632444,54.3285438 46.6632444,53.4995855 L46.6632444,44.5468361 C46.6632444,43.8284056 46.9199179,43.0547112 47.3819302,42.5020724 L50.2053388,38.9651838 L53.0287474,42.5020724 C53.4907598,43.0547112 53.7474333,43.7731418 53.7474333,44.5468361 L53.7474333,53.4995855 C53.7474333,54.2732799 53.9527721,55.0469743 54.3634497,55.7101409 L55.9548255,58.4180713 C56.1088296,58.6391268 56.1601643,58.9154463 56.1601643,59.1917657 L56.1601643,60.020724 L53.4394251,60.020724 C53.4394251,61.5681127 54.6201232,62.8391821 56.0574949,62.8391821 L58.7782341,62.8391821 L58.7782341,59.1917657 C58.7782341,58.3628074 58.5728953,57.589113 58.1622177,56.8706825 L56.5708419,54.1627521 C56.4681725,53.9416966 56.3655031,53.7206411 56.3655031,53.4443216 L56.3655031,44.6021 C56.3655031,43.165239 55.9034908,41.7836419 55.0308008,40.7336281 L50.6160164,35.2072396 C50.4106776,34.9309201 50,34.9309201 49.7946612,35.2072396 L45.3798768,40.7336281 C44.5071869,41.8389058 44.0451745,43.165239 44.0451745,44.6021 L44.0451745,53.4995855 C44.0451745,53.7759049 43.9425051,54.0522244 43.8398357,54.2732799 L42.1457906,56.9259464 C41.6837782,57.6443769 41.4271047,58.5285991 41.4271047,59.4128212 L41.4271047,62.9497099 L41.37577,62.9497099 Z" id="launch1" fill="#FFFFFF" fill-rule="nonzero"></path>
        </g>
    </g>
</svg>