<?xml version="1.0" encoding="UTF-8" standalone="no"?>
<svg width="51px" height="49px" viewBox="0 0 51 49" version="1.1" xmlns="http://www.w3.org/2000/svg" xmlns:xlink="http://www.w3.org/1999/xlink">
    <!-- Generator: Sketch 50.2 (55047) - http://www.bohemiancoding.com/sketch -->
    <title>Shape</title>
    <desc>Created with Sketch.</desc>
    <defs></defs>
    <g id="Page-1" stroke="none" stroke-width="1" fill="none" fill-rule="evenodd">
        <g id="MOCKUP" transform="translate(-964.000000, -4749.000000)" fill="#00A69E" fill-rule="nonzero">
            <g id="ABOUT" transform="translate(196.000000, 4144.000000)">
                <g id="social" transform="translate(610.000000, 605.000000)">
                    <path d="M208.474576,48.6433034 L208.474576,30.1525456 C208.474576,20.2465556 203.186512,15.6349822 196.135759,15.6349822 C190.444341,15.6349822 187.897177,18.7665328 186.474322,20.961159 L186.474322,16.3940498 L175.755272,16.3940498 C175.898193,19.4207918 175.755272,48.6433034 175.755272,48.6433034 L186.474322,48.6433034 L186.474322,30.6321238 C186.474322,29.6697914 186.544195,28.7074589 186.82686,28.0182637 C187.601807,26.0935988 189.364496,24.0990615 192.324541,24.0990615 C196.205631,24.0990615 197.755527,27.0559312 197.755527,31.3911914 L197.755527,48.6464794 L208.474576,48.6433034 Z M164.46454,11.9920933 C168.202709,11.9920933 170.530728,9.51480184 170.530728,6.41818748 C170.460856,3.2548768 168.202709,0.847457627 164.537588,0.847457627 C160.872467,0.847457627 158.474576,3.2548768 158.474576,6.41818748 C158.474576,9.51480184 160.802595,11.9920933 164.40102,11.9920933 L164.46454,11.9920933 Z M169.822477,48.6433034 L169.822477,16.3940498 L159.103427,16.3940498 L159.103427,48.6433034 L169.822477,48.6433034 Z" id="Shape"></path>
                </g>
            </g>
        </g>
    </g>
</svg>