<?xml version="1.0" encoding="UTF-8" standalone="no"?>
<svg width="57px" height="29px" viewBox="0 0 57 29" version="1.1" xmlns="http://www.w3.org/2000/svg" xmlns:xlink="http://www.w3.org/1999/xlink">
    <!-- Generator: Sketch 50.2 (55047) - http://www.bohemiancoding.com/sketch -->
    <title>marker</title>
    <desc>Created with Sketch.</desc>
    <defs></defs>
    <g id="Page-1" stroke="none" stroke-width="1" fill="none" fill-rule="evenodd">
        <g id="MOCKUP" transform="translate(-431.000000, -237.000000)" fill="#161715">
            <g id="HERO">
                <g id="Hero-IMG" transform="translate(325.000000, 126.000000)">
                    <path d="M143.482852,127.040788 C142.448512,129.25237 141.579474,131.538695 140.530691,133.746641 C139.623136,135.657635 138.661818,137.547216 137.863395,139.504268 C137.908331,139.394376 137.953268,139.284484 137.998204,139.174188 C139.099948,136.473747 140.440016,133.907843 141.565432,131.219523 C142.100656,129.941217 142.575297,128.635438 143.076017,127.340164 C143.554269,126.332953 144.026101,125.323318 144.503951,124.317319 C145.301171,122.638634 146.148944,120.986613 146.925301,119.297424 C146.780862,119.814968 146.637628,120.332916 146.484764,120.848036 C145.832785,123.046285 144.447781,124.977076 143.482852,127.040788 Z M131.673807,153.132929 C131.703096,153.064247 131.73399,152.995968 131.761273,152.926073 C132.009627,152.5867 132.213847,152.189553 132.387173,151.772609 C132.242734,152.188341 132.029688,152.810929 131.673807,153.132929 Z M120.820464,149.675363 C120.135986,149.144487 120.429276,148.442307 120.745837,147.83386 C120.749448,147.882746 120.749448,147.93244 120.756269,147.980921 C120.722968,148.10455 120.692074,148.228987 120.649545,148.351 C120.424863,148.992577 120.887066,149.277004 121.338436,149.678999 C121.46482,149.791316 121.587993,149.901612 121.709964,150.010696 C121.407445,149.961002 121.106532,149.897572 120.820464,149.675363 Z M127.757119,128.072241 C127.875879,127.925179 128.005874,127.787005 128.140683,127.652872 C127.904767,128.283137 127.670055,128.914613 127.425312,129.541242 C127.366333,129.692747 127.303743,129.843041 127.24356,129.994143 L127.14807,130.082623 C127.090696,130.133529 127.100727,130.209888 127.138842,130.255137 C126.88126,130.896714 126.618061,131.535867 126.349647,132.173 C126.771327,130.788438 127.253189,129.426097 127.757119,128.072241 Z M128.796674,125.335438 C128.899386,125.230394 129.004906,125.128178 129.108019,125.023538 C128.83158,125.789552 128.551931,126.554758 128.267869,127.317943 C128.145899,127.423795 128.027941,127.53288 127.9156,127.646812 C128.206082,126.875142 128.500174,126.105088 128.796674,125.335438 Z M129.331899,123.942796 C129.409735,123.874922 129.49038,123.810683 129.569821,123.744425 C129.475936,124.007035 129.380446,124.269241 129.28616,124.531851 C129.191071,124.623563 129.094779,124.714062 129.000493,124.806178 C129.111229,124.518519 129.221965,124.230859 129.331899,123.942796 Z M129.544544,123.380406 C129.625189,123.300411 129.70463,123.218396 129.785275,123.137997 C129.751573,123.232941 129.71787,123.327884 129.684168,123.422828 C129.611949,123.481006 129.536119,123.533932 129.464702,123.593323 C129.491584,123.52262 129.517663,123.451109 129.544544,123.380406 Z M130.472962,120.841976 L130.549595,120.815311 L130.645085,120.725619 C130.403151,121.405174 130.160012,122.084728 129.918078,122.764686 C129.841044,122.842257 129.764813,122.920637 129.687378,122.998208 C129.956194,122.281888 130.221399,121.564356 130.472962,120.841976 Z M130.81159,119.859814 C131.111701,118.952798 131.407399,118.044571 131.705102,117.136748 C131.762075,117.099175 131.817443,117.059177 131.874015,117.021604 C131.755656,117.428043 131.637698,117.834483 131.517332,118.240519 C131.488846,118.337079 131.458755,118.433638 131.429466,118.529794 C131.366475,118.581912 131.301477,118.631606 131.238887,118.683724 C131.156236,118.752407 131.234875,118.878056 131.320736,118.840482 C131.164261,119.272375 131.010193,119.705884 130.855323,120.138585 C130.789523,120.194743 130.723322,120.250093 130.65672,120.309483 C130.708878,120.159997 130.761839,120.010512 130.81159,119.859814 Z M129.986285,121.184177 C129.787682,121.738487 129.583864,122.29118 129.37844,122.843066 C129.251254,122.306533 129.536921,121.728386 129.986285,121.184177 Z M132.468219,114.839111 L132.533216,114.793457 C132.34344,115.43261 132.151257,116.071359 131.96469,116.711723 C131.912933,116.746873 131.86238,116.784042 131.810623,116.818788 C132.027682,116.158222 132.244339,115.497656 132.468219,114.839111 Z M132.784378,113.913915 C132.82771,113.790286 132.867029,113.665445 132.90996,113.541412 C132.81447,113.8521 132.72219,114.163193 132.629107,114.474689 L132.581362,114.507818 C132.649168,114.30985 132.715369,114.111479 132.784378,113.913915 Z M147.411978,109.40106 C147.348586,109.545293 147.287601,109.690739 147.222603,109.834569 C147.138749,109.447117 147.068134,109.056434 147.024803,108.648782 C147.039648,108.603129 147.048876,108.553839 147.061715,108.506569 C147.177266,108.805541 147.29723,109.102896 147.411978,109.40106 Z M147.600551,109.925472 C147.525122,110.099603 147.450495,110.276562 147.372659,110.446248 C147.351795,110.369889 147.325716,110.29353 147.306458,110.217171 C147.382689,110.050313 147.451297,109.879414 147.523918,109.710536 C147.544781,109.769926 147.568854,109.828508 147.588113,109.887899 L147.600551,109.925472 Z M148.463169,114.224603 C148.438695,114.097742 148.415424,113.970073 148.389746,113.84402 C148.429467,113.543028 148.46357,113.241229 148.484835,112.938621 C148.489649,112.867918 148.497272,112.774591 148.502889,112.673587 C148.565479,113.106288 148.546622,113.53818 148.487242,114.004818 C148.478816,114.068653 148.471193,114.145416 148.463169,114.224603 Z M135.689597,143.876122 C135.736138,143.753301 135.781877,143.627652 135.830825,143.508872 C135.922704,143.283835 136.02341,143.063243 136.1189,142.839822 C136.071556,142.989712 136.023811,143.139197 135.976467,143.288683 C135.880576,143.484227 135.785488,143.680174 135.689597,143.876122 Z M121.465221,146.218201 C121.496115,146.270319 121.569939,146.301024 121.625708,146.244058 C122.083096,145.7754 122.555731,145.325326 123.033983,144.882121 C122.975405,145.218666 122.930067,145.554807 122.895161,145.889332 C122.3479,146.33577 121.785393,146.766046 121.228502,147.197535 C121.290691,146.900988 121.357694,146.604844 121.429512,146.308701 L121.465221,146.218201 Z M130.274761,123.859973 C130.182079,124.082586 130.087793,124.30439 129.995914,124.527407 C130.045665,124.343176 130.101836,124.160965 130.153192,123.977138 C130.193314,123.937544 130.234639,123.899567 130.274761,123.859973 Z M130.69283,122.860034 C130.618203,123.037397 130.544379,123.215164 130.470154,123.392527 C130.400342,123.459593 130.332135,123.528276 130.261922,123.595343 C130.311673,123.42 130.361825,123.244657 130.412379,123.069718 C130.50506,122.999016 130.598945,122.929525 130.69283,122.860034 Z M131.159045,121.754647 C131.0455,122.022106 130.932357,122.289564 130.819213,122.557426 C130.70928,122.636209 130.599346,122.714993 130.490616,122.795392 C130.540768,122.624493 130.586908,122.451978 130.637462,122.28108 C130.811189,122.105333 130.985719,121.930798 131.159045,121.754647 Z M132.220667,119.287323 C131.924569,119.968494 131.631278,120.650876 131.339593,121.333663 C131.140188,121.533651 130.939178,121.731618 130.740976,121.932414 C130.921123,121.328007 131.105683,120.724407 131.291046,120.120404 C131.596774,119.837997 131.907316,119.560438 132.220667,119.287323 Z M133.632954,115.786932 C133.508577,116.15095 133.391822,116.516988 133.274265,116.88343 C133.230533,116.982414 133.186399,117.081398 133.142666,117.180382 C132.731016,117.494706 132.322577,117.813474 131.917748,118.136283 C132.098296,117.631667 132.279245,117.127052 132.460596,116.62284 C132.854591,116.349321 133.24618,116.071359 133.632954,115.786932 Z M134.455451,113.466265 C134.328666,113.820991 134.207498,114.177333 134.077503,114.530847 C133.961551,114.846383 133.850013,115.163939 133.739678,115.481496 C133.35812,115.755822 132.968537,116.018029 132.581763,116.283871 C132.823296,115.609569 133.058009,114.932842 133.29232,114.255712 C133.677088,113.988658 134.064664,113.72524 134.455451,113.466265 Z M133.610486,113.341829 C133.673076,113.156385 133.735265,112.971346 133.797453,112.786307 C134.077905,112.515617 134.365979,112.257451 134.661677,112.012213 L134.662078,112.012213 C134.761179,112.023525 134.860279,112.034434 134.95938,112.045746 L134.955368,112.056655 C134.830991,112.422289 134.696984,112.784287 134.568193,113.148709 C134.177407,113.405663 133.790231,113.667465 133.405062,113.932096 C133.472467,113.734936 133.544285,113.539392 133.610486,113.341829 Z M133.925843,111.515274 C133.770973,111.956459 133.620115,112.399664 133.47006,112.843677 L133.462436,112.866302 L133.426327,112.903876 C133.559531,112.473195 133.69755,112.044534 133.838779,111.616682 L133.850414,111.581128 L133.925843,111.515274 Z M134.184629,109.315004 C134.189443,109.253594 134.191851,109.188951 134.200677,109.132793 C134.197869,109.194608 134.192653,109.255614 134.184629,109.315004 Z M135.495006,107.764796 C135.391492,107.962764 135.29199,108.162348 135.196099,108.363143 C134.942529,108.469804 134.688558,108.574444 134.436593,108.683932 C134.457055,108.576464 134.486746,108.472632 134.525263,108.371628 C134.766394,108.079524 135.108232,107.90297 135.495006,107.764796 Z M137.611029,107.054133 C137.456159,107.099382 137.301289,107.14544 137.146419,107.19069 L137.218638,107.15352 C137.349435,107.120795 137.480232,107.08807 137.611029,107.054133 Z M138.012247,107.120391 C137.975335,107.179781 137.941231,107.241192 137.905523,107.30139 C137.387551,107.488853 136.872788,107.684801 136.360433,107.888021 C136.473576,107.724799 136.574683,107.560364 136.66576,107.39189 L136.750015,107.357952 C136.754028,107.395526 136.78452,107.432291 136.831463,107.417747 C137.241507,107.29129 137.652756,107.168065 138.063603,107.044032 L138.012247,107.120391 Z M139.43336,106.614159 C139.394041,106.68163 139.353919,106.749101 139.315803,106.817379 C139.147693,106.871517 138.980787,106.928484 138.813479,106.985046 C138.833941,106.894546 138.7216,106.820207 138.641757,106.871517 C138.503739,106.960401 138.38217,107.062617 138.265816,107.169277 L138.224491,107.184226 C138.272236,107.102614 138.325598,107.025447 138.377756,106.947068 C138.730828,106.8396 139.082696,106.728496 139.43336,106.614159 Z M139.51882,106.466694 C139.335463,106.526084 139.15331,106.589919 138.96875,106.647289 C139.165347,106.57699 139.358333,106.498611 139.54851,106.415384 L139.51882,106.466694 Z M140.909441,105.608564 C140.95197,105.574223 140.989684,105.533822 141.031411,105.498268 C141.181065,105.44413 141.330318,105.387164 141.47917,105.330602 C141.363619,105.514025 141.250075,105.697852 141.137734,105.882083 C140.791081,106.022276 140.442824,106.157218 140.090154,106.27923 L140.077315,106.283271 C139.997071,106.311148 139.915624,106.335793 139.834979,106.362862 C139.857046,106.32448 139.879515,106.286503 139.901983,106.248525 C140.255456,106.06995 140.594886,105.862286 140.909441,105.608564 Z M142.013191,104.474492 L141.999148,104.497521 L141.988717,104.501157 L142.013191,104.474492 Z M138.616882,110.579573 L138.646171,110.591694 C138.664226,110.59937 138.627715,110.752088 138.630523,110.827235 C138.634937,110.949248 138.807862,110.937935 138.81067,110.820771 C138.811874,110.781581 138.819898,110.746028 138.824312,110.706434 C139.005261,110.782793 139.183803,110.867233 139.358734,110.968641 C139.517215,111.060756 139.67048,111.158124 139.822943,111.254684 C139.220715,111.188021 138.669442,111.310438 138.068417,111.448611 C137.795589,111.51083 137.532791,111.535475 137.262772,111.573452 C137.717753,111.257108 138.205634,110.846224 138.616882,110.579573 Z M135.54917,111.765763 C135.618982,111.572644 135.687591,111.37912 135.752989,111.185597 C136.255715,110.835719 136.772082,110.505235 137.31493,110.207071 L137.36428,110.222424 C137.748245,110.331912 138.123785,110.440592 138.489696,110.575129 C137.95728,110.936723 137.418444,111.289833 136.879208,111.641731 C136.435862,111.691425 135.99372,111.724554 135.54917,111.765763 Z M135.249059,112.651366 C135.313254,112.433601 135.387881,112.215837 135.465717,111.998072 C135.529912,112.002113 135.592502,112.003729 135.645864,112.000093 C135.912273,111.98272 136.177076,111.958883 136.441078,111.92939 C136.037453,112.191596 135.633426,112.454206 135.229801,112.716412 L135.249059,112.651366 Z M135.285972,111.508809 L135.314458,111.489013 C135.277145,111.591633 135.24264,111.695465 135.209339,111.799701 L135.189278,111.802125 C135.221375,111.704353 135.254275,111.606581 135.285972,111.508809 Z M135.113448,111.637286 C135.088572,111.700313 135.065302,111.760915 135.042432,111.820306 C134.984256,111.82677 134.925678,111.834042 134.867501,111.841314 C134.950553,111.775056 135.029192,111.701929 135.113448,111.637286 Z M135.695214,109.849921 C135.626605,110.313731 135.426398,110.846224 135.239831,111.318518 C134.780437,111.654255 134.341906,112.018273 133.924238,112.40936 C134.07309,111.967771 134.223547,111.52699 134.379219,111.088633 C134.80772,110.659165 135.21616,110.205859 135.695214,109.849921 Z M135.04163,109.373587 C135.267516,109.468934 135.492599,109.569938 135.720089,109.659226 L135.716478,109.685083 C135.27554,109.98365 134.890772,110.364637 134.505603,110.747644 C134.674114,110.28545 134.852656,109.8277 135.04163,109.373587 Z M134.887161,109.037042 C134.751148,108.988156 134.614333,108.941694 134.47832,108.890384 L134.401687,108.88796 L134.405298,108.865739 C134.634795,108.772815 134.86389,108.679084 135.092986,108.585756 C135.023575,108.735646 134.953763,108.885536 134.887161,109.037042 Z M135.53914,109.222081 L135.47976,109.24915 C135.367018,109.210364 135.255078,109.167943 135.142737,109.128753 C135.171624,109.060878 135.197302,108.991792 135.226993,108.924321 C135.336124,108.969975 135.437632,109.05401 135.538338,109.145722 L135.53914,109.222081 Z M135.919093,108.250827 C135.84888,108.351023 135.780673,108.452835 135.723299,108.559899 C135.595712,108.603937 135.471735,108.631814 135.350568,108.645954 C135.381863,108.577272 135.416769,108.509397 135.448866,108.440714 C135.605341,108.377284 135.762618,108.314257 135.919093,108.250827 Z M137.740221,107.581373 C137.525971,107.680357 137.311319,107.778533 137.09747,107.878729 C136.770076,108.032255 136.372068,108.282744 135.976066,108.458895 C136.040261,108.350619 136.110474,108.246787 136.18149,108.145379 C136.710295,107.932059 137.241507,107.723991 137.775127,107.522387 L137.740221,107.581373 Z M139.601872,106.875154 C139.534066,106.964845 139.468667,107.057365 139.399658,107.145844 C139.444193,107.063021 139.490734,106.980602 139.535671,106.897778 L139.601872,106.875154 Z M140.714449,106.614159 C140.653464,106.7289 140.58967,106.842024 140.527481,106.955957 C140.424368,107.054941 140.325268,107.155945 140.234994,107.256544 C139.930068,107.376537 139.621933,107.487237 139.311791,107.593089 C139.6111,107.224627 139.899977,106.846873 140.176416,106.456189 L140.188051,106.359226 C140.476527,106.257414 140.761391,106.145097 141.046256,106.031569 C140.931106,106.224284 140.819167,106.417808 140.714449,106.614159 Z M141.429419,105.881275 C141.324701,106.025913 141.221187,106.171358 141.115667,106.315592 C141.158597,106.238425 141.19912,106.16045 141.242451,106.083283 C141.274148,106.027125 141.30785,105.972179 141.340349,105.91602 L141.429419,105.881275 Z M141.953811,105.152027 C141.810175,105.354439 141.664934,105.555234 141.519693,105.756434 L141.47596,105.751182 L141.425006,105.770979 C141.533334,105.588364 141.642867,105.407365 141.754405,105.227578 C141.820606,105.202125 141.88761,105.177076 141.953811,105.152027 Z M142.759857,103.483442 L142.783128,103.483846 C142.933585,103.422436 143.082436,103.356581 143.232492,103.293959 C143.141014,103.440212 143.049938,103.587274 142.958861,103.735144 C142.881828,103.860389 142.808405,103.988462 142.732575,104.114918 L142.659553,104.141988 C142.630264,104.185217 142.59937,104.227639 142.56968,104.270869 C142.46737,104.316118 142.364257,104.359752 142.260341,104.400962 C142.438883,104.100778 142.607796,103.796554 142.759857,103.483442 Z M143.16589,104.547215 L143.157865,104.549235 L143.224468,104.449443 C143.352857,104.261576 143.483654,104.075729 143.614853,103.889882 C143.701114,103.845036 143.78858,103.800594 143.876045,103.759385 C143.650962,104.030479 143.413441,104.292685 143.16589,104.547215 Z M142.887445,104.281777 C143.019445,104.215114 143.165489,104.133907 143.319155,104.049468 C143.185549,104.236527 143.054752,104.425202 142.922752,104.613474 C142.829669,104.641755 142.737389,104.673268 142.645109,104.703973 C142.724149,104.562568 142.806399,104.422374 142.887445,104.281777 Z M144.229117,102.184532 C144.47065,102.035854 144.712183,101.88758 144.966154,101.763143 C144.791624,102.074639 144.563733,102.387751 144.350686,102.66127 C144.141652,102.747729 143.93342,102.836209 143.724786,102.923072 C143.889286,102.674199 144.058599,102.428557 144.229117,102.184532 Z M143.064783,102.761062 L143.09688,102.76187 C143.337611,102.682683 143.562293,102.571579 143.780957,102.449162 C143.642537,102.653998 143.507326,102.86045 143.374924,103.069326 C143.200796,103.142453 143.026266,103.213155 142.85294,103.287494 C142.930776,103.115788 143.000588,102.940041 143.064783,102.761062 Z M144.53324,101.776072 L144.499939,101.794656 L144.518395,101.767991 L144.53324,101.776072 Z M145.098556,101.499321 C144.962944,101.554267 144.830543,101.615677 144.70135,101.683552 L144.653606,101.611637 L144.668451,101.559519 C144.741472,101.458111 144.813691,101.356703 144.887114,101.255295 C144.965753,101.233075 145.06044,101.254891 145.171979,101.322766 C145.152319,101.38054 145.124635,101.439931 145.098556,101.499321 Z M145.26787,101.448819 L145.229353,101.446395 L145.259846,101.38458 L145.287128,101.403973 L145.26787,101.448819 Z M145.101365,101.83425 C145.003066,102.060903 144.888719,102.275839 144.768354,102.486735 C144.684901,102.521481 144.601447,102.557034 144.517994,102.591375 C144.607465,102.456434 144.697739,102.322301 144.784001,102.184532 C144.878689,102.03343 144.989024,101.872631 145.088927,101.706985 L145.171578,101.671836 C145.147906,101.725974 145.125036,101.780516 145.101365,101.83425 Z M144.017274,103.592122 C143.917371,103.6402 143.818671,103.690702 143.720774,103.7408 C143.939438,103.432536 144.158503,103.124676 144.371549,102.811968 C144.463428,102.772778 144.555708,102.734397 144.647988,102.695207 C144.459817,103.000643 144.252388,103.293555 144.028107,103.579598 L144.017274,103.592122 Z M143.194777,102.363106 C143.468408,101.906973 143.759692,101.471848 144.007645,101.00521 C144.277263,100.771689 144.607064,100.619779 144.946495,100.481605 C145.0143,100.504634 145.083711,100.523219 145.151918,100.544228 C145.061644,100.685229 144.968562,100.824615 144.870263,100.960768 C144.639964,101.094497 144.451392,101.318726 144.355902,101.566388 L144.353495,101.648403 L144.298528,101.720317 C144.215074,101.83021 144.135633,101.942526 144.055791,102.054438 C143.761698,102.228973 143.463995,102.39664 143.143823,102.519056 C143.159872,102.466938 143.180334,102.416437 143.194777,102.363106 Z M143.583558,103.145281 C143.776543,103.06367 143.96993,102.982867 144.162515,102.900447 C144.056192,103.034985 143.960702,103.154977 143.892094,103.250325 C143.742841,103.458393 143.593989,103.666057 143.445137,103.873721 L143.40662,103.891498 C143.276626,103.947252 143.143823,104.007854 143.009816,104.070073 C143.05716,103.98927 143.102899,103.907254 143.151045,103.826451 C143.289465,103.594142 143.437514,103.370722 143.583558,103.145281 Z M142.509096,104.950827 C142.587334,104.923354 142.665972,104.895073 142.745012,104.868812 C142.671991,104.97426 142.597364,105.078092 142.525546,105.183944 C142.423236,105.281716 142.321727,105.379892 142.219016,105.476855 C142.314506,105.300704 142.412001,105.12617 142.509096,104.950827 Z M141.690612,105.967734 C141.590709,106.050558 141.447073,106.16449 141.283376,106.297411 C141.548179,105.952786 141.81178,105.60816 142.069361,105.261919 C141.939768,105.495036 141.816594,105.732193 141.690612,105.967734 Z M140.401499,107.624603 C140.425171,107.580969 140.449244,107.537739 140.472514,107.49451 C140.730096,107.18867 141.081162,106.856973 141.345966,106.6182 C141.217175,106.869093 141.094803,107.123219 140.970827,107.376537 C140.78065,107.458148 140.590473,107.539759 140.401499,107.624603 Z M137.87182,109.912948 L137.891079,109.907291 L137.958885,109.868506 C138.040733,109.826488 138.121779,109.784067 138.204831,109.743261 L138.231713,109.713364 C138.420285,109.60428 138.605648,109.489943 138.790208,109.373991 C138.765333,109.441461 138.73805,109.507316 138.707156,109.571958 C138.652992,109.66367 138.59963,109.756189 138.55028,109.851537 C138.481672,109.969106 138.674657,110.062029 138.740858,109.942441 C138.90295,109.649125 139.07748,109.361466 139.260435,109.077847 C139.302162,109.051182 139.344691,109.025729 139.386819,108.999064 C139.307779,109.137641 139.229943,109.276623 139.1501,109.414796 C138.979182,109.710536 138.809467,109.973954 138.710366,110.266057 C138.654195,110.247069 138.600432,110.22202 138.543459,110.206263 C138.277452,110.132732 138.013852,110.053545 137.74985,109.975166 C137.790373,109.954157 137.831699,109.933956 137.87182,109.912948 Z M135.439237,111.175901 L135.383869,111.212666 C135.440039,111.038939 135.499419,110.866021 135.55559,110.692294 C135.59852,110.558969 135.641852,110.441804 135.681974,110.32868 L135.732928,110.332316 C135.751785,110.32666 135.475346,111.088633 135.439237,111.175901 Z M136.025015,110.180406 C136.037854,110.106471 135.957209,110.021628 135.88178,110.059201 C135.836442,110.081826 135.790704,110.104451 135.745366,110.126672 C135.764624,110.065665 135.787895,110.003447 135.801938,109.942845 L135.827214,109.943249 C135.927118,109.901231 136.024614,109.853961 136.124116,109.810732 C136.446294,109.928704 136.771681,110.039808 137.102686,110.140812 C136.670574,110.37797 136.252907,110.63654 135.843263,110.90723 C135.917488,110.666437 135.982084,110.424835 136.025015,110.180406 Z M137.947249,108.11023 C137.845741,108.155479 137.745437,108.204365 137.64433,108.250827 L137.652354,108.235474 C137.774726,108.070636 137.897498,107.906606 138.026691,107.74904 C138.070423,107.728435 138.114557,107.709042 138.15829,107.688437 C138.082861,107.827015 138.01345,107.968016 137.947249,108.11023 Z M137.963298,108.69888 C138.015858,108.541314 138.078849,108.389808 138.145852,108.239919 C138.310352,108.164772 138.477659,108.098109 138.64577,108.033467 C138.429513,108.265372 138.20443,108.489196 137.963298,108.69888 Z M138.790609,108.370416 C138.842768,108.259311 138.893321,108.147399 138.946683,108.037103 C138.994027,107.983773 139.036556,107.925998 139.082696,107.87186 C139.388825,107.763584 139.696158,107.65854 140.001084,107.546224 C139.916828,107.665408 139.85504,107.780553 139.816523,107.890041 C139.474285,108.048819 139.131644,108.208405 138.790609,108.370416 Z M137.487454,108.550203 C137.600597,108.496469 137.713339,108.442734 137.826483,108.389404 C137.760282,108.556263 137.704111,108.728374 137.658373,108.905736 C137.503101,108.978055 137.345824,109.046738 137.18975,109.117845 C137.289653,108.928765 137.389155,108.74009 137.487454,108.550203 Z M136.608787,109.04593 C136.45833,109.178447 136.311484,109.199456 136.167848,109.163498 C136.366852,109.073807 136.565455,108.983711 136.762854,108.890384 C136.710696,108.941694 136.664155,108.997448 136.608787,109.04593 Z M136.293028,109.521052 L136.252104,109.508528 C136.322317,109.473782 136.397345,109.445905 136.471169,109.415604 L136.538975,109.386515 L136.610793,109.356214 L136.642088,109.322277 C136.721529,109.268543 136.80097,109.207132 136.887633,109.129561 L136.977907,109.03987 C136.940594,109.114613 136.903281,109.188951 136.866369,109.26329 C136.674988,109.349346 136.485613,109.438633 136.293028,109.521052 Z M139.176982,108.874627 C138.888105,109.054818 138.600833,109.237029 138.30995,109.413584 L138.343653,109.380859 C138.447167,109.126329 138.557502,108.875839 138.670645,108.626966 C139.03134,108.454855 139.393239,108.285572 139.755137,108.11629 C139.556935,108.365163 139.36395,108.617673 139.176982,108.874627 Z M139.607088,108.613229 L139.552923,108.643934 C139.631562,108.528386 139.706991,108.410817 139.787636,108.295673 C139.727854,108.401929 139.666869,108.507377 139.607088,108.613229 Z M138.818695,107.764796 C138.634937,107.830247 138.452784,107.901757 138.271835,107.975288 C138.348066,107.823782 138.427908,107.673893 138.512164,107.525215 C138.697126,107.43916 138.881285,107.351892 139.068252,107.269877 C138.981589,107.433099 138.900543,107.59915 138.818695,107.764796 Z M135.761013,108.94735 C135.771846,108.904524 135.787895,108.862507 135.803141,108.820085 C136.185903,108.687568 136.544191,108.454451 136.908095,108.28436 C137.11071,108.189821 137.31172,108.091645 137.513533,107.994681 L137.47301,108.069828 C137.444523,108.106593 137.416438,108.142955 137.387551,108.180124 C137.306906,108.28436 137.222249,108.384556 137.138394,108.48556 C136.732763,108.677872 136.323922,108.863719 135.915482,109.049162 C135.863725,109.017649 135.811968,108.983307 135.761013,108.94735 Z M137.72016,109.814772 C137.656768,109.847093 137.592172,109.877798 137.52918,109.910523 C137.20941,109.813964 136.891645,109.711748 136.573881,109.609532 C136.656933,109.572362 136.738781,109.532769 136.821833,109.494791 C136.867171,109.545293 136.957044,109.55903 136.999974,109.480247 L137.046917,109.390555 C137.250735,109.29642 137.454955,109.203496 137.657971,109.107744 C137.696087,109.150974 137.760683,109.172387 137.810434,109.132793 C137.899505,109.061686 137.984964,108.987752 138.070022,108.913413 C138.165111,108.868163 138.260199,108.822509 138.355288,108.777259 C138.283871,108.946138 138.211652,109.115017 138.14505,109.286319 C138.109341,109.378435 138.193998,109.447521 138.266619,109.438633 C138.102521,109.538021 137.93762,109.635793 137.769109,109.727504 C137.728987,109.749321 137.71695,109.782046 137.72016,109.814772 Z M139.668474,109.749321 C139.791247,109.56711 139.932876,109.40106 140.093364,109.251978 L140.087345,109.146126 C140.146324,109.061282 140.205705,108.976439 140.264282,108.891192 C140.081327,109.312176 139.898773,109.733161 139.731866,110.160609 L139.733872,110.250705 C139.631161,110.354537 139.540485,110.468469 139.476692,110.600986 C139.290126,110.500386 139.099146,110.413523 138.904956,110.335952 C139.079486,109.798611 139.458236,109.246322 139.756341,108.773623 C139.898773,108.68878 140.041607,108.605149 140.188051,108.527174 L140.220951,108.499297 C140.302398,108.448391 140.324465,108.311025 140.21413,108.246383 C140.161169,108.215274 140.139504,108.1676 140.135893,108.111038 C140.178422,108.033871 140.220148,107.9563 140.262678,107.879133 C140.456867,107.790249 140.653865,107.708234 140.849258,107.622583 C140.822778,107.677933 140.79389,107.732071 140.767811,107.787421 C140.353353,108.398697 139.938092,109.009568 139.511197,109.612764 C139.434564,109.72104 139.586625,109.857193 139.668474,109.749321 Z M146.099193,100.775729 C145.642607,101.664967 145.150313,102.533601 144.64197,103.392942 C144.57938,103.399003 144.517191,103.411931 144.455805,103.427284 C145.017109,102.696419 145.496564,101.866975 145.642607,101.017734 C145.655446,100.942183 145.605294,100.890065 145.539093,100.86946 C145.476102,100.84926 145.41271,100.837947 145.350521,100.834311 C145.341293,100.772497 145.326849,100.710682 145.301171,100.648464 L145.332867,100.599174 C145.467275,100.633919 145.605695,100.662604 145.753344,100.679977 C145.789052,100.684017 145.83118,100.685633 145.872505,100.687249 C145.948335,100.716743 146.023764,100.745832 146.099193,100.775729 Z M145.086921,103.458393 L145.063249,103.435364 C145.003066,103.415567 144.944087,103.406275 144.885108,103.398599 C145.37339,102.561074 145.846025,101.714661 146.284957,100.84926 L146.380046,100.886429 C146.051448,101.781324 145.585233,102.630161 145.086921,103.458393 Z M148.058741,97.6276386 C148.071179,97.7747003 148.021027,97.9973129 147.961647,98.1973007 C147.808783,98.4502145 147.619408,98.6914119 147.503857,98.9475578 C147.291212,99.4182361 147.373461,99.9604252 147.204147,100.451708 C147.050481,100.369693 146.859902,100.313131 146.619974,100.289294 L146.566612,100.284446 C146.620777,100.177786 146.675743,100.071529 146.726698,99.9632533 C146.780461,99.8489168 146.605129,99.7656896 146.550965,99.879622 C146.489177,100.009715 146.422174,100.137384 146.356374,100.265457 C146.087959,100.24162 145.827168,100.219803 145.570388,100.179402 C145.701988,99.9204276 145.810718,99.6517572 145.875314,99.3661181 C145.900992,99.2529937 145.72566,99.2226925 145.699179,99.3354129 C145.632978,99.6194359 145.520637,99.8868943 145.386229,100.144656 C145.207286,100.108699 145.027942,100.064257 144.842579,99.9911304 C144.767551,99.9616372 144.679283,99.9252758 144.5858,99.8921465 C144.937267,99.1936034 145.15593,98.4643551 145.350521,97.7120779 C146.257674,97.8534834 147.1556,97.5407752 148.058741,97.6276386 Z M144.22671,100.540188 C144.258406,100.472717 144.247974,100.408479 144.217081,100.355553 C144.271646,100.353936 144.324607,100.353532 144.372753,100.351916 C144.450991,100.349088 144.527222,100.359593 144.604256,100.364845 C144.644378,100.378581 144.685302,100.392722 144.725022,100.406458 C144.53645,100.475949 144.350686,100.553924 144.180168,100.649676 C144.19702,100.613315 144.216679,100.578973 144.232327,100.542208 L144.22671,100.540188 Z M141.648484,105.062335 C141.565833,105.093848 141.482781,105.124958 141.40013,105.156067 C141.527717,105.025166 141.651292,104.890225 141.768448,104.748819 L141.865142,104.71367 C141.792922,104.830026 141.721506,104.946383 141.648484,105.062335 Z M142.130748,104.616302 C142.22383,104.579132 142.315709,104.544791 142.406786,104.503986 C142.320123,104.628826 142.233058,104.753263 142.145593,104.8777 C142.070164,104.905173 141.994735,104.932242 141.919306,104.960523 C141.990322,104.845783 142.060535,104.731042 142.130748,104.616302 Z M139.750724,106.506691 C139.806894,106.488107 139.863065,106.469118 139.919235,106.450129 C139.847016,106.549517 139.772389,106.646481 139.698966,106.745061 L139.635574,106.716375 C139.674091,106.646481 139.711404,106.576182 139.750724,106.506691 Z M135.673949,107.703386 C135.928723,107.620563 136.196335,107.54582 136.46154,107.460168 C136.34639,107.639551 136.219605,107.816106 136.094024,107.993469 C135.915884,108.065384 135.737342,108.136087 135.560003,108.209617 C135.615773,108.093665 135.668332,107.976904 135.72691,107.862164 C135.762618,107.791865 135.727712,107.731263 135.673949,107.703386 Z M134.144106,110.655932 C134.169784,110.610279 134.200276,110.54604 134.263267,110.426855 C134.322246,110.314943 134.201881,110.209899 134.095959,110.240604 C134.018926,110.262825 133.958342,110.288682 133.907788,110.318983 C133.957539,110.106875 134.006889,109.894767 134.057844,109.682659 C134.117224,109.669326 134.170586,109.624076 134.170185,109.544485 L134.171388,109.523072 C134.198671,109.544081 134.24441,109.546101 134.258051,109.50772 C134.308204,109.369546 134.337091,109.227737 134.360362,109.085927 L134.362368,109.087948 C134.504399,109.151378 134.647233,109.206324 134.789264,109.267734 C134.517639,109.904463 134.27089,110.551292 134.037382,111.203778 L133.9447,111.289025 C134.012506,111.078129 134.094756,110.819559 134.144106,110.655932 Z M133.263834,113.440004 C133.283895,113.372534 133.303955,113.304659 133.324016,113.236785 L133.335652,113.231532 C133.311579,113.301023 133.287506,113.370514 133.263834,113.440004 Z M134.794078,112.999627 C134.899599,112.687727 135.001107,112.374615 135.103819,112.061503 L135.126688,112.064331 C135.076135,112.231594 135.026384,112.39926 134.973824,112.563694 C134.931696,112.696616 134.891173,112.830749 134.849447,112.964074 L134.794078,112.999627 Z M134.232775,116.327505 C134.196665,116.340837 134.180616,116.366694 134.173796,116.395379 L134.100373,116.451537 C134.221139,116.072975 134.348325,115.696836 134.463876,115.316657 C134.482332,115.254843 134.499986,115.192625 134.518843,115.13081 C134.779635,114.936075 135.04163,114.741339 135.301218,114.546603 C135.615773,114.310658 136.000139,114.072693 136.388117,113.816143 C136.721128,113.806447 137.053737,113.791902 137.386748,113.778974 C136.399752,114.679121 135.348562,115.50008 134.28734,116.30892 L134.232775,116.327505 Z M133.975594,116.841413 C134.140495,116.717784 134.304593,116.593347 134.468691,116.46891 C135.002311,116.295991 135.541547,116.142869 136.084395,116.002676 C135.529511,116.384067 135.007928,116.82202 134.476715,117.236136 C134.16537,117.430467 133.877296,117.678129 133.649805,117.8563 C133.762547,117.519351 133.866062,117.179574 133.975594,116.841413 Z M132.82129,119.113597 C132.864221,118.961283 132.905947,118.808565 132.949279,118.656251 L132.998629,118.616253 C132.940051,118.782304 132.880269,118.94795 132.82129,119.113597 Z M131.354438,124.597302 C131.557053,124.41307 131.76047,124.230051 131.966696,124.050668 C132.101104,123.970673 132.236716,123.893102 132.370723,123.812299 C131.988763,124.152076 131.626865,124.517307 131.261355,124.878497 C131.292249,124.784765 131.323544,124.691033 131.354438,124.597302 Z M128.878924,130.231704 C128.842012,130.267662 128.807908,130.305639 128.771799,130.342001 C128.839203,130.151709 128.911021,129.963034 128.97963,129.773147 L129.047435,129.830921 C129.014536,129.918592 128.979228,130.007476 128.947131,130.094339 C128.933891,130.131104 128.920249,130.167466 128.907009,130.203827 L128.878924,130.231704 Z M128.807507,131.365776 C128.869696,131.30679 128.95676,131.258308 129.020153,131.20013 C129.058268,131.193262 129.115642,131.176697 129.136506,131.125791 L129.137308,131.123771 C129.217552,131.053068 129.301406,130.987618 129.382854,130.918531 C129.165393,131.139932 128.946329,131.36012 128.72927,131.581117 C128.755349,131.509202 128.781428,131.437691 128.807507,131.365776 Z M127.749095,133.336565 C127.838967,133.068703 127.928439,132.800436 128.018312,132.532978 L128.06726,132.481668 C127.961339,132.766499 127.855417,133.051734 127.749095,133.336565 Z M123.462884,144.483762 C123.44483,144.540324 123.427978,144.59729 123.409924,144.654256 C123.417948,144.606986 123.423565,144.559717 123.431991,144.512447 L123.462884,144.483762 Z M123.81716,142.773967 C123.917464,142.687912 124.019775,142.605897 124.119678,142.519437 C123.941537,143.025265 123.773828,143.533921 123.607724,144.042981 L123.50421,144.139136 C123.594083,143.683407 123.698399,143.227677 123.81716,142.773967 Z M122.384812,143.97753 C122.73668,143.688255 123.083734,143.391303 123.432392,143.09718 C123.308416,143.565434 123.199686,144.035708 123.107004,144.505579 C122.563755,145.005346 122.03174,145.516426 121.527008,146.056999 C121.600431,145.862263 121.674657,145.66874 121.752092,145.478852 C121.956713,144.976257 122.170963,144.476893 122.384812,143.97753 Z M123.92268,139.916364 C124.154985,139.69658 124.383679,139.473563 124.615182,139.252971 C124.599936,139.30024 124.584288,139.347106 124.569443,139.394376 C124.427011,139.839601 124.27856,140.295735 124.130511,140.755909 C123.884966,140.996702 123.640624,141.2379 123.399091,141.483137 C123.485754,141.249616 123.576028,141.017307 123.655469,140.781362 C123.748953,140.502591 123.823178,140.218568 123.894996,139.933737 L123.92268,139.916364 Z M125.249507,137.299555 C125.080996,137.810635 124.915694,138.322926 124.750794,138.834814 C124.49602,139.077628 124.244858,139.323673 123.988881,139.565275 C124.070729,139.23681 124.154183,138.909153 124.262913,138.587557 C124.30143,138.474028 124.345564,138.36252 124.390099,138.251012 C124.781687,137.985169 124.996339,137.670845 125.249507,137.299555 Z M125.572087,135.083125 L125.597363,135.072216 C125.808404,134.85122 126.018642,134.630223 126.229281,134.409227 C125.96849,135.1611 125.712112,135.914993 125.460147,136.670098 C125.175683,137.074518 124.909676,137.500351 124.56182,137.8373 C124.681784,137.556105 124.801347,137.274102 124.890819,136.979574 C124.991123,136.650706 125.090625,136.321837 125.190127,135.992968 C125.317313,135.689956 125.444098,135.386136 125.572087,135.083125 Z M126.190764,133.610488 L126.222461,133.590691 C126.380139,133.442417 126.529794,133.287275 126.676639,133.129709 C126.572323,133.423832 126.469611,133.718764 126.366899,134.013291 C126.163883,134.222167 125.961268,134.431447 125.758252,134.63992 C125.903091,134.29691 126.046727,133.953497 126.190764,133.610488 Z M127.320995,131.346384 C127.174952,131.742723 127.033322,132.140678 126.890488,132.53823 C126.739229,132.715593 126.581952,132.887703 126.422267,133.05739 C126.861601,132.004121 127.293311,130.94762 127.707769,129.884655 C127.794432,129.805468 127.87949,129.724665 127.964549,129.643862 C127.748292,130.210696 127.531233,130.777126 127.320995,131.346384 Z M129.206719,128.377676 C129.030986,128.821286 128.859665,129.266107 128.699981,129.716584 C128.56798,130.089087 128.438387,130.462397 128.308793,130.835708 C127.975783,131.212654 127.661629,131.60657 127.344266,131.997253 C127.499136,131.565764 127.653605,131.134275 127.812487,130.704403 C127.992233,130.217968 128.182009,129.735573 128.367371,129.251562 C128.652236,128.965519 128.931082,128.673416 129.206719,128.377676 Z M130.178469,126.029941 C130.036036,126.366486 129.896412,126.703839 129.755184,127.040788 C129.597505,127.163609 129.44103,127.288854 129.281747,127.410059 C129.34554,127.121592 129.414149,126.834336 129.481954,126.547081 C129.717068,126.374163 129.952182,126.203264 130.178469,126.029941 Z M130.713693,124.757696 C130.684805,124.826783 130.655918,124.895465 130.62703,124.964552 C130.302846,125.272412 129.989495,125.591988 129.67494,125.909949 C129.783269,125.644106 129.8924,125.378668 130.00113,125.112826 C130.242262,125.000913 130.478579,124.880113 130.713693,124.757696 Z M131.469186,122.712164 C131.268176,123.308492 131.054327,123.901587 130.818812,124.490641 C130.581692,124.620331 130.344171,124.749616 130.101033,124.867992 C130.292013,124.40095 130.487005,123.935928 130.680392,123.470098 C130.942788,123.217184 131.20358,122.96225 131.469186,122.712164 Z M131.65495,122.166743 L131.622853,122.260879 C131.379313,122.508541 131.12775,122.748526 130.878995,122.991339 C130.932758,122.862458 130.985318,122.733173 131.039081,122.604292 C131.242899,122.456827 131.448323,122.310977 131.65495,122.166743 Z M129.529298,126.342649 C129.822187,126.050142 130.116681,125.759655 130.414385,125.472804 C130.371454,125.574616 130.328123,125.676428 130.285192,125.778239 C130.216584,125.834802 130.150383,125.894192 130.079769,125.94833 C129.902431,126.085695 129.715062,126.221041 129.526088,126.35679 L129.529298,126.342649 Z M130.180073,126.709092 C130.212171,126.632733 130.244268,126.55597 130.276366,126.479611 C130.256706,126.545465 130.24146,126.611724 130.220596,126.677174 L130.180073,126.709092 Z M129.959404,127.234716 C130.005544,127.122804 130.053289,127.010891 130.100231,126.898979 L130.168438,126.846861 C130.139149,126.936552 130.105848,127.02584 130.075356,127.115935 C130.036839,127.155529 129.99792,127.195122 129.959404,127.234716 Z M129.138913,128.090825 C129.176628,127.910634 129.213138,127.730443 129.252057,127.550656 C129.395693,127.443188 129.53652,127.332084 129.678952,127.223 C129.605128,127.399554 129.529298,127.575705 129.456678,127.752664 C129.350355,127.865385 129.244835,127.978105 129.138913,128.090825 Z M127.775976,132.393592 C127.746687,132.480052 127.716997,132.566511 127.687708,132.65297 C127.385591,132.964062 127.083474,133.275155 126.781357,133.586651 C126.891291,133.27071 126.99962,132.953962 127.111961,132.63883 C127.45099,132.239258 127.775575,131.827162 128.107382,131.420319 C128.035564,131.630003 127.964549,131.839687 127.893132,132.049371 C127.834554,132.114821 127.774371,132.178656 127.716997,132.245723 C127.664036,132.308345 127.714991,132.380664 127.775976,132.393592 Z M128.208088,131.974224 L128.290739,131.881704 C128.260647,131.962912 128.230155,132.044119 128.200063,132.125326 L128.132659,132.194817 C128.157534,132.121286 128.183212,132.047755 128.208088,131.974224 Z M126.932616,134.637091 L127.039741,134.55346 C126.983972,134.715874 126.929005,134.878693 126.873236,135.041107 C126.554669,135.38048 126.236102,135.720257 125.931578,136.074983 C126.165889,135.3724 126.404614,134.671029 126.646949,133.97087 C126.953881,133.649273 127.260812,133.327677 127.567744,133.005676 C127.436546,133.391915 127.304545,133.777346 127.172946,134.162777 C127.052982,134.262165 126.933017,134.361957 126.812251,134.460133 C126.706329,134.546188 126.822683,134.721531 126.932616,134.637091 Z M125.772294,138.144756 C125.570482,138.692197 125.359842,139.237214 125.146796,139.781827 C124.938965,139.976159 124.733943,140.173722 124.52892,140.370882 C124.692617,139.862226 124.856715,139.360843 125.017202,138.867944 C125.268766,138.626342 125.522737,138.387569 125.772294,138.144756 Z M125.160036,138.429183 C125.353423,137.826391 125.55002,137.224408 125.748622,136.623233 C126.059967,136.220025 126.385756,135.82813 126.730402,135.452799 C126.471216,136.202652 126.208017,136.951293 125.936794,137.69751 C125.678811,137.950828 125.414408,138.198086 125.153616,138.448575 L125.160036,138.429183 Z M124.404543,140.759545 C124.598732,140.572082 124.792119,140.383811 124.987913,140.198367 C124.743171,140.810855 124.513674,141.426979 124.290998,142.045123 C124.170231,142.147743 124.05107,142.251575 123.930704,142.354599 C124.078754,141.818874 124.238037,141.286382 124.404543,140.759545 Z M123.243819,141.907758 C123.494982,141.652016 123.749354,141.399506 124.004528,141.148612 C123.844041,141.655248 123.689572,142.16956 123.545134,142.686296 C123.216537,142.971127 122.889544,143.257978 122.567366,143.549273 C122.799671,143.00466 123.029569,142.459239 123.243819,141.907758 Z M128.596868,130.84096 C128.640199,130.791266 128.683932,130.741572 128.727665,130.692282 C128.631774,130.952468 128.536284,131.213058 128.440794,131.473245 L128.34731,131.568996 C128.430362,131.326183 128.512211,131.082965 128.596868,130.84096 Z M129.130488,129.611944 C129.087958,129.645478 129.044627,129.677395 129.002098,129.710928 C129.118852,129.389736 129.232798,129.067735 129.354367,128.748159 C129.472325,128.437471 129.599912,128.130419 129.72429,127.822155 C129.779658,127.762765 129.834625,127.703374 129.889592,127.643984 C129.645651,128.30859 129.37844,128.965923 129.130488,129.611944 Z M132.070612,120.833087 C131.961882,121.192661 131.853152,121.551831 131.739206,121.908981 C131.544214,122.042306 131.353636,122.181288 131.16065,122.316633 C131.298669,121.988168 131.438293,121.660108 131.577114,121.332047 C131.741613,121.165996 131.90531,120.998734 132.070612,120.833087 Z M132.642748,118.916437 C132.609046,119.03037 132.572535,119.143898 132.539234,119.25783 C132.416462,119.675987 132.29409,120.092527 132.170114,120.507451 C132.028083,120.645624 131.889663,120.78703 131.748835,120.926415 C132.026879,120.272314 132.306127,119.618616 132.586979,118.965323 L132.642748,118.916437 Z M133.473269,116.927872 L133.49654,116.857573 C133.651009,116.500423 133.805478,116.143273 133.960348,115.786124 C133.848007,116.133173 133.72724,116.477394 133.611288,116.823232 C133.565148,116.857977 133.519409,116.893127 133.473269,116.927872 Z M133.114179,118.291021 L133.039954,118.348795 C133.142265,117.999725 133.246983,117.652272 133.355311,117.306031 C133.397038,117.274921 133.438765,117.243408 133.48009,117.212299 C133.35812,117.571873 133.239359,117.932659 133.114179,118.291021 Z M128.904201,127.845992 C128.874109,128.028607 128.842012,128.210818 128.815933,128.393837 L128.817538,128.43141 C128.741707,128.51181 128.665075,128.591401 128.589245,128.671396 C128.695166,128.396665 128.797076,128.120318 128.904201,127.845992 Z M129.743548,129.328729 C129.787281,129.2956 129.831816,129.263683 129.87595,129.230554 C129.824594,129.28348 129.773239,129.336002 129.721481,129.388928 L129.743548,129.328729 Z M130.764247,126.374567 C130.947603,126.227505 131.132966,126.082463 131.316322,125.935402 C131.118121,126.112764 130.922728,126.294168 130.728939,126.476783 L130.764247,126.374567 Z M134.89679,113.855737 C135.257886,113.846848 135.618581,113.836344 135.979677,113.827051 C135.522289,114.158748 135.072524,114.502566 134.620351,114.839919 L134.600691,114.854059 C134.700193,114.521554 134.799696,114.188646 134.89679,113.855737 Z M134.252434,114.879512 C134.221139,114.979304 134.18824,115.078288 134.156543,115.177676 L134.135279,115.193029 L134.051023,115.180908 C134.262465,114.557108 134.476715,113.933712 134.690163,113.309911 L134.754759,113.26749 C134.587451,113.804831 134.420946,114.342171 134.252434,114.879512 Z M145.435579,113.17497 L145.42274,113.266682 C145.00427,113.096591 144.584997,112.927713 144.166527,112.761258 C144.934057,111.131055 145.870499,109.586907 146.653275,107.965592 C146.656084,108.098513 146.656084,108.231838 146.660898,108.364759 C146.66812,108.559899 146.68457,108.749382 146.70102,108.938462 C146.461092,109.480247 146.090768,109.97557 145.802693,110.488266 C145.371785,111.255896 144.970166,112.039282 144.534444,112.804084 C144.47386,112.910744 144.642773,112.987507 144.70456,112.884887 C145.289536,111.914845 145.79828,110.901978 146.367207,109.922644 C146.497201,109.698819 146.623585,109.492771 146.736729,109.287935 C146.783671,109.672962 146.853483,110.049909 146.947368,110.424835 C146.493591,111.367404 145.989661,112.281692 145.435579,113.17497 Z M148.247314,115.162323 L148.165064,115.182524 C148.175094,115.13081 148.18673,115.0795 148.19676,115.027786 L148.224043,114.998293 L148.273393,114.920318 L148.33518,114.900117 L148.369284,114.904157 C148.347618,115.008393 148.318329,115.106973 148.284226,115.201109 L148.247314,115.162323 Z M147.922728,116.293567 C147.945999,116.190543 147.967665,116.087115 147.990534,115.984091 L148.056334,116.017625 C148.013002,116.110144 147.966862,116.201048 147.922728,116.293567 Z M148.158645,115.214037 L148.175496,115.245955 C148.201575,115.267771 148.218827,115.299689 148.230864,115.336858 C148.191544,115.418065 148.141793,115.485536 148.086425,115.544522 C148.109295,115.433822 148.136578,115.324738 148.158645,115.214037 Z M147.745791,110.354941 C147.862145,110.699566 147.98251,111.042979 148.10769,111.384373 C148.012601,111.537495 147.917111,111.687384 147.831251,111.837678 L147.826436,111.823134 C147.707676,111.518506 147.604563,111.220342 147.510678,110.923795 C147.594933,110.73714 147.670764,110.54604 147.745791,110.354941 Z M148.192347,111.639711 L148.198365,111.630418 L148.205186,111.648599 L148.192347,111.639711 Z M148.313113,111.942318 C148.3416,112.017061 148.365673,112.090996 148.388542,112.164931 C148.452336,112.504304 148.423047,113.013364 148.337588,113.602419 C148.22645,113.087299 148.087629,112.579855 147.911494,112.080896 C147.97609,111.964943 148.04831,111.852223 148.122936,111.741927 C148.197563,111.764955 148.253332,111.823942 148.29867,111.902725 L148.313113,111.942318 Z M146.060676,113.31476 C146.10481,113.456569 146.317055,113.403239 146.306623,113.260622 C146.263693,112.660658 146.821787,112.075644 147.137946,111.613854 C147.181278,111.550423 147.215381,111.480528 147.2543,111.41427 C147.378677,111.750411 147.481389,112.08736 147.578082,112.424713 C147.543176,112.554402 147.521511,112.690555 147.519505,112.837213 C147.514289,113.256581 147.676381,113.819779 147.961245,114.126831 L148.031057,114.158748 C148.051519,114.24036 148.072784,114.321971 148.093647,114.403582 C147.698448,114.226623 147.290409,114.050472 146.998724,113.923611 L146.999125,113.922399 C146.532107,113.722411 146.062281,113.527272 145.591653,113.33496 L145.659459,113.28163 C146.164993,112.465923 146.622783,111.62759 147.040049,110.767845 C147.061314,110.83976 147.088597,110.912078 147.111466,110.983993 C146.935733,111.327002 146.745957,111.663548 146.51967,111.993628 C146.263291,112.366939 145.91343,112.841657 146.060676,113.31476 Z M146.652874,106.966865 C146.649263,107.160793 146.644448,107.35472 146.645251,107.548648 C145.812323,109.291571 144.765947,110.925411 143.944252,112.673183 C143.75889,112.599652 143.574731,112.526929 143.390171,112.454206 C144.067827,110.941975 144.910786,109.50772 145.792663,108.108209 C146.083947,107.64642 146.372423,107.174529 146.622783,106.687286 C146.630406,106.780614 146.640837,106.873538 146.652874,106.966865 Z M147.071344,101.006826 C147.048475,101.138939 147.137946,101.248023 147.26112,101.278324 L147.336148,101.296909 C147.380282,101.560327 147.339358,101.890408 147.267941,102.226549 C147.255503,102.178067 147.241862,102.129989 147.222603,102.083528 C147.184086,101.99222 147.024,102.014845 147.045265,102.122313 C147.059709,102.19342 147.073751,102.264123 147.088195,102.334825 C147.097825,102.384115 147.138348,102.405124 147.177667,102.407548 C147.091405,102.514208 147.052487,102.639453 147.063721,102.784495 C147.038444,103.005087 146.990298,103.224064 146.947769,103.441828 L146.938541,103.497986 L146.93493,103.512531 C146.873544,103.802614 146.816972,104.093102 146.76682,104.383993 C146.456678,105.016681 145.901794,105.690176 145.6402,106.140249 C145.127845,107.021811 144.639964,107.921554 144.153688,108.818469 C143.872434,109.337225 143.557478,109.855173 143.356869,110.411907 C143.206814,110.828447 142.982934,111.707181 142.538385,111.887372 C142.417217,111.936258 142.450117,112.141094 142.588939,112.119681 C143.329988,112.004133 143.715959,110.179598 144.017274,109.593371 C144.598639,108.460511 145.217317,107.345428 145.838402,106.234385 C146.067898,105.823501 146.396897,105.413829 146.675342,104.987188 C146.619573,105.427969 146.593093,105.869559 146.604327,106.311148 C146.232799,107.092514 145.732881,107.827823 145.277499,108.542122 C144.501544,109.759826 143.727996,111.028031 143.180735,112.371383 C142.598167,112.141498 142.017203,111.912825 141.443863,111.684556 C140.807531,111.431643 140.223358,111.016718 139.614711,110.674517 C139.67048,110.542 139.757143,110.428068 139.857849,110.323831 C139.893156,110.321003 139.926457,110.306863 139.944512,110.262017 L139.960159,110.225252 C140.132683,110.069302 140.330483,109.933956 140.497791,109.792955 C140.557573,109.742453 140.49097,109.641449 140.428782,109.691143 C140.315638,109.78245 140.192464,109.870122 140.071297,109.961833 C140.392271,109.180467 140.736516,108.411221 141.100822,107.652884 C141.144153,107.587029 141.187485,107.521175 141.230816,107.455724 C141.323899,107.416131 141.415778,107.372901 141.509261,107.333711 C141.613578,107.290482 141.555401,107.124431 141.450282,107.167661 L141.409358,107.185438 C141.774065,106.63234 142.13797,106.079243 142.504282,105.526953 C142.78393,105.253435 143.059166,104.975472 143.332796,104.695489 C143.379739,104.682965 143.425879,104.667208 143.472821,104.655895 C143.545041,104.638119 143.543035,104.567416 143.507326,104.52055 L143.514548,104.513278 C143.786975,104.230871 144.069031,103.913315 144.33865,103.575558 C144.415282,103.551721 144.490711,103.534752 144.564936,103.521823 C143.171507,105.867538 141.661323,108.146591 140.406715,110.574321 C140.331687,110.719363 140.574023,110.832891 140.633403,110.682193 C141.896035,108.211233 143.423472,105.892991 144.823321,103.502431 C144.89554,103.505259 144.966154,103.513743 145.032355,103.533944 L145.042787,103.532328 C144.684499,104.124211 144.311768,104.706397 143.9599,105.285756 C142.890253,107.047264 141.715086,108.744938 140.848054,110.622803 C140.785866,110.75734 140.990085,110.854708 141.055083,110.720979 C141.899646,108.977247 142.929974,107.350276 143.94024,105.701488 C144.870263,104.184005 145.942317,102.610364 146.539329,100.919558 C146.634017,100.903802 146.699415,100.81411 146.699816,100.727651 C146.854687,100.7527 146.995514,100.798758 147.105448,100.880369 C147.094615,100.922791 147.079369,100.962788 147.071344,101.006826 Z M131.721151,118.686148 C131.738805,118.637666 131.755255,118.58878 131.772908,118.540298 L131.789358,118.494241 C132.175731,118.197289 132.562906,117.900742 132.953291,117.608234 C132.766725,118.032855 132.582165,118.458687 132.396802,118.883712 C132.180947,119.065519 131.966295,119.248134 131.744823,119.422669 C131.653746,119.494584 131.543412,119.580639 131.426657,119.672754 C131.526962,119.344694 131.623254,119.015017 131.721151,118.686148 Z M129.363194,125.388768 L129.371619,125.389172 L129.422173,125.366952 C129.317455,125.791572 129.217953,126.217405 129.128481,126.644853 C129.030183,126.716364 128.933088,126.789087 128.835994,126.862214 C129.012931,126.371739 129.188664,125.880455 129.363194,125.388768 Z M128.064452,128.961075 C128.296356,128.346163 128.523044,127.729231 128.746923,127.111087 C128.84482,127.031496 128.94352,126.953117 129.043824,126.87595 C128.747726,127.617723 128.455238,128.360708 128.167966,129.105713 C128.081704,129.193384 127.995041,129.280247 127.907576,129.366707 C127.959734,129.231362 128.013096,129.09642 128.064452,128.961075 Z M121.238934,148.229391 C121.171128,148.035868 121.143043,147.830628 121.139833,147.618923 C121.146654,147.582158 121.155481,147.545797 121.162703,147.509031 C121.733234,147.083603 122.309784,146.65171 122.870687,146.19598 C122.862261,146.303448 122.850225,146.410916 122.844608,146.517981 C122.791246,146.703424 122.737884,146.888867 122.684121,147.073906 C122.278489,147.498931 121.889308,147.94052 121.535033,148.415642 L121.541452,148.501698 C121.589598,148.543311 121.637744,148.585329 121.686292,148.627347 C121.746073,148.679061 121.825916,148.585329 121.765733,148.534019 C121.631726,148.41847 122.037759,147.905775 122.623135,147.28561 C122.39404,148.085966 122.172969,148.889957 121.957114,149.696372 C121.615276,149.424873 120.924379,148.924702 120.97092,148.602702 C120.976136,148.565936 120.983759,148.529171 120.988975,148.492405 C121.128599,148.525535 121.301524,148.407562 121.238934,148.229391 Z M124.613978,151.517675 C124.409357,151.431619 124.206341,151.342332 124.006133,151.244964 C124.071933,151.264357 124.137733,151.284558 124.202329,151.306779 C124.355995,151.359301 124.4892,151.434043 124.613978,151.517675 Z M134.585044,145.343911 C134.160957,146.424653 133.841989,147.47873 133.133438,148.419682 C132.997826,148.599469 133.17035,148.80875 133.340867,148.778852 C133.216891,149.041463 133.090106,149.302861 132.964525,149.565067 C132.879868,149.491132 132.712962,149.509313 132.674043,149.655566 C132.566918,150.058774 132.454979,150.449457 132.326589,150.827212 C132.131196,151.179918 131.930186,151.528987 131.730379,151.880885 C131.595169,152.119658 131.495667,152.372572 131.397368,152.625486 C131.222437,152.848098 131.02905,153.061823 130.79835,153.260194 L130.775481,153.275951 C130.456512,153.210904 130.149581,153.15717 129.812157,153.155554 C129.650466,153.154746 129.491182,153.141818 129.332701,153.122829 C129.380045,152.941426 129.400908,152.760427 129.376434,152.568924 C129.359583,152.438426 129.151351,152.460647 129.176628,152.5867 C129.211132,152.762043 129.204713,152.930518 129.171412,153.101416 C128.436381,152.98506 127.747891,152.67922 127.145262,152.212178 C126.914963,152.033603 126.686268,151.920074 126.432298,151.852604 L126.456371,151.820282 C126.706731,150.987202 126.651363,149.800608 127.483087,149.29478 C127.630735,149.204685 127.479075,148.985708 127.33263,149.07338 C126.476432,149.585672 126.331191,150.87933 126.224868,151.779477 L126.232491,151.81099 C126.169099,151.80089 126.107311,151.788769 126.039907,151.783921 C125.328547,151.732611 124.957822,151.256681 124.368834,150.952861 C123.8304,150.674898 123.219746,150.652677 122.694552,150.309668 C122.639585,150.27371 122.583816,150.244217 122.527646,150.217956 C122.406077,150.105236 122.285711,149.99292 122.167352,149.880603 C122.506381,148.875816 122.789641,147.851232 123.06929,146.826245 C124.045051,145.844891 125.232255,144.776269 125.423636,144.59325 C125.466165,144.552444 125.396754,144.493862 125.354626,144.533456 C124.655705,145.194021 123.937525,145.83479 123.251041,146.50586 C123.361778,146.200424 123.473316,145.895796 123.584052,145.590361 C124.576665,144.705162 125.458943,143.71492 126.035493,142.506509 C126.085645,142.401869 125.924356,142.325106 125.874204,142.429342 C125.353423,143.50968 124.594319,144.38397 123.737317,145.168568 C123.902218,144.714455 124.06752,144.260745 124.23242,143.807439 C125.288024,142.88588 126.370109,141.995833 127.463427,141.111847 C127.560923,141.033064 127.451792,140.871457 127.353895,140.95024 C126.359677,141.748979 125.36225,142.548931 124.389296,143.376759 C124.585492,142.837398 124.780885,142.297633 124.977883,141.758676 C125.382311,141.397082 125.78393,141.031852 126.174716,140.656925 C127.033322,139.833137 128.172781,139.185904 128.716431,138.083345 C128.7722,137.970221 128.596467,137.886994 128.540697,137.999714 C128.006676,139.077224 126.878452,139.730517 126.022253,140.525216 C125.733376,140.793482 125.437277,141.054477 125.139574,141.313451 C125.373885,140.67349 125.614214,140.035145 125.850131,139.395588 C126.901321,138.423526 127.967357,137.467625 129.040615,136.516976 C129.124469,136.442637 129.026171,136.296384 128.941113,136.371127 C127.956123,137.240568 126.970331,138.110818 125.99818,138.996017 C126.207616,138.429183 126.417453,137.862753 126.628493,137.296323 C127.617094,136.305272 128.5744,135.283921 129.477541,134.210451 C129.604326,134.090862 129.731111,133.97087 129.857895,133.850877 L129.865519,133.748257 L129.935331,133.66503 C130.01437,133.567258 129.867123,133.439993 129.787682,133.537361 C129.626393,133.73654 129.459085,133.930064 129.293783,134.125608 C128.541099,134.844755 127.800049,135.573196 127.133225,136.377995 C127.10193,136.415972 127.11517,136.459202 127.144459,136.483847 C127.030513,136.600608 126.915364,136.71656 126.800214,136.832917 C126.934622,136.474151 127.064617,136.114173 127.199827,135.755407 C127.374758,135.291193 127.545677,134.824959 127.716596,134.359129 C128.027941,133.98703 128.337681,133.605235 128.669488,133.251318 C129.072311,132.923257 129.475535,132.5956 129.875549,132.263903 L129.928911,132.23037 L129.952583,132.199665 C130.365035,131.857059 130.776684,131.514454 131.189537,131.173061 C131.321939,131.063573 131.171081,130.841364 131.039081,130.95166 C130.04727,131.781105 129.055059,132.609741 128.058433,133.433125 C128.242994,132.927297 128.425949,132.420257 128.608904,131.913622 C128.653841,131.866352 128.699178,131.819082 128.744115,131.771812 C129.211935,131.282145 129.6946,130.802175 130.145569,130.296347 C131.92176,128.909361 133.844396,127.733271 135.419176,126.101048 C135.492599,126.024689 135.356185,125.913585 135.283564,125.988732 C133.93788,127.380162 132.306528,128.424946 130.754617,129.56225 C130.968065,129.283076 131.16747,128.992588 131.344809,128.685132 C131.378511,128.626954 131.285027,128.583724 131.251325,128.640691 C130.996953,129.070967 130.700052,129.467307 130.37988,129.844657 C129.98468,130.141609 129.594697,130.444217 129.219959,130.765813 C129.343534,130.43654 129.461893,130.105247 129.581055,129.774763 C129.963817,129.372767 130.353801,128.976428 130.746994,128.584128 C131.54301,127.995074 132.343039,127.412079 133.151091,126.839185 C134.471098,125.903484 135.901841,125.061112 137.115926,123.987238 C137.198577,123.914111 137.101081,123.769878 137.018029,123.843812 C135.900637,124.837691 134.591865,125.615421 133.376576,126.481227 C132.765521,126.916756 132.15567,127.353093 131.54943,127.793874 C131.65816,127.688426 131.766087,127.581765 131.875219,127.477125 C131.960277,127.39511 131.821456,127.277946 131.7372,127.357537 C131.335581,127.73812 130.947202,128.132035 130.56123,128.52797 C130.319697,128.708161 130.075757,128.883908 129.83623,129.066523 C130.085787,128.364344 130.325715,127.658124 130.565243,126.952309 C131.437089,126.087311 132.371525,125.291401 133.295931,124.482561 C134.041394,124.025619 134.812534,123.613119 135.495006,123.070122 C135.534325,123.038609 135.490593,122.973563 135.450471,123.005076 C134.833799,123.491915 134.144908,123.878154 133.466449,124.282977 C133.465245,124.207022 133.389415,124.135916 133.318399,124.19773 C133.052392,124.428423 132.78478,124.6575 132.517568,124.886577 C132.413653,124.958088 132.31054,125.030002 132.209834,125.105957 C131.740811,125.459875 131.28262,125.827125 130.82483,126.195184 C130.940782,125.847326 131.055531,125.499469 131.17068,125.151611 C131.737601,124.591645 132.271221,123.997742 132.888294,123.498379 C133.652614,123.034165 134.418539,122.571971 135.219771,122.173208 L135.28557,122.155027 C135.68398,121.881508 136.082389,121.60799 136.480798,121.334471 C136.594744,121.256092 136.47478,121.080749 136.360433,121.157108 C135.959215,121.426587 135.557596,121.695661 135.156378,121.964735 L135.123478,121.998269 C134.377614,122.371175 133.662644,122.80024 132.950884,123.234961 C133.512187,122.790139 134.088738,122.364711 134.695379,121.97524 C134.804911,121.904941 134.690965,121.738891 134.582235,121.808381 C133.563543,122.459251 132.61025,123.199003 131.700288,123.991278 C131.639704,124.027235 131.579922,124.064405 131.519339,124.099958 C131.759267,123.37475 132.001602,122.649946 132.246746,121.926354 C132.393993,121.76798 132.542043,121.60799 132.692901,121.448807 C132.789594,121.382145 132.885886,121.315886 132.98258,121.249224 C133.405062,120.957524 133.802669,120.632292 134.198671,120.305443 C134.255644,120.282414 134.315426,120.265445 134.373602,120.244841 C134.387244,120.290898 134.429371,120.326452 134.486746,120.302211 C136.102049,119.621848 137.771516,119.083296 139.386819,118.403337 C139.503975,118.354047 139.438175,118.166584 139.320217,118.216278 C137.760683,118.869975 136.150596,119.390347 134.595877,120.056569 L134.558564,120.010512 C135.187673,119.494988 135.828418,118.998856 136.571072,118.648575 C136.61962,118.62595 136.593942,118.547975 136.542586,118.56858 C135.686788,118.906337 134.964997,119.480443 134.251632,120.065862 C133.534656,120.313927 132.947674,120.873489 132.415659,121.436283 C132.546456,121.054488 132.675247,120.671885 132.810056,120.291302 C132.841752,120.201207 132.871844,120.110303 132.90354,120.020208 C132.992209,119.933749 133.079675,119.845673 133.169547,119.760426 C133.621319,119.332977 134.2083,118.963303 134.751951,118.556055 C135.44686,118.31001 136.142973,118.068408 136.841493,117.832867 C137.78917,117.513695 138.786597,117.270477 139.63758,116.727884 C139.724644,116.67213 139.633969,116.539613 139.547306,116.594963 C138.615678,117.186038 137.485046,117.440972 136.448701,117.788021 C136.018997,117.931447 135.590897,118.078509 135.163199,118.227186 C135.50945,117.932255 135.81598,117.609446 136.020601,117.224823 C136.051896,117.165433 135.959215,117.122203 135.926716,117.180382 C135.63784,117.703986 135.132706,118.071236 134.640813,118.411821 C134.237188,118.555247 133.833964,118.699077 133.433148,118.84937 C133.330837,118.887752 133.38781,119.048146 133.490121,119.010169 C133.699556,118.932598 133.910597,118.859067 134.120835,118.783112 C133.732055,119.071983 133.368552,119.382267 133.011066,119.708308 C133.188806,119.20046 133.364941,118.691804 133.537464,118.181937 C133.680298,118.067196 133.820323,117.949224 133.965564,117.836907 C134.250428,117.616315 134.534892,117.384006 134.821763,117.150889 C135.046043,117.052309 135.267516,117.002211 135.471334,117.0414 C135.527103,117.052309 135.541949,116.965849 135.486179,116.954537 C135.337729,116.924236 135.183661,116.941204 135.029192,116.983626 C135.522289,116.586883 136.028626,116.202664 136.564252,115.881875 C138.351276,115.439478 140.159966,115.07748 141.882795,114.414086 C142.003562,114.367624 141.936558,114.178141 141.815391,114.224199 C140.366994,114.773256 138.855205,115.087984 137.353046,115.439074 C137.370298,115.381704 137.324158,115.308577 137.254747,115.338474 C137.08744,115.410793 136.926551,115.493616 136.767669,115.58048 C136.168651,115.726733 135.573645,115.886319 134.985861,116.073379 C135.937951,115.34009 136.870381,114.583369 137.74985,113.761601 C138.109743,113.745844 138.469635,113.734128 138.829527,113.710695 C140.245826,113.618579 141.620399,113.331324 143.02426,113.155173 C143.152248,113.139417 143.135798,112.938621 143.007008,112.953974 C141.727123,113.108712 140.471311,113.360413 139.183803,113.464649 C138.782986,113.496971 138.380966,113.520808 137.978946,113.541412 C138.080855,113.444045 138.183968,113.347889 138.284272,113.248097 C138.390996,113.142245 138.214059,112.991143 138.108539,113.095783 C137.950459,113.252541 137.789972,113.405663 137.62788,113.557573 C137.322954,113.57131 137.018029,113.584238 136.713103,113.595146 C137.431685,113.094167 138.100113,112.51198 138.293099,111.73627 C138.31958,111.62961 138.153074,111.600925 138.126594,111.707181 C137.913146,112.561674 137.111111,113.039221 136.435862,113.496971 C136.3825,113.533332 136.331946,113.573734 136.278986,113.610499 C135.837245,113.625448 135.395504,113.640396 134.954566,113.658577 C135.017557,113.442833 135.080548,113.227088 135.143539,113.011344 C135.714873,112.635609 136.284603,112.258663 136.849116,111.87404 C136.963865,111.857879 137.078613,111.845759 137.193361,111.827174 C138.131408,111.675264 139.036957,111.290237 139.996269,111.475276 C140.044014,111.484569 140.072902,111.458712 140.090956,111.42639 C140.34252,111.584764 140.59609,111.739502 140.868115,111.874848 C141.796935,112.336234 142.785937,112.70308 143.754476,113.089723 C143.667011,113.286883 143.579545,113.484042 143.499302,113.684838 C143.44273,113.825839 143.654172,113.927651 143.711546,113.785842 C143.794999,113.58141 143.884471,113.379806 143.974344,113.178606 C144.081469,113.221836 144.189798,113.263854 144.29612,113.308295 C145.082507,113.635952 145.866086,113.977749 146.654479,114.30581 C145.476102,117.115739 144.302941,119.927688 143.151045,122.74893 C142.574093,124.162581 141.868351,125.510781 141.102828,126.829084 C140.363784,128.101734 139.869083,129.492356 139.287317,130.840152 C138.706354,132.185928 137.907128,133.415348 137.358262,134.779305 C136.790538,136.18932 136.199545,137.590042 135.627408,138.998037 C134.520047,141.72191 133.661441,144.535072 132.066198,147.027848 C131.995584,147.138145 132.186163,147.262986 132.258783,147.153901 C133.836372,144.79445 134.705008,142.073808 135.714472,139.440838 C136.788934,136.638585 138.00021,133.948649 139.306174,131.254268 C139.946518,129.933137 140.416745,128.542111 141.113259,127.246432 C141.837056,125.90106 142.590142,124.60619 143.188358,123.194155 C144.42772,120.269082 145.563568,117.293102 146.731111,114.337727 C147.146372,114.509838 147.563237,114.677101 147.982911,114.835475 L147.96927,114.917086 C147.962048,114.984556 148.006583,115.037078 148.059945,115.061319 C148.00899,115.287568 147.955227,115.513009 147.900661,115.735622 L147.896248,115.752994 C147.783506,116.210744 147.667153,116.649505 147.560028,117.038168 C146.478745,119.193188 145.235371,121.266596 144.22029,123.457573 C143.514548,124.980713 142.905098,126.549101 142.301265,128.120318 C140.873732,131.032059 139.446199,133.947437 138.241342,136.956141 C137.471004,138.879256 136.476385,140.701771 135.693609,142.622057 C135.323686,143.529073 134.943332,144.432048 134.585044,145.343911 Z M146.883173,120.408871 C147.093411,119.665078 147.288403,118.916841 147.476975,118.166988 C147.613389,117.883369 147.759433,117.567833 147.894242,117.249872 C148.266973,116.514968 148.622452,115.771175 148.940217,115.007181 C148.981542,114.907793 148.941421,114.822142 148.874818,114.770832 C148.969506,114.279953 148.988363,113.759581 148.998393,113.413743 C149.02046,112.642882 148.81263,111.998477 148.533382,111.287813 C148.331569,110.775521 148.164663,110.251109 147.994546,109.727908 L148.016613,109.67175 C148.056334,109.57519 147.988528,109.496003 147.911093,109.477419 C147.865755,109.339649 147.819214,109.20188 147.771469,109.064919 L147.75863,109.029769 C147.688417,108.828973 147.617,108.628986 147.537961,108.431422 C147.327722,107.906606 147.202944,107.393102 147.139952,106.884446 C147.190105,106.766069 147.243868,106.649309 147.29081,106.529316 C147.332136,106.423868 147.174858,106.347913 147.132329,106.453765 L147.105448,106.51558 C147.083381,106.187115 147.08659,105.860266 147.10625,105.533014 C147.227017,105.14031 147.304051,104.73387 147.316087,104.308442 C147.317291,104.265212 147.289607,104.246628 147.258312,104.240567 C147.365036,103.600202 147.507869,102.951757 147.641074,102.283515 C147.75181,101.726782 147.780697,101.220146 147.59694,100.853704 C147.706472,100.471909 148.106887,99.3754105 148.132967,99.2663262 C148.220833,98.8954398 148.339995,98.538694 148.426257,98.1754839 C148.545419,97.9633756 148.634088,97.7375309 148.630878,97.4357311 C148.629674,97.3622003 148.580324,97.3011939 148.518537,97.2672566 C148.498476,97.2102904 148.460762,97.1549402 148.409406,97.1359515 C147.857731,96.9307115 147.271552,97.0030303 146.698212,97.0628247 C146.229188,97.1121146 145.517428,97.0066665 145.107784,97.278569 C144.559319,97.6429912 144.559319,98.2385103 144.477471,98.8457459 C144.43093,99.1923913 144.19702,99.4836867 144.221093,99.8101313 C144.091499,99.801243 143.966319,99.8214438 143.863206,99.9018429 C143.308723,100.334948 143.127373,101.173684 142.883031,101.802737 C142.791152,102.038682 142.696866,102.268163 142.598167,102.492795 C142.324937,102.97115 142.118711,103.469301 141.821008,103.928667 C141.763232,104.015935 141.699439,104.10199 141.63725,104.188449 L141.565031,104.283393 C141.452288,104.419546 141.331923,104.540751 141.207144,104.653067 C141.154585,104.656703 141.101624,104.661148 141.048262,104.659128 C140.962803,104.656299 140.95197,104.778312 141.01456,104.815886 C140.903422,104.903961 140.789878,104.987188 140.672321,105.062739 C140.917064,104.696297 141.101624,104.310866 140.985271,103.851904 C140.956784,103.7408 140.793489,103.80221 140.819969,103.911295 C140.914657,104.30521 140.669111,104.788009 140.363383,105.245758 C140.015527,105.434838 139.649215,105.588364 139.274879,105.730173 C139.375184,105.58998 139.473482,105.447766 139.562151,105.297876 C139.625945,105.189196 139.450211,105.107585 139.386418,105.214245 C139.252812,105.436454 139.101152,105.645734 138.945881,105.852186 C138.551082,105.997228 138.153475,106.142269 137.768306,106.31842 C137.481034,106.450129 137.219841,106.602847 136.954637,106.747081 C136.968278,106.709507 136.983925,106.673954 136.996764,106.635572 C137.010406,106.594363 136.953433,106.564062 136.934174,106.605675 C136.902077,106.676782 136.865566,106.742232 136.831463,106.810107 C136.744398,106.856165 136.654526,106.898183 136.564653,106.940604 C136.458731,106.969693 136.35281,106.998782 136.247289,107.028276 C135.722898,107.175337 135.237825,107.331691 134.803306,107.625007 C134.761179,107.648844 134.715841,107.669448 134.675719,107.694901 C133.985625,108.131642 133.864858,108.513437 133.875691,109.134005 C133.723629,109.609532 133.638571,110.105259 133.649003,110.59533 C133.539872,110.9646 133.427129,111.332659 133.303554,111.700313 C133.287104,111.750007 133.269451,111.799297 133.2526,111.848991 L133.151894,111.917269 C133.090508,111.956459 133.129827,112.03201 133.187201,112.03807 C132.692901,113.486062 132.156472,114.919106 131.662573,116.367502 C131.581126,116.606275 131.498876,116.844241 131.417429,117.08261 C130.984916,117.369865 130.550397,117.654292 130.112268,117.935891 C130.029215,117.989221 130.113872,118.107598 130.197326,118.061136 C130.576075,117.849028 130.945597,117.619547 131.313113,117.386834 C130.919117,118.538682 130.519504,119.686087 130.111866,120.830663 C129.44103,121.534055 128.942718,122.352186 129.288166,123.087899 C129.22678,123.251121 129.164591,123.414344 129.102402,123.577162 C129.01614,123.662409 128.931082,123.749273 128.844018,123.833308 C128.768188,123.906435 128.883337,124.006227 128.961976,123.948452 C128.946329,123.989662 128.930681,124.030872 128.915034,124.072081 C128.821951,124.156925 128.727264,124.240152 128.635786,124.327419 C128.55153,124.408222 128.686741,124.523771 128.771398,124.447816 C128.645816,124.773048 128.517828,125.097473 128.388636,125.421494 C128.261851,125.549971 128.131455,125.675215 128.007078,125.805713 C127.904366,125.913989 128.076488,126.062667 128.180002,125.960451 C127.822116,126.863426 127.487902,127.772461 127.162915,128.684324 C127.123195,128.767552 127.086283,128.852799 127.053383,128.940874 L127.054586,128.992992 C126.41986,130.794094 125.832878,132.609741 125.272377,134.443972 C125.235866,134.563561 125.196145,134.681129 125.158431,134.800314 C125.184911,134.702946 125.215003,134.607194 125.239477,134.509422 C125.261945,134.420135 125.114297,134.372057 125.085811,134.460133 C124.680581,135.706117 124.283375,136.92382 123.819968,138.135463 C123.719263,138.378277 123.621767,138.622302 123.527079,138.866732 C123.476526,138.990764 123.430787,139.114393 123.378227,139.238022 C122.74992,140.725204 122.274878,142.224102 121.846779,143.779562 C121.770949,144.054293 121.6891,144.327408 121.612067,144.601734 C121.520589,144.861112 121.429914,145.120894 121.334825,145.378252 C121.189183,145.77338 121.012246,146.208909 120.887868,146.654134 C120.748646,146.968054 120.603405,147.278742 120.445726,147.580542 C120.017627,148.399482 119.744799,148.969548 120.357458,149.75657 C120.90833,150.464406 121.713173,150.327445 122.416508,150.624396 C123.09577,151.194058 123.787871,151.688573 124.685395,152.06552 C126.084442,152.653363 127.491111,153.317161 128.918645,153.825008 C129.730709,154.11388 130.38309,154.023784 130.915907,153.710672 C131.107288,153.764002 131.307094,153.805616 131.48042,153.732893 C132.326589,153.377359 132.623089,152.282072 132.902738,151.497474 C133.452005,149.954538 134.073491,148.333223 134.813738,146.873918 C135.068913,146.370919 135.379857,145.898221 135.635031,145.394413 C135.948783,144.775865 136.09924,144.054697 136.310682,143.398172 C136.882417,142.216022 137.45335,141.033468 138.004624,139.841621 C139.14328,137.380358 140.28996,134.92273 141.425006,132.459851 C142.545607,130.029293 143.461989,127.507831 144.706566,125.137471 C145.527859,123.573526 146.398903,122.119877 146.883173,120.408871 Z" id="marker" transform="translate(134.500000, 125.500000) rotate(630.000000) translate(-134.500000, -125.500000) "></path>
                </g>
            </g>
        </g>
    </g>
</svg>