<?xml version="1.0" encoding="UTF-8" standalone="no"?>
<svg width="90px" height="124px" viewBox="0 0 90 124" version="1.1" xmlns="http://www.w3.org/2000/svg" xmlns:xlink="http://www.w3.org/1999/xlink">
    <!-- Generator: Sketch 50.2 (55047) - http://www.bohemiancoding.com/sketch -->
    <title>mock</title>
    <desc>Created with Sketch.</desc>
    <defs></defs>
    <g id="Page-1" stroke="none" stroke-width="1" fill="none" fill-rule="evenodd">
        <g id="mock" transform="translate(1.000000, 2.000000)">
            <polygon id="Polygon-Copy-2" stroke="#FFFFFF" stroke-width="2" points="43.5026714 0 87.0053429 30 87.0053429 90 43.5026714 120 2.66453526e-14 90 -1.77635684e-15 30"></polygon>
            <g transform="translate(19.000000, 35.000000)" fill="#FFFFFF" fill-rule="nonzero">
                <path d="M49.3165579,0.0900900901 L0,0.0900900901 L0,40.6869369 L13.6688413,40.6869369 C11.2030134,42.4436937 9.36820441,45.3378378 8.76630941,48.8063063 L8.57214974,49.9099099 L40.7347002,49.9099099 L40.5405405,48.8063063 C39.9386455,45.3378378 38.1038366,42.4436937 35.6380087,40.6869369 L49.3165579,40.6869369 L49.3165579,0.0900900901 Z M47.7244486,1.93693694 L47.7244486,32.3873874 L1.59210935,32.3873874 L1.59210935,1.93693694 L47.7244486,1.93693694 Z M38.7445635,48.0630631 L10.5719944,48.0630631 C11.7563684,43.7274775 15.2609506,40.6869369 19.250932,40.6869369 L30.075334,40.6869369 C34.0653153,40.6869369 37.5698975,43.7274775 38.7445635,48.0630631 Z M30.065626,38.8400901 L19.250932,38.8400901 L1.59210935,38.8400901 L1.59210935,34.222973 L47.7244486,34.222973 L47.7244486,38.8400901 L30.065626,38.8400901 Z" id="Shape"></path>
                <path d="M18.2995495,4.69594595 L8.41682199,4.69594595 L3.98027338,9.8536036 L3.98027338,29.6171171 L18.2995495,29.6171171 L18.2995495,4.69594595 Z M7.95083877,7.8490991 L7.95083877,9.31306306 L6.68880087,9.31306306 L7.95083877,7.8490991 Z M16.7074402,27.7702703 L5.57238273,27.7702703 L5.57238273,11.1599099 L9.5526561,11.1599099 L9.5526561,6.54279279 L16.7074402,6.54279279 L16.7074402,27.7702703 Z" id="Shape"></path>
                <path d="M14.3192762,13.0067568 L7.95083877,13.0067568 L7.95083877,22.2297297 L14.3095682,22.2297297 L14.3095682,13.0067568 L14.3192762,13.0067568 Z M12.7271668,20.3828829 L9.54294812,20.3828829 L9.54294812,14.8423423 L12.7271668,14.8423423 L12.7271668,20.3828829 Z" id="Shape"></path>
                <rect id="Rectangle-path" x="7.15478409" y="24.0765766" width="7.95083877" height="1.84684685"></rect>
                <path d="M42.1617738,29.6171171 C43.9189189,29.6171171 45.3459925,27.9617117 45.3459925,25.9234234 C45.3459925,23.8851351 43.9189189,22.2297297 42.1617738,22.2297297 L25.1922181,22.2297297 L20.9498291,25.9234234 L25.1922181,29.6171171 L42.1617738,29.6171171 Z M27.046443,24.0765766 L39.7736098,24.0765766 L39.7736098,27.7702703 L27.046443,27.7702703 L27.046443,24.0765766 Z M43.7441752,25.9234234 C43.7441752,26.9369369 43.0354924,27.7702703 42.1520659,27.7702703 L41.3560112,27.7702703 L41.3560112,24.0765766 L42.1520659,24.0765766 C43.0354924,24.0765766 43.7441752,24.9099099 43.7441752,25.9234234 Z M25.4543336,24.3130631 L25.4543336,27.545045 L23.6001087,25.9346847 L25.4543336,24.3130631 Z" id="Shape"></path>
                <path d="M45.3362846,9.31306306 L21.4740603,9.31306306 L21.4740603,20.3828829 L45.3362846,20.3828829 L45.3362846,9.31306306 Z M43.7441752,18.536036 L23.0661696,18.536036 L23.0661696,11.1599099 L24.658279,11.1599099 L24.658279,13.0067568 L26.2503883,13.0067568 L26.2503883,11.1599099 L27.8424977,11.1599099 L27.8424977,13.0067568 L29.434607,13.0067568 L29.434607,11.1599099 L31.0267164,11.1599099 L31.0267164,13.0067568 L32.6188257,13.0067568 L32.6188257,11.1599099 L34.2109351,11.1599099 L34.2109351,13.0067568 L35.8030444,13.0067568 L35.8030444,11.1599099 L37.3951538,11.1599099 L37.3951538,13.0067568 L38.9872631,13.0067568 L38.9872631,11.1599099 L40.5793725,11.1599099 L40.5793725,13.0067568 L42.1714818,13.0067568 L42.1714818,11.1599099 L43.7635912,11.1599099 L43.7635912,18.536036 L43.7441752,18.536036 Z" id="Shape"></path>
            </g>
        </g>
    </g>
</svg>