<?xml version="1.0" encoding="UTF-8" standalone="no"?>
<svg width="30px" height="19px" viewBox="0 0 30 19" version="1.1" xmlns="http://www.w3.org/2000/svg" xmlns:xlink="http://www.w3.org/1999/xlink">
    <!-- Generator: Sketch 50.2 (55047) - http://www.bohemiancoding.com/sketch -->
    <title>mouse</title>
    <desc>Created with Sketch.</desc>
    <defs></defs>
    <g id="Page-1" stroke="none" stroke-width="1" fill="none" fill-rule="evenodd">
        <g id="MOCKUP" transform="translate(-804.000000, -146.000000)" fill="#212121">
            <g id="HERO">
                <g id="Hero-IMG" transform="translate(325.000000, 126.000000)">
                    <g id="mouse" transform="translate(493.500000, 29.000000) rotate(-107.000000) translate(-493.500000, -29.000000) translate(482.000000, 15.000000)">
                        <path d="M12.9019261,23.5731076 C12.9450787,23.5343215 12.9852698,23.496407 13.0305377,23.4571851 C12.9852698,23.496407 12.9450787,23.5343215 12.9019261,23.5731076" id="Fill-1632"></path>
                        <path d="M13.0305377,23.4571851 C13.2598386,23.2440795 13.4840628,23.0270517 13.6989795,22.7995647 C13.4802552,23.0222579 13.2606848,23.2427721 13.0305377,23.4571851" id="Fill-1633"></path>
                        <path d="M16.8884625,14.6527412 C14.9639423,15.4790158 12.8465047,15.5374128 11.1457856,14.1537515 C11.5667347,13.7336415 11.8692258,13.2085039 12.205139,12.7130006 C12.5998581,12.1272869 12.8600427,11.3275961 13.3533359,10.8225052 C13.354182,10.820762 13.3516436,10.8194546 13.3533359,10.8168398 C14.8230618,11.6531378 16.4873974,9.26931817 17.0991486,8.23821812 C17.7354375,7.16615298 19.2064326,4.72873009 18.0248136,3.66538092 C18.0523128,3.66233033 18.079812,3.64882057 18.099696,3.61875045 C18.2646912,3.36903771 18.3514194,3.08097468 18.4910306,2.81513739 C19.5131544,3.57865696 20.49551,4.40100936 21.4262518,5.2848094 C23.0228971,6.79921036 22.1403846,9.24883563 21.0933001,10.8168398 C20.3791673,11.891084 19.7399169,13.0298263 19.1213967,14.1851291 C18.3526886,14.1206308 17.6330559,14.3337365 16.8884625,14.6527412 Z M17.9258165,3.68717087 C17.9317394,3.72552116 17.9668538,3.73162235 17.9951991,3.72116318 C18.7554459,4.8747227 17.7003232,6.7495293 17.1516086,7.72920508 C16.4734362,8.93767526 15.7863796,10.4294147 14.2988849,10.7362171 C11.6919618,11.2718138 14.1004677,7.0110086 14.4621878,6.26361359 C14.8395613,5.48702006 15.4318516,4.59929783 16.1878677,4.21405166 C16.3367864,4.13865846 17.8467035,3.29408031 17.9258165,3.68717087 Z M12.4103252,11.895442 C11.916609,12.5831325 11.424162,13.2943562 11.0053282,14.0365217 C10.9875595,14.0221403 10.9664062,14.0073231 10.9486375,13.9885838 C8.83712282,12.0928588 8.30152322,10.231562 8.32902241,7.3478811 C8.33706064,6.56475059 8.45382643,6.06009553 7.76634669,5.734118 L7.79088443,5.70274049 C7.79638426,5.6983825 7.79638426,5.6983825 7.80061491,5.69140972 C8.88577524,4.3487135 9.97855073,2.99163592 11.1149019,1.70079977 C13.0144613,-0.453789685 15.4817732,0.698898239 17.4705992,2.07907316 C17.7752056,2.29043559 18.073043,2.50702761 18.368765,2.72667023 C18.1898087,2.96635959 18.0815042,3.21563652 17.928778,3.47014304 C17.4223698,2.92103651 15.2165118,4.90740761 14.9584424,5.25561088 C14.4486498,5.94417304 11.9919145,9.64454097 13.0593061,10.6024268 C13.1329193,10.6695398 13.2078017,10.7179135 13.2843764,10.766723 C12.9129258,10.9937742 12.6603563,11.5476745 12.4103252,11.895442 Z M18.5701437,15.9252738 C20.1443665,13.4547302 21.7410118,10.764544 22.4039538,8.04036545 C23.1663159,4.9095866 18.0146601,2.24511251 16.0507949,0.88236955 C12.3274046,-1.70104596 9.76024947,2.71316046 7.77438491,5.61253013 C7.77226959,5.61122273 7.7710004,5.61035113 7.7710004,5.61035113 C7.71769427,5.55718368 7.63942735,5.62603989 7.68300299,5.68835913 C7.69061815,5.6975109 7.69484879,5.70840587 7.70161783,5.71930084 C7.56708333,5.91148813 7.43720254,6.09931743 7.30732175,6.27712336 C7.30309111,6.28409614 7.31366772,6.29150472 7.32043675,6.28583933 C7.45666351,6.11500619 7.59754397,5.94286565 7.73630911,5.7737757 C8.55282351,7.0484873 8.07349148,9.49985576 8.42167353,11.0517354 C8.69962688,12.2854819 9.85120832,13.4808781 10.8344101,14.1633391 C11.8133813,14.8427495 13.0965358,15.7853824 14.3598062,15.6576933 C15.9255678,15.498191 17.4832911,14.1855649 19.0630138,14.2953862 C18.5045687,15.3391244 17.9626231,16.3959366 17.3965629,17.4322662 C15.835455,19.9062962 14.1131596,22.239999 11.8802255,24.1121908 C10.0153573,25.6767086 6.09820354,28.4074241 3.47435778,27.1545025 C3.40962892,27.1239965 3.34363087,27.2246661 3.3956678,27.2747829 C3.45362763,27.3314368 3.52047181,27.3737093 3.58562374,27.4207755 C3.00179479,27.1871874 2.44208051,26.7967116 1.92424962,26.1896438 C-0.249878618,23.6463218 0.0344206961,19.620848 1.28161471,16.5828943 C2.82918449,12.8114911 4.93562241,9.41182439 7.36570465,6.17035264 C7.38220416,6.1476911 7.34582062,6.12285057 7.3293211,6.14507631 C3.57547019,11.0186147 0.133840843,15.6755611 0.133840843,22.2077499 C0.133840843,24.6007213 1.43899469,26.6903767 3.82507822,27.7179903 C4.39748443,27.9642167 5.72040698,27.6051184 6.65030265,27.324464 C8.2685242,26.947498 9.5753703,26.109021 10.4392679,25.5267938 C13.6291739,23.3778697 16.7234673,19.1828701 18.5701437,15.9252738 Z" id="Fill-1634"></path>
                        <path d="M12.2601373,24.1121908 C12.4801309,23.9387428 12.6942015,23.7591937 12.9019261,23.5731076 C12.6967399,23.7587579 12.4767463,23.9365638 12.2601373,24.1121908" id="Fill-1635"></path>
                        <path d="M13.8656669,9.47327203 C13.9062811,9.41095279 13.9464723,9.34166078 13.9870864,9.27367616 C13.9418185,9.33861019 13.8948584,9.40267262 13.8525519,9.46412025 C13.8470521,9.47240043 13.8601671,9.48155221 13.8656669,9.47327203" id="Fill-1636"></path>
                        <path d="M15.01471,9.46542765 C14.8133313,9.43622913 14.5937609,9.21527912 14.4283427,9.10066402 C14.3640369,9.05621254 14.3022695,8.9947649 14.246848,8.92460129 C14.2548862,8.91632111 14.2612322,8.90237555 14.2709627,8.89496697 C14.3103077,8.85966726 14.2392329,8.810422 14.2218872,8.86053886 C14.2172335,8.86751164 14.2125798,8.87492022 14.2104645,8.88102141 C14.1453125,8.79124685 14.0970832,8.68970572 14.0810068,8.58642139 C14.2857699,8.8470291 14.5324165,9.00565988 14.8484457,9.1102516 C14.8670605,9.11722438 14.8755218,9.08671846 14.8577531,9.08279627 C14.5429931,8.98299834 14.2921159,8.82523916 14.0839682,8.56550305 L14.0852374,8.56288826 C14.089045,8.55722287 14.0818529,8.55853027 14.0771992,8.55722287 C14.0733916,8.53194654 14.0649303,8.50623441 14.0674687,8.48182967 C14.0700071,8.44130038 14.0086627,8.43694239 14.0048551,8.47877908 C14.0006245,8.53020334 14.0073935,8.57901281 14.0196624,8.62782228 C13.94478,8.72892761 13.8745513,8.83308354 13.807284,8.93941845 C13.73494,8.85530928 13.6752879,8.76727791 13.6321354,8.67488856 C13.6279047,8.66617258 13.6147897,8.67314536 13.6181742,8.68142554 C13.6575192,8.79734803 13.7129407,8.89235218 13.7814771,8.98169094 C13.7615931,9.01481165 13.7374784,9.04575337 13.7205558,9.08236047 C13.7099792,9.10153562 13.7353631,9.11504538 13.7442474,9.09499864 C13.760747,9.06231372 13.7819002,9.0344226 13.7988228,9.00391668 C13.8618594,9.08410367 13.9350495,9.15906107 14.0086627,9.23619746 C14.0023168,9.25014302 13.9951247,9.26103799 13.9870864,9.27367616 C13.9951247,9.26103799 14.0023168,9.25014302 14.0112011,9.24011965 C14.016701,9.24622083 14.0213547,9.25101462 14.0285468,9.2579874 C14.2155412,9.45627587 14.299308,9.55476641 14.568377,9.57437736 C14.6191447,9.57699215 14.6305675,9.50290635 14.5852996,9.4850386 C14.4126893,9.41792558 14.2324638,9.29895249 14.0619689,9.16211166 C14.0674687,9.15383148 14.0704301,9.1459871 14.07593,9.13770692 C14.0704301,9.1459871 14.0640842,9.15165249 14.0585843,9.15993266 C13.977779,9.09369124 13.89232,9.0326794 13.8246297,8.957722 C13.8863971,8.85356608 13.9528182,8.75246075 14.0226239,8.65179122 C14.0509692,8.75638294 14.1144288,8.84877229 14.1821192,8.93593206 C14.1512355,9.00478828 14.1186595,9.0727729 14.07593,9.13770692 C14.115698,9.07669509 14.1626582,9.02265603 14.2108875,8.96992437 C14.2375406,9.00260928 14.2625014,9.03790899 14.2916929,9.06797911 C14.3940744,9.17387823 14.5324165,9.24927143 14.6521438,9.332509 C14.7769478,9.41923297 14.8590223,9.50595694 15.0117486,9.52992588 C15.0498244,9.53384807 15.0549011,9.47109303 15.01471,9.46542765" id="Fill-1637"></path>
                        <path d="M14.5366472,7.61589738 C14.6906426,7.21147606 14.9740958,6.86240119 15.1551674,6.46887484 C15.4183135,6.10803341 15.6302688,5.70317629 15.926837,5.37371237 C16.2009827,5.07083217 16.6117783,5.06603839 16.9185001,5.23033455 C16.9185001,5.2869884 16.9434609,5.34451384 16.9853442,5.38155675 C17.0987255,5.47656089 16.9929594,6.20434495 16.8888855,6.19824377 C16.7069678,6.186913 16.5872406,6.32549703 16.5597414,6.49763757 C16.5191272,6.74299231 16.3422863,6.89987989 16.1916753,7.07725002 C15.979297,7.32870595 15.8532238,7.71438792 15.6522681,7.99155598 C15.4369283,8.2848486 15.1627826,8.40077109 14.955904,8.61126193 C14.5992607,8.46614091 14.3860362,8.01465332 14.5366472,7.61589738 Z M14.8814447,9.29241551 C15.4648506,9.54822943 15.959836,9.22748148 16.2365202,8.68491193 C16.5229348,8.11663025 17.036535,7.44027045 17.1524547,6.78177841 C17.1892613,6.76739705 17.2281832,6.74996509 17.2802202,6.71945918 C17.3593332,6.6715213 17.443523,6.58131094 17.4384463,6.47715502 C17.4325234,6.40437662 17.4333695,6.34074999 17.4325234,6.27581596 C17.5357511,6.04353518 17.5937109,5.79600144 17.5539429,5.52231977 C17.535328,5.41075527 17.4325234,5.29919076 17.3001042,5.19982863 C17.2861431,5.18152508 17.2768356,5.1749881 17.2666821,5.17629549 C17.2569516,5.16975851 17.2467981,5.16452892 17.2374907,5.15799194 C17.2353753,5.15058336 17.2324139,5.15058336 17.2315678,5.1357662 C17.2294524,5.1000307 17.2121068,5.07998395 17.1909536,5.06734578 C17.1710695,5.05165703 17.1465318,5.04294105 17.1156481,5.05557921 C17.1063407,5.05688661 17.095341,5.0612446 17.0868797,5.06560259 C16.8897317,4.95708868 16.6824301,4.87777329 16.5656643,4.85075376 C15.9357213,4.71347713 15.5338101,5.48135468 15.2457032,6.10280382 C15.2308959,6.10280382 15.218204,6.10193222 15.2101658,6.11849258 C14.9529426,6.67892988 13.5716371,8.01116693 14.5061865,8.6591998 C14.6085681,8.73067081 14.7067191,8.77817288 14.8019086,8.81652318 C14.7735633,8.86533265 14.7498717,8.91719271 14.7295646,8.97776875 C14.7029115,9.05795574 14.7232186,9.13422053 14.7646789,9.19305338 C14.6356443,9.37565309 14.5023789,9.5582528 14.384767,9.75044009 C14.2802701,9.72472796 14.1766193,9.70119482 14.0771992,9.65805073 C14.2620783,9.38785546 14.4181891,9.08976905 14.5869918,8.81390839 C14.5975685,8.79734803 14.5734538,8.78078768 14.5624541,8.79734803 C14.3737674,9.06492852 14.161389,9.33033001 13.9870864,9.61185606 C13.8627055,9.54779363 13.748055,9.46586345 13.6596346,9.35429895 C13.6418658,9.32989421 13.6109821,9.35865693 13.6274817,9.38262587 C13.6909413,9.47850161 13.8089763,9.59093771 13.9418185,9.68681346 C13.9100887,9.73954512 13.8770897,9.79314837 13.8483213,9.84762323 C13.8275911,9.89163891 13.879205,9.92737442 13.9088195,9.88945992 C13.9473184,9.84370104 13.9807405,9.79271258 14.0179701,9.74390311 C14.1118905,9.80273595 14.2142721,9.84805903 14.3111538,9.86854157 C14.2971927,9.89338211 14.2773087,9.91778684 14.2646167,9.94306317 C14.2472711,9.97749128 14.2878853,10.0058182 14.312423,9.97618389 C14.3378069,9.94785696 14.3555756,9.90994246 14.3809595,9.87856495 C14.4291888,9.88248714 14.4786873,9.88030814 14.5231091,9.86505518 C14.5628772,9.85023802 14.5594927,9.79968536 14.5184554,9.79096938 C14.496456,9.78573979 14.4757259,9.77571642 14.4528804,9.77179423 C14.5730307,9.5952957 14.6804891,9.408338 14.791755,9.22617409 C14.8167158,9.25362941 14.8463304,9.27585515 14.8814447,9.29241551 Z" id="Fill-1638"></path>
                        <path d="M14.5002636,1.86988971 C11.8874175,1.71343793 10.5784561,3.81834632 9.70482802,6.16120086 C9.69298222,6.19127098 9.7407885,6.21654732 9.75644189,6.186913 C10.2945799,5.07083217 10.8576787,3.8227043 11.6978847,2.91624272 C12.4644775,2.08735333 13.4650249,1.96663706 14.4981483,1.91477699 C14.5248014,1.9130338 14.5286089,1.87163291 14.5002636,1.86988971" id="Fill-1639"></path>
                        <path d="M12.1560635,3.99310165 C12.172563,3.98046348 12.153102,3.95910934 12.1378717,3.97044011 C10.7438743,5.01810051 9.91720638,6.70115562 9.00931006,8.18069268 C8.99873345,8.19725303 9.0207328,8.21250599 9.0338478,8.19768883 C10.0107036,6.79005859 10.8301795,5.08041975 12.1560635,3.99310165" id="Fill-1640"></path>
                        <path d="M11.9445313,16.7210425 C12.1602941,16.7319375 12.3752109,16.7258363 12.5905507,16.7105833 C12.1577557,16.7140697 11.7211532,16.6887934 11.299781,16.6177582 C11.5180823,16.6709256 11.7355374,16.7092759 11.9445313,16.7210425" id="Fill-1641"></path>
                        <path d="M8.28713903,14.0526462 C8.2862929,14.0439302 8.27148565,14.0456734 8.27402403,14.055261 C8.65943575,15.6816623 9.89732235,16.3854774 11.299781,16.6177582 C10.0111267,16.3096484 8.64209011,15.3273578 8.28713903,14.0526462" id="Fill-1642"></path>
                        <path d="M14.5112633,16.4669718 C13.8711668,16.5240614 13.2314933,16.6639528 12.5905507,16.7105833 C13.2674538,16.7070969 13.9354726,16.6312679 14.5235322,16.5258046 C14.5603388,16.5192676 14.5476468,16.464357 14.5112633,16.4669718" id="Fill-1643"></path>
                        <path d="M8.5041711,14.0099379 C8.45382643,14.0940471 8.41448143,14.1855649 8.38486692,14.2796974 C8.42463498,14.1881796 8.46017239,14.0979693 8.5041711,14.0099379" id="Fill-1644"></path>
                        <path d="M8.35229096,14.3895187 C8.35990612,14.3524758 8.37344418,14.3154329 8.38486692,14.2796974 C8.36921354,14.3145613 8.34806031,14.3468104 8.33706064,14.3851607 C8.33494532,14.3956199 8.34890644,14.3995421 8.35229096,14.3895187" id="Fill-1645"></path>
                        <path d="M10.7324516,17.3939159 C10.4494215,17.3342115 10.1740065,17.2562035 9.91212961,17.1485611 C10.2260434,16.674412 10.4942663,16.1776013 10.7692582,15.6799191 C10.9198691,15.7627208 11.0730185,15.842472 11.2303984,15.9095851 C11.3674713,15.9684179 11.5024289,16.0119978 11.6369634,16.0529629 C11.3230496,16.4913765 10.9871364,16.9167162 10.7324516,17.3939159 Z M9.36214581,16.8840313 C9.66040625,16.386349 9.94809008,15.8790791 10.2239281,15.3582995 C10.393577,15.4681208 10.5661873,15.5714052 10.7396437,15.6677167 C10.4324989,16.1453522 10.1426997,16.6347543 9.84359316,17.1189268 C9.84232397,17.12067 9.84570849,17.12067 9.84443929,17.1219774 C9.67859803,17.051378 9.51656434,16.9751132 9.36214581,16.8840313 Z M7.72700169,18.4101988 C7.94572602,18.1312875 8.1661426,17.8493257 8.38402079,17.5638774 C8.47751804,17.644936 8.58286109,17.7137922 8.69158865,17.7791621 C8.50967094,18.0676609 8.32817628,18.3561597 8.1530276,18.6494523 C8.00157052,18.5988997 7.85349796,18.5160979 7.72700169,18.4101988 Z M7.68596444,18.3775139 C7.6686188,18.3618251 7.64535025,18.3496227 7.6292738,18.3326266 C7.83319087,18.032797 8.03372342,17.7290452 8.22833307,17.4235502 C8.25963984,17.4536203 8.29221581,17.4819473 8.32352257,17.5098384 C8.11199035,17.8035668 7.89791973,18.0920656 7.68596444,18.3775139 Z M8.72501074,16.6269099 C8.76774025,16.6665676 8.81639267,16.696202 8.86208363,16.7341165 C8.70343446,16.9724984 8.54140077,17.2065224 8.37429031,17.4366242 C8.34129128,17.4096047 8.30448467,17.3899937 8.27021645,17.3599236 C8.42548111,17.1197984 8.57482286,16.8731363 8.72501074,16.6269099 Z M9.67817496,14.9961507 C9.71667383,15.0240418 9.75940334,15.0480108 9.79959446,15.0776451 C9.56606288,15.6040901 9.2682255,16.1161537 8.94246587,16.6147076 C8.8933904,16.5785363 8.84304573,16.5480304 8.79566251,16.5105517 C9.09942279,16.0111262 9.39387565,15.5086501 9.67817496,14.9961507 Z M8.13272051,15.7609777 C8.14118179,15.7587987 8.15048921,15.7653356 8.1589505,15.7570555 C8.49317142,15.3365096 8.76985558,14.8702048 9.04146296,14.4025927 C9.22930357,14.6039317 9.43068226,14.7978622 9.64644513,14.969567 C9.3456463,15.465506 9.04146296,15.9627525 8.739818,16.45782 C8.51432464,16.2590957 8.31590741,16.0228928 8.13272051,15.7609777 Z M9.19249697,16.9672688 C9.04103989,17.2065224 8.89423653,17.4510055 8.74447171,17.6911307 C8.63912866,17.6279399 8.53590093,17.5586479 8.43901917,17.4854336 C8.60909108,17.2570751 8.77493235,17.0261017 8.93231233,16.7885913 C9.0148099,16.8561401 9.1040765,16.9080002 9.19249697,16.9672688 Z M10.1943136,15.339996 C9.89647622,15.8411646 9.58763917,16.3357963 9.27753292,16.8308638 C9.18784326,16.7768247 9.09984585,16.7258363 9.01607909,16.6661318 C9.33887727,16.1693212 9.62613803,15.6498489 9.83809333,15.1046646 C9.95316686,15.188338 10.0754325,15.2611164 10.1943136,15.339996 Z M15.9788739,15.8769001 C14.8958289,15.6773043 13.8918969,16.2024419 12.7843142,16.1645274 C12.1141801,16.1401226 11.4406615,15.9344256 10.8069109,15.6114986 C10.8382177,15.5531016 10.8699475,15.4964478 10.9016774,15.4380507 C10.9071772,15.4297705 10.8961775,15.422362 10.8911008,15.4306421 C10.8526019,15.4846812 10.8200259,15.5422066 10.7836424,15.5975531 C10.6059553,15.5064711 10.4291144,15.4079806 10.2573502,15.2968519 C10.2675037,15.2815989 10.275965,15.2654744 10.2831571,15.2502214 C10.2916184,15.2340969 10.2687729,15.2162291 10.2594655,15.2336611 C10.2505812,15.2480424 10.2404276,15.2628596 10.2319663,15.2789841 C10.0580868,15.1648048 9.88251509,15.0528045 9.71921221,14.9216291 C9.76151866,14.8479791 9.80340204,14.7765081 9.84401623,14.7041655 C9.85332365,14.6867335 9.82920897,14.6697374 9.81947849,14.6871693 C9.77632592,14.7577687 9.73528866,14.8279323 9.69128996,14.898096 C9.47468096,14.7215974 9.27457147,14.5285385 9.08630779,14.3267637 C9.13369101,14.2452693 9.17980503,14.1624675 9.22803438,14.0831521 C9.24199551,14.0570042 9.20941954,14.0339069 9.19165084,14.0583116 C9.13834472,14.1276036 9.08757698,14.1990746 9.03427086,14.2688024 C8.6623972,13.8600231 8.34382967,13.4094071 8.13145131,12.9278494 C8.12722067,12.9169544 8.11537486,12.9247988 8.11833631,12.9348222 C8.23425597,13.2568775 8.3958666,13.5523491 8.5862456,13.8273382 C8.56593851,13.8914006 8.53547787,13.9511051 8.5041711,14.0099379 C8.5350548,13.9589495 8.57270754,13.912319 8.61670624,13.8700465 C8.72839526,14.0325995 8.85108395,14.1899228 8.98519538,14.3376586 C8.66197414,14.7756365 8.34509886,15.2179723 8.089991,15.6990942 C8.0388002,15.6232652 7.98168649,15.5552806 7.93345715,15.4737862 C7.91441925,15.4406655 7.86365151,15.4637628 7.88226635,15.4986268 C8.08576035,15.9074061 8.35440628,16.2673759 8.67043543,16.5728709 C8.51897835,16.8182256 8.36794434,17.0657594 8.21564114,17.3102425 C8.09252938,17.1908336 7.98126343,17.0592224 7.88903538,16.8984126 C7.87380506,16.8735721 7.83530619,16.891004 7.84799813,16.9180236 C7.93768779,17.0871135 8.05276132,17.2352851 8.17671921,17.369947 C7.98380182,17.6784925 7.7887691,17.9839875 7.59077494,18.2899183 C7.52689221,18.2010153 7.47443221,18.102089 7.46850931,17.9735283 C7.46724012,17.9543532 7.44058706,17.9517384 7.43847173,17.9726567 C7.43424109,18.1081902 7.48543189,18.2328287 7.55608365,18.3461364 C7.26289998,18.7989313 6.96294729,19.2469325 6.65157185,19.6870894 C6.64607201,19.6953696 6.65961007,19.7027781 6.66426378,19.6962412 C6.98113906,19.2674151 7.28870692,18.8329237 7.58739042,18.3940742 C7.60262074,18.4123778 7.61869719,18.4298097 7.63350445,18.4459343 C7.5091235,18.61546 7.38347335,18.7858574 7.26501531,18.9536399 C7.25232337,18.9688929 7.27770724,18.9841459 7.28870692,18.9697645 C7.41308787,18.8085189 7.53831495,18.6477091 7.66777267,18.4860278 C7.78707685,18.6128452 7.94276456,18.6991334 8.10352906,18.7278961 C8.09210632,18.7483787 8.08068358,18.7662464 8.06799164,18.7858574 C8.05360745,18.8102621 8.0887218,18.8346668 8.10395212,18.8106979 C8.12172083,18.786729 8.13568196,18.7623242 8.15260453,18.7396627 C8.17883453,18.7379195 8.18898808,18.7170012 8.18602663,18.6925964 C8.38952063,18.4071482 8.58455334,18.1177778 8.77493235,17.8270999 C8.8933904,17.8911624 9.01565602,17.9456372 9.14765213,17.9831159 C9.19122777,17.9970615 9.21322713,17.9321275 9.17049762,17.9120807 C9.04992425,17.8606564 8.93865829,17.8035668 8.82866153,17.7416834 C8.98223393,17.5037372 9.13284488,17.265791 9.27922518,17.0256659 C9.69975125,17.2915032 10.1693528,17.4601573 10.6736456,17.5080952 C10.6622229,17.5464455 10.7045293,17.577823 10.7337208,17.5433949 C10.741759,17.5351147 10.7502203,17.5229123 10.7561432,17.512889 C10.8377946,17.517247 10.9194461,17.5294493 11.004482,17.5285777 C11.0505961,17.5263987 11.0544036,17.4605931 11.0087127,17.4527487 C10.9486375,17.4431612 10.8906777,17.4274724 10.8322948,17.4148342 C11.1546699,16.9982105 11.4068163,16.527112 11.6771545,16.0725738 C11.6788468,16.069959 11.6763084,16.0703948 11.6758853,16.06778 C12.2178309,16.2285898 12.7572381,16.2730413 13.3381056,16.2573525 C14.2455788,16.232512 15.0633624,15.7893046 15.9742202,15.9522933 C16.0194881,15.9597019 16.0245649,15.8847445 15.9788739,15.8769001 Z" id="Fill-1646"></path>
                        <path d="M1.41064937,19.7097509 C1.50753113,19.3301701 1.61456644,18.9540757 1.74698561,18.5823393 C1.88109704,18.4803624 2.0173238,18.3875372 2.15355055,18.2912257 C1.98813235,18.6756003 1.84386737,19.072613 1.73344755,19.4870577 C1.63360434,19.5585287 1.53756871,19.6352293 1.42968727,19.6971127 C1.4233413,19.7005991 1.41868759,19.7053929 1.41064937,19.7097509 Z M2.09601379,17.6854653 C2.13705104,17.5869748 2.17174233,17.4863052 2.208972,17.3873789 C2.29146957,17.3381336 2.37396714,17.2845304 2.45519551,17.2383357 C2.55038501,17.1851683 2.63922855,17.1241564 2.73061047,17.0648878 C2.5398084,17.4479549 2.3553523,17.8310221 2.18485732,18.2197547 C2.05116896,18.3042997 1.91832672,18.3914594 1.78379222,18.4829772 C1.88109704,18.2149609 1.98220945,17.948252 2.09601379,17.6854653 Z M2.62653662,16.1531966 C2.67476596,16.1283561 2.72341838,16.1039513 2.77122466,16.076496 C2.95906528,15.9614451 3.15494412,15.8638262 3.34955377,15.7631566 C3.18202025,16.152325 2.99714108,16.529291 2.81099272,16.9032064 C2.67391983,16.9751132 2.5398084,17.053557 2.39808181,17.111954 C2.36550585,17.1258996 2.33081456,17.1415884 2.2969694,17.1546623 C2.41627358,16.8225836 2.52627034,16.4900691 2.62653662,16.1531966 Z M2.90745141,15.2349685 C2.99291043,15.177443 3.0766772,15.119046 3.15917477,15.0654427 C3.32586216,14.9538782 3.50735681,14.8702048 3.68885146,14.7852241 C3.63173776,15.01489 3.56320132,15.2454276 3.47351166,15.4750936 C3.4515123,15.5300043 3.4265515,15.5809927 3.40370602,15.6337244 C3.16298235,15.7343939 2.92564319,15.8376782 2.68957322,15.9474996 C2.76064805,15.7091176 2.83172288,15.4702998 2.90745141,15.2349685 Z M3.08809994,14.6862977 C3.33093893,14.5546865 3.56193213,14.4012853 3.80223274,14.2635728 C3.77515661,14.4222036 3.73750388,14.5812702 3.69858195,14.7394652 C3.50820294,14.8266249 3.31359329,14.9050687 3.12279122,14.9922285 C3.06483139,15.0183764 3.01364059,15.0549835 2.95694996,15.0846179 C3.00052559,14.9516992 3.04071672,14.8161658 3.08809994,14.6862977 Z M4.13645366,13.537532 C4.14618414,13.234216 4.11403124,12.8999583 4.10556995,12.5678796 C4.13941511,12.5469612 4.1728372,12.5242997 4.20752849,12.5059961 C4.38648475,12.4083772 4.57051779,12.3290618 4.75412776,12.2410304 C4.6631689,12.7474287 4.57051779,13.2368308 4.46813619,13.7153379 C4.34375524,13.7841941 4.22148961,13.8561009 4.09330108,13.9201634 C4.11403124,13.7872447 4.13433834,13.6547619 4.13645366,13.537532 Z M4.42075297,13.9201634 C4.31625605,14.3969273 4.19864413,14.8649752 4.06791722,15.3295368 C3.90926805,15.4088522 3.75061887,15.4798874 3.59070051,15.5483078 C3.59493115,15.539156 3.59831567,15.5291327 3.60381551,15.5208525 C3.71381227,15.2833421 3.82338596,14.9848199 3.91561401,14.6745311 C4.03914883,14.6135193 4.1609914,14.5490211 4.2752188,14.4670909 C4.28748767,14.4575033 4.27352654,14.4335344 4.25871929,14.4418146 C4.15718382,14.510235 4.04211028,14.5590445 3.93422885,14.6148267 C3.98161207,14.4505305 4.02476464,14.2853628 4.0586098,14.1215024 C4.1787601,14.0539536 4.30229492,13.9890196 4.42075297,13.9201634 Z M1.35226648,19.9389811 C1.40261115,19.893658 1.45337888,19.846156 1.49864678,19.8034477 C1.55660661,19.750716 1.6209124,19.7005991 1.68733352,19.6522255 C1.65221917,19.8051909 1.61837402,19.960771 1.5959516,20.1198376 C1.58749031,20.1712619 1.66448804,20.1839 1.67971836,20.136398 C1.74867787,19.9202418 1.82736786,19.7132373 1.90267333,19.4996959 C1.90394253,19.5005675 1.90478865,19.4992601 1.90563478,19.4979527 C2.05793799,19.3920536 2.16878087,19.217734 2.32235327,19.1044263 C2.3363144,19.0939672 2.32193021,19.070434 2.30754602,19.0782784 C2.18739571,19.1519284 2.07612976,19.2377808 1.96528687,19.3236331 C2.12055153,18.9022157 2.28173908,18.4864636 2.45731083,18.0750695 C2.46534906,18.0685325 2.47507954,18.0611239 2.48481002,18.0537153 C2.49200212,18.0484857 2.48311777,18.0384624 2.47592567,18.0419488 C2.47296422,18.041513 2.47042583,18.045871 2.46704132,18.0476141 C2.62738274,17.6697766 2.79026256,17.2936822 2.95991141,16.9180236 C3.19386605,16.7646224 3.42570537,16.607299 3.66685211,16.4604348 C3.67446727,16.455641 3.6693905,16.4421312 3.65923695,16.4473608 C3.43882037,16.5558747 3.22644201,16.6805132 3.0123714,16.8016653 C3.18625089,16.4212129 3.3635149,16.0403247 3.53866358,15.6590007 C3.71550452,15.5679188 3.88642256,15.4694282 4.0573406,15.3665797 C3.85553886,16.0799824 3.61693051,16.7898987 3.30470894,17.5198618 C3.28863249,17.5564689 3.35124603,17.5804378 3.36393796,17.5403443 C3.75569565,16.3371037 4.44529071,15.0645711 4.62763149,13.7876805 C4.74355115,13.7153379 4.86285533,13.6490965 4.96989064,13.5662947 C5.03927321,13.513563 4.95296806,13.4155083 4.88485468,13.4630104 C4.8108184,13.5161778 4.73001309,13.5567071 4.65216923,13.6037734 C4.65597681,13.5741391 4.66232278,13.544069 4.66570729,13.5144346 C4.70166777,13.0620755 4.76089679,12.6245334 4.84043291,12.1983222 C4.8882392,12.1730458 4.93689161,12.1525633 4.98300563,12.1264153 C5.02319676,12.1037538 4.99400531,12.0366408 4.95169886,12.0579949 C4.92166129,12.0736837 4.88950839,12.0876293 4.85862468,12.1020106 C5.10738658,10.8355792 5.54060459,9.65456434 6.13289482,8.45742494 C6.13839466,8.44914476 6.12654886,8.43912139 6.12147208,8.44958056 C5.44668428,9.62144363 5.01135095,10.7850265 4.77697324,12.1220574 C4.77528099,12.1307733 4.77358873,12.1377461 4.77316566,12.1455905 C4.5561336,12.2523612 4.33190944,12.3486728 4.10556995,12.4227586 C4.10683915,12.1399251 4.13349221,11.8627571 4.23206622,11.6213245 C4.23375848,11.6182739 4.23079703,11.6182739 4.23037397,11.6160949 C4.4918278,11.4975576 4.74735873,11.3607168 4.98004418,11.1916268 C5.00627418,11.1737591 4.97581354,11.1245138 4.94704515,11.1432532 C4.67205326,11.3245455 4.36321621,11.4304446 4.07637851,11.5916902 C4.02772609,11.6200171 4.06114818,11.6958461 4.11530043,11.6727488 C4.13137688,11.6662118 4.15041478,11.654881 4.16649123,11.6479082 C4.11318511,11.9150529 4.07214786,12.1821976 4.03872577,12.4471633 C4.0264569,12.4528287 4.01376497,12.4580583 3.99938077,12.4624163 C3.88769176,12.495537 3.81069403,12.5988213 3.69519743,12.6214828 C3.58943132,12.640658 3.52427939,12.6899032 3.4455894,12.7622459 C3.40920586,12.7975456 3.44939698,12.8555068 3.49466488,12.8363317 C3.59281583,12.7958024 3.72227356,12.7875222 3.81830919,12.7391485 C3.88515337,12.7073352 3.95072836,12.6637553 4.01672642,12.6227902 C3.96003578,13.0991184 3.91688321,13.5745749 3.84284693,14.046545 C3.62623792,14.1537515 3.41132118,14.2640086 3.20190428,14.3825459 C3.22517282,14.3224057 3.24378766,14.2587791 3.27086378,14.1990746 C3.27382523,14.1907944 3.26197943,14.1846933 3.25732572,14.191666 C3.22263443,14.2600865 3.19640444,14.3341723 3.16213622,14.4052075 C2.9552577,14.5237448 2.75472515,14.6540486 2.56857679,14.8087572 C2.53050098,14.8388273 2.56180775,14.9146563 2.61257549,14.8998391 C2.75514821,14.8558235 2.88883658,14.7913252 3.01998656,14.7250838 C2.96202673,14.8584383 2.91168206,14.9983297 2.85964513,15.1377853 C2.6172292,15.2772409 2.38454375,15.4275915 2.14043556,15.5679188 C2.09812911,15.5910161 2.12858975,15.6507205 2.17258845,15.6350318 C2.38454375,15.5626892 2.59311452,15.4376149 2.79618546,15.3064395 C2.71157257,15.5378486 2.63288258,15.7714368 2.55419259,16.0067682 C2.18316507,16.1898037 1.69452562,16.3418975 1.46184017,16.7136339 C1.4305334,16.7646224 1.49187775,16.8212762 1.53756871,16.7824901 C1.82186802,16.5393144 2.15481975,16.3994229 2.47761793,16.2351268 C2.3684673,16.5702561 2.25000925,16.9005916 2.12435911,17.2278765 C1.8256756,17.3607952 1.50203129,17.5351147 1.33915148,17.7883138 C1.31842132,17.8201272 1.35226648,17.8576059 1.38568857,17.8427887 C1.5959516,17.7512709 1.8066377,17.6296831 2.01478541,17.504173 C1.99405525,17.5481887 1.98051719,17.5948192 1.9602101,17.6392706 C1.81552205,17.9717852 1.67887224,18.309965 1.55491435,18.6507597 C1.33322857,18.8207213 1.11958102,19.0028852 0.952470565,19.2107612 C0.941470889,19.2229636 0.961777983,19.2412672 0.973200723,19.2295006 C1.13946505,19.0708698 1.32857487,18.9222624 1.5138771,18.7727834 C1.39161147,19.1310101 1.29176826,19.4922873 1.20969375,19.8583583 C1.03496813,20.0087089 0.893664605,20.1865148 0.708362374,20.3338148 C0.673248024,20.361706 0.71174689,20.4126944 0.748130433,20.3956983 C0.885626381,20.3359938 1.02058394,20.2361959 1.14665715,20.1263746 C1.05189071,20.6244927 1.0032383,21.1321983 1.02312233,21.6512347 C1.02566072,21.6991726 1.09335103,21.7057096 1.09631248,21.6555927 C1.13311909,21.0711865 1.22492407,20.5007258 1.35226648,19.9389811 Z" id="Fill-1647"></path>
                        <path d="M14.5523006,19.9437749 C14.7134881,19.5807545 14.8429458,19.0486441 15.0756313,18.6564251 C14.640298,19.3506527 14.3834978,20.1202734 14.0979293,20.8986101 C14.089045,20.9225791 14.1245824,20.9413184 14.1368513,20.9199643 C14.2912698,20.6061891 14.4093048,20.2671376 14.5523006,19.9437749" id="Fill-1648"></path>
                        <path d="M15.3557,18.238494 C15.2812406,18.331755 15.2258192,18.4346035 15.1585519,18.5326583 C15.2308959,18.4341677 15.3095859,18.3452648 15.4013909,18.2807665 C15.4381975,18.2576692 15.3874298,18.2005795 15.3557,18.238494" id="Fill-1649"></path>
                        <path d="M15.0756313,18.6564251 C15.1031305,18.6150242 15.1314758,18.5740591 15.1585519,18.5326583 C15.1302066,18.5731875 15.1022843,18.6124094 15.0756313,18.6564251" id="Fill-1650"></path>
                        <path d="M12.2017544,21.8678268 C12.0955653,21.9854924 11.9864146,22.0988001 11.8802255,22.21603 C12.0697583,21.8307839 12.2465993,21.4376933 12.4344399,21.0489607 C12.816044,20.5547649 13.2107632,20.1398844 13.6579423,19.8143426 C13.5060622,20.127682 13.3685662,20.4510447 13.2111862,20.7604619 C13.1904561,20.8044776 13.1676106,20.8450069 13.1447651,20.8877152 C12.8198516,21.1875448 12.5182067,21.5218025 12.2017544,21.8678268 Z M10.5065352,23.6964387 C10.6474156,23.414041 10.7895653,23.1338224 10.9088695,22.842273 C11.3230496,22.443517 11.6991539,22.005975 12.0515666,21.5479504 C11.8810716,21.8865661 11.7156534,22.2286682 11.5531966,22.5685913 C11.2062838,22.9481721 10.8593709,23.3255739 10.5065352,23.6964387 Z M14.6694894,19.9646932 C14.1470048,20.125503 13.7226712,20.3904687 13.3372594,20.716882 C13.4633326,20.4000563 13.5855983,20.0762577 13.721825,19.765969 C14.2455788,19.3968473 14.8420997,19.1405976 15.579078,18.9998346 C15.6179999,18.992426 15.6074233,18.9283636 15.5663861,18.9366438 C14.6851428,19.1401618 13.5991363,19.2739521 12.9835776,20.0570826 C12.9501555,20.1019699 12.9129258,20.1468571 12.8756961,20.1934876 L12.8773884,20.190437 C12.8913495,20.1660323 12.8596197,20.1420634 12.8414279,20.1655965 C12.7703531,20.2693166 12.7098549,20.3826243 12.6421645,20.4902666 C12.1154493,21.1635758 11.5849265,21.8342702 11.0455193,22.4984277 C11.1390165,22.2474075 11.2291293,21.9959516 11.3027425,21.7392661 C12.2360227,20.4706557 13.2644924,19.2996642 14.9317894,18.6433512 C14.9724036,18.6289698 14.9495581,18.5609852 14.909367,18.5731875 C13.0233456,19.1445198 11.7266531,20.5116208 10.6584153,22.1659132 C9.92778299,23.2968111 8.84304573,24.9375938 7.50658511,25.8118062 C7.56581413,25.7324908 7.62631235,25.6536113 7.69823331,25.586934 C7.71134831,25.5734243 7.69273347,25.5525059 7.67792622,25.5642725 C7.56116043,25.6684284 7.45708657,25.7895805 7.35639723,25.9129116 C6.50603767,26.4241036 5.55541184,26.6141119 4.53201892,26.1613169 C4.50875038,26.1512935 4.48971248,26.1905154 4.51171183,26.2014104 C5.36714816,26.6807891 6.36304189,26.4938314 7.24386208,26.0523672 C7.07336711,26.2680876 6.90710278,26.4890376 6.70868555,26.6755595 C6.69133991,26.6934273 6.71037781,26.7269838 6.73280022,26.7139098 C7.01498421,26.5395903 7.19055596,26.2528347 7.37966577,25.9817678 C7.76211604,25.7734559 8.11875938,25.526358 8.4280195,25.2596491 C9.57875481,24.2625414 10.3694623,23.0157209 11.2248986,21.8438578 C11.1077098,22.1571972 10.9719061,22.4635638 10.8310256,22.764265 C10.7696813,22.8405298 10.7100292,22.918102 10.6478387,22.991752 C10.6224548,23.0218221 10.662646,23.0562502 10.6943758,23.0401256 C10.5327652,23.3682822 10.3622702,23.6951313 10.1938905,24.0211088 C9.74713447,24.4839272 9.30376292,24.9493603 8.84727637,25.4034627 C8.81850799,25.4296107 8.85235314,25.4714473 8.88408298,25.4487858 C9.24495696,25.1720535 9.58890836,24.863508 9.92566767,24.5458106 C9.83090123,24.7292819 9.73528866,24.9105742 9.645599,25.0984035 C9.62444578,25.1398044 9.67859803,25.1812053 9.70567415,25.1398044 C9.88166896,24.8595858 10.0441257,24.5697795 10.203621,24.2795375 C10.5632258,23.9269763 10.9118309,23.5630842 11.2523978,23.1939626 C11.2312446,23.2353635 11.2126297,23.2789434 11.1918996,23.3207801 C11.1754001,23.353465 11.2181296,23.3870215 11.2397059,23.3539008 C11.3315109,23.2161884 11.4135854,23.0736821 11.4948137,22.9311759 C11.5544658,22.8697283 11.6124257,22.8052301 11.6712316,22.7433466 C12.0854117,22.294038 12.4814,21.7959199 12.9095413,21.3383312 C12.7792374,21.5941451 12.658241,21.854317 12.5854739,22.1236407 C12.5748973,22.1606836 12.6290495,22.1802945 12.6400492,22.1415084 C12.7758529,21.7545191 13.0343453,21.416775 13.2044172,21.039809 C13.6397505,20.6131619 14.1144288,20.2396823 14.6834505,20.0065299 C14.7050268,19.9973781 14.6919118,19.9581563 14.6694894,19.9646932 Z" id="Fill-1651"></path>
                        <path d="M9.10069198,24.7196943 C9.10534569,24.7131574 9.09392295,24.705313 9.08926924,24.71185 C8.81131589,25.1310885 8.53463174,25.5511985 8.25752452,25.970437 C8.24652484,25.9869974 8.27021645,26.0035577 8.28121613,25.9869974 C8.55493883,25.5651441 8.82739234,25.1424192 9.10069198,24.7196943" id="Fill-1652"></path>
                    </g>
                </g>
            </g>
        </g>
    </g>
</svg>