<?xml version="1.0" encoding="UTF-8" standalone="no"?>
<svg width="23px" height="30px" viewBox="0 0 23 30" version="1.1" xmlns="http://www.w3.org/2000/svg" xmlns:xlink="http://www.w3.org/1999/xlink">
    <!-- Generator: Sketch 50.2 (55047) - http://www.bohemiancoding.com/sketch -->
    <title>ontime</title>
    <desc>Created with Sketch.</desc>
    <defs></defs>
    <g id="Page-1" stroke="none" stroke-width="1" fill="none" fill-rule="evenodd">
        <g id="MOCKUP" transform="translate(-494.000000, -2348.000000)" fill="#FFFFFF" fill-rule="nonzero">
            <g id="WHY-/-WHAT" transform="translate(164.000000, 2145.000000)">
                <g id="on-time" transform="translate(254.000000, 203.000000)">
                    <g id="ontime" transform="translate(76.000000, 0.000000)">
                        <path d="M1.46587557,30 C1.10714041,30 0.78652947,29.836998 0.586262466,29.553653 C0.228445963,29.0466853 0.43927751,28.4216198 0.536655043,28.1661153 L3.52825824,17.3451182 C3.53652614,17.3154814 3.54617203,17.2862938 3.5571959,17.2584532 C3.56178918,17.2472272 3.5654638,17.2364502 3.56776044,17.2270203 C3.56316716,17.2270203 3.55857388,17.2270203 3.55352128,17.2270203 L1.75663018,17.2270203 C1.07315013,17.2270203 0.509554692,16.9427772 0.211450827,16.4474846 C-0.0894090057,15.9477017 -0.0682799182,15.3194929 0.268866826,14.7249622 L7.70630563,1.63091799 C8.23223617,0.701851547 9.4421061,0 10.5206082,0 L21.3345671,0 C22.0506594,0 22.6078243,0.295020132 22.8636699,0.810519541 C23.1208936,1.32826416 23.0106549,1.94479786 22.5623508,2.50205811 L14.8800902,12.0769657 L18.1606107,12.0769657 C19.2409501,12.0769657 19.5758002,12.6643117 19.6695031,12.9162239 C19.7627467,13.167687 19.8904399,13.8219402 19.078348,14.4995435 L2.59031048,29.4966247 C2.57928661,29.5069527 2.56734408,29.5177296 2.55540156,29.5271595 C2.16267613,29.8491221 1.81634282,30 1.46587557,30 Z M5.29069973,17.8529839 L2.80343867,26.8495263 L17.070166,13.8731309 L14.3399204,13.8731309 C13.6238281,13.8731309 13.0666633,13.5781107 12.8108176,13.0635094 C12.5531346,12.5457648 12.6633733,11.9287821 13.1116774,11.3706237 L20.7934787,1.79616519 L10.5206082,1.79616519 C10.112725,1.79616519 9.51467992,2.14551932 9.31303493,2.50116002 L1.96883971,15.4304061 L3.55352128,15.4304061 C4.21081963,15.4304061 4.78038634,15.7038722 5.11569577,16.1812031 C5.44595259,16.6504513 5.50888053,17.2575551 5.29069973,17.8529839 Z" id="Shape"></path>
                        <path d="M7.34431304,9.23076923 C7.27134732,9.23076923 7.19749177,9.21447005 7.12897517,9.17942681 C6.91452713,9.0702223 6.83666736,8.82206728 6.95590403,8.62566215 L7.35454604,7.96799022 C7.47378271,7.7715851 7.7447347,7.69946122 7.95918274,7.80948069 C8.1740757,7.9186852 8.25149055,8.16684022 8.13225388,8.36324535 L7.73361187,9.02091728 C7.6521928,9.15497804 7.50047749,9.23076923 7.34431304,9.23076923 Z M8.60030231,7.15873591 C8.52733658,7.15873591 8.45348103,7.14243673 8.38496444,7.10739349 C8.1705164,6.99818898 8.09265663,6.75003396 8.2118933,6.55362883 L10.0956547,3.44659755 C10.4813943,2.80848463 11.4019192,2.30769231 12.1916397,2.30769231 L13.355087,2.30769231 C13.6011239,2.30769231 13.8,2.48983565 13.8,2.71517182 C13.8,2.94050799 13.6011239,3.12265133 13.355087,3.12265133 L12.1916397,3.12265133 C11.7204769,3.12265133 11.1051622,3.45841445 10.8733626,3.84185267 L8.98960114,6.94929144 C8.90818207,7.08294472 8.75691167,7.15873591 8.60030231,7.15873591 Z" id="Shape"></path>
                    </g>
                </g>
            </g>
        </g>
    </g>
</svg>