<?xml version="1.0" encoding="UTF-8" standalone="no"?>
<svg width="31px" height="27px" viewBox="0 0 31 27" version="1.1" xmlns="http://www.w3.org/2000/svg" xmlns:xlink="http://www.w3.org/1999/xlink">
    <!-- Generator: Sketch 50.2 (55047) - http://www.bohemiancoding.com/sketch -->
    <title>p-plane</title>
    <desc>Created with Sketch.</desc>
    <defs></defs>
    <g id="Page-1" stroke="none" stroke-width="1" fill="none" fill-rule="evenodd">
        <g id="MOCKUP" transform="translate(-619.000000, -138.000000)" fill="#212121">
            <g id="HERO">
                <g id="Hero-IMG" transform="translate(325.000000, 126.000000)">
                    <g id="p-plane" transform="translate(310.500000, 19.500000) rotate(33.000000) translate(-310.500000, -19.500000) translate(296.000000, 6.000000)">
                        <path d="M28.3599245,26.0569809 C28.5904066,26.2661483 28.3929577,26.1845669 28.3884532,26.189474 L28.3599245,26.0569809 Z M27.8046822,25.9938013 C27.9050272,25.94657 27.9360429,25.9741727 28.0217923,26.0440996 C27.8107637,26.1600311 27.8557669,26.030605 27.8046822,25.9938013 Z M28.2839055,25.7423097 C28.3520185,25.8030358 28.3094479,25.6668623 28.3544511,25.8195974 C28.4085766,26.0036156 28.3465451,25.906086 28.3337739,25.9293949 C28.1154476,25.7453767 28.2839055,25.7423097 28.2839055,25.7423097 Z M27.7827888,25.7441499 C27.7858295,25.7423097 27.8448202,25.5515442 28.0978112,25.7944482 C28.0023314,25.8539475 28.2340371,25.8754163 27.9378674,25.8429064 C27.7633279,25.8238912 27.8381306,25.7772732 27.7827888,25.7441499 Z M28.1847769,25.4012626 C28.2249148,25.4331591 28.225523,25.3963555 28.2528898,25.4705762 C28.2869463,25.5631987 28.2668773,25.5239415 28.2601876,25.6128836 C28.2109274,25.5472504 28.1148394,25.5129004 28.1847769,25.4012626 Z M27.7432589,25.257115 L28.0163189,25.3074133 L28.0704444,25.5435701 L27.8223186,25.5619719 L27.7432589,25.257115 Z M27.1715966,25.1657193 C27.3601236,25.2172444 27.4258039,25.2589552 27.3424872,25.4368395 C27.2427503,25.4006492 27.2804557,25.4509476 27.229371,25.3601652 C27.2068694,25.320908 27.1807189,25.2074301 27.1715966,25.1657193 Z M26.4083666,25.048561 C26.7817716,25.0730968 26.9465806,25.0326128 27.0219914,25.3755001 C26.8705617,25.3540313 26.7398091,25.3288821 26.5999343,25.2945321 C26.3584982,25.2350328 26.4247867,25.2871713 26.4083666,25.048561 Z M27.3637725,24.779281 L27.8308327,24.7351167 L27.9184065,25.1141942 C27.5273652,25.0988593 27.4391832,25.1197147 27.3637725,24.779281 Z M25.5107351,24.8504347 C26.1736202,24.964526 26.2599777,24.9369233 26.2824793,25.1908685 C26.1322659,25.1896417 25.9777954,25.1460907 25.8385287,25.1111272 C25.5776318,25.0467208 25.5612117,25.0964058 25.5107351,24.8504347 Z M26.9727311,24.5731806 C27.2287628,24.6155048 27.261603,24.7657864 27.2652519,25.0160511 L27.1223364,25.0191181 C27.12112,25.0123708 26.9934083,24.6590558 26.9727311,24.5731806 Z M27.3266752,24.7396593 L27.4382137,24.6271593 L27.3266752,24.7396593 Z M26.261194,24.4590893 C26.4637084,24.4762643 26.570743,24.5192019 26.7969754,24.5369904 L26.896104,24.9657528 L26.35789,24.8909188 C26.3220091,24.7001532 26.2788304,24.6431075 26.261194,24.4590893 Z M25.3337631,24.301447 C25.5447916,24.3069676 25.7667669,24.3505186 25.9571183,24.3934561 C26.1888239,24.446208 26.1584164,24.5829949 26.2058522,24.840007 L25.421945,24.695246 L25.3337631,24.301447 Z M27.1673396,24.1352172 C27.4093838,24.1615932 27.3765436,24.139511 27.5614217,24.2302933 C27.747516,24.3210756 27.7207573,24.2762979 27.7548138,24.5222689 L27.289578,24.4823983 L27.1673396,24.1352172 Z M24.610671,24.1487119 C25.3106533,24.2315201 25.1981453,24.2824318 25.2753805,24.6486281 C25.0971922,24.6253191 24.8770414,24.5964896 24.6690536,24.4946662 L24.610671,24.1487119 Z M26.8206933,24.0732644 C27.1071326,24.1235627 27.0627375,24.1480985 27.1053081,24.4455946 C26.8255585,24.411858 26.871778,24.3640132 26.8206933,24.0732644 Z M15.6308952,24.3297826 C15.6100766,24.3426703 15.6068737,24.2357023 15.6701302,24.2228145 C15.8166612,24.1931728 15.6453081,24.3207612 15.6308952,24.3297826 Z M26.1584164,23.9972036 L26.6844673,24.0462751 L26.743458,24.3824151 L26.253288,24.3155551 L26.1584164,23.9972036 Z M24.5656678,23.6543163 L25.0905025,23.7635004 L25.1665214,24.1217226 L24.7158812,24.0419813 C24.5310032,23.988616 24.5565456,23.8824989 24.5656678,23.6543163 Z M14.4478529,25.9054726 C14.4581915,25.5509308 14.7257781,24.6369736 14.8468002,24.3388641 C14.8364617,25.5343692 14.5074518,24.9314028 14.7111825,25.4300922 C14.9763365,25.2534347 14.8918034,25.3123205 15.0918853,25.0810709 C15.2068259,24.947351 16.1105389,23.9456785 16.2266958,23.8990605 C16.1445953,24.0198991 16.0722253,24.035234 15.813761,24.4081776 L15.4896163,24.7933891 C15.480494,24.8038168 15.4579924,24.8326463 15.4488701,24.8424606 C15.3284562,24.9718868 15.3193339,24.9197483 15.1423618,25.1332094 C14.9939729,25.3123205 14.6163109,25.8054893 14.4478529,25.9054726 Z M15.0286375,24.1241761 C15.0274212,24.0720376 15.0182989,24.0057911 15.0280294,23.951199 C15.054788,23.7953969 15.0511391,23.8598033 15.1131706,23.7911031 C15.2718981,23.9689874 15.1265499,23.9935232 15.0286375,24.1241761 Z M27.0420604,23.6058581 L27.5443934,23.6064715 L27.655077,24.055476 L27.1521358,23.9806419 L27.0420604,23.6058581 Z M25.2419322,23.8150255 L26.0361779,23.9493588 L26.0842219,24.2701639 L25.3027473,24.1413512 L25.2419322,23.8150255 Z M16.3902885,23.6972539 L16.2735234,23.8493756 L16.3902885,23.6972539 Z M26.6929815,23.534091 C26.9222545,23.5537196 26.8644802,23.4893133 26.9332013,23.664744 C26.9672577,23.7512325 26.972123,23.8683908 26.9855023,23.9493588 C26.7069689,23.9131686 26.7258216,23.8199327 26.6929815,23.534091 Z M25.1762519,23.2758521 C25.369644,23.2967075 25.6019578,23.3341246 25.7728484,23.3739952 C26.028272,23.432881 25.9747547,23.4979008 25.9826606,23.7769951 L25.2072676,23.65861 L25.1762519,23.2758521 Z M15.0967505,23.6377546 C15.0797222,23.4715248 15.0791141,23.3169495 15.1545249,23.2022448 C15.2621677,23.2795325 15.2895345,23.2114457 15.2548698,23.4402417 C15.2293275,23.6076983 15.1654716,23.577642 15.0967505,23.6377546 Z M26.0714507,23.4543498 L26.5372947,23.4972874 L26.6260848,23.8898596 C26.100642,23.8953801 26.1669305,23.8794319 26.0714507,23.4543498 Z M24.5048527,23.1359983 L25.0473238,23.2500896 L25.0838128,23.6224198 L24.5249217,23.5113954 L24.5048527,23.1359983 Z M27.6398732,23.1826162 C27.7456915,23.3966907 27.8539425,23.873298 27.9433407,24.1370574 C28.0138863,24.3431578 28.1780872,24.9307894 28.1561937,25.1626523 C28.0734851,25.0356798 28.0151026,25.0418137 27.9591527,24.779281 C27.892256,24.4676768 27.526757,23.3384183 27.6398732,23.1826162 Z M26.9277279,23.0568704 L27.4446566,23.1317045 L27.5048636,23.4666177 L27.0128691,23.4334944 L26.9277279,23.0568704 Z M14.8997094,24.9093206 L14.9872832,24.2143451 C15.1514841,24.3443846 15.2122992,24.183062 15.3089953,24.0530224 L16.2869028,23.1366117 C16.1458116,23.5586268 16.1895985,23.4580302 15.6483438,24.0432081 C15.3874468,24.3253694 15.0444495,24.8320329 14.8997094,24.9093206 Z M26.5816898,23.0225204 C26.8736024,22.995531 26.7902857,23.1537867 26.8693454,23.3764487 L26.6564924,23.38933 C26.638856,23.2660378 26.6096647,23.1623742 26.5816898,23.0225204 Z M25.9887421,22.9065889 C26.4533698,22.9403255 26.4375579,22.9341916 26.5093197,23.35498 L26.0617203,23.2868932 L25.9887421,22.9065889 Z M25.1148286,22.7164367 L25.8379206,22.8667183 L25.9236699,23.2635842 C25.6700708,23.2267806 25.3672114,23.2316877 25.1555747,23.0949009 L25.1148286,22.7164367 Z M16.3902885,23.6972539 L16.4456303,23.540225 C16.0430341,23.7162691 16.1251345,23.907648 15.8186262,24.075718 L16.8293738,22.9452327 C16.6846338,23.4077318 16.8166026,23.1041018 16.629292,23.3322844 C16.5471916,23.4322676 16.4906335,23.5727349 16.3902885,23.6972539 Z M24.4799185,22.5913043 L24.9335994,22.6784063 L25.0156999,23.0820196 L24.4878245,22.9893971 L24.4799185,22.5913043 Z M15.1520923,23.0574838 C15.1812835,22.7826833 15.1460107,22.8354352 15.3637289,22.7256376 C15.3448762,22.8562906 15.3783246,22.833595 15.2992649,22.9446193 C15.2706818,22.9851033 15.1533086,23.056257 15.1520923,23.0574838 Z M15.3533904,23.7960103 C15.380149,23.5972706 15.6002998,23.2464092 15.6982122,23.1893635 C15.7803127,23.1421322 15.6848329,23.1409054 15.8478175,23.2157395 C15.8526827,23.2175797 15.8654538,23.2255538 15.8751843,23.227394 C15.8976859,22.9476863 15.8757924,23.0065721 16.0460748,22.8446361 C16.2650093,22.6354687 16.1476361,22.6698188 16.3927211,22.5330319 C16.4133983,22.9513666 16.1902067,23.0077989 15.9694477,23.2175797 L15.3533904,23.7960103 Z M27.4087757,22.4520639 C27.5206755,22.523831 27.5979108,22.7047822 27.5985189,22.8489298 C27.5985189,22.9979846 27.5893966,22.9354184 27.5407445,22.9936908 L27.4087757,22.4520639 Z M16.4462384,23.1451992 C16.4334673,22.8894138 16.5964518,22.7783895 16.8555243,22.6274946 C16.8111293,22.8084458 16.5836807,23.042149 16.4462384,23.1451992 Z M15.4178544,23.2408887 C15.4330582,22.9433925 15.4391397,23.0396954 15.6726699,22.7685752 C15.7809208,22.6428294 15.6939552,22.6955813 15.8350463,22.639149 C15.7930838,22.9041353 15.6927388,23.1783225 15.4178544,23.2408887 Z M26.5001975,22.3128234 C26.6218277,22.3367458 26.7203483,22.2257214 26.7282542,22.706009 C26.7306868,22.8587441 26.723389,22.7967913 26.6984548,22.8556772 C26.6826429,22.853837 26.4624921,22.9372586 26.4533698,22.4956148 C26.4472883,22.1840106 26.4478964,22.4201674 26.5001975,22.3128234 Z M25.8896135,22.2416697 L26.3098461,22.2901278 L26.3955954,22.7961779 L26.0039459,22.7661216 C25.9084661,22.5919177 25.9029928,22.4502237 25.8896135,22.2416697 Z M25.0369852,22.0778935 L25.7418327,22.2091598 L25.8257576,22.7237974 L25.6974376,22.7084626 C25.6402714,22.6968081 25.5831051,22.6827 25.5259389,22.6704321 C25.0552297,22.5704489 25.0594868,22.688834 25.0369852,22.0778935 Z M26.811571,22.352694 L27.2731579,22.4103531 L27.382017,22.972222 C26.9295524,22.9286711 26.8067058,23.0280409 26.811571,22.352694 Z M24.465931,21.9484673 L24.891637,22.0282085 L24.9457625,22.5281247 L24.4756614,22.4440897 L24.465931,21.9484673 Z M15.5090771,22.7391323 C15.5072527,22.6011186 15.5151586,22.460038 15.5826634,22.3263181 C15.6148955,22.2619117 15.6404378,22.2410563 15.6890899,22.1864642 C15.7876105,22.0760533 15.745648,22.1116301 15.8618049,22.0386362 C15.853899,22.37907 15.7675415,22.5600212 15.5090771,22.7391323 Z M16.476646,22.7207305 C16.4742134,22.500522 16.4942824,22.3576012 16.5934111,22.2459634 C16.6481447,22.1840106 16.6961887,22.1551811 16.7442326,22.100589 C16.890189,21.9368128 16.7302451,22.0380228 16.9096498,21.9411066 C16.8853238,22.2729528 16.9430981,22.349627 16.6761197,22.5759695 L16.476646,22.7207305 Z M15.9165386,22.7777761 C15.914106,22.5109497 15.9457298,22.4667853 16.0697927,22.3189573 C16.1707459,22.1999589 16.3197429,22.0502907 16.4590096,21.9730031 C16.4012352,22.4876407 16.1500687,22.4980684 15.9165386,22.7777761 Z M27.1503113,21.8957154 L27.2360607,22.2704992 C26.8991448,22.251484 26.7665678,22.3030091 26.7215646,21.9846576 L27.0937532,22.019621 C27.1934901,21.9263851 27.1223364,22.0128737 27.1503113,21.8957154 Z M12.945719,22.0558113 C13.0572574,22.1140837 13.0539179,22.2876742 13.0572574,22.4735326 L12.945719,22.0558113 Z M26.3676205,21.9049163 L26.5774327,21.9638022 L26.5999343,22.1784901 C26.3402536,22.1588615 26.4174889,22.126965 26.3676205,21.9049163 Z M15.3698105,22.3373592 C15.4093403,22.1392329 15.4944815,21.9693227 15.5340113,21.767516 C15.5188075,22.0220746 15.4908326,22.1981187 15.3698105,22.3373592 Z M25.8245413,21.8202679 L26.2380842,21.8883547 L26.2690999,22.147207 L25.8634629,22.0913881 L25.8245413,21.8202679 Z M24.9706967,21.6773471 L25.6822338,21.7730366 L25.7345348,22.063172 C25.4444466,22.0177808 25.2656501,22.0410898 25.0175243,21.8957154 L24.9706967,21.6773471 Z M16.5684769,22.1177641 C16.5514486,21.9668691 16.5557057,21.8527778 16.6396306,21.7448205 C16.6876745,21.6822543 16.8591732,21.5301325 16.954653,21.4737003 C16.9510041,21.9079833 16.7454489,21.8908083 16.5684769,22.1177641 Z M16.0016798,22.184624 C16.0089776,21.6755069 16.2467648,21.5638692 16.5362448,21.3062437 C16.5301633,21.6147809 16.5423264,21.6577185 16.3799499,21.8325358 C16.2789968,21.9404932 16.1099307,22.1202176 16.0016798,22.184624 Z M15.6434786,22.002446 C15.6568579,21.5871782 15.7596355,21.4467109 15.9913412,21.2872285 C15.9876923,21.4454842 15.9913412,21.588405 15.9189712,21.7178311 C15.8873473,21.77365 15.8551153,21.8030929 15.8101121,21.8564582 C15.6890899,21.9999924 15.8125447,21.9110503 15.6434786,22.002446 Z M26.3025483,21.2265025 C26.466141,21.3050169 26.510536,21.4675663 26.5245235,21.7724232 L26.3396455,21.7221249 C26.3074135,21.5319727 26.2283538,21.4019332 26.3025483,21.2265025 Z M25.7588609,21.147988 L26.1213191,21.1921524 L26.2015951,21.7350062 C25.8081212,21.5988327 25.7436571,21.7491142 25.7588609,21.147988 Z M27.1503113,21.8957154 L26.6680473,21.776717 L26.5439844,21.2841615 L27.0256403,21.312991 L27.1503113,21.8957154 Z M24.9001511,21.0363503 L25.602566,21.1271326 L25.6767605,21.631956 L24.956101,21.5049834 L24.9001511,21.0363503 Z M17.0087785,22.2336956 C17.0172926,22.019621 17.0525654,21.8227215 17.0537817,21.6387033 C17.0568225,21.2166882 17.1784527,21.3123776 17.2569043,21.127746 C17.2714999,21.3945724 17.0756751,21.9779102 17.0087785,22.2336956 Z M26.221056,21.0584325 C26.1371311,20.7229059 26.2119337,20.8885223 26.2526798,20.8333169 C26.3816079,20.9670368 26.305589,20.8922027 26.3767427,21.0756075 L26.221056,21.0584325 Z M26.4387742,20.8652133 L26.9283361,20.902017 C26.9313768,20.9296197 26.9386746,20.9345269 26.9404991,20.9541555 L26.988543,21.1725238 L26.5269561,21.1240656 L26.4387742,20.8652133 Z M16.6104393,21.5356531 C16.6481447,21.4559119 16.6505773,20.8971098 17.054998,20.8100079 C17.0191171,21.104437 16.9272862,21.43751 16.6104393,21.5356531 Z M25.7223718,20.7664569 L26.0532062,20.8222758 L26.0903034,21.029603 C25.835488,21.0461646 25.6785849,21.0627262 25.7223718,20.7664569 Z M15.8174099,21.2301828 C15.8283566,20.9437278 15.9025511,20.9001768 16.0752661,20.7235193 C16.0795231,20.7186122 16.0904699,20.7075711 16.098984,20.7002103 C16.0892536,21.0621128 15.9925575,21.0332833 15.8174099,21.2301828 Z M24.8527153,20.6278298 C25.1154367,20.6566594 25.4426222,20.6971434 25.5800644,20.7762712 L25.5782399,20.9688769 C25.3653869,20.9694903 25.3319386,20.9621296 25.1336813,20.9198054 C24.8496746,20.8596928 24.8764332,20.9382072 24.8527153,20.6278298 Z M16.1348649,21.4694065 C16.1093226,21.1032102 16.1202693,21.0983031 16.3063636,20.9032438 C16.4821194,20.7186122 16.5441508,20.6186289 16.7150414,20.5327537 C16.6864582,20.6897826 16.6128719,21.0056806 16.5465834,21.0995299 C16.5094862,21.1516684 16.1883822,21.4319895 16.1348649,21.4694065 Z M17.1571674,21.06702 C17.107299,20.7940596 17.1170294,21.0406441 17.1827098,20.7449881 C17.2331864,20.5180323 17.2112929,20.5462484 17.3645471,20.4149821 C17.3633308,20.7419211 17.3231928,20.8891357 17.1571674,21.06702 Z M24.791292,20.0843627 L25.4924906,20.2058147 L25.5472242,20.6045209 L24.8289974,20.4793885 L24.791292,20.0843627 Z M26.6133136,20.7388542 C26.3828242,20.7259729 26.4211378,20.7689105 26.3682286,20.5775315 C26.3451189,20.4934965 26.3317395,20.3843124 26.3207928,20.3064113 L26.5196583,20.2941434 L26.6133136,20.7388542 Z M26.2034196,20.6959166 C26.0957768,20.5395011 26.1371311,20.4493322 26.0696263,20.2634737 C26.2320027,20.2818756 26.1778772,20.2334174 26.2259212,20.4223428 C26.2916015,20.6824219 26.2034196,20.6959166 26.2034196,20.6959166 Z M25.6840583,20.6167887 L25.6129046,20.2027477 L25.9455634,20.2236031 L26.0215823,20.6689272 L25.6840583,20.6167887 Z M16.7679505,20.8639866 C16.7259881,20.5026974 16.9108661,20.2021343 17.1924402,20.0046214 L17.1364903,20.5100582 C17.0258067,20.5916396 16.8263331,20.7646167 16.7679505,20.8639866 Z M16.2473729,20.7621631 C16.2954169,20.3879927 16.3063636,20.4579197 16.569085,20.1708512 C16.6931479,20.0352911 16.6305083,20.1328208 16.6712545,20.0267036 C16.7454489,20.151836 16.729637,19.8813292 16.7351104,20.1929334 C16.7381511,20.36039 16.3355549,20.7069577 16.2473729,20.7621631 Z M15.9250527,20.6897826 C15.9280934,20.3021176 16.0582378,20.1769852 16.2820376,20.004008 C16.2461566,20.3278801 16.10689,20.568944 15.9250527,20.6897826 Z M27.3996534,22.04293 C27.4580359,22.3637351 27.442224,22.2171339 27.3923556,22.2839939 C27.3047818,22.1294186 27.1472706,21.2902954 27.0913206,21.0584325 C27.036587,20.8302499 26.7659596,19.9941937 26.8602231,19.859247 C26.8590068,19.9371481 27.0943614,20.8547856 27.1527439,21.0811281 C27.2780231,21.5687764 27.2889698,21.4326029 27.3996534,22.04293 Z M25.4626912,20.0463322 C25.3100452,20.0389715 25.0540134,20.0095286 24.9183957,19.9806991 C24.7243954,19.9383749 24.751154,19.7770522 24.7846024,19.55255 L25.3945782,19.6212501 L25.4626912,20.0463322 Z M17.3049482,20.2904631 C17.207644,19.9586169 17.3067727,19.7758254 17.5548985,19.6850431 C17.5123279,19.8518863 17.5269235,19.9727249 17.4788795,20.09111 C17.4235377,20.2266701 17.3973872,20.1837325 17.3049482,20.2904631 Z M26.4290438,20.1622637 C26.2624103,20.1217797 26.3037646,20.238938 26.2228804,19.9788589 C26.1979462,19.9009578 26.1900402,19.8193764 26.1748365,19.758037 C26.3998525,19.7690781 26.3968117,19.9346945 26.4290438,20.1622637 Z M26.128617,20.1156458 C25.9948236,19.986833 26.0258394,19.9751785 25.9826606,19.717553 C26.1213191,19.7684647 26.100642,19.9034114 26.128617,20.1156458 Z M25.9108988,20.0929502 L25.5885785,20.0592135 L25.4924906,19.6408787 L25.847651,19.6678681 L25.9108988,20.0929502 Z M16.9382329,20.0371313 C16.8682955,19.8647676 16.8938379,19.8432988 16.9795872,19.7371816 C17.0057377,19.7046717 17.1109479,19.5936474 17.1626408,19.5605241 C17.0677692,19.8469792 17.1486533,19.9015712 16.9382329,20.0371313 Z M3.54613084,20.2659273 C3.43058207,20.2775818 0.497467849,19.7071253 0.356984875,19.636585 C0.384351688,19.468515 0.968177036,19.6936306 1.13055346,19.7071253 C1.79526295,19.7629442 2.11758319,19.902798 2.75918292,20.0604403 C2.95318322,20.108285 3.39166038,20.1972272 3.54613084,20.2659273 Z M17.3383966,19.3464496 C17.4989485,19.1777662 17.5664533,19.0814633 17.758021,18.9109398 C17.7525477,19.1612046 17.733695,19.1777662 17.6199707,19.3341817 C17.525099,19.4648346 17.512936,19.5500964 17.3560329,19.6212501 C17.4192807,19.4844632 17.3809671,19.491824 17.3383966,19.3464496 Z M16.4894172,19.5519366 C16.5240818,19.303512 16.5678687,19.2894039 16.6864582,19.1446429 C16.7606527,19.0538606 16.8117374,18.9802533 16.9382329,18.8643218 C17.047092,19.1550706 16.6408469,19.303512 16.5204329,19.6181832 C16.7807217,19.5415089 16.6311165,19.5537768 16.8536999,19.424964 C16.7874114,19.7703049 16.8044396,19.784413 16.5350285,20.0414251 L16.3793418,20.1634905 C16.404276,20.0107554 16.4000189,19.9304008 16.4571852,19.804655 C16.5131351,19.6819761 16.5094862,19.8488193 16.5155677,19.6887235 C16.5216492,19.5212669 16.4705645,19.6126626 16.4425895,19.5887402 L16.1950719,19.8586336 C16.1877741,19.8659944 16.1774355,19.8770355 16.1707459,19.8843962 L16.0770905,20.0162759 C15.9925575,19.4734222 16.3051473,19.2421726 16.472389,19.0691954 C16.4255613,19.3955211 16.2571034,19.3243674 16.1926393,19.7040583 C16.392113,19.596101 16.2352099,19.6592806 16.3738684,19.5243339 C16.4462384,19.4537935 16.4602259,19.5513232 16.4669156,19.5274008 C16.4693482,19.5175865 16.4815112,19.5439625 16.4894172,19.5519366 Z M26.0611122,19.141576 C26.0367861,18.9765729 25.9954318,18.8397861 26.0021215,18.6490205 C26.092736,18.7772199 26.2624103,19.4660614 26.2034196,19.5887402 C26.0750996,19.4832365 26.0909116,19.343996 26.0611122,19.141576 Z M25.9893503,19.4114694 C26.0015133,19.639652 25.9911747,19.4832365 25.952253,19.5562304 C25.9327922,19.4243506 25.9133314,19.3133263 25.9005602,19.178993 C25.8707608,18.8686156 25.7716321,18.8968317 25.7570364,18.8851772 C25.7533875,18.8949915 25.7503468,18.9103264 25.7491305,18.9158469 C25.7096006,19.1520037 25.7704158,19.0532472 25.6579078,19.1139732 C25.5800644,19.0691954 25.5472242,19.1802198 25.5198574,18.8127967 L25.8908298,18.8042092 L25.9893503,19.4114694 Z M25.0704335,18.8980585 L25.084421,18.7539109 C25.4493118,18.7661788 25.3441016,18.822611 25.4480955,19.0937312 C25.0369852,19.1053857 25.2474056,19.0176703 25.0704335,18.8980585 Z M17.067161,18.9256612 C17.1006094,18.6330723 17.0939197,18.5846141 17.3055564,18.4711362 C17.295826,18.8072762 17.3238009,18.8232244 17.067161,18.9256612 Z M25.8069049,18.3932352 C25.8512999,18.4570281 25.8622466,18.3134939 25.8731934,18.6919581 C25.8427858,18.6668089 25.7868359,18.7312153 25.7558201,18.5355426 C25.7162903,18.2852778 25.7643343,18.455188 25.8069049,18.3932352 Z M17.0276312,19.4519534 C16.9534367,19.1244009 17.2234559,19.0581544 17.3548166,18.9232077 L17.6193625,18.6318455 C17.7349113,18.5355426 17.7823471,18.4968988 17.8711372,18.40857 C17.7689677,18.9011255 17.4952996,18.8538941 17.3809671,19.1464831 C17.2739325,18.9060326 17.3371802,19.0274847 17.2763651,19.0323918 C17.1225028,19.2844968 17.328058,19.3255942 17.0276312,19.4519534 Z M16.6055741,19.0409793 C16.6067904,18.8483736 16.701662,18.8293584 16.8135619,18.7201742 C16.9175558,18.6189642 16.9576938,18.5386096 17.0860137,18.4558014 C16.9327596,18.6766232 16.794101,18.8747495 16.6055741,19.0409793 Z M16.2984576,19.0354588 C16.3033229,18.7637252 16.4973232,18.5447435 16.6530099,18.4232915 C16.5429345,18.9232077 16.6146964,18.7361225 16.2984576,19.0354588 Z M25.6907479,18.67785 L25.4791113,18.6729429 C25.4067412,18.539223 25.3927538,18.4607085 25.3836315,18.3226948 C25.4864091,18.3355761 25.5928356,18.3539779 25.7156822,18.3975289 L25.6907479,18.67785 Z M25.3033555,18.6128302 C24.9627907,18.57664 25.0126591,18.5925882 24.9633989,18.266876 L25.2267284,18.304293 L25.3033555,18.6128302 Z M17.2058195,18.3637922 C17.2283211,18.223325 17.2362271,18.1951089 17.3627226,18.1080069 C17.3098134,18.2312991 17.2629858,18.2539947 17.2058195,18.3637922 Z M16.7101761,18.5827739 C16.7788973,18.2036964 16.8737689,18.1086203 17.1401392,17.9350298 C17.0975686,18.2337527 16.9911421,18.4263584 16.7101761,18.5827739 Z M25.8020397,17.7595991 C25.847651,17.930736 25.9382656,18.0448273 25.8415695,18.1754803 C25.7710239,18.2294589 25.8762341,18.1975624 25.7503468,18.223325 C25.2425404,18.3251484 25.2638257,17.8417939 25.2322018,17.6504149 L25.8020397,17.7595991 Z M17.6169299,18.3840343 C17.6479456,18.1920419 17.6406478,18.0742702 17.733695,17.9503646 C17.8389052,17.8111242 17.9301279,17.7461044 18.0408114,17.6933525 C17.9581028,18.2073768 17.9903349,18.0865381 17.7373439,18.3515244 L17.4211051,18.6109901 L17.4667165,18.3840343 L17.6169299,18.3840343 Z M25.0947596,17.6228122 L25.2005779,18.1460373 L24.939681,18.145424 L24.8168344,17.5872353 L25.0947596,17.6228122 Z M17.2848792,17.9515914 C17.3110297,17.6724971 17.2854874,17.6504149 17.4752306,17.5387772 C17.4673246,17.6344667 17.4691491,17.6970329 17.4296193,17.7896554 C17.3584655,17.9589521 17.3730612,17.890252 17.2848792,17.9515914 Z M16.9856687,17.7933357 C16.9649916,17.6510283 16.9388411,17.5510451 17.2344027,17.3934028 C17.2191989,17.708074 17.0878382,17.782908 16.9278944,17.9362566 C16.81417,18.0460541 16.649361,18.2619688 16.5034047,18.3441636 C16.6055741,18.0393068 16.7040946,17.9331896 16.9856687,17.7933357 Z M25.4712053,17.5442977 L25.1963209,17.4479949 L25.1458443,17.1713541 L25.6712871,17.1965033 L25.7564283,17.5884621 C25.65061,17.5780344 25.5837133,17.5657665 25.4712053,17.5442977 Z M17.7355194,17.8154179 C17.7726167,17.5363236 17.7604536,17.6234256 17.9362094,17.4535154 C18.0371625,17.3559858 18.0608804,17.2952597 18.1709558,17.1958899 L18.1004103,17.5265093 C17.8881654,17.5878487 17.8370807,17.6448944 17.7355194,17.8154179 Z M17.5344993,17.3590527 C17.4167653,17.2872856 17.3729035,17.3375839 17.4991022,17.1707407 L17.5344993,17.3590527 Z M25.0004961,17.1204424 L25.0534053,17.4627163 L24.8156181,17.4424743 C24.7487214,17.3339036 24.7225709,17.2191989 24.7237872,17.0597164 L25.0004961,17.1204424 Z M25.0509727,16.5782021 C25.5356693,16.6303405 25.5490487,16.6143923 25.6329736,17.0351806 L25.1306405,17.0173922 L25.0509727,16.5782021 Z M17.7945101,17.4240725 C17.7872123,17.0173922 18.0998021,16.9707743 18.3071817,16.6732781 C18.2694764,17.1186022 18.2396769,16.9388778 17.7945101,17.4240725 Z M26.3718775,19.5464161 C26.2216641,18.8526673 26.0769241,18.4079566 25.9583346,17.7086874 C25.947996,17.6510283 25.7704158,17.1983435 25.6804094,16.7186693 C25.9261025,16.6849326 25.8768423,16.8168124 25.9473878,17.0529691 C25.9990807,17.2265596 26.0568551,17.351692 26.1055072,17.4989066 C26.1523349,17.6430542 26.1304414,17.6485747 26.1553756,17.7939491 L26.3651879,18.4705228 C26.3627552,18.4717496 26.3499841,18.4791103 26.3481596,18.4803371 C26.3463352,18.4815639 26.3341721,18.4938318 26.333564,18.4889246 C26.3323477,18.4846309 26.3244417,18.4944452 26.3201846,18.4968988 C26.3518085,18.617124 26.365796,18.6858241 26.4132318,18.7956217 L26.4655328,19.0017221 C26.4898589,19.3568773 26.8456275,20.1634905 26.8809002,20.7762712 C26.6352071,20.7155452 26.7124423,20.589186 26.5020219,19.9991009 C26.4472883,19.8457524 26.4959404,19.8807158 26.4187052,19.7365682 L26.538511,19.6286109 L26.3718775,19.5464161 Z M24.9621826,16.9486921 L24.6727025,16.8947134 L24.5839124,16.4935537 L24.8654865,16.5420118 L24.9384647,16.7192827 C24.9542766,16.7916632 24.9573174,16.8658839 24.9621826,16.9486921 Z M17.5098952,16.9241563 C17.500773,16.8149722 17.5019893,16.7603801 17.533005,16.6493558 C17.5871305,16.4561366 17.540911,16.5340377 17.6722717,16.459817 C17.6059832,16.7376845 17.6844347,16.7168291 17.5098952,16.9241563 Z M17.9289116,16.8787652 C17.8674883,16.7542462 17.9191811,16.705788 18.0754761,16.5463056 C18.1673069,16.4524563 18.264003,16.3776222 18.3850251,16.2911336 C18.3412382,16.5150225 18.0687864,16.7652872 17.9289116,16.8787652 Z M25.5867541,16.3224167 C25.5727666,16.1739753 25.5685095,16.2347014 25.662773,16.1647744 C25.7649424,16.2831595 25.7746728,16.4119723 25.7570364,16.5463056 C25.6037823,16.4911001 25.6074312,16.543852 25.5867541,16.3224167 Z M24.9621826,16.0500697 C25.3538321,16.1040484 25.454177,16.0494563 25.4997884,16.5082751 L25.0108347,16.4058383 L24.9621826,16.0500697 Z M17.0063459,16.9364242 C17.0914871,16.3825293 17.352384,16.4389616 17.5056382,16.1727486 C17.4959078,16.5555065 17.3511677,16.5904699 17.3189357,16.6291138 C17.2131174,16.7566997 17.2940015,16.62482 17.2295374,16.8039311 L17.3906976,16.7781685 L17.368196,17.0879325 C17.147437,17.2609097 16.9698568,17.4780512 16.7831543,17.6001166 C16.8318064,17.0928397 17.1188539,17.1909827 17.2033869,16.8204927 C17.0233741,16.8873527 17.103042,16.8327606 17.0063459,16.9364242 Z M17.6813939,16.2451291 C17.6807858,16.2439023 17.5944283,16.2659845 17.6479456,16.0666314 C17.6747043,15.9672615 17.7227482,15.9660348 17.7507232,15.9549937 L17.6813939,16.2451291 Z M17.9565251,16.1758155 C17.8628064,16.3234718 17.9756649,16.2288695 17.8449867,16.2883155 L17.9565251,16.1758155 Z M24.8563642,16.3751686 C24.4726207,16.352473 24.5881694,16.3101488 24.4896489,15.9341383 L24.8356871,16.0267608 L24.8563642,16.3751686 Z M18.2220405,15.7948978 C18.4981413,15.7163834 18.3315078,15.6495234 18.5917966,15.5452464 C18.5419282,15.9623544 18.3436708,16.193604 17.9872941,16.4561366 C18.0158772,16.1218368 18.0274321,16.1089556 18.1563602,15.9261641 C18.215959,15.8421291 18.1934574,15.8764792 18.2220405,15.7948978 Z M18.0797331,15.5458598 C17.9422909,15.7893773 18.0955451,15.8488765 17.9094507,15.9727821 C18.018918,15.7648415 17.8595823,15.8286345 18.0797331,15.5458598 Z M17.1547348,16.3402051 C17.2666347,16.0838064 17.2112929,16.0328947 17.4034688,15.8182068 L17.8279584,15.4354489 C17.8121465,15.5986117 17.8206606,15.5550607 17.7507232,15.7206771 C17.6728798,15.6936878 17.7695759,15.7409191 17.6820021,15.6814199 L17.6071995,15.6194671 C17.593212,15.9040819 17.3998198,16.1972843 17.1547348,16.3402051 Z M18.0797331,15.5458598 C18.0681782,15.4710257 18.0517581,15.4520105 18.0456766,15.4354489 C17.926479,15.1250715 18.1198711,15.3054093 18.2062286,15.0171141 C18.1989308,15.3600014 18.1940656,15.0005525 18.0797331,15.5458598 Z M18.8368816,15.3146102 C18.8770196,15.153901 18.9572956,14.693242 19.01507,14.5589087 C18.9919602,14.9772435 18.9250636,15.0017792 18.8368816,15.3146102 Z M24.819267,15.2569512 L24.7450725,14.7521278 L25.1421954,14.8594718 L25.3720766,15.9758491 L24.9378565,15.874639 C24.9001511,15.7077958 24.8965022,15.6397091 24.863662,15.4477167 C24.8752169,15.4415828 24.891637,15.4354489 24.9001511,15.4323819 L25.1093552,15.3477335 C24.9846842,15.2410029 25.0011043,15.2618583 24.819267,15.2569512 Z M17.3529922,15.6869404 C17.3900894,14.8153074 17.7476824,14.8723531 17.9045855,14.6239285 C17.9191811,14.9692694 17.7835634,15.0109802 17.7926857,15.1857975 C17.8011998,15.3520273 17.838297,15.2612449 17.8425541,15.2643119 C17.7263971,15.3029557 17.4472557,15.5906376 17.3529922,15.6869404 Z M25.4134309,15.1440867 C25.477895,15.4710257 25.6275002,15.7378521 25.5970926,15.9359784 L25.5587791,16.0083589 C25.5332367,15.9672615 25.5326286,15.9776892 25.5058699,15.9034686 L25.3149104,15.0968553 C25.269299,14.8968889 25.0996248,14.4534049 25.1628725,14.2601858 C25.4037005,14.316618 25.2540952,14.3313395 25.4134309,15.1440867 Z M18.2220405,15.7948978 C18.05115,15.3814702 18.5096962,15.1956118 18.577201,14.8889147 L18.3704295,15.0097534 L18.3880659,14.7478341 L18.6422732,14.5724034 C18.6611259,14.9109969 18.6562606,14.7864779 18.7559975,14.8821674 C18.7791072,14.6607321 18.7152513,14.3981995 18.8958723,14.3086439 C18.7109943,14.7650091 18.8922234,14.9103835 18.54132,15.3146102 C18.3679969,15.5133499 18.2390688,15.6470698 18.2220405,15.7948978 Z M18.2305547,14.6478509 C18.2767742,14.3595556 18.2299465,14.2841082 18.4555707,14.1620427 C18.4549625,14.3988129 18.4634766,14.1424141 18.3880659,14.4110807 C18.1989308,15.0839741 18.3017084,14.6012329 18.0985858,14.9735631 C18.0955451,14.8637656 18.1010184,14.8214414 18.1308178,14.7466073 C18.1527113,14.690175 18.1648743,14.6889483 18.1703477,14.6828143 C18.1746047,14.6785206 18.1892004,14.7619422 18.2086612,14.6595053 C18.2104857,14.649691 18.223865,14.652758 18.2305547,14.6478509 Z M24.7164894,14.568723 C24.6897307,14.5141309 24.7018938,14.5699498 24.6690536,14.4460442 L24.6276993,14.1362802 L24.9646152,14.2000732 C25.0619194,14.3515815 25.064352,14.4785541 25.0692172,14.6711598 L24.7164894,14.568723 Z M17.6503782,14.6864947 C17.7811308,14.2884019 17.8139709,14.2687733 18.063313,14.0093076 C18.0541908,14.3748905 17.9605354,14.5288524 17.6503782,14.6864947 Z M18.601527,14.4656728 C18.5516586,14.3994262 18.461044,14.5607489 18.5924047,14.1117444 C18.6264612,13.9939728 18.6665992,13.9277262 18.7225491,13.847985 L18.749916,13.9191387 C18.7712013,14.0651265 18.6550443,14.2767474 18.601527,14.4656728 Z M18.291978,14.0810747 C18.3394138,13.8326501 18.2998839,13.6909561 18.5042228,13.6087613 C18.4951005,13.7130383 18.4847619,13.8160885 18.4434077,13.9160717 C18.3795518,14.0724872 18.4172571,14.0050138 18.291978,14.0810747 Z M17.9860778,13.8970565 C18.0268239,13.7498419 18.0608804,13.6927963 18.203796,13.616122 C18.1259526,13.7940063 18.1326423,13.7903259 17.9860778,13.8970565 Z M24.5133668,13.4235163 L25.056446,13.5983336 C25.1184775,13.7277597 25.229161,13.9859986 25.1628725,14.0982497 C25.0077939,14.0093076 25.0278629,13.8056608 24.9591418,13.6455649 L24.9384647,13.7743777 C24.9390728,13.7866456 24.9433299,13.8001402 24.9445462,13.8130215 C24.9524521,13.9093244 24.9591418,13.9387673 24.9554929,14.0467246 L24.5820879,13.9749575 L24.5133668,13.4235163 Z M18.8758033,14.097023 C18.9329695,13.8467582 18.9652016,13.6529256 19.111766,13.5100048 C19.0819666,13.7430946 19.0004743,13.9841584 18.8758033,14.097023 Z M18.8283675,13.2100551 C18.8843174,13.15853 18.9159413,13.1407416 18.9676342,13.1039379 C18.9396592,13.3719911 18.8837093,13.4566395 18.8204615,13.6559926 C18.6799786,13.5511022 18.7657279,13.6921829 18.7036965,13.5020307 C18.7024802,13.4983503 18.7043046,13.3634036 18.7036965,13.3486822 L18.8283675,13.2100551 Z M24.6879063,12.9278938 C24.8654865,12.9677644 24.711016,12.8990643 24.9025837,12.9254403 L24.9998879,13.4130886 L24.4841756,13.2738481 L24.4178871,12.8493794 C24.610671,12.872075 24.574182,12.9021313 24.6879063,12.9278938 Z M18.0663538,13.5173655 C18.0955451,13.3860992 18.131426,13.2818222 18.1898085,13.1622104 C18.2573133,13.0241967 18.2658274,13.010702 18.3789436,12.9407751 C18.3339404,13.3315071 18.3345486,13.3676974 18.0663538,13.5173655 Z M19.1178476,13.3272134 C19.0521672,13.1548496 19.1646752,12.8984509 19.3033337,12.8088954 C19.2869137,12.9137858 19.2619794,13.0002743 19.2333963,13.1204996 C19.1792709,13.3474554 19.2431268,13.2818222 19.1178476,13.3272134 Z M18.4427995,13.4406913 C18.4951005,13.2149623 18.9688505,12.6892835 19.1202802,12.582553 C19.0685873,12.9775787 18.9858787,12.8567401 18.802217,13.0794022 C18.6751133,13.2327507 18.6957905,13.2713945 18.4427995,13.4406913 Z M19.2358289,12.643279 C19.2674528,12.4414723 19.2303556,12.448833 19.3659733,12.344556 C19.3659733,12.3451694 19.4967259,12.3500766 19.3635407,12.5445225 C19.3373902,12.5819396 19.280224,12.6156762 19.2358289,12.643279 Z M18.5236836,13.0419851 C18.5595646,12.8364981 18.5200347,12.7794525 18.6489628,12.6267173 L19.2230578,12.0047357 C19.3586755,11.8581345 19.384826,11.8415729 19.5715285,11.7323887 C19.5411209,11.9384892 19.5587573,11.9685455 19.465102,12.0832502 C19.3550266,12.058101 19.440776,12.0777296 19.364757,12.0274313 C19.1190639,11.8654953 19.5234845,12.0231375 19.3173212,12.000442 C19.0564243,12.3224739 19.4857792,11.9777464 18.9384429,12.5727386 L18.5236836,13.0419851 Z M18.3211692,12.8076686 C18.3771192,12.5574038 18.5723358,12.3831999 18.766336,12.1936611 C18.7730257,12.1869138 18.7833643,12.1770995 18.790054,12.1709655 L19.1044682,11.8691756 C19.0764933,12.0010554 18.9572956,12.0998118 18.8076903,12.2795363 L18.3211692,12.8076686 Z M19.2297474,11.7882076 C19.2327825,11.64406 19.2593393,11.6925181 19.3412859,11.6477404 C19.2919662,11.8072228 19.3792241,11.7195075 19.2297474,11.7882076 Z M18.5157777,12.2960979 C18.5650379,11.8618149 18.7213328,11.8734694 18.8204615,11.7538575 C18.967026,11.5772 19.0290575,11.4410266 19.2194088,11.3030129 C19.1233209,11.5998956 19.1269698,11.6943583 18.9408755,11.8704024 C18.609433,12.18262 18.8350572,12.0470599 18.5157777,12.2960979 Z M19.4523308,11.5686125 C19.5192275,11.3937952 19.5788263,11.3698728 19.6876854,11.2741834 C19.6341681,11.580267 19.7235664,11.519541 19.4523308,11.5686125 Z M24.8387278,11.8685622 L25.3757255,14.1129712 C25.3726848,14.0798479 25.2328099,13.5265665 25.1975372,13.4222895 L24.6356053,11.1521179 C24.6842574,11.2563949 24.7018938,11.3729398 24.7462888,11.5066597 C24.7906839,11.6416064 24.8095366,11.7544709 24.8387278,11.8685622 Z M24.5498559,10.6564955 L24.6613944,10.9742337 L24.5498559,10.6564955 Z M19.5277416,11.2367663 C19.5247009,11.0674696 19.593422,10.9036933 19.698024,10.7810145 C19.7047137,10.7736538 19.7144441,10.7613859 19.7211338,10.7546386 L19.8403314,10.6669232 C19.7935038,11.0110373 19.7235664,11.0760571 19.5277416,11.2367663 Z M18.7511323,11.626885 C18.7718094,11.5563446 18.9834461,11.1926019 19.0448694,11.125742 C19.1257535,11.03864 19.372663,10.7570921 19.4669265,10.691459 C19.3817853,11.1515045 18.8277593,11.3741666 18.7511323,11.626885 Z M19.7126196,10.5595792 C19.7272153,10.2988868 19.7892467,10.2449081 19.9412846,10.1210025 C19.9735166,10.3651333 19.9759492,10.2381607 19.8743879,10.3620664 L19.7126196,10.5595792 Z M18.9354021,11.0877116 C18.9846624,10.8791576 19.1129824,10.5620328 19.2370452,10.3712673 C19.3592837,10.1841821 19.625654,9.99280311 19.6882936,9.87441805 C19.6347763,10.4264727 19.3221864,10.7067938 18.9354021,11.0877116 Z M19.8950651,9.52539681 C19.9285134,9.37327508 20.0787268,9.28065257 20.216169,9.15552018 C20.1985326,9.33033749 20.1018365,9.78486251 19.975341,9.9112217 L19.8354662,10.0400345 C19.830601,10.0308335 19.8178298,10.06273 19.8093157,10.0743845 L19.8950651,9.52539681 Z M19.9583128,8.29860863 C19.9096607,8.14403332 19.9838552,8.12685829 20.0203442,8.05999833 C20.0258176,8.05018403 20.0343317,8.03791615 20.0398051,8.02748845 C20.1979245,7.7207914 20.3961818,7.33926028 20.7112042,7.17732424 C20.6807967,7.36134247 20.6728907,7.39078538 20.5956555,7.55946876 C20.3615172,8.06919925 20.8930415,7.36624962 20.3980063,8.04343669 L20.2076549,8.25383087 C20.2654293,8.04159651 20.4271975,7.93977309 20.5403137,7.73551286 C20.3311096,7.81525409 20.2155608,8.01951432 20.0939306,8.18697091 C20.0081812,8.30535597 20.0987958,8.25751123 19.9583128,8.29860863 Z M20.5591664,7.10310355 C20.4509154,7.24602438 20.3542194,7.32453882 20.2751597,7.47482037 C20.3092162,7.28344142 20.2739434,7.44415067 20.3937492,7.29080215 C20.5074735,7.14604114 20.3925329,7.19388588 20.5591664,7.10310355 Z M20.5591664,7.10310355 C20.5774109,7.06323294 20.593831,7.01416141 20.6126837,6.95466218 L20.7853987,6.90865763 C20.7160695,7.02949626 20.7069472,7.05157845 20.5591664,7.10310355 Z M20.6126837,6.95466218 C20.4819312,6.95772916 20.5202447,6.94852824 20.449091,6.9006835 C20.5518686,6.65655266 20.4308464,6.90375048 20.5920066,6.73568049 C20.5926147,6.7350671 20.6880945,6.6007338 20.6935679,6.59091949 C20.8127655,6.37377798 20.7385711,6.46272013 20.8857437,6.30139748 C20.8820948,6.71850546 20.6777559,6.70317061 20.6126837,6.95466218 Z M20.6005207,6.25171256 C20.6613358,6.08916312 20.6272793,6.21858928 20.7130287,6.060947 C20.8638502,5.78246608 20.7318814,5.63218453 21.0785277,5.52606735 C21.0602831,5.59906125 21.0310919,5.74382225 21.0085903,5.80393487 C20.9629789,5.92722709 20.6905271,6.20816158 20.6005207,6.25171256 Z M21.2792177,4.51764747 C21.2457693,4.76607207 21.1971172,5.32978124 20.9745338,5.42485733 L21.2792177,4.51764747 Z M13.3720331,21.642997 C13.4383216,21.2516516 13.2625658,20.9087643 13.420077,20.7259729 C13.5733312,20.9970931 13.5246791,21.5350397 13.8111184,21.7116972 C13.6633376,21.2688267 13.427983,20.5229394 13.6797577,20.0561465 C13.8244977,19.7862531 14.1833071,19.0238043 14.4210943,18.8453066 C14.556712,19.0685821 14.484342,19.1458697 14.817609,19.1685653 C14.7221292,18.7306019 14.5627935,18.388328 14.8954524,18.0485077 C14.9349822,18.3257618 14.9562675,18.3601119 15.1399292,18.4772702 C15.1405374,18.2153509 14.9185621,18.2098303 15.0590451,17.7571455 C15.1314151,17.5234423 15.2439231,17.3455581 15.3321051,17.125963 C15.5042119,16.7008809 16.2765642,15.3845372 16.5283389,14.6349696 C16.689499,14.1559088 16.9078254,13.821609 17.0568225,13.3676974 C17.4223214,12.2586809 17.6625412,12.1041056 17.9283034,11.4968454 L18.4732071,10.1995169 C18.5857151,9.95477268 18.5942292,10.0516889 18.7870132,9.61188538 C18.9499978,9.24078196 19.2133273,8.75558723 19.3319169,8.35626768 L19.4778732,8.36608198 L19.9060118,7.44783103 C19.9716921,7.29632269 19.9425009,7.2129011 19.9917611,7.07856779 L20.4977431,5.79473396 C20.5877495,5.59415409 20.6887026,5.35738398 20.7592482,5.1476032 L21.1229227,4.1716932 C21.1557629,4.09501894 21.2147536,3.9852214 21.2676628,3.87174349 C21.3795626,3.63129301 21.4501082,3.48407843 21.545588,3.26755031 C21.6495819,3.50186686 20.8802703,5.20526224 20.6826211,5.73216776 L19.8208706,8.31333009 C19.6116665,8.87703926 19.3665815,9.3708215 19.1987317,9.96581377 C19.4036787,9.87073769 19.2382615,10.0038442 19.3902994,9.77320803 L19.8129646,9.20029795 C19.8050586,9.194164 19.7910712,9.18987025 19.7868141,9.18680328 L19.6724816,9.0389753 C19.8141809,8.89237411 19.6974159,8.93776528 19.9570965,8.68934067 C19.9643943,8.68259333 19.9747329,8.67216563 19.9820307,8.6654183 L20.489229,8.15998157 C20.3961818,8.45011697 20.3262444,9.05799052 19.9838552,9.12975763 C19.9887204,8.80343197 20.316514,8.85986423 20.3615172,8.50716262 C20.1340686,8.54703324 20.3292852,8.48324026 20.0464948,8.72553092 C19.8883754,8.8623178 20.0264258,8.84452937 19.8129646,9.04265566 C19.8518863,9.18803006 19.8415477,9.12669066 19.9084444,9.25550341 C19.7168767,9.49963426 19.8263439,9.53030397 19.4146254,9.79590361 L19.4590205,9.90999491 C19.5021992,10.0492354 19.5064563,9.85601623 19.4748324,9.94863873 C19.4073276,10.1443114 19.2777914,9.49104674 18.8052577,10.9822078 C18.6659911,11.4201712 18.4713826,12.0274313 18.2852883,12.4623277 C18.2299465,12.5929807 18.1344667,12.6935773 18.1064918,12.7739319 C18.0706108,12.8800491 18.0706108,13.0315574 18.0140528,13.1885863 C17.9356012,13.4087948 17.8237014,13.6817552 17.7482906,13.9154583 C17.5828734,14.4307093 17.3718449,14.9030228 17.259945,15.4084595 L16.829982,16.9854957 C16.6749034,17.4676235 16.488809,17.9926888 16.2990658,18.4527344 L15.7310524,20.3922865 C15.6398297,20.5836655 15.713416,20.2984372 15.645303,20.5603565 L15.4318419,21.5368799 C15.3746757,21.2792544 15.4075158,21.4313761 15.3418355,21.4418038 C15.1910139,21.7773304 15.2189889,22.2324688 15.110738,22.6440562 C15.010393,23.0262007 14.9167377,23.3948506 14.8261231,23.7616602 C14.729427,24.1530057 14.3590628,25.7012123 14.1808745,25.8711225 C14.1176267,25.7791134 13.6444849,24.3462248 13.5873187,24.1290833 C13.5076509,23.82668 13.4583906,23.5095553 13.327638,23.2402753 L13.2120893,22.2901278 L13.3683842,22.6446696 C13.3908858,22.5968249 13.4267667,22.6557107 13.387845,22.4765996 C13.3860206,22.4680121 13.3282462,22.3214109 13.3203402,22.2999421 C13.1512741,21.8460305 13.002277,21.4921021 13.2406724,21.2277292 C13.2516191,21.3050169 13.2613495,21.4062269 13.2820267,21.4829012 C13.355613,21.7558616 13.3160832,21.5865648 13.3720331,21.642997 Z M25.0704335,18.8980585 L25.0570542,19.0403659 C24.0323191,19.0317784 22.3805798,18.4938318 22.2911816,18.4876979 C22.1245481,18.4766568 22.1950937,18.4913782 22.1184666,18.5465837 C22.6712762,18.8778165 24.1624635,19.0538606 24.8156181,19.1470965 C25.0004961,19.1734724 25.0375933,19.1440295 25.1233427,19.2930843 C25.2340262,19.1943278 25.3471424,19.2219306 25.4760705,19.2556673 C25.7400082,19.3243674 25.52229,19.2728423 25.7917011,19.2605744 L25.8123782,19.5181999 C25.7363593,19.508999 25.6500018,19.5083856 25.6281083,19.4347783 C25.6238513,19.4200569 25.6159453,19.4151497 25.6086475,19.4059488 C25.5581709,19.4961177 25.5782399,19.4494998 25.5095188,19.508999 C25.3945782,19.4059488 25.4493118,19.4801695 25.3964027,19.3568773 C25.3404527,19.488757 25.3811989,19.410856 25.3112615,19.488757 C24.787035,19.4004283 24.2737552,19.347063 23.7489205,19.2311315 C23.5330268,19.1832867 22.4353135,18.8563477 22.3398337,18.8968317 C22.3824043,18.9397693 22.3112506,18.9060326 22.4529499,18.9857739 C22.7624989,19.158751 23.0927251,19.2115029 23.4357225,19.2967647 C23.8304128,19.3942943 24.233009,19.4396855 24.6502009,19.5280142 L24.6495927,19.9267204 C24.2317927,19.8193764 23.8091275,19.7543566 23.3791645,19.6427189 C22.9346058,19.5274008 22.6597213,19.4255774 22.2431376,19.2587342 C22.2650311,19.589967 23.1115778,19.6960842 23.3597036,19.7666245 C23.7209455,19.8690613 24.3838306,19.9451222 24.6769596,20.0960172 L24.6933796,20.4640536 C24.3078117,20.400874 23.9313659,20.3321739 23.5786381,20.2469121 C23.3505813,20.1917066 22.7880413,19.969658 22.638436,20.0463322 C22.7308751,20.1444753 22.9704867,20.215629 23.1207001,20.2573398 L24.718922,20.6008405 L24.7535866,20.838224 C24.453768,20.8155284 23.1559729,20.592253 22.8743988,20.4487188 C22.7156713,20.3683641 22.7217528,20.1591967 22.3982162,20.2959836 C22.5064672,20.6535924 24.4482946,20.9265528 24.7578437,20.9756243 L24.8198751,21.4595922 C24.2907834,21.3896653 23.6412777,21.1001433 23.1067126,21.1173183 C23.2830765,21.2675999 24.4482946,21.5092771 24.8417686,21.6245952 L24.8606213,21.8822207 C24.5498559,21.8478707 24.160639,21.7123106 23.8371025,21.6325693 C23.6096538,21.5767505 23.0081921,21.3209652 22.8537216,21.5454674 C22.9850823,21.5988327 23.1134023,21.562029 23.2733461,21.5957657 L24.4002507,21.9460137 L24.3619371,22.3925646 C24.0554288,22.3870441 23.1681359,22.0496773 22.9960291,22.1386195 C23.2088821,22.2766331 24.0323191,22.4545174 24.3783572,22.5508203 L24.3680186,22.9501399 L22.8652765,22.6109329 C22.7728375,22.5796498 22.7685804,22.5587944 22.6433013,22.5256711 L22.4219341,22.5452998 C22.8135836,22.7618279 23.8486573,22.9949176 24.3728839,23.0979678 L24.393561,23.4623239 C23.654657,23.375222 22.9133205,23.0531901 22.1732002,22.9206969 C22.2857082,23.1237304 22.5672823,23.1421322 22.7825679,23.1973377 L24.0432658,23.5285705 C24.3436926,23.5905233 24.4318745,23.5389982 24.465931,23.9867759 L23.9423127,23.8929266 L23.9459616,23.6463421 C23.9362311,23.65861 23.9265007,23.6757851 23.9210274,23.684986 C23.915554,23.6935735 23.9039991,23.7113619 23.8979176,23.7211762 C23.8918361,23.7309905 23.883322,23.7475522 23.8778486,23.7567531 C23.8705508,23.7677942 23.8808894,23.9199159 23.8419677,23.8180925 C23.8395351,23.8119585 23.8316291,23.8371077 23.8249394,23.8450818 C23.5044436,23.8076648 22.2023915,23.4089586 22.0619085,23.4819525 C22.4912634,23.8009175 23.8091275,23.8953801 24.4428213,24.0953466 L24.5078935,24.4713572 C24.3674105,24.4400741 24.1588146,24.4327134 24.0335354,24.3732141 C23.7689895,24.246855 24.0152908,24.2425612 23.9027828,24.052409 L23.8778486,24.3364105 C23.5628262,24.2916327 21.9524413,23.853056 21.8733816,23.8947667 C22.3556456,24.2290665 23.1790826,24.2548291 23.7288515,24.4351669 C24.1588146,24.576861 24.1478678,24.4909858 24.4172789,24.5952628 C24.5912102,24.6621228 24.4610658,24.6602826 24.6094547,24.6756174 C24.8338626,24.6989264 25.1148286,24.6823648 25.2978821,24.8173115 C25.3854559,24.8817178 25.37755,24.8903054 25.3927538,24.9829279 C24.7882513,24.9142277 24.1138114,24.6670299 23.517823,24.5449645 C23.1869886,24.4774911 22.9035901,24.4167651 22.5545112,24.3284364 C22.3860532,24.2854988 22.2139464,24.2529889 22.075896,24.2149585 C21.5322086,24.0646769 21.6848546,24.1665003 21.645933,24.1947165 C21.8885854,24.3241426 22.7193202,24.495893 23.0629257,24.5744074 C23.4065313,24.6529218 26.8985366,25.4448136 27.084631,25.5582915 L27.1940982,25.6625685 C27.3449198,25.6190175 27.3893148,25.5846675 27.4355343,25.7312687 L27.1655151,25.7441499 C27.2208569,25.8582412 27.2518726,25.8692823 27.3984371,25.8913645 C27.5571646,25.9152869 27.4835783,25.8576278 27.6258857,25.9441164 C27.59487,25.9674254 27.6800112,26.0637282 27.309647,25.9257146 C27.1940982,25.882777 27.0974021,25.8484269 26.9630007,25.8208242 L27.1746374,25.7441499 L26.8699535,25.6202443 C26.7708248,25.593255 26.6625739,25.5644255 26.5494577,25.5343692 C26.3408618,25.4791637 26.1517267,25.4349993 25.9291433,25.3699795 C25.0710417,25.118488 24.2214542,24.9571653 23.3530139,24.7645596 L20.2532662,23.9622401 C19.4353026,23.7248566 17.3511677,23.3672478 17.099393,23.2323011 C17.0957441,23.126184 17.1942647,22.766735 17.2252804,22.5796498 C17.2867037,22.2122268 17.2824466,22.2422831 17.4429986,21.9956986 C17.3085971,21.7006561 17.6990303,20.5106716 17.7951183,20.1174859 C18.0627049,19.0231909 18.2305547,17.8644895 18.5583483,16.7830757 C18.6063922,16.6235932 18.6149063,16.5187028 18.6751133,16.3518596 C19.2729262,14.6907884 19.1695404,14.2853349 19.5940301,12.6242638 C19.7472843,12.0231375 19.8451966,11.3073066 19.9735166,10.705567 L20.3377993,9.27697221 C20.3694232,9.16472109 20.4715926,8.94389922 20.4867964,8.8837866 C20.521461,8.75006668 20.5397055,8.54826003 20.5804517,8.38141684 L20.6832293,8.07655997 C20.6868782,8.06858585 20.6929597,8.05570458 20.6953923,8.04773045 L20.7069472,7.99191159 C20.7568156,7.7416468 20.7878313,7.36440944 20.9277061,7.09206246 C20.9848724,7.30675039 20.8942578,7.19449927 21.0353489,7.23743686 C21.204415,6.36948422 21.6234313,4.99425468 21.6708672,4.14531726 C21.6933688,3.73679679 22.1628616,1.66413816 22.4754515,1.20899975 C22.5052509,1.43104841 22.3124669,1.57458263 22.4371379,1.76534819 C22.4809248,1.59973178 22.6195834,1.35744112 22.5587682,1.1832372 L22.493696,1.10288257 C22.6335708,1.01271364 22.5952573,0.996152001 22.6852637,0.834215961 C22.7850005,1.06301196 22.8835211,1.8371153 22.8038532,2.116823 C22.5745801,2.12541052 22.6433013,2.08492651 22.4547743,2.20269817 C22.5307932,2.26403758 22.445652,2.23950182 22.5849187,2.27814565 L22.859195,2.28795995 L22.8567624,2.47749873 C22.7995962,2.48485946 22.706549,2.48240588 22.6834392,2.48608624 C22.453558,2.5216631 22.5922165,2.49712734 22.5107242,2.55233281 L22.8950759,2.69464023 L22.9145368,2.98968279 C22.6201915,3.00256407 22.7430381,2.90380762 22.5022101,2.92036926 C22.4809248,3.1859689 22.7454707,3.15407241 22.9589318,3.17738138 L23.0045432,3.42764617 C22.871358,3.44420781 22.7284425,3.45095515 22.5928247,3.43009975 C22.2139464,3.3730541 22.3830125,3.37918804 22.296655,3.45218193 C22.3556456,3.5490982 22.3027365,3.54173747 22.505859,3.57731433 C22.8780477,3.6429475 23.0191388,3.46506321 23.1079289,3.96375261 C22.8342608,3.89811944 22.7552011,3.76807989 22.5885676,3.85272828 C22.6658029,4.01834468 22.9607563,4.18334769 23.156581,4.12262167 L23.2137473,4.3900615 C23.0902925,4.3692061 22.9139286,4.35632482 22.8026369,4.32688191 C22.7764864,4.31952118 22.634179,4.26063534 22.6287056,4.26002195 L22.5478215,4.26308892 C22.5362666,4.26370231 22.5113324,4.29437202 22.5034264,4.27965056 C22.4949123,4.26370231 22.4730189,4.29437202 22.4578151,4.30173275 C22.6031633,4.53114214 23.0045432,4.51090013 23.2520608,4.5250082 L23.3226064,4.95070369 L23.0392078,4.79244802 C22.939471,4.72865503 22.9090634,4.70534606 22.7594582,4.72436128 C22.7752701,4.89243126 22.9054145,4.92371436 23.0665746,5.01695026 C23.4065313,5.21446315 23.3542302,4.9298483 23.3822052,5.32794106 C23.1249572,5.2819365 22.983866,5.14330944 22.7448625,5.1469898 C22.8050695,5.38437332 22.9455525,5.39296083 23.2173962,5.46411455 C23.5640425,5.55489687 23.4795094,5.65058635 23.5287697,5.96341734 C23.0981985,5.94133515 23.079954,5.76283747 22.7606745,5.68432303 C22.7856087,5.89778417 22.7533767,5.8425787 22.9382547,5.94746909 C23.3025374,6.1541829 23.6388451,6.09345688 23.5999234,6.32347967 L22.9066308,6.17135793 C22.951634,6.35292258 23.1079289,6.36825744 23.2964559,6.43143703 C23.5835033,6.52835329 23.6552652,6.46272013 23.6874972,6.7663502 C23.562218,6.75530911 23.3329449,6.71237152 23.2155717,6.6626866 C22.9285243,6.54123457 23.2332081,6.51976578 22.8816966,6.49952377 C22.8987248,6.91295139 23.4934969,6.81174136 23.7343249,7.00066674 C23.5658669,7.11966519 23.2696972,6.91663175 23.0562361,6.90865763 C22.9011575,6.90252369 22.9929883,6.86081289 22.9297406,7.00066674 C23.0690072,7.0877687 23.3688259,7.12886611 23.5372838,7.18223139 C23.8139927,7.27056014 23.8346699,7.34416743 23.8596041,7.64227696 C23.6777668,7.60056616 23.4934969,7.55026785 23.3195656,7.50733026 C23.1657033,7.46991322 23.0416404,7.38281126 22.8865618,7.39262556 C22.7564174,7.40121308 22.8518972,7.39262556 22.7856087,7.450898 C22.9948128,7.72324498 23.6327636,7.62816889 23.9417045,7.87843368 L23.9666387,8.09925556 C23.8322373,8.08821446 23.7282434,8.06858585 23.6005316,8.02442148 C23.1936783,7.88395423 23.3378102,7.95510794 23.276995,8.00049911 C23.3870704,8.17163606 23.7738547,8.23236207 23.967855,8.25567105 L24.0341435,8.45379734 C24.0390087,8.46606522 24.048131,8.48324026 24.0523881,8.49305456 L24.0907016,8.57831634 C23.9350148,8.54764663 23.7817607,8.51943051 23.6558733,8.47219916 C23.4740361,8.40288563 23.5050518,8.34645337 23.3882867,8.5102296 C23.5196474,8.63229502 23.734933,8.65989775 23.915554,8.70835589 C24.1904384,8.78196318 24.1454352,8.84575616 24.2105074,9.10031471 C24.1265825,9.17085503 24.1472597,9.1530666 24.0773223,9.23158104 C23.9240681,9.17269521 23.7665569,9.14079872 23.5993153,9.07761913 C23.4448448,9.0187333 23.3396346,8.93592509 23.1869886,8.90832236 C23.2052332,9.14447908 23.4065313,9.16717467 23.590193,9.23710159 C23.7714221,9.30641512 23.959949,9.35610004 24.1551656,9.4125323 L24.1655042,9.63396757 C23.9070399,9.5996175 23.674726,9.4333877 23.5348512,9.50024766 C23.5853278,9.68917304 23.6649956,9.65666315 23.8863627,9.73824456 C24.1393537,9.83148046 24.1788836,9.7449919 24.21294,9.94986552 C23.9410964,10.082972 23.6321554,9.7137088 23.3834215,9.84988229 C23.5847196,10.2320268 24.3284888,9.85785641 24.3108524,10.482905 C24.1697613,10.4418076 24.0274539,10.3976432 23.8778486,10.3455047 C23.8310209,10.3295565 23.6735097,10.2565626 23.6656038,10.2547224 C23.2873336,10.1706874 23.5403246,10.2479751 23.4527508,10.2995002 L23.7282434,10.4473281 C23.8194661,10.4853586 23.8857546,10.5086675 23.9854914,10.5393372 C24.2743633,10.6288928 24.34126,10.627666 24.3838306,10.8497147 C24.0931342,10.9871149 23.6230332,10.6129445 23.3785563,10.4963997 C23.2478038,10.5859552 23.3159167,10.4252459 23.252669,10.6092642 C23.4101802,10.7871485 23.6862809,10.8852915 23.9575164,10.9644193 C24.4221441,11.0987527 24.4452539,10.9803676 24.5370847,11.4723097 L23.1553647,11.1496644 C23.2332081,11.2527146 23.2307755,11.2588485 23.4442367,11.331229 C23.5591773,11.3704862 23.642494,11.3895015 23.7653406,11.4189444 C24.4799185,11.5888545 24.5766146,11.5649322 24.7262198,12.1433628 C24.7779127,12.3421025 24.8600131,12.6395986 24.8630539,12.8438588 C24.6611476,12.6678147 24.1247581,12.5929807 23.7799362,12.4936108 C23.6133027,12.4451527 22.8336526,12.1544039 22.7223609,12.1991816 C22.7710131,12.3782927 22.6402605,12.2648148 22.8689254,12.3703186 C23.30497,12.5721253 23.8687263,12.6561602 24.305379,12.805215 L24.3552475,13.2045346 C23.803046,13.1468755 23.1474588,12.8622607 22.6901289,12.764731 C22.6840474,12.9689912 22.8214896,12.9824859 22.9984617,13.0333976 C23.1699604,13.0824691 23.2958477,13.1125254 23.4728198,13.1542362 C24.2555106,13.3394813 24.4178871,13.1891997 24.458025,13.9412209 C24.0177234,13.8835618 22.6165426,13.471361 22.5095079,13.4695208 C22.5253199,13.7903259 24.2938242,14.047338 24.5005956,14.1184918 L24.5559374,14.5319194 C24.2628084,14.5000229 23.8298046,14.3669164 23.5208637,14.3018966 C23.2490201,14.2448509 22.7235772,14.0025603 22.5526867,14.0982497 C22.6323545,14.276134 22.7843924,14.2614126 23.0075839,14.3233654 C23.1736093,14.3687565 23.3548384,14.4086272 23.5263371,14.4509514 C24.3595045,14.6533714 24.6514172,14.4981827 24.6964204,15.2268949 C24.4908652,15.2238279 23.9362311,15.026315 23.6169517,14.9539345 C23.3378102,14.8913683 22.7181039,14.6871081 22.5210628,14.6748402 C22.5806617,14.8226682 22.5374829,14.8024262 22.7576337,14.878487 L24.7097997,15.4158203 L24.7821697,15.8317014 L24.4288338,15.7421459 L24.4191034,15.3876041 C24.2555106,15.5066026 24.3467333,15.3231977 24.3108524,15.5458598 C24.3102443,15.5489268 24.3449089,15.7243575 24.345517,15.7274245 C23.9915729,15.6851003 22.61411,15.298662 22.4845737,15.3477335 C22.573972,15.5158035 22.7205365,15.4912677 22.9291324,15.5526071 C23.0805621,15.5973849 23.2100984,15.6403225 23.4004498,15.6814199 C23.7172966,15.7507334 24.0456984,15.8188202 24.3680186,15.8973346 L24.4367397,16.3058551 C24.2658492,16.2831595 24.0335354,16.2187531 23.9179866,16.1972843 C23.7258108,16.1623209 23.6029642,16.1457592 23.4247758,16.1089556 C22.9911639,16.0200134 22.8348689,15.7642281 22.5386992,15.897948 C22.586135,16.0813528 22.7497278,16.0770591 22.9546748,16.1322645 C23.1140104,16.1752021 23.2739543,16.2156861 23.4338981,16.2488094 C23.6333717,16.2892934 23.7641243,16.3365248 23.9563001,16.3733284 C24.1381374,16.4076785 24.2780122,16.4156526 24.4610658,16.4634974 L24.5370847,16.8664973 C24.0207642,16.8247865 23.4290329,16.6978139 22.9297406,16.5463056 C22.83122,16.5162492 22.7813516,16.4886465 22.7071572,16.4671777 C22.4225423,16.3825293 22.5393074,16.4524563 22.48579,16.497234 C22.6317464,16.7370711 23.7927074,16.8781518 24.0870527,16.9443983 C24.1138114,16.9505323 24.2372661,16.9756814 24.2451721,16.9769082 L24.5887776,17.0689173 L24.6349971,17.4062841 C24.3850469,17.3884956 24.233009,17.3296098 24.0317109,17.3032339 C23.4837665,17.2308534 22.9485933,16.9775216 22.4128119,16.9278367 C22.4961286,17.0817986 22.4608558,17.0523557 22.6670192,17.1143085 C23.3335531,17.3136616 24.0341435,17.3909492 24.6927715,17.5712871 L24.7785208,18.1012596 C24.096175,18.0386934 22.6360034,17.560246 22.6007307,17.5590192 C22.6226241,17.7669598 22.5897839,17.6902855 22.8099347,17.771867 L23.7312841,18.0460541 C24.5474233,18.2601286 24.8168344,18.0497345 24.8782577,18.5429033 L22.6621539,18.1202748 C23.0507627,18.4999657 24.7091916,18.5067131 24.9159631,18.6962518 L25.0704335,18.8980585 Z M3.31746591,16.940718 C3.4214598,16.7511792 4.16097191,16.1206101 4.36713524,16.0335081 C4.57877193,16.251263 4.91386335,16.3469525 5.26476671,16.4285339 C5.45937516,16.4739251 5.60472335,16.5082751 5.79811549,16.5211564 C6.26700023,16.5524395 6.22078072,16.5487591 6.28585292,16.3905035 C5.52687997,16.3592204 4.92906714,16.3365248 4.42247702,15.9365918 C4.8719009,15.440356 5.4125475,15.0005525 5.89055451,14.5503212 C6.07604069,14.3755039 6.18794054,14.2540518 6.3861979,14.0994765 L6.90130214,13.6701007 C6.99921452,13.5921996 7.06367857,13.4989637 7.15490128,13.4265832 L8.71480963,12.1513369 C9.37465391,11.5624786 10.7058973,10.5528319 11.3201302,9.97930844 C11.4083122,9.89711363 11.4587888,9.82227955 11.5335914,9.74683208 C11.6321119,9.64807563 11.7014412,9.62169969 11.8145573,9.52846378 C12.074238,9.31438925 12.2566834,8.96904837 12.5473798,8.85863744 L12.4409533,9.04510924 C12.5765711,9.00585202 12.4810913,9.06903161 12.6094112,8.93285812 C12.6732671,8.86538477 12.6756997,8.85802404 12.7559757,8.78012299 L13.1701268,8.33725246 C13.3142587,8.17531642 13.3051364,8.1053895 13.4778514,7.95572134 C13.5453562,7.89683551 13.4705536,7.94590703 13.556303,7.8772069 C13.7423973,7.72692534 13.8567298,7.53063923 14.0422159,7.3785175 L14.6041478,6.84609143 C14.8528818,6.62036241 14.9641735,6.53632742 15.1995281,6.29833051 C15.5826634,5.91127884 15.9670151,5.67818908 16.4012352,5.30953924 C16.6146964,5.12797459 16.79775,4.99609486 17.0063459,4.82005075 L17.6284848,4.29805238 C17.8115383,4.14715744 17.9733066,3.89689265 18.1904167,3.76623971 C18.766336,3.41967205 19.2364371,2.91116835 19.7637044,2.50203449 C19.898714,2.3971441 19.9090525,2.34377882 20.0452785,2.23582146 C20.5190284,1.86287785 21.4409859,0.985724302 21.9421027,0.840963296 C21.9725103,0.752021154 21.9226418,0.845870449 21.9706858,0.67350671 C22.2090812,0.58947172 22.2771941,0.418334769 22.4699781,0.308537227 C22.3635516,0.557575227 22.3228055,0.777170311 22.1823225,0.996152001 C21.774861,1.63224167 21.6112683,2.40082447 21.3108415,3.06758384 C21.2305655,3.24608152 21.2287411,3.25650922 21.1411673,3.38961574 C20.9629789,3.65828235 20.8194552,4.1097404 20.7191102,4.41827763 L20.1778555,5.82110991 C19.9826389,6.27195456 19.8391151,6.82339585 19.6092339,7.24847795 C19.3623244,7.70545655 19.2528572,8.14526011 19.0479101,8.63168163 C18.774242,9.28187936 18.0316892,10.644841 17.810322,11.2827709 C17.7051118,11.5876277 17.6090239,11.6863842 17.4697573,11.9348088 C17.3444781,12.159311 17.2593369,12.3598909 17.1462207,12.6107691 C17.0276312,12.872075 16.9935747,13.0769486 16.890189,13.346842 C16.8391042,13.4811753 16.7728157,13.5277932 16.7156495,13.6750078 C16.6682137,13.7970733 16.6584833,13.8755877 16.5946274,13.9994933 C16.2212224,14.7275921 16.0849965,15.2465235 15.5857042,15.9341383 L14.6065804,17.8411805 C14.4885991,18.0779506 14.4186617,18.3460038 14.3055455,18.5416765 L13.3227728,20.4487188 C12.7219192,21.686548 12.8952424,21.8705663 12.2603323,21.6669194 C11.929498,21.5608022 11.5810272,21.4516181 11.190594,21.4019332 C10.6894772,21.3387536 10.0989622,21.2136212 9.60696774,21.1970595 C8.69838954,21.1670032 6.64162149,20.7449881 5.63999613,20.646845 C5.35659757,20.6192423 5.29152537,20.4928831 4.96312361,20.4309303 C4.47295358,20.3383078 3.99251397,20.2113352 3.50295209,20.1021511 C3.24813665,20.0451054 0.903104836,19.5132928 0.661060577,19.3403156 L0.776001193,19.1489367 C0.966352582,19.1875805 1.1275127,19.2789762 1.33245973,19.3538103 C1.53254154,19.4274176 1.70282393,19.4556337 1.91810953,19.5139062 L4.24003159,20.1561298 C4.55444587,20.2334174 5.0233306,20.4094615 5.35234051,20.3720445 L5.10482289,20.2352576 C4.06670844,20.0346777 3.0322429,19.7108057 2.00020997,19.4231238 C1.67059191,19.3311147 1.13785128,19.1949412 0.989462336,18.993748 C1.19684196,18.8496004 1.24853483,18.8680022 1.52706818,18.9538774 C2.35293779,19.2090493 4.51430788,19.9438954 5.13218971,19.8905301 C4.8506156,19.6488529 1.90168944,19.1023187 1.4054379,18.7698591 C1.31786409,18.7115867 1.37746293,18.7490037 1.31603964,18.6803036 C1.68579569,18.4466004 2.00142627,18.0914453 2.34381551,17.8209385 C2.69228627,17.5449111 2.90696371,17.1351639 3.31746591,16.940718 Z M23.3067944,3.3521987 C23.3134841,3.33993082 23.3244308,3.32398257 23.3299042,3.31539505 L23.3736911,3.24608152 C23.4186943,3.15959295 23.3986253,3.237494 23.4193024,3.14119113 C23.4643057,2.93018356 23.397409,2.67133126 23.3657851,2.46216387 C23.3286879,2.2106723 23.2544934,1.91317616 23.1973272,1.64389616 C23.1657033,1.49545479 23.1462425,1.28199365 23.1152267,1.17464968 L22.8707499,0.417721375 C22.8227059,0.244744242 22.9163612,0.27602734 22.8634521,0.0251491577 C22.4687618,-0.0723805025 22.4833574,0.138627064 22.2236768,0.341047114 C22.1154258,0.425695498 22.0442721,0.469246478 21.9360212,0.55205468 L19.5143623,2.5014211 C19.3379984,2.64556871 19.1725812,2.81854584 18.9852706,2.96882739 C18.7979599,3.11972234 18.6520036,3.29331287 18.3917148,3.31846202 C18.4057023,3.33625045 18.5516586,3.32152899 18.3679969,3.49573292 C18.3679969,3.49573292 18.2433258,3.56811342 18.2123101,3.59326258 C17.5092871,4.14531726 16.8889727,4.8047159 16.1549339,5.31137942 C15.926269,5.4690217 15.8009898,5.61194252 15.548607,5.79902772 C15.0955342,6.13516768 13.8622031,7.38097108 13.6000899,7.58277773 C13.4650803,7.68705473 13.4188607,7.75330129 13.3227728,7.85205774 C13.1257318,8.05570458 12.9566657,8.2194808 12.8046278,8.38019005 L11.6923189,9.40578497 C11.2580988,9.79529021 9.79002131,11.1410768 9.41235929,11.4054497 L7.06915193,13.340708 C6.70000403,13.6805284 6.00062991,14.3405404 5.63269831,14.5858981 L3.41294568,16.6493558 C2.91608599,17.0707575 2.50071858,17.4989066 1.98318173,17.9049735 C1.53010893,18.260742 0.665317637,19.2538271 0.193392147,19.303512 C0.189135087,19.5672714 -0.00790596826,19.7837996 0.000608151405,19.986833 L1.62862946,20.2027477 C1.94121928,20.2370978 2.15224782,20.2383246 2.44051159,20.3149988 C3.2700301,20.5345939 3.51876403,20.4579197 3.95359228,20.551769 L4.66573758,20.7296532 C6.14111289,21.0817415 8.00023173,21.1878586 9.41904896,21.4884217 C9.90496193,21.5908586 10.4820976,21.6908418 10.989904,21.7589285 C11.2112711,21.7889848 11.6077859,21.767516 11.7975291,21.8429635 C11.921592,21.892035 11.700833,21.8601386 11.9665952,21.921478 C12.1417428,21.961962 12.4081131,21.8852877 12.5662325,21.9650289 C12.9487597,22.1588615 13.4687292,25.4748699 13.974103,26.0845836 C14.1504669,26.296818 14.0482975,26.3783994 14.2623667,26.5305212 C14.4034579,26.4047754 14.5457653,26.3581574 14.6473266,26.1814999 L15.9293097,24.6768442 C16.0564134,24.5382171 16.1518932,24.4480482 16.2528463,24.3032872 C16.4602259,24.0051777 16.7314614,23.8555095 16.9327596,23.5972706 C17.7324787,23.6696511 17.8322155,23.7009342 18.5778091,23.8898596 C19.1093334,24.0241929 21.4093621,24.5179751 21.6149172,24.620412 C21.8314191,24.7283693 24.4574169,25.3939019 24.6216178,25.4411332 C24.8472419,25.5055396 25.1257753,25.5809871 25.3629543,25.6447801 L26.0678018,25.87971 C26.7422417,26.1790463 27.8715789,26.3262609 27.8995538,26.3354618 C28.2419431,26.4421924 28.6177807,26.6574937 28.9759818,26.5501498 C28.9711166,26.320127 28.9601699,26.404162 28.7479251,26.2863903 C28.735762,25.8324787 28.370263,24.8535017 28.2346453,24.4474348 C28.1622753,24.2327469 28.0771341,23.6917333 28.024833,23.4641641 C27.948206,23.1286375 27.8515099,22.8691718 27.7833969,22.5452998 L27.9548956,22.3747762 C27.6556851,22.2931948 27.7310959,22.2827671 27.6198042,21.9662557 C27.2786313,20.9964797 27.1594336,19.9690446 26.8383296,19.0060159 C26.7148749,18.6367526 26.5822979,18.2595153 26.490467,17.8595823 L25.5751992,14.2798144 C25.381807,13.4909896 25.2358507,12.6218102 24.9956309,11.8618149 C24.9305587,11.6551011 24.9536684,11.5772 24.8849473,11.3269353 C24.6167526,10.3497985 24.3874795,9.30028118 24.2372661,8.29860863 C24.2317927,8.26241838 24.1478678,8.08637428 24.0949587,7.71895122 C23.9854914,6.96140952 23.4892399,5.09730488 23.489848,4.60168246 C23.4904562,4.24714067 23.5871522,4.39926241 23.4539671,3.98154103 C23.397409,3.80365675 23.3408509,3.54603123 23.3067944,3.3521987 Z" id="Shape"></path>
                        <path d="M12.1277553,10.9220952 C12.2731035,10.8662763 12.2086395,10.896946 12.2931725,10.8080039 L15.6197607,7.42942921 C15.3971773,7.44844443 14.9088317,8.01706075 14.6813831,8.22254777 L13.3550048,9.53459772 C13.2084404,9.68855964 13.0862019,9.81123846 12.9426782,9.96826735 C12.7438127,10.1854089 12.2651975,10.6160115 12.1277553,10.9220952 Z" id="Shape"></path>
                        <path d="M9.25849699,12.353757 C9.5023657,12.3010051 9.72069205,11.8789899 10.0490938,11.5477571 C10.3227619,11.2711164 10.5210193,11.0275989 10.8117157,10.7669065 L11.4046633,10.1663936 C11.4831148,10.1001471 11.5086572,10.0651836 11.5792027,9.99157632 C11.7458362,9.81982598 12.2633731,9.36346077 12.3077681,9.21808637 C12.1168086,9.24200874 12.2433041,9.23832838 12.1034293,9.3714349 L10.6840039,10.7374635 C10.3957401,10.9993828 10.2078213,11.2563949 9.90313748,11.5526643 C9.69940676,11.751404 9.62521228,11.6851574 9.46648477,11.9065927 C9.33025885,12.0961314 9.21410193,12.185687 9.25849699,12.353757 Z" id="Shape"></path>
                        <path d="M10.9467253,11.0956857 C11.1413337,11.0275989 11.6917108,10.3737208 11.8601687,10.2258929 L13.6949615,8.4783331 C13.8281466,8.3538141 14.4952887,7.73919323 14.5512387,7.60485992 C14.3876459,7.62878229 14.1626299,7.90726321 14.066542,8.00233929 L11.7634726,10.1780481 C11.6278549,10.3307833 11.4898045,10.4651166 11.3207384,10.6313464 C11.1741739,10.7767208 10.9868633,10.8828379 10.9467253,11.0956857 Z" id="Shape"></path>
                        <path d="M13.3446663,10.2240527 C13.5429236,10.0246996 13.6280648,9.92532976 13.8305792,9.7130954 L15.8271403,7.71527086 C15.6307074,7.76679596 15.3807572,8.03116881 15.259735,8.15998157 L12.9870732,10.462663 C12.7505024,10.7644529 11.9684196,11.5618652 11.8984822,11.8360523 L13.3446663,10.2240527 Z" id="Shape"></path>
                        <path d="M14.5640098,14.2454643 C14.6625304,14.2062071 15.2548698,13.3916198 15.3789327,13.2241632 C15.9299179,12.4801161 16.9929666,11.3208013 17.6509864,10.5141881 C17.6570679,10.506214 17.6667983,10.4945595 17.673488,10.4871987 C17.7434254,10.4099111 17.8516763,10.3908959 17.7805226,10.2718974 C17.4898263,10.6485214 17.1887913,10.8816111 16.9260699,11.2373797 C16.7831543,11.4299855 16.6633485,11.5146338 16.5021884,11.7096932 L15.2907508,13.1855193 C15.0566125,13.4584797 14.6825994,13.8467582 14.5640098,14.2454643 Z" id="Shape"></path>
                        <path d="M10.9935529,11.54285 L10.9485497,11.8170371 L12.0146392,10.5325899 L15.4877918,7.11537144 C15.1691205,7.2122877 15.0900608,7.40243987 14.8553144,7.59811258 L10.9935529,11.54285 Z" id="Shape"></path>
                        <path d="M14.3499405,10.338144 C14.785377,9.80387773 15.5340113,9.14693266 15.8429522,8.74577293 C15.4038669,8.95432692 14.9495778,9.54993258 14.6400288,9.92962352 C14.5682669,10.0179523 14.5050192,10.0412612 14.424135,10.112415 L13.8804477,10.714768 C13.7600337,10.8552352 13.6517827,10.9650327 13.5319769,11.1122473 C13.3914939,11.2852245 13.2966223,11.3582184 13.1470171,11.5238348 C13.0247786,11.6581681 12.8861201,11.7747129 12.8697,12.0096429 L14.3499405,10.338144 Z" id="Shape"></path>
                        <path d="M12.4312229,11.8004755 L14.4052823,9.69653376 C14.576781,9.54441203 15.5309706,8.6341352 15.5984754,8.49734832 L14.6607059,9.30212136 C14.3748748,9.57201476 12.4658875,11.5453035 12.4312229,11.8004755 Z" id="Shape"></path>
                        <path d="M3.01339021,18.9060326 C2.63572819,18.8158637 2.11393428,18.6066963 1.78735698,18.5606917 C1.73931302,18.8379459 2.09264898,18.8680022 2.30550198,18.8772031 C2.49524521,18.8857906 3.9383885,19.2734557 4.20597512,19.2587342 C4.50822636,19.2415592 4.25584353,19.2752959 4.3488907,19.1967814 C4.22482781,19.1250143 3.2450959,18.9612381 3.01339021,18.9060326 Z" id="Shape"></path>
                        <path d="M15.5954346,9.84620192 C15.2542617,10.008138 15.1806754,10.1357239 14.9106561,10.4050039 L13.6998267,11.6808636 C13.5727231,11.8207175 13.5338014,11.9182472 13.3993999,12.0268179 C13.27108,12.1304815 13.1482334,12.145203 13.1421519,12.3353551 C13.395751,12.2457996 13.6244159,11.9433963 13.7801027,11.7618317 L15.5954346,9.84620192 Z" id="Shape"></path>
                        <path d="M16.2972413,10.8583022 C16.4225205,10.7104742 16.3312978,10.8975594 16.4018434,10.671217 C16.0418178,10.8717968 15.4275848,11.8219443 15.147227,12.1415226 C15.0365435,12.2678818 14.9976218,12.3267676 14.9033583,12.4463795 C14.8468002,12.5175332 14.5700914,12.7745453 14.5342104,12.8794357 C14.4557589,13.1131388 14.5488061,13.037078 14.5597528,13.0560932 L16.2972413,10.8583022 Z" id="Shape"></path>
                        <path d="M14.2118902,12.4426991 C14.5439408,12.3427159 14.8601796,11.7734862 15.2293275,11.3735532 C15.3965691,11.1926019 15.5838797,10.9914087 15.7419991,10.8417405 C15.8496419,10.7405305 16.1780437,10.4970131 16.2321691,10.317902 C15.8806576,10.4473281 14.9951892,11.4802838 14.6838157,11.875923 C14.5384675,12.0605546 14.2295266,12.1924343 14.2118902,12.4426991 Z" id="Shape"></path>
                        <path d="M3.31746591,16.940718 C3.65073288,17.3228625 5.38153178,17.6590024 5.64546949,17.3473982 C5.45694256,17.2179721 5.60715595,17.3038473 5.49586425,17.3013937 C5.48978273,17.3013937 5.366328,17.3173419 5.34565085,17.3191821 C4.46626392,17.3897224 3.81979897,17.0413146 3.31746591,16.940718 Z" id="Shape"></path>
                        <path d="M15.6994285,10.2467483 C15.5248891,10.3093145 15.2706818,10.6141713 15.1502678,10.7460511 L14.1906049,11.8753096 C14.090868,11.994308 14.0330937,12.0501269 13.9607236,12.1366155 C13.9546421,12.1439762 13.9467362,12.1562441 13.9400465,12.1636048 L13.8944351,12.2163567 C13.8847047,12.2273978 13.8512564,12.2550005 13.8421341,12.266655 C13.7442217,12.3948544 13.7959146,12.263588 13.765507,12.4672349 C13.9631563,12.3966945 14.1005985,12.1439762 14.2824357,11.9194739 C14.6157027,11.5078865 14.8315965,11.2054832 15.2512209,10.7981895 C15.3631208,10.6896188 15.4020425,10.6301196 15.4950896,10.543631 C15.6434786,10.4056173 15.6459112,10.4448746 15.6994285,10.2467483 Z" id="Shape"></path>
                        <path d="M23.2240858,11.7520174 C23.0750888,11.6802502 22.9869068,11.6029626 22.8464238,11.5679991 C22.7339158,11.9440097 24.4489028,12.3095926 24.6100629,12.1991816 C24.5504641,12.0734359 24.6800003,12.1243476 24.1557738,12.0274313 C23.967855,11.9930812 23.8462247,11.956891 23.6668201,11.9041391 C23.4752524,11.8477068 23.3913275,11.8329854 23.2240858,11.7520174 Z" id="Shape"></path>
                        <path d="M1.96372089,18.2319125 C2.04582133,18.3392565 1.79343849,18.3552047 2.4690947,18.4355594 C2.97142776,18.4950586 3.86662663,18.7348957 4.27104732,18.6655821 C4.15975561,18.6704893 3.97244498,18.5576248 3.77297132,18.5275685 C3.58322808,18.4987389 3.38557887,18.4686826 3.18610521,18.4331058 C2.78046822,18.3607253 2.36753342,18.2429536 1.96372089,18.2319125 Z" id="Shape"></path>
                        <path d="M15.1247254,14.4104673 C15.3856224,14.2920823 15.4634658,14.0884354 15.5936102,13.9418343 L16.7588283,12.4469929 C16.4979313,12.539002 15.9189712,13.367084 15.7067263,13.6572194 C15.5747575,13.8369439 15.2110829,14.1700169 15.1247254,14.4104673 Z" id="Shape"></path>
                        <path d="M5.53113703,16.7619415 C5.15286685,16.895907 4.22908487,16.6987325 4.15002519,16.7506205 C4.21509739,16.8109993 4.0709655,16.7845836 4.28868371,16.9194924 L4.848183,17.0553447 C5.39551926,17.1223275 5.53296148,17.1223275 5.53113703,16.7619415 Z" id="Shape"></path>
                        <path d="M2.70505745,17.8480977 C2.76708889,17.9290951 2.67404173,17.8740422 2.78472528,17.9284623 L3.71823769,18.0493255 C3.97122867,18.078434 4.5039693,18.221445 4.7204712,18.1062768 L2.82060622,17.8025367 C2.72330199,17.810763 2.75979108,17.8164581 2.70505745,17.8480977 Z" id="Shape"></path>
                        <path d="M3.13197973,17.4670101 C3.31320885,17.8968291 3.58930959,17.812912 3.95663304,17.7996081 L4.9558258,17.6839663 C4.80622055,17.5325063 4.70770002,17.6000493 4.50214485,17.5990259 C4.33429506,17.5980025 4.17556755,17.5846986 4.00650145,17.5877688 C3.2049579,17.6031194 3.59356665,17.5662778 3.13197973,17.4670101 Z" id="Shape"></path>
                        <path d="M15.3783941,21.2682133 C15.4630637,21.2013533 15.4290447,21.3289393 15.5371497,21.0866486 L15.632403,20.5634235 C15.66869,20.3542561 15.7510917,20.1683977 15.7132928,19.8555667 C15.596116,20.0426519 15.3678104,20.9952529 15.3783941,21.2682133 Z" id="Shape"></path>
                        <path d="M13.9569932,21.1780443 C14.0167852,21.2436775 13.9794152,21.2013533 14.0493991,21.2412239 C14.1098706,21.1136379 13.9807741,20.9382072 13.9182643,20.7590962 C13.8503188,20.5646502 13.8374091,20.447492 13.8346913,20.1996808 C13.6063945,20.3769516 13.7721815,20.7965132 13.8788559,21.0547521 C13.8958423,21.0952361 13.9162259,21.1332666 13.9569932,21.1780443 Z" id="Shape"></path>
                        <path d="M14.384037,19.0888241 C14.2640844,19.1532304 14.2519544,19.0796231 14.2310638,19.3028986 C14.210847,19.512066 14.27891,19.839005 14.5727265,19.8917569 C14.5147718,19.6187966 14.3179957,19.7923871 14.384037,19.0888241 Z" id="Shape"></path>
                        <path d="M14.1093199,19.6776824 C14.0547123,19.7181664 13.9705869,19.7046717 13.9528763,19.8966641 C13.9469728,19.9616838 14.0178152,20.4499455 14.2974951,20.4708009 C14.2819983,20.2567264 14.0738988,20.1812789 14.1093199,19.6776824 Z" id="Shape"></path>
                        <path d="M10.9467253,11.0956857 C10.6566371,11.1533447 10.4188499,11.5545045 10.3185049,11.7820737 C10.539872,11.7710326 10.4808813,11.6232046 10.6408251,11.4447069 C10.7873896,11.2821575 10.8755716,11.2551681 10.9467253,11.0956857 Z" id="Shape"></path>
                        <path d="M11.395541,11.74527 C11.5743375,11.6802502 11.7202939,11.4741498 11.9222001,11.2422869 C12.0073413,11.1441438 11.9903131,11.1754269 12.0511282,11.0441606 L11.4910208,11.5532777 C11.395541,11.6606216 11.423516,11.6140037 11.395541,11.74527 Z" id="Shape"></path>
                        <path d="M15.5984754,8.49734832 L16.2048023,8.02074111 C16.2084512,8.00724644 16.2218306,8.00724644 16.2303447,8.00049911 C16.0326955,7.93118558 15.878225,8.25935141 15.6155036,8.36792217 L15.5984754,8.49734832 Z" id="Shape"></path>
                        <path d="M13.396322,21.642997 C13.333755,21.8239483 13.2959238,21.9883379 13.6305846,22.106723 C13.6887864,22.0478371 13.7149773,22.1116301 13.6902415,21.9705495 L13.396322,21.642997 Z" id="Shape"></path>
                        <path d="M12.5201433,11.8004755 C12.3423413,11.8644186 12.235824,12.0192613 12.1751911,12.1484014 C12.359548,12.0731742 12.48573,11.9960663 12.5201433,11.8004755 Z" id="Shape"></path>
                        <path d="M11.0428995,11.6085105 C11.1839792,11.4208561 11.1146626,11.5577713 11.1937651,11.3330692 C10.9841842,11.4305207 10.9458562,11.4893137 10.8488129,11.6809951 L11.0428995,11.6085105 Z" id="Shape"></path>
                        <path d="M10.5191948,11.9821716 C10.7406366,11.9501486 10.565968,12.0263114 10.7150575,11.853214 C10.8341829,11.7156015 10.7706007,11.8255184 10.864147,11.6342457 C10.7662157,11.7199289 10.5688913,11.9094707 10.5191948,11.9821716 Z" id="Shape"></path>
                        <path d="M15.5954346,10.0205373 C15.9677895,9.83489485 15.7308364,10.0906142 15.9403868,9.67261139 C15.60833,9.77219442 15.6728071,9.81522413 15.5954346,10.0205373 Z" id="Shape"></path>
                        <path d="M17.0611931,12.3924668 C17.308789,12.0558683 16.8070815,12.3315189 16.7983939,12.3689187 C16.7245495,12.7456873 16.9721454,12.5143625 17.0611931,12.3924668 Z" id="Shape"></path>
                        <path d="M22.3726739,19.9402151 C22.5287208,20.2270821 22.2902811,20.0081572 22.5399561,20.1836746 C22.8807626,20.4252468 22.6098652,20.1874491 22.6984998,20.0742122 L22.3726739,19.9402151 Z" id="Shape"></path>
                        <path d="M15.7053526,10.5148996 L16.0391649,10.3089065 C15.9261623,10.1858457 16.1417764,10.1082639 15.8703104,10.223299 C15.5326015,10.3677617 15.8027686,10.3089065 15.7053526,10.5148996 Z" id="Shape"></path>
                        <path d="M16.733601,10.6515061 C16.9755924,10.3395171 16.486232,10.6234831 16.4754769,10.6739245 C16.3786803,11.0494322 16.6663812,10.7393114 16.733601,10.6515061 Z" id="Shape"></path>
                        <path d="M14.9045746,7.52709031 C15.2026736,7.40246014 15.3115445,7.59806027 15.2156344,7.17916442 L14.9045746,7.52709031 Z" id="Shape"></path>
                        <path d="M13.938222,18.6473218 L14.2831742,18.5407342 C14.105655,18.3400986 14.3557957,18.0704945 13.938222,18.6473218 Z" id="Shape"></path>
                        <path d="M16.1361577,7.52616231 C15.8336214,7.50985014 16.0056518,7.89318621 16.0649727,7.872796 C16.1094633,7.85648382 16.5395395,7.55063057 16.1361577,7.52616231 Z" id="Shape"></path>
                        <path d="M15.2282415,7.30245663 L14.8832893,7.65038252 C14.9325682,7.45619133 15.1099722,7.41573483 15.2282415,7.30245663 Z" id="Shape"></path>
                    </g>
                </g>
            </g>
        </g>
    </g>
</svg>