<?xml version="1.0" encoding="UTF-8" standalone="no"?>
<svg width="22px" height="30px" viewBox="0 0 22 30" version="1.1" xmlns="http://www.w3.org/2000/svg" xmlns:xlink="http://www.w3.org/1999/xlink">
    <!-- Generator: Sketch 50.2 (55047) - http://www.bohemiancoding.com/sketch -->
    <title>pers</title>
    <desc>Created with Sketch.</desc>
    <defs></defs>
    <g id="Page-1" stroke="none" stroke-width="1" fill="none" fill-rule="evenodd">
        <g id="MOCKUP" transform="translate(-251.000000, -2352.000000)" fill="#FFFFFF" fill-rule="nonzero">
            <g id="WHY-/-WHAT" transform="translate(164.000000, 2145.000000)">
                <g id="personal" transform="translate(0.000000, 185.000000)">
                    <g id="Group" transform="translate(10.000000, 22.000000)">
                        <path d="M92.2545175,16.357974 C94.1869255,13.7424009 95.3886785,9.84525534 95.3886785,7.36142437 C95.3886785,3.30206575 92.0497711,0 87.9466882,0 C83.8431523,0 80.5051507,3.30206575 80.5051507,7.36142437 C80.5051507,9.84839206 81.7096216,13.7518111 83.6456535,16.3673841 C79.6839,18.0647956 77,22.0394629 77,26.4151817 C77,29.7418931 85.3502131,30 87.9090909,30 C90.4675158,30 98.8181818,29.7418931 98.8181818,26.4160779 C98.8181818,22.0538021 96.1682552,18.0782387 92.2545175,16.357974 Z M87.9466882,1.79240915 C91.0509526,1.79240915 93.5767629,4.2905794 93.5767629,7.36142437 C93.5767629,10.8400424 90.6822278,17.3092951 87.9466882,17.3092951 C85.2106956,17.3092951 82.3170664,10.8404905 82.3170664,7.36142437 C82.3170664,4.2905794 84.8424237,1.79240915 87.9466882,1.79240915 Z M87.9090909,28.2075909 C81.6090603,28.2075909 78.8119156,26.9094385 78.8119156,26.4151817 C78.8119156,22.6107933 81.2281051,19.1644386 84.750922,17.8497065 C85.7071605,18.7302275 86.8015575,19.1913247 87.9466882,19.1913247 C89.065546,19.1913247 90.1540543,18.7212654 91.1243352,17.8250609 C94.6131787,19.1563728 97.0062662,22.6125857 97.0062662,26.4151817 C97.0062662,26.9089904 94.2086685,28.2075909 87.9090909,28.2075909 Z" id="pers"></path>
                    </g>
                </g>
            </g>
        </g>
    </g>
</svg>