<?xml version="1.0" encoding="UTF-8" standalone="no"?>
<svg width="90px" height="124px" viewBox="0 0 90 124" version="1.1" xmlns="http://www.w3.org/2000/svg" xmlns:xlink="http://www.w3.org/1999/xlink">
    <!-- Generator: Sketch 50.2 (55047) - http://www.bohemiancoding.com/sketch -->
    <title>plan</title>
    <desc>Created with Sketch.</desc>
    <defs></defs>
    <g id="Page-1" stroke="none" stroke-width="1" fill="none" fill-rule="evenodd">
        <g id="plan" transform="translate(-5.000000, 2.000000)">
            <polygon id="Polygon-Copy" stroke="#FFFFFF" stroke-width="2" points="50.2325581 0 93.7352296 30 93.7352296 90 50.2325581 120 6.72988669 90 6.72988669 30"></polygon>
            <g id="research" transform="translate(25.000000, 35.000000)" fill="#FFFFFF" fill-rule="nonzero">
                <path d="M33.4375,18.5416667 C30,18.5416667 26.7708333,19.8958333 24.3229167,22.34375 C22.1354167,24.53125 20.78125,27.4479167 20.5729167,30.5208333 L20.5729167,30.625 L20.15625,30.625 C19.6875,30.625 19.2708333,30.9895833 19.2708333,31.5104167 C19.2708333,31.7708333 19.375,31.9791667 19.53125,32.1354167 C19.6875,32.2916667 19.8958333,32.3958333 20.15625,32.3958333 L20.5729167,32.3958333 L20.5729167,32.5 C20.8333333,35.5729167 22.1354167,38.4375 24.3229167,40.625 C26.7708333,43.0729167 30,44.4270833 33.4375,44.4270833 C36.1979167,44.4270833 38.8020833,43.59375 40.9895833,41.9791667 L41.3541667,41.71875 L47.9166667,48.2291667 C48.2291667,48.5416667 48.59375,48.6979167 49.0625,48.6979167 C49.4791667,48.6979167 49.8958333,48.5416667 50.2083333,48.2291667 C50.5208333,47.9166667 50.6770833,47.5520833 50.6770833,47.0833333 C50.6770833,46.6666667 50.5208333,46.25 50.2083333,45.9375 L43.59375,39.375 L43.8541667,39.0104167 C44.7395833,37.8125 45.3645833,36.5104167 45.78125,35.1041667 L45.78125,35.0520833 L46.3541667,35.0520833 C46.8229167,35.0520833 47.2395833,34.6354167 47.2395833,34.1666667 C47.2395833,33.6979167 46.8229167,33.28125 46.3541667,33.28125 L46.1979167,33.28125 L46.1979167,33.1770833 C46.71875,29.1666667 45.4166667,25.2083333 42.5,22.34375 C40.1041667,19.8958333 36.875,18.5416667 33.4375,18.5416667 Z M43.75,35.15625 C43.1770833,36.6666667 42.34375,38.0729167 41.1979167,39.21875 C39.1145833,41.3020833 36.3541667,42.4479167 33.4375,42.4479167 C30.5208333,42.4479167 27.7604167,41.3020833 25.6770833,39.21875 C23.8541667,37.3958333 22.7604167,35.1041667 22.5,32.5520833 L22.5,32.4479167 L27.0833333,32.5520833 C27.4479167,32.5520833 27.8125,32.34375 27.9166667,32.03125 L29.9479167,27.1875 L32.03125,38.9583333 C32.0833333,39.3229167 32.3958333,39.6354167 32.8125,39.6875 C33.1770833,39.7395833 33.59375,39.53125 33.75,39.1666667 L36.875,32.2395833 L38.1770833,34.6354167 C38.3333333,34.9479167 38.6458333,35.1041667 38.9583333,35.1041667 L43.8020833,35.1041667 L43.75,35.15625 Z M44.2708333,33.1770833 L44.2708333,33.2291667 L39.4791667,33.2291667 L37.6041667,29.7395833 C37.4479167,29.4791667 37.1354167,29.2708333 36.8229167,29.2708333 C36.8229167,29.2708333 36.8229167,29.2708333 36.8229167,29.2708333 C36.4583333,29.2708333 36.1979167,29.4791667 36.0416667,29.7916667 L33.3333333,35.7291667 L31.25,23.8020833 C31.1979167,23.4375 30.8854167,23.125 30.46875,23.0729167 C30.0520833,23.0208333 29.6875,23.2291667 29.53125,23.59375 L26.5104167,30.7291667 L22.4479167,30.625 L22.4479167,30.5208333 C22.65625,27.9166667 23.8020833,25.46875 25.625,23.6458333 C27.7083333,21.5625 30.46875,20.4166667 33.3854167,20.4166667 C36.3020833,20.4166667 39.0625,21.5625 41.1458333,23.6458333 C43.6979167,26.1458333 44.84375,29.6875 44.2708333,33.1770833 Z" id="Shape"></path>
                <polygon id="Shape" points="0.364583333 50 0.364583333 0 37.03125 0 37.03125 16.9791667 35.2083333 16.9791667 35.2083333 1.82291667 2.1875 1.82291667 2.1875 48.1770833 33.125 48.125 33.0729167 49.9479167"></polygon>
                <rect id="Rectangle-path" x="5.625" y="6.875" width="26.1979167" height="1.82291667"></rect>
                <rect id="Rectangle-path" x="5.625" y="11.875" width="26.1979167" height="1.82291667"></rect>
                <rect id="Rectangle-path" x="5.625" y="16.9791667" width="13.0729167" height="1.82291667"></rect>
                <rect id="Rectangle-path" x="5.625" y="22.03125" width="9.47916667" height="1.82291667"></rect>
            </g>
        </g>
    </g>
</svg>