<?xml version="1.0" encoding="UTF-8" standalone="no"?>
<svg width="31px" height="30px" viewBox="0 0 31 30" version="1.1" xmlns="http://www.w3.org/2000/svg" xmlns:xlink="http://www.w3.org/1999/xlink">
    <!-- Generator: Sketch 50.2 (55047) - http://www.bohemiancoding.com/sketch -->
    <title>responsive</title>
    <desc>Created with Sketch.</desc>
    <defs></defs>
    <g id="Page-1" stroke="none" stroke-width="1" fill="none" fill-rule="evenodd">
        <g id="MOCKUP" transform="translate(-492.000000, -2580.000000)" fill="#FFFFFF" fill-rule="nonzero">
            <g id="WHY-/-WHAT" transform="translate(164.000000, 2145.000000)">
                <g id="responsive" transform="translate(341.000000, 453.000000) rotate(-45.000000) translate(-341.000000, -453.000000) translate(326.000000, 438.000000)">
                    <path d="M20.6507812,5.07984375 C20.8017187,5.07984375 20.949375,5.0071875 21.0407812,4.8721875 C21.4401562,4.276875 22.10625,3.92109375 22.8225,3.92109375 C23.0807813,3.92109375 23.29125,3.7115625 23.29125,3.45234375 C23.29125,3.193125 23.0807813,2.98359375 22.8225,2.98359375 C21.7935937,2.98359375 20.8364062,3.49453125 20.2617187,4.34953125 C20.1173437,4.5646875 20.175,4.85578125 20.3896875,5.00015625 C20.4698437,5.0540625 20.5607812,5.07984375 20.6507812,5.07984375 Z" id="Shape"></path>
                    <path d="M4.006875,13.1939062 C3.751875,13.1460938 3.5071875,13.3120313 3.4584375,13.5660937 C3.42515625,13.7390625 3.425625,13.8145312 3.429375,13.9223437 L3.43171875,14.0334375 C3.43171875,14.2926563 3.64125,14.5021875 3.90046875,14.5021875 C4.15921875,14.5021875 4.36921875,14.2926563 4.3696875,14.0334375 C4.3696875,13.9715625 4.36828125,13.9270313 4.366875,13.8904688 C4.36453125,13.8248437 4.36453125,13.8210937 4.3790625,13.7428125 C4.4278125,13.4882812 4.26140625,13.2426562 4.006875,13.1939062 Z" id="Shape"></path>
                    <path d="M6.8840625,10.5801562 C5.7309375,10.5801562 4.6584375,11.1529688 4.0153125,12.1120313 C3.8709375,12.3267187 3.92859375,12.6182813 4.14328125,12.7626563 C4.22390625,12.8160938 4.31484375,12.841875 4.404375,12.841875 C4.55578125,12.841875 4.70390625,12.7692188 4.79390625,12.63375 C5.26265625,11.9353125 6.0440625,11.5176563 6.8840625,11.5176563 C7.1428125,11.5176563 7.3528125,11.308125 7.3528125,11.0489063 C7.3528125,10.7896875 7.1428125,10.5801562 6.8840625,10.5801562 Z" id="Shape"></path>
                    <path d="M22.35375,15.1270312 C19.6157812,15.1270312 17.2279687,16.635 15.9651562,18.8615625 L12.6346875,17.2284375 C13.1629688,16.2810938 13.4671875,15.1926563 13.4671875,14.0334375 C13.4671875,13.2984375 13.340625,12.5934375 13.1175,11.9329687 L18.2348437,9.73171875 C19.3129687,11.0779687 20.9671875,11.9432812 22.8220312,11.9432812 C26.0639063,11.9432812 28.700625,9.3065625 28.7015625,6.0646875 C28.7015625,2.8228125 26.0639062,0.185625 22.8220312,0.185625 C19.5801562,0.185625 16.9434375,2.8228125 16.9434375,6.0646875 C16.9434375,6.77671875 17.0770312,7.456875 17.31,8.08875 L12.2676562,10.2571875 C11.075625,8.563125 9.10875,7.45078125 6.8840625,7.45078125 C3.255,7.45078125 0.30234375,10.4034375 0.30234375,14.0329687 C0.30234375,17.6620312 3.255,20.6146875 6.8840625,20.6146875 C8.66625,20.6146875 10.2829688,19.9003125 11.469375,18.7457812 L15.25875,20.6039062 C15.10125,21.2010937 15.0089062,21.8245312 15.0089062,22.4704687 C15.0089062,26.5204687 18.3028125,29.8139062 22.3528125,29.8139062 C26.401875,29.8139062 29.6971875,26.5204687 29.6971875,22.4704687 C29.6976563,18.4214062 26.4028125,15.1270312 22.35375,15.1270312 Z M22.8225,2.060625 C25.0298438,2.060625 26.8270312,3.856875 26.8270312,6.0646875 C26.8270312,8.2725 25.0298437,10.0682813 22.8225,10.0682813 C20.6142188,10.0682813 18.8189063,8.2725 18.8189063,6.0646875 C18.8189063,3.856875 20.6142187,2.060625 22.8225,2.060625 Z M6.88453125,18.7401563 C4.2890625,18.7401563 2.1778125,16.6289063 2.1778125,14.0334375 C2.1778125,11.4379688 4.2890625,9.32625 6.88453125,9.32625 C9.48,9.32625 11.5917188,11.4379687 11.5921875,14.0334375 C11.5921875,16.6289063 9.48,18.7401563 6.88453125,18.7401563 Z M22.35375,27.939375 C19.3378125,27.939375 16.8853125,25.4873437 16.8853125,22.4709375 C16.8853125,19.455 19.3378125,17.0025 22.35375,17.0025 C25.3692187,17.0025 27.823125,19.455 27.823125,22.4709375 C27.8226562,25.486875 25.3692187,27.939375 22.35375,27.939375 Z" id="Shape"></path>
                    <path d="M21.885,18.1467187 C20.5959375,18.1467187 19.39875,18.7865625 18.6815625,19.8567187 C18.5371875,20.071875 18.5948437,20.3629687 18.81,20.5078125 C18.8901562,20.5607812 18.9810937,20.5865625 19.070625,20.5865625 C19.2215625,20.5865625 19.3701562,20.514375 19.460625,20.3789062 C20.0029687,19.5684375 20.91,19.0842187 21.885,19.0842187 C22.1432812,19.0842187 22.35375,18.8746875 22.35375,18.6154687 C22.35375,18.35625 22.1428125,18.1467187 21.885,18.1467187 Z" id="Shape"></path>
                </g>
            </g>
        </g>
    </g>
</svg>