<?xml version="1.0" encoding="UTF-8" standalone="no"?>
<svg width="90px" height="124px" viewBox="0 0 90 124" version="1.1" xmlns="http://www.w3.org/2000/svg" xmlns:xlink="http://www.w3.org/1999/xlink">
    <!-- Generator: Sketch 50.2 (55047) - http://www.bohemiancoding.com/sketch -->
    <title>revise</title>
    <desc>Created with Sketch.</desc>
    <defs></defs>
    <g id="Page-1" stroke="none" stroke-width="1" fill="none" fill-rule="evenodd">
        <g id="revise" transform="translate(-5.000000, 2.000000)">
            <polygon id="Polygon-Copy-4" stroke="#FFFFFF" stroke-width="2" points="50.2325581 0 93.7352296 30 93.7352296 90 50.2325581 120 6.72988669 90 6.72988669 30"></polygon>
            <g transform="translate(23.000000, 35.000000)" fill="#FFFFFF" fill-rule="nonzero" id="Shape">
                <path d="M8.49395285,17.839198 C11.2307317,17.839198 13.4574069,15.2454007 13.4574069,12.0573967 C13.4574069,8.86939266 11.2307317,6.2755954 8.49395285,6.2755954 C5.757174,6.2755954 3.53049882,8.86939266 3.53049882,12.0573967 C3.53049882,15.2454007 5.757174,17.839198 8.49395285,17.839198 Z M8.49395285,8.29172444 C10.2764423,8.29172444 11.7266376,9.98102008 11.7266376,12.0573967 C11.7266376,14.1337733 10.2764423,15.823069 8.49395285,15.823069 C6.71146338,15.823069 5.26126805,14.1337733 5.26126805,12.0573967 C5.26126805,9.98102008 6.71146332,8.29172444 8.49395285,8.29172444 Z"></path>
                <path d="M14.2619441,17.2666488 L19.5076622,17.2666488 C19.985652,17.2666488 20.3730468,16.8153824 20.3730468,16.2585843 C20.3730468,15.7017861 19.985652,15.2505198 19.5076622,15.2505198 L14.2619441,15.2505198 C13.7839543,15.2505198 13.3965595,15.7017861 13.3965595,16.2585843 C13.3965595,16.8153824 13.7839544,17.2666488 14.2619441,17.2666488 Z"></path>
                <path d="M20.3730469,21.7324534 C20.3730469,21.1756552 19.9856521,20.7243889 19.5076623,20.7243889 L6.93997899,20.7243889 C6.4619892,20.7243889 6.07459438,21.1756552 6.07459438,21.7324534 C6.07459438,22.2892515 6.4619892,22.7405179 6.93997899,22.7405179 L19.5076623,22.7405179 C19.9856521,22.7405179 20.3730469,22.2892515 20.3730469,21.7324534 Z"></path>
                <path d="M11.1394606,24.8617849 C10.6614708,24.8617849 10.274076,25.3130513 10.274076,25.8698494 C10.274076,26.4266476 10.6614708,26.877914 11.1394606,26.877914 L14.0449218,26.877914 C14.5229116,26.877914 14.9103064,26.4266476 14.9103064,25.8698494 C14.9103064,25.3130513 14.5229116,24.8617849 14.0449218,24.8617849 L11.1394606,24.8617849 Z"></path>
                <path d="M8.23399941,24.8617849 L5.3285382,24.8617849 C4.85054841,24.8617849 4.46315358,25.3130513 4.46315358,25.8698494 C4.46315358,26.4266476 4.85054841,26.877914 5.3285382,26.877914 L8.23399941,26.877914 C8.7119892,26.877914 9.09938402,26.4266476 9.09938402,25.8698494 C9.09938402,25.3130513 8.7119892,24.8617849 8.23399941,24.8617849 Z"></path>
                <path d="M16.9503831,26.877914 L19.8558443,26.877914 C20.3338341,26.877914 20.7212289,26.4266476 20.7212289,25.8698494 C20.7212289,25.3130513 20.3338341,24.8617849 19.8558443,24.8617849 L16.9503831,24.8617849 C16.4723933,24.8617849 16.0849985,25.3130513 16.0849985,25.8698494 C16.0849985,26.4266476 16.4723933,26.877914 16.9503831,26.877914 Z"></path>
                <path d="M14.7832031,28.8719915 C14.4451622,28.4782163 13.897536,28.4782163 13.5594952,28.8719915 L12.5920223,29.9989761 L11.6245493,28.8719915 C11.2865084,28.4782163 10.7388822,28.4782163 10.4008414,28.8719915 C10.0628006,29.2657668 10.0628005,29.9036826 10.4008414,30.2974577 L11.3683143,31.4244423 L10.4008414,32.5514269 C10.0628005,32.9452022 10.0628005,33.583118 10.4008414,33.9768931 C10.5698618,34.1737807 10.7912786,34.2722245 11.0126954,34.2722245 C11.2341122,34.2722245 11.4555289,34.1737807 11.6245494,33.9768931 L12.5920223,32.8499085 L13.5594953,33.9768931 C13.7285157,34.1737807 13.9499324,34.2722245 14.1713493,34.2722245 C14.3927661,34.2722245 14.6141828,34.1737807 14.7832032,33.9768931 C15.1212441,33.5831179 15.1212441,32.9452021 14.7832032,32.5514269 L13.8157303,31.4244423 L14.7832032,30.2974577 C15.121244,29.9036826 15.121244,29.2657668 14.7832031,28.8719915 Z"></path>
                <path d="M53.8178382,9.31952694 C53.8155142,9.19602919 53.7947247,9.07622306 53.75454,8.96188065 C53.7542865,8.96109306 53.7540752,8.96035476 53.7538217,8.95956718 C53.7111018,8.83877661 53.6555786,8.72364661 53.5730543,8.62761468 L47.4810086,1.53764298 L46.5603966,0.464260968 C46.5570584,0.460372419 46.5522836,0.459092661 46.5489032,0.455302581 C46.477154,0.373692661 46.394334,0.313592742 46.3064856,0.266388952 C46.2799494,0.25216379 46.2530752,0.243796129 46.2254403,0.232819597 C46.1511981,0.202991129 46.0757728,0.185517339 45.9973896,0.179955242 C45.9804875,0.178773952 45.9652334,0.168535726 45.9482046,0.168535726 L29.8506986,0.168535726 C29.3727088,0.168535726 28.985314,0.619802097 28.985314,1.17660024 L28.985314,37.3287077 C28.985314,37.8855059 29.3727088,38.3367723 29.8506986,38.3367723 L35.0521757,38.3367723 C34.6143705,43.6482583 30.763916,47.8165165 26.0913462,47.8165165 C21.4183115,47.8165165 17.5676034,43.6474708 17.1304321,38.3351973 L24.145921,38.3351973 C24.6239108,38.3351973 25.0113056,37.8839309 25.0113056,37.3271327 L25.0113056,9.44760234 C25.0133761,9.42491105 25.010545,9.4028104 25.0113056,9.38016831 L25.0113056,9.34822331 C25.0113056,9.34463008 25.0094886,9.34138145 25.0094464,9.33778823 C25.0086435,9.07661685 24.9288659,8.81958008 24.7638597,8.62761468 L17.7478216,0.462292097 C17.6737061,0.375956855 17.5865338,0.314232581 17.4947557,0.265306048 C17.4680505,0.251031694 17.4410072,0.242663952 17.4132033,0.231589032 C17.3409471,0.202892661 17.2676345,0.185861855 17.1914063,0.180152177 C17.172476,0.178675484 17.1554049,0.167354516 17.1363057,0.167354516 L1.03846154,0.167354516 C0.560471746,0.167354516 0.173076923,0.618620887 0.173076923,1.17541903 L0.173076923,37.3271327 C0.173076923,37.8839309 0.560471746,38.3351973 1.03846154,38.3351973 L15.3996629,38.3351973 C15.842919,44.7597381 20.4640221,49.8326456 26.0913462,49.8326456 C31.7182053,49.8326456 36.3390128,44.7605748 36.7829449,38.3367723 L52.95782,38.3367723 C53.4358098,38.3367723 53.8232046,37.885506 53.8232046,37.3287078 L53.8232046,9.34979839 C53.8232046,9.33941258 53.818134,9.32991274 53.8178382,9.31952694 Z M18.0016902,3.61062331 L22.0518423,8.3326771 L18.0016902,8.3326771 L18.0016902,3.61062331 Z M1.90384615,26.877914 L2.42307692,26.877914 C2.90106672,26.877914 3.28846154,26.4266476 3.28846154,25.8698494 C3.28846154,25.3130513 2.90106672,24.8617849 2.42307692,24.8617849 L1.90384615,24.8617849 L1.90384615,2.18348347 L16.270921,2.18348347 L16.270921,9.34074153 C16.270921,9.89753968 16.6583158,10.348806 17.1363056,10.348806 L23.2805364,10.348806 L23.2805364,24.8617849 L22.7613056,24.8617849 C22.2833158,24.8617849 21.895921,25.3130513 21.895921,25.8698494 C21.895921,26.4266476 22.2833158,26.877914 22.7613056,26.877914 L23.2805364,26.877914 L23.2805364,36.3190682 L1.90384615,36.3190682 L1.90384615,26.877914 Z M46.8108849,3.60865435 L50.8627272,8.33267702 L46.8108849,8.33267702 L46.8108849,3.60865435 Z M35.9681819,36.3206433 C35.9658156,36.3206433 35.9638296,36.3190682 35.9614633,36.3190682 C35.959097,36.3190682 35.9571111,36.3206433 35.9547447,36.3206433 L30.7160832,36.3206433 L30.7160832,2.18466484 L45.0801156,2.18466484 L45.0801156,9.34074161 C45.0801156,9.89753976 45.4675105,10.3488061 45.9455003,10.3488061 L52.0924354,10.3488061 L52.0924354,36.3206433 L35.9681819,36.3206433 Z"></path>
                <path d="M42.2666016,12.0573967 C42.2666016,8.86939266 40.0399264,6.2755954 37.3031475,6.2755954 C34.5660306,6.2755954 32.3393554,8.86939266 32.3393554,12.0573967 C32.3393554,15.2454007 34.5660306,17.839198 37.3031475,17.839198 C40.0399264,17.839198 42.2666016,15.2454007 42.2666016,12.0573967 Z M34.0701247,12.0573967 C34.0701247,9.98102008 35.52032,8.29172444 37.3031475,8.29172444 C39.085637,8.29172444 40.5358323,9.98102008 40.5358323,12.0573967 C40.5358323,14.1337733 39.085637,15.823069 37.3031475,15.823069 C35.52032,15.823069 34.0701247,14.1337733 34.0701247,12.0573967 Z"></path>
                <path d="M48.316857,15.2505198 L43.0711388,15.2505198 C42.593149,15.2505198 42.2057542,15.7017861 42.2057542,16.2585843 C42.2057542,16.8153824 42.593149,17.2666488 43.0711388,17.2666488 L48.316857,17.2666488 C48.7948467,17.2666488 49.1822416,16.8153824 49.1822416,16.2585843 C49.1822416,15.7017861 48.7948467,15.2505198 48.316857,15.2505198 Z"></path>
                <path d="M48.316857,20.7243889 L35.7491737,20.7243889 C35.2711839,20.7243889 34.8837891,21.1756552 34.8837891,21.7324534 C34.8837891,22.2892515 35.2711839,22.7405179 35.7491737,22.7405179 L48.316857,22.7405179 C48.7948467,22.7405179 49.1822416,22.2892515 49.1822416,21.7324534 C49.1822416,21.1756552 48.7948467,20.7243889 48.316857,20.7243889 Z"></path>
                <path d="M48.316857,24.8617849 L35.7491737,24.8617849 C35.2711839,24.8617849 34.8837891,25.3130513 34.8837891,25.8698494 C34.8837891,26.4266476 35.2711839,26.877914 35.7491737,26.877914 L48.316857,26.877914 C48.7948467,26.877914 49.1822416,26.4266476 49.1822416,25.8698494 C49.1822416,25.3130513 48.7948467,24.8617849 48.316857,24.8617849 Z"></path>
                <path d="M48.316857,28.999181 L35.7491737,28.999181 C35.2711839,28.999181 34.8837891,29.4504473 34.8837891,30.0072455 C34.8837891,30.5640436 35.2711839,31.01531 35.7491737,31.01531 L48.316857,31.01531 C48.7948467,31.01531 49.1822416,30.5640436 49.1822416,30.0072455 C49.1822416,29.4504473 48.7948467,28.999181 48.316857,28.999181 Z"></path>
            </g>
        </g>
    </g>
</svg>