<?xml version="1.0" encoding="UTF-8" standalone="no"?>
<svg width="51px" height="43px" viewBox="0 0 51 43" version="1.1" xmlns="http://www.w3.org/2000/svg" xmlns:xlink="http://www.w3.org/1999/xlink">
    <!-- Generator: Sketch 50.2 (55047) - http://www.bohemiancoding.com/sketch -->
    <title>twitter</title>
    <desc>Created with Sketch.</desc>
    <defs></defs>
    <g id="Page-1" stroke="none" stroke-width="1" fill="none" fill-rule="evenodd">
        <g id="MOCKUP" transform="translate(-880.000000, -4752.000000)" fill="#00A69E" fill-rule="nonzero">
            <g id="ABOUT" transform="translate(196.000000, 4144.000000)">
                <g id="social" transform="translate(610.000000, 605.000000)">
                    <path d="M92.714337,45.101641 C83.2843248,45.101641 75.5815481,40.5733957 75.4556963,40.4975619 C74.7183337,40.0530469 74.39483,39.1527223 74.6779966,38.339526 C74.9635834,37.5287498 75.7703258,37.0156616 76.6351537,37.1439337 C81.74264,37.8272445 85.2995674,36.2177934 87.205093,34.9455606 C82.4824228,31.3668512 71.91087,21.2680494 78.3962724,6.29490999 C78.6633041,5.67775203 79.2522261,5.25743923 79.9210156,5.20500097 C80.5760904,5.15982339 81.2376192,5.47687317 81.5966196,6.0440131 C81.7902378,6.34654151 86.3378449,13.188524 97.7040389,14.6212986 C97.7298547,8.42390326 102.778449,3.38983051 108.978264,3.38983051 C111.743777,3.38983051 114.350362,4.38212369 116.414009,6.20455484 C119.396536,5.88750506 121.74577,5.81893196 121.85468,5.81489825 C122.100737,5.81731847 122.334692,5.85039491 122.546865,5.93106916 C122.946203,5.78424203 123.395558,5.77294764 123.827972,5.93348938 C124.763793,6.28764931 125.236544,7.33480098 124.882385,8.27062219 C124.534679,9.19272879 122.863915,13.401504 120.590515,15.5546996 C121.157655,20.7896512 119.857993,28.4851672 111.464645,37.1286056 C105.531861,43.2364525 98.7673254,45.101641 92.714337,45.101641 Z M84.1515729,40.2660269 C90.6579506,42.2086626 100.639775,43.0621961 108.859673,34.6010815 C116.791565,26.4320077 117.58782,19.4714341 116.860138,15.0730743 C116.739933,14.3405522 117.077958,13.6080301 117.713671,13.2224072 C118.531708,12.7311011 119.536102,11.1523061 120.360593,9.52107296 C119.25939,9.58722584 117.689469,9.70581697 115.988049,9.90669584 C115.43059,9.96316781 114.865064,9.77439008 114.470567,9.36537167 C113.007943,7.85272962 111.055626,7.02097817 108.977458,7.02097817 C104.763035,7.02097817 101.333573,10.4528605 101.333573,14.6688964 C101.333573,15.2199015 101.387625,15.7467043 101.498955,16.23317 C101.62158,16.790629 101.47798,17.3722903 101.109299,17.8071244 C100.738197,18.2419586 100.175898,18.4783341 99.617632,18.4428375 C89.5962775,17.8377806 83.6191229,13.479758 80.7075895,10.579519 C76.7134077,24.6967048 90.4853077,32.8746527 91.1113398,33.2384936 C91.5816706,33.5103658 91.9075946,33.9831168 91.9955295,34.5196006 C92.0802375,35.0585045 91.9221159,35.6070894 91.5606953,36.015301 C91.4122547,36.1863304 88.8927981,38.9566839 84.1515729,40.2660269 Z" id="twitter"></path>
                </g>
            </g>
        </g>
    </g>
</svg>