<?xml version="1.0" encoding="UTF-8" standalone="no"?>
<svg width="138px" height="164px" viewBox="0 0 138 164" version="1.1" xmlns="http://www.w3.org/2000/svg" xmlns:xlink="http://www.w3.org/1999/xlink">
    <!-- Generator: Sketch 50.2 (55047) - http://www.bohemiancoding.com/sketch -->
    <title>wire-pol</title>
    <desc>Created with Sketch.</desc>
    <defs></defs>
    <g id="Page-1" stroke="none" stroke-width="1" fill="none" fill-rule="evenodd">
        <g id="MOCKUP" transform="translate(-816.000000, -146.000000)">
            <g id="HERO">
                <g id="Hero-IMG" transform="translate(325.000000, 126.000000)">
                    <g id="wire-pol" transform="translate(487.000000, 6.000000)">
                        <polygon id="Path-17" fill="#FFFFFF" transform="translate(80.500000, 87.000000) scale(-1, 1) rotate(-22.000000) translate(-80.500000, -87.000000) " points="134 117.315789 110.59375 23 73.8125 29.7368421 35.9166667 40.9649123 31.4583333 46.5789474 27 62.2982456 30.34375 82.5087719 43.71875 151"></polygon>
                        <g id="wireframe" transform="translate(77.500000, 90.000000) scale(-1, 1) rotate(-22.000000) translate(-77.500000, -90.000000) translate(25.000000, 15.000000)" fill="#212121">
                            <path d="M30.1461545,38.3219125 C30.13906,38.3160613 30.13906,38.3102101 30.13906,38.3037088 C30.1366952,38.4506385 30.1408337,38.5962684 30.13906,38.7425479 C30.1408337,39.0409583 30.1467457,39.5721137 30.1431985,40.2339503 C30.1396513,40.897735 30.1337391,41.6954458 30.124871,42.5211143 C30.0758007,41.9340451 30.023183,41.4373428 29.9682008,41.092777 C29.9658359,41.2280044 29.9693832,41.3625816 29.9735216,41.4965092 C29.982981,41.8410792 29.9965788,42.5269692 30.0137238,43.3669417 C29.9504645,42.4899138 29.8777456,41.7416143 29.7997061,41.2748156 C29.8038445,41.410043 29.8008885,41.5459207 29.805027,41.6804979 C29.8215808,42.0354703 29.8351786,42.7512646 29.8470028,43.623096 C29.8127127,43.0873869 29.7790137,42.5867866 29.7346731,42.1492487 C29.7139808,41.4237008 29.674961,40.7339093 29.6388975,40.1377429 C29.6282557,39.9589569 29.6158404,39.7886219 29.6028338,39.627389 C30.1479282,38.5026578 29.926816,36.8701819 29.2445614,35.6453301 L30.0657477,35.5302567 C30.0923521,36.4618952 30.1189565,37.3915816 30.1461518,38.321921 L30.1461545,38.3219125 Z M29.5041045,39.8107168 C29.5041045,39.979101 29.5046957,40.1656892 29.5041045,40.36658 C29.5035133,40.9120407 29.4993748,41.5693263 29.4934627,42.2682185 C29.4585814,41.9470531 29.4248823,41.671397 29.3870448,41.4523036 C29.3840888,41.5914318 29.3882272,41.7286099 29.3917745,41.8638373 C29.4083284,42.2155586 29.4213349,42.9151037 29.4319767,43.7713253 C29.3687174,42.8786943 29.2959984,42.115438 29.2120471,41.6401916 C29.2155944,41.7780193 29.2132295,41.9164979 29.2167768,42.0536754 C29.2333306,42.4157991 29.2469284,43.1458945 29.2587526,44.0365802 C29.1996317,43.0542284 29.123957,42.1876071 29.0376404,41.6128863 C29.0104448,41.0199655 28.9785196,40.473858 28.9412735,40.0096575 C29.1062209,40.0181092 29.2516582,40.0226601 29.3622139,40.0226601 C29.4136491,39.9550464 29.4603548,39.8841822 29.504104,39.8107173 L29.5041045,39.8107168 Z M28.8389959,40.0044563 C28.841952,40.5252119 28.8378135,41.2774163 28.8330838,42.1297405 C28.8171212,42.0198684 28.8011585,41.9184473 28.7857872,41.8274293 C28.7834223,41.967858 28.7869696,42.1082867 28.791108,42.2487147 C28.7976114,42.4964152 28.8094355,42.9151003 28.8171212,43.4384562 C28.8153476,43.6139917 28.8135739,43.7869269 28.8118003,43.9598621 C28.751497,43.1497967 28.6811432,42.4645555 28.6042863,42.0211681 C28.6019215,42.1609466 28.6054688,42.3033253 28.6096072,42.4444042 C28.6261611,42.8143294 28.6397589,43.5587288 28.6515831,44.4676157 C28.582412,43.3428845 28.4913656,42.365736 28.3926335,41.7949194 C28.3896774,41.9359983 28.3938159,42.0777267 28.3973631,42.2181554 C28.4174642,42.7174566 28.4363829,43.8935431 28.4529367,45.2328194 C28.4464334,45.2302189 28.4399301,45.2276183 28.4399301,45.2230674 C28.4393389,45.2055139 28.4387477,45.1873101 28.4381565,45.1684563 C28.4269235,44.0346245 28.3926335,42.8799932 28.3435629,41.8781342 C28.3063168,41.1343851 28.258429,40.4718954 28.2034468,39.9608927 C28.4245589,39.9790964 28.6433059,39.9940494 28.8389962,40.0044515 L28.8389959,40.0044563 Z M28.1372338,39.9550462 C28.1449195,40.2547571 28.1425547,40.7677099 28.137825,41.4067881 C28.1325041,42.0523694 28.1307305,42.829929 28.1200887,43.64649 C28.0745656,43.1478384 28.0249038,42.7239521 27.9716955,42.4177409 C27.9693307,42.5620703 27.9728779,42.7057495 27.9770164,42.8481282 C27.9847021,43.1575913 28.0000735,43.7225579 28.0118977,44.4266464 C27.9988911,44.4188448 27.9923878,44.4123435 27.9858845,44.4064923 C27.9161221,43.4754999 27.8369,42.6842956 27.7470363,42.190195 C27.7505835,42.3351746 27.7482187,42.4801536 27.7517659,42.6231833 C27.7671374,42.9521502 27.7831,43.5704248 27.7907857,44.3369324 C27.7647726,44.3343318 27.7322561,44.3323814 27.7003307,44.3317313 C27.6991483,44.2979244 27.698557,44.2634674 27.6973746,44.2277099 C27.6737263,43.3292296 27.6347066,42.4651996 27.5927307,41.7181993 C27.5507548,40.9698999 27.4857221,40.3366711 27.4236448,39.9075808 C27.42128,40.0675132 27.4189152,40.2280959 27.4165503,40.3873782 C27.4254184,40.7241466 27.4218712,41.3359188 27.4165503,42.0978761 C27.4082734,42.0367637 27.3999965,41.9776014 27.3858075,41.9236404 C27.3899459,42.0699198 27.3934931,42.2155497 27.3911283,42.3618292 C27.4011789,42.4996569 27.4059085,42.6894956 27.4053173,42.9176924 C27.4076822,43.2408078 27.4035437,43.5834277 27.3994053,43.9312503 C27.3302341,42.9924564 27.2450996,42.1901993 27.1546452,41.6869912 C27.1587836,41.8345711 27.1558276,41.9821511 27.159966,42.1284312 C27.1771111,42.5386645 27.1924825,43.3909846 27.2060803,44.4181934 C27.1871617,44.4240446 27.1676518,44.4292457 27.1487331,44.4331465 C27.0978892,43.7290511 27.0369947,43.1010256 26.979056,42.6127744 C26.9749175,42.9488925 26.970779,43.294763 26.9672318,43.6458326 C26.9057461,42.997651 26.8460338,42.4489425 26.7721328,42.0699126 C26.7762713,42.2194432 26.7798185,42.3689732 26.783957,42.5165531 C26.7999196,42.8981806 26.8129262,43.6594856 26.8235679,44.589825 C26.7538055,43.6191789 26.668671,42.7915583 26.5717128,42.2773043 C26.5693479,42.4274846 26.5728952,42.5783157 26.5764424,42.7265459 C26.5929963,43.1198757 26.6065941,43.9136892 26.6184183,44.8830362 C26.5841282,44.2888157 26.5380142,43.7336014 26.4871699,43.2518526 C26.4599743,42.4463374 26.421546,41.6830811 26.3789787,41.0218974 C26.345871,40.499191 26.3021218,40.0408447 26.2548247,39.6767717 C26.4493324,39.7183801 26.6426575,39.7586883 26.8342093,39.7976965 C27.1168068,39.8549082 27.6299744,39.9127699 28.1372363,39.9550287 L28.1372338,39.9550462 Z M26.2098923,39.9043357 C26.2169868,40.1923443 26.2098923,40.6760396 26.2057539,41.2819666 C26.2016154,41.8865896 26.200433,42.6140875 26.1880176,43.393593 C26.1472241,43.037971 26.1070222,42.730458 26.0626816,42.4899094 C26.0662288,42.6426905 26.063864,42.7954717 26.0674113,42.9495527 C26.0833739,43.3383315 26.0963805,44.1158897 26.1076134,45.0670354 C26.037851,44.076236 25.9521258,43.2297612 25.8551676,42.7044545 C25.8528027,42.8578859 25.8569412,43.0113167 25.8604885,43.1640978 C25.8770423,43.5658794 25.8906401,44.3778969 25.895961,45.3693494 C25.8303371,44.2784293 25.7357435,43.3168838 25.6364201,42.6817029 C25.5814376,41.4965117 25.4986685,40.4803556 25.3934333,39.8601316 C25.3910684,40.0298163 25.3887036,40.2008008 25.3863388,40.3704855 C25.3987542,40.8749879 25.38693,41.9659128 25.3739234,43.2655217 C25.3514574,43.1439472 25.336086,43.0314741 25.3207145,42.9320038 C25.3177585,43.0880355 25.321897,43.2440672 25.3189409,43.3987984 C25.3325387,43.6744545 25.3437717,44.1406023 25.3514574,44.7237708 C25.3496838,44.9194603 25.3479101,45.1125496 25.3461365,45.3049893 C25.2728269,44.4058559 25.1900576,43.6438987 25.1007851,43.1537022 C25.0984203,43.3110344 25.1019675,43.4683659 25.1055148,43.6237481 C25.1220686,44.0346316 25.1356664,44.864849 25.1409873,45.8771078 C25.0659037,44.6275523 24.9559393,43.5431347 24.831194,42.9079538 C24.8347412,43.0678862 24.8323764,43.2258687 24.8359236,43.3838504 C24.8625281,43.9384131 24.8808555,45.2510316 24.8909061,46.7450323 C24.870805,46.7144761 24.8702138,46.694322 24.8696226,46.6728676 C24.8589808,45.4090082 24.8246907,44.1217511 24.7691171,43.0028694 C24.7135435,41.8846406 24.6295917,40.9321957 24.5320422,40.3353763 C24.5296773,40.5109118 24.5273125,40.6857977 24.5249477,40.8600327 C24.5326333,41.1909497 24.5243564,41.7676206 24.5190356,42.4873122 C24.5131235,43.2070107 24.5048466,44.076237 24.4882927,44.9883683 C24.4362663,44.4338056 24.3735984,43.9624586 24.3073826,43.6211371 C24.311521,43.7823701 24.3150683,43.9429528 24.3127034,44.102235 C24.3268925,44.4474552 24.3422639,45.0800365 24.3475848,45.8640923 C24.2388021,44.8076248 24.1471651,43.9241014 24.0377913,43.3760362 C24.0354264,43.5379194 24.0389737,43.6998019 24.0431122,43.8597344 C24.0578924,44.2264091 24.067943,44.9188022 24.0815407,45.777622 C24.0425209,45.7743714 24.0040926,45.7743714 23.9650725,45.7769719 C23.9644813,45.737964 23.9567956,45.6996063 23.9562044,45.658648 C23.932556,44.6548437 23.887624,43.6894009 23.8326417,42.8559309 C23.7782505,42.0211618 23.7138089,41.3164202 23.6316309,40.8372697 C23.6233539,41.0173562 23.6209891,41.1961429 23.6251276,41.3742786 C23.6269012,41.7513551 23.6239451,42.4365977 23.6115297,43.287616 C23.6032528,43.2200022 23.5890638,43.153689 23.5748748,43.092576 C23.578422,43.2583599 23.5825605,43.4221931 23.5861078,43.5853761 C23.589655,43.7394571 23.6008879,43.9501001 23.6002968,44.2056022 C23.5961583,44.5696759 23.5920198,44.9519564 23.5878814,45.3433313 C23.5057034,44.292065 23.4081539,43.3987879 23.2987801,42.8370719 C23.295824,43.0022056 23.2999625,43.1673393 23.3035097,43.3324723 C23.3206548,43.7914654 23.3360262,44.7445605 23.349624,45.8965935 C23.3236109,45.9024447 23.2981889,45.908946 23.278679,45.9141471 C23.216011,45.1287853 23.1486132,44.4272949 23.0717557,43.883134 C23.0611139,44.2582605 23.0569755,44.6483425 23.0463337,45.0436216 C22.9789359,44.3161216 22.9003051,43.7043521 22.8133973,43.2824104 C22.8175357,43.4501444 22.8145797,43.6178783 22.8187182,43.783012 C22.8346808,44.2107991 22.8535995,45.0650727 22.8583292,46.1091836 C22.7755598,45.024113 22.677419,44.0976778 22.5556303,43.5236099 C22.5591775,43.6926444 22.5568127,43.8610286 22.5668632,44.0274621 C22.5828259,44.4689021 22.5964237,45.3615351 22.6076567,46.4492039 C22.5609512,45.7828183 22.5083339,45.1612939 22.4509864,44.6210303 C22.4249732,43.7173466 22.3764941,42.8624242 22.3244678,42.1225724 C22.2730327,41.3827206 22.2109555,40.7553412 22.1305514,40.3126068 C22.1281866,40.4998446 22.1258218,40.6857826 22.1234569,40.8697698 C22.1305514,41.194836 22.1205009,41.7383432 22.1128151,42.417082 C22.1057206,43.0984204 22.0944877,43.9182381 22.075569,44.7933139 C22.0276811,44.3954331 21.9750636,44.0534621 21.9183074,43.7875575 C21.9218547,43.9591923 21.9188986,44.130827 21.9230371,44.3005117 C21.945503,44.7380503 21.9579184,45.6124793 21.9685602,46.6812939 C21.879879,45.5708666 21.7693226,44.6249242 21.6469426,44.0372054 C21.6504898,44.2081899 21.648125,44.3811251 21.6516722,44.5553608 C21.6747293,45.0065524 21.6877359,45.921939 21.6930568,47.0356174 C21.614426,45.8127177 21.5074175,44.7308983 21.3826722,44.0177023 C21.3217777,42.6849283 21.2200901,41.5426489 21.1024393,40.8483071 C21.0935712,41.0407461 21.0912063,41.2305848 21.0888414,41.4210738 C21.0947535,41.99254 21.076426,43.2206396 21.0498216,44.6866854 C21.0273557,44.5508077 21.005481,44.4253325 20.9836064,44.3135096 C20.9812416,44.4896954 20.9847889,44.6658811 20.982424,44.8401168 C20.9954306,45.1534807 21.0066636,45.6787901 21.0143493,46.3360696 C21.0125757,46.5551643 21.0042988,46.7742584 21.0025252,46.9920527 C20.9162086,45.981746 20.8080175,45.1255244 20.6933232,44.5755141 C20.6974616,44.7523501 20.6945056,44.9298363 20.698644,45.106022 C20.7146067,45.5702164 20.7282045,46.5083566 20.7394375,47.6506361 C20.6448439,46.2424521 20.5100482,45.0208515 20.3598817,44.3122057 C20.363429,44.4909917 20.3675674,44.6697784 20.3711147,44.8466144 C20.3906246,45.4733415 20.4089521,46.9549896 20.4184114,48.6479393 C20.391807,48.612182 20.391807,48.5900775 20.3912158,48.5653724 C20.3870773,47.1363821 20.3498312,45.681389 20.2847979,44.4201278 C20.2197647,43.1575744 20.1204419,42.0842027 20.0033824,41.4145645 C19.9951054,41.612855 19.9927406,41.8091947 19.9903758,42.0055345 C19.9980615,42.3800107 19.9891934,43.0320903 19.9773692,43.845407 C19.9649538,44.6600228 19.9436703,45.6462719 19.920022,46.678684 C19.8490769,46.0539069 19.7739934,45.5246988 19.6888595,45.1417715 C19.6924067,45.3238087 19.6900419,45.5058453 19.6935891,45.6878825 C19.7077781,46.0766613 19.7160551,46.7918073 19.7284705,47.6805341 C19.5877625,46.4907906 19.4772067,45.4934888 19.335908,44.875863 C19.3394552,45.0592 19.3370904,45.2444877 19.3406376,45.4258747 C19.3619211,45.8419595 19.3713805,46.626669 19.378475,47.5992672 C19.3400464,47.5966666 19.2886112,47.598617 19.2371762,47.603168 C19.2359938,47.5576587 19.2288993,47.5141001 19.2212136,47.4705408 C19.1981565,46.3321587 19.1532245,45.2360353 19.0923304,44.2939971 C19.0314359,43.3500067 18.9480757,42.5535922 18.846979,42.0133355 C18.8381109,42.218127 18.835746,42.4203183 18.8333812,42.6225095 C18.835746,43.051597 18.8256955,43.8252559 18.8067768,44.795249 C18.7925878,44.7172331 18.7778076,44.6444185 18.7636186,44.5774547 C18.7612537,44.7633927 18.764801,44.9499802 18.7683482,45.1333179 C18.7783988,45.3075536 18.7831284,45.5481022 18.7890406,45.8380594 C18.7783988,46.2528437 18.7677571,46.6858334 18.7571153,47.1324719 C18.6560185,45.9440295 18.5330472,44.9311246 18.3917484,44.300494 C18.3952957,44.488382 18.3994341,44.6756205 18.3964781,44.8635085 C18.4195352,45.3816639 18.4349066,46.4680363 18.4354979,47.7773988 C18.4029814,47.7858505 18.3775594,47.793002 18.3521373,47.8008036 C18.2764624,46.9094718 18.1901459,46.1156623 18.093779,45.4999887 C18.0831372,45.9290762 18.0724955,46.3705142 18.0618537,46.8217099 C17.9814496,45.9986396 17.8844908,45.3043046 17.7786648,44.8258071 C17.7757088,45.016296 17.779256,45.2074346 17.7833945,45.3985738 C17.8058604,45.8842226 17.8182758,46.856172 17.8224143,48.0439614 C17.7207263,46.8132602 17.5971636,45.7626468 17.4434492,45.1131689 C17.4469965,45.3049576 17.4440404,45.4973966 17.4481789,45.6885359 C17.4706448,46.1917385 17.4836514,47.2078932 17.4883811,48.447695 C17.4351723,47.6902881 17.3701395,46.9849004 17.2938734,46.3731241 C17.2613569,45.3413649 17.2069655,44.3694197 17.1425242,43.5287943 C17.0780823,42.6875228 16.9970869,41.9730276 16.8971728,41.4711255 C16.8953992,41.685019 16.8930344,41.8969618 16.8906695,42.1082551 C16.8912607,42.4788305 16.883575,43.0977554 16.86643,43.8740166 C16.8492849,44.6535221 16.8350959,45.5877657 16.8025794,46.590917 C16.7487794,46.1371244 16.6837465,45.7470472 16.6133928,45.4460324 C16.611028,45.6417219 16.6145752,45.8374122 16.6181225,46.0324514 C16.6405884,46.5317526 16.6465005,47.5310093 16.6506389,48.7545551 C16.5495422,47.4887505 16.4194764,46.4101754 16.2657621,45.7444415 C16.262806,45.9420817 16.2663533,46.1397219 16.2704917,46.3360617 C16.2929577,46.8535669 16.3059643,47.8970317 16.3041906,49.1712908 C16.2072324,47.7774107 16.0682983,46.5467095 15.911628,45.7385962 C15.8318146,44.2146885 15.7112085,42.9118216 15.5486258,42.1206103 C15.5397576,42.3416551 15.537984,42.5600996 15.5350279,42.7791944 C15.54094,43.4332275 15.5090148,44.8401144 15.4634916,46.5252557 C15.4410257,46.369224 15.4061444,46.2274948 15.3783577,46.0994194 C15.3754016,46.3009604 15.3789489,46.5025014 15.3830873,46.7033921 C15.3960939,47.0603146 15.4067357,47.6616864 15.4144214,48.4164883 C15.4061445,48.6674393 15.3978675,48.9190406 15.3895906,49.1686919 C15.2849466,48.0153597 15.1572455,47.0362591 15.0106255,46.412131 C15.0082607,46.615622 15.011808,46.8204142 15.0153552,47.021305 C15.0378211,47.5531134 15.0514189,48.6284311 15.0555574,49.9403987 C14.9361332,48.3293684 14.7759158,46.9361413 14.5749049,46.1260758 C14.5719489,46.3315176 14.5754961,46.5389101 14.5796346,46.7411006 C14.6050566,47.4607991 14.6168807,49.1654407 14.6133335,51.1106371 C14.5802258,51.0735796 14.5796346,51.0475743 14.5790434,51.0202689 C14.5885028,49.3734822 14.5453445,47.7052431 14.4678963,46.2560994 C14.3904481,44.8082548 14.2651116,43.5788527 14.1102152,42.8149502 C14.1013471,43.0431463 14.0930702,43.2693923 14.0907053,43.4956384 C14.098391,43.9253754 14.0794723,44.6762793 14.0575976,45.6137672 C14.035723,46.5519081 14.0043888,47.6870391 13.9677339,48.8800318 C13.8843733,48.1629384 13.7897803,47.5576645 13.685727,47.1188206 C13.682771,47.3281631 13.6869094,47.5401059 13.6839534,47.7494485 C13.7046457,48.1954388 13.7129226,49.0204564 13.7176523,50.044414 C13.5521142,48.6791387 13.4037203,47.5368523 13.2239928,46.8308117 C13.2275401,47.0447052 13.2251752,47.2559977 13.2287225,47.4646907 C13.2435027,47.947089 13.2594654,48.8501231 13.2594654,49.9709501 C13.2015269,49.9735507 13.1370853,49.9794018 13.0667316,49.9865533 C13.0655492,49.9371433 13.0584547,49.887083 13.050769,49.8370226 C13.0217998,48.5244089 12.9644524,47.2644469 12.884639,46.1761319 C12.8048256,45.0904083 12.7019556,44.1730737 12.5695246,43.5548018 C12.5606565,43.7908001 12.5517883,44.0267977 12.5494235,44.2588973 C12.5517883,44.7529979 12.5411466,45.649533 12.5092213,46.7710061 C12.488529,46.6793373 12.4737488,46.5961209 12.4471444,46.5194048 C12.4506916,46.7345988 12.4477356,46.9517429 12.4518741,47.1636857 C12.4548301,47.3678269 12.4725664,47.6421832 12.4719751,47.9808996 C12.4542389,48.4574465 12.4435971,48.9593473 12.42054,49.4768524 C12.3005246,48.107676 12.1521314,46.940686 11.9724038,46.2177432 C11.9759511,46.4348873 11.9735863,46.6520313 11.9771335,46.8672253 C12.0001906,47.4705478 12.0084676,48.7253059 12.0084676,50.2420581 C11.970039,50.2537605 11.9316107,50.2641626 11.8931819,50.2739146 C11.8050921,49.2473588 11.6933531,48.3319694 11.5656525,47.6239766 C11.541413,48.1226282 11.5248591,48.6381806 11.5077141,49.1602361 C11.4018875,48.2116954 11.272413,47.4120297 11.1281583,46.8633185 C11.1322968,47.0843633 11.1293408,47.3054081 11.132888,47.5271031 C11.1618572,48.0914181 11.1677693,49.2187468 11.1648133,50.600928 C11.0382947,49.175835 10.8763033,47.9626889 10.6841608,47.2150425 C10.6812048,47.438038 10.67884,47.6636338 10.6888905,47.8853288 C10.7113564,48.4684973 10.7178597,49.6484852 10.7154949,51.0898274 C10.649871,50.2147516 10.5718309,49.3955855 10.4831498,48.6862868 C10.4447212,47.4919949 10.3779145,46.3607613 10.3004663,45.386864 C10.2236095,44.4110146 10.1171916,43.5847 9.99244632,43.0047827 C9.98357821,43.253783 9.97471003,43.5021338 9.97234524,43.7491848 C9.97293645,44.1789219 9.95874741,44.9018709 9.93509911,45.8049016 C9.91085956,46.7072861 9.87065721,47.8021103 9.82513402,48.9697464 C9.74591192,48.4457402 9.66196062,47.9978012 9.55968128,47.6499773 C9.56322853,47.8781734 9.56086369,48.1083202 9.56441094,48.3332664 C9.58628564,48.9157847 9.59870103,50.0801737 9.58924174,51.5098102 C9.45622002,50.037908 9.28831679,48.7896586 9.07725497,48.0218519 C9.08080222,48.2539494 9.07784618,48.4847458 9.08139343,48.7116434 C9.10385937,49.3143157 9.11686595,50.5352667 9.11450109,52.0247171 C8.98620859,50.401335 8.81534944,48.9723447 8.60783547,48.0361558 C8.52211024,46.2567434 8.37016981,44.7399843 8.16265521,43.8200515 C8.15437828,44.078804 8.14551017,44.3362561 8.13664205,44.5924085 C8.14196293,45.3543657 8.09052774,47.0037506 8.01189677,48.9807992 C7.97051217,48.8007127 7.92912745,48.6342785 7.8883341,48.4866985 C7.88596927,48.7246469 7.88951652,48.9612947 7.89306377,49.1959904 C7.90607035,49.6127254 7.91671214,50.3161713 7.92380664,51.1990486 C7.90902645,51.4961592 7.8942462,51.7939194 7.87946601,52.0871292 C7.74289707,50.7407044 7.57144599,49.6036214 7.36747924,48.8826307 C7.37102649,49.1212292 7.36807045,49.3598277 7.3716177,49.5964728 C7.4005869,50.2192991 7.40709022,51.4818553 7.39822211,53.0226719 C7.24746366,51.1418398 7.0423143,49.5113091 6.783956,48.5731682 C6.78099995,48.814367 6.77863511,49.0555666 6.78868566,49.2948119 C6.81410764,50.1380355 6.81824611,52.1391416 6.80169224,54.4308559 C6.76208126,54.3911979 6.76149007,54.3586913 6.76089883,54.3261848 C6.77745269,52.3874908 6.73133839,50.4286435 6.63851878,48.7311504 C6.54569911,47.0330044 6.39198475,45.5923152 6.18624408,44.6990313 C6.17737597,44.9675361 6.16850779,45.23539 6.15963967,45.5012952 C6.16732536,46.0090481 6.13185284,46.8945292 6.09401578,47.9971549 C6.05558722,49.1062831 6.00178742,50.4423013 5.93911881,51.8530904 C5.8238332,51.013771 5.69140217,50.3083764 5.54241765,49.8038761 C5.53946161,50.0509264 5.53650556,50.2999268 5.54005281,50.5430749 C5.5672484,51.0696821 5.57493415,52.0396807 5.57316048,53.2502217 C5.54123518,53.2456708 5.52172534,53.2339684 5.49571231,53.2268169 C5.34436318,51.6515499 5.1380312,50.3155248 4.90745936,49.4924614 C4.90509452,49.7421119 4.90213848,49.9943635 4.91218902,50.2427129 C4.92696921,50.8089779 4.93583739,51.879093 4.93583739,53.2021133 C4.85188546,53.2112151 4.76852546,53.220317 4.6786617,53.2313692 C4.6715672,53.1728573 4.66388151,53.1143451 4.65028369,53.0558337 C4.62781775,51.5046174 4.55509879,50.0190643 4.45991451,48.7357046 C4.36413893,47.453644 4.22638738,46.3757219 4.04902447,45.6482288 C4.03424428,45.9284358 4.0253761,46.2092925 4.01591681,46.4862491 C4.02478492,47.0687673 3.9946333,48.1291315 3.93669471,49.4606064 C3.91600238,49.3585357 3.88230354,49.2610161 3.85510801,49.1699975 C3.85274317,49.4248493 3.84978713,49.6816512 3.85983768,49.9319547 C3.86338493,50.1712035 3.86752337,50.5014702 3.87993876,50.8980505 C3.84919589,51.4662662 3.82554759,52.0624354 3.7894837,52.677463 C3.63103951,51.0638345 3.41938701,49.6907538 3.16930576,48.8475371 C3.16694093,49.1049892 3.16398488,49.364392 3.16102883,49.6198941 C3.19058927,50.3337363 3.19827496,51.8218944 3.1846772,53.6253575 C3.1208266,53.642911 3.06288845,53.6611148 3.01204412,53.6767179 C2.89202868,52.4622727 2.75486844,51.3823985 2.57632354,50.5482824 C2.55208399,51.1405529 2.52193236,51.75428 2.49237161,52.3803534 C2.35462006,51.2549761 2.18730813,50.314883 1.99871225,49.6680033 C1.99575621,49.9332569 1.99280016,50.1959103 2.00285071,50.4572624 C2.03122873,51.1268985 2.0300463,52.4694213 2.020587,54.1149088 C1.90293616,52.9063131 1.76104608,51.8290439 1.58663971,50.9949278 L1.58663971,38.9577037 L2.71466839,38.8101238 C2.7152596,38.8471813 2.7158508,38.8822882 2.71644202,38.9193457 C6.04199109,38.4837572 8.95783149,38.0936772 11.6105587,37.7452072 C11.61115,37.7770636 11.6117412,37.80827 11.6123324,37.8375263 C13.7158499,37.5540687 16.8835517,37.9077399 16.2935261,37.9077399 C17.7224778,37.9077399 18.6122458,37.7874653 19.9613835,38.1229339 C21.923606,38.6105328 24.1370904,39.2190573 26.2104612,39.6669949 C26.2104835,39.7463539 26.2110747,39.8256696 26.2098923,39.9043357 Z" id="Shape"></path>
                            <path d="M1.45201823,39.1631331 C5.76910946,30.1514205 11.1685448,16.0187862 21.9435335,13.8881715 C21.9255044,13.5425224 21.933065,13.2335073 21.9726127,12.9693966 C22.086603,12.596568 22.4768456,12.3885878 22.843824,12.5049854 C23.210803,12.6213837 23.4155201,13.0178465 23.3009487,13.390677 C23.2939697,13.4397178 23.2881539,13.491122 23.2840828,13.543708 C24.711869,12.2432378 24.7444394,12.8931793 27.0678663,12.8429546 C37.1350615,12.6237481 79.7511636,10.073624 94.9363492,12.5043957 C95.2690146,12.5168036 95.6011008,12.5298024 95.9320193,12.5428012 C102.478878,12.8069126 101.370408,12.0405759 102.040392,19.8764837 C103.335578,35.0336646 103.223915,52.8921728 103.191345,68.7761128 C104.81978,83.4889549 104.980296,98.5675504 104.439425,113.321747 C104.216679,119.401629 103.448987,124.918408 102.715615,130.482481 C102.69177,132.575284 102.669088,134.669267 102.64757,136.766192 C102.630704,138.438307 103.111674,146.100493 102.1003,146.76697 C96.8840817,150.205738 21.2534516,149.961717 10.0391895,149.739554 C9.90251731,149.7366 3.84650404,149.920356 3.8424458,149.918583 C2.59611197,149.393905 2.90609365,142.866758 2.81362733,141.273186 C2.20122028,130.709317 1.77085099,120.558428 0.881027149,109.975069 C-0.0553249967,98.8321797 -0.212348031,92.3930467 0.254078695,81.1302176 C0.793206282,68.1278892 1.97381819,53.2283286 0.404127096,40.5019238 C0.337244888,39.9589291 0.730976904,39.5193373 1.45214225,39.1630479 L1.45201823,39.1631331 Z M93.3981453,128.962919 C79.9397396,111.445302 65.6228937,94.2555817 51.8655311,76.9323664 C52.8123486,77.965771 53.684144,79.0363945 54.5780384,80.1158885 C67.6694811,95.9235543 81.2436081,112.437927 93.799425,128.652763 C93.8837546,128.765025 93.8622361,128.925737 93.7517352,129.011411 C93.6406527,129.097676 93.482462,129.075814 93.3981324,128.962961 L93.3981453,128.962919 Z M91.0549438,138.844944 C85.2234045,133.724609 76.4071671,122.870049 71.2863481,116.672545 C69.0751684,113.996567 66.6249585,111.099613 64.6941108,108.213304 C66.8965653,111.044085 69.167069,113.766146 71.484095,116.501818 C76.6927563,122.650241 85.4990941,133.350585 91.3585122,138.435462 C91.4695948,138.521136 91.4922766,138.681257 91.4079468,138.794701 C91.3241989,138.907554 91.1665899,138.930007 91.0549256,138.844924 L91.0549438,138.844944 Z M87.8568192,131.816732 C77.172526,117.664608 64.5661656,102.971256 53.0327785,89.4525 C49.5275745,85.3431128 46.0275848,81.2934206 42.397922,77.2939343 C46.1706561,81.1309399 49.6886681,85.2214428 53.2142309,89.2912062 C64.8231873,102.694145 77.5459453,117.422355 88.2610442,131.510636 C88.3442104,131.62408 88.3215289,131.784793 88.2098649,131.869284 C88.0982006,131.953776 87.9400099,131.930142 87.8568437,131.816699 L87.8568192,131.816732 Z M22.1764025,15.5819437 C16.0436068,16.6525733 7.59724693,32.8012113 5.10924009,36.4313835 L3.87046934,38.0940464 C4.00365208,38.021962 4.14265039,37.9551956 4.28513817,37.8902021 C10.2097279,35.1923667 24.1095653,38.5909555 29.0762942,38.8810657 C28.9657934,37.4452886 28.7756158,36.8420299 28.4336416,35.2597266 C27.4164506,30.5529839 23.2459171,20.929192 22.1827881,15.6144304 L22.1763906,15.5819335 L22.1764025,15.5819437 Z M2.80268565,38.680751 C6.47770841,32.1069359 12.5011961,21.0869219 18.1216087,16.3642373 C13.9121099,18.6543842 10.735494,22.9859033 8.19282398,27.0184979 C5.82403708,30.7751439 3.74778145,35.7519131 1.56043465,39.1103472 C1.90938464,38.9496349 2.328124,38.8066482 2.80269795,38.6807966 L2.80268565,38.680751 Z M23.2755699,13.6847114 L23.2755699,13.6870748 C29.6293551,13.0442235 39.0364719,13.0820407 45.6612981,12.9024199 C55.767477,12.6276732 66.5279544,12.3027037 77.1121444,12.2542525 C58.3839947,11.9948675 33.6987217,13.0649006 27.0686689,13.0690423 C24.6120581,13.070224 24.8807503,12.3895594 23.2755822,13.6847116 L23.2755699,13.6847114 Z M103.169347,83.4220988 C103.123984,94.9963337 102.995454,106.5091 102.859945,118.049102 C102.991964,116.49043 103.096068,114.902805 103.161787,113.273825 C103.54854,103.671847 103.623564,93.461925 103.169347,83.422105 L103.169347,83.4220988 Z M99.0505749,14.6639059 C97.9397493,14.5522346 97.7873748,14.5439625 95.8524503,14.4488354 C78.8062555,13.6092332 59.8716276,14.0570995 42.7422389,14.3401183 C37.1253066,14.4328822 29.3512859,14.3040762 23.8169572,14.7306723 C26.3049702,20.4495428 28.7226158,27.5143607 29.8886888,33.5647519 C31.7718584,43.3422039 29.606621,41.5117506 26.853404,40.2951756 C25.3401243,40.0854225 23.324939,39.6481889 20.7525946,39.2091849 C15.2409305,38.8269024 7.17957439,38.9066678 3.42318397,39.8561716 C1.07067921,42.8139824 4.02337818,49.5822121 4.18680278,61.1883684 C4.47119728,81.4493546 4.24496113,98.1415126 6.09148721,118.761131 C6.75390835,126.153908 6.62887037,136.909805 6.50964551,145.084252 C21.0794549,144.693107 33.6638024,144.353957 48.6412801,144.499898 C65.9439433,144.668882 82.8581839,143.247291 99.8048905,143.806235 C99.829317,140.454323 99.871191,137.109482 99.9357465,133.754608 C100.423113,108.381571 100.873839,83.2785854 100.869768,57.8853084 C100.869187,54.7762363 100.891287,51.2848817 100.897103,47.6056092 C100.459753,33.7461105 99.9555188,16.7885861 99.0505749,14.6639059 Z M5.31147558,145.116036 L6.4118297,145.086493 C6.17919617,136.288111 5.91283131,127.614353 5.50921011,118.792357 C2.78856175,101.568967 3.5347363,79.2506415 3.17531791,61.2036032 C3.13925973,59.3890918 2.96536624,57.2608384 2.74436448,55.0622703 C2.85021253,66.2300224 2.04530238,78.8890236 1.84058276,88.0088693 C1.53466977,101.639881 3.79063336,113.501221 4.29486318,126.742305 C4.52982282,132.910818 5.03696104,139.020248 5.31147004,145.116053 L5.31147558,145.116036 Z M99.8038391,143.901835 C82.5575608,144.116315 66.1650496,145.542047 48.6355555,145.543814 C33.7080679,145.544996 21.0283518,145.985182 6.48934818,146.482092 L6.47539018,147.430414 C7.43093286,147.338832 8.06486026,147.31697 10.0736446,147.342378 C28.7249953,147.5799 48.2272845,147.124943 66.9263501,146.581948 C75.9705621,146.319018 91.0352919,146.219164 99.7991781,144.655768 L99.8038391,143.901835 Z M6.44839687,146.483273 L5.37072584,146.520496 C5.38352066,146.860237 5.39573393,147.200566 5.40736557,147.540308 C5.83192113,147.495994 6.16866012,147.459952 6.472825,147.431 L6.44839847,146.483271 L6.44839687,146.483273 Z M23.352123,14.7683408 C23.7691186,17.5760771 25.7395225,22.4346683 27.0585541,25.7552464 C26.1710606,22.4210627 25.3812662,19.7439044 25.2696032,19.4023826 C24.4193287,16.7890359 23.9761631,15.4336183 23.7464361,14.7358197 L23.3521224,14.7683166 L23.352123,14.7683408 Z M29.5459768,40.250698 C29.4157018,40.3015114 29.2714696,40.3410987 29.1138606,40.3688685 C29.3011304,40.4374077 29.4436182,40.3936844 29.5459768,40.250698 Z M23.5201894,14.0558246 C23.4928549,13.9778319 23.5103025,14.0333721 23.5103025,14.0333721 L23.5201894,14.0558246 Z" id="Shape"></path>
                            <path d="M23.2429834,89.2628084 C25.7315312,87.3745865 28.5547027,86.5081479 32.5071273,86.4363056 L32.5089625,86.4363056 C40.87449,85.3893392 50.1924448,88.9877091 53.2566918,97.7754659 C56.326391,103.318553 56.5765923,110.253093 52.2326416,117.077728 C49.3109806,121.667186 44.8471583,125.000319 39.8406737,126.523122 C35.791577,127.949575 31.3301413,128.114756 27.21988,126.388644 C27.2841125,126.41075 27.348957,126.432856 27.4144129,126.454348 C28.5785525,126.831379 29.7555369,127.097265 30.9343517,127.25815 C25.7290706,126.84489 20.6137158,123.640128 16.7493549,116.315661 C12.3118042,107.902457 14.1641479,99.0870635 19.8361869,92.989487 C20.788666,91.5826856 21.8934648,90.2864069 23.2429546,89.2627798 L23.2429834,89.2628084 Z M19.8551789,114.652844 C15.4512794,106.304756 18.5784826,97.4746252 25.6679153,92.6696399 C33.3525924,87.4605948 47.0818134,89.5385633 50.1276275,100.170954 C54.5266374,115.528508 30.9362108,135.657288 19.8551724,114.652844 L19.8551789,114.652844 Z M49.753868,100.288851 C46.7263767,90.0046038 33.3709024,88.1182387 25.956638,93.1799245 C19.6691949,97.4715674 16.4147729,105.24861 19.6655213,113.120821 C24.3801852,124.537368 33.6791898,125.702259 40.7191061,122.264719 C47.8966542,118.760297 52.7434524,110.442282 49.7538422,100.288851 L49.753868,100.288851 Z M35.2593292,102.944649 C35.1981553,100.903524 35.0635732,97.0318981 35.0360449,96.6917084 C34.7980791,96.676971 32.9946774,96.6732866 32.0116128,96.6720586 C32.2495787,98.7672184 32.962863,105.227116 32.1547596,105.470897 C32.1266196,105.479494 26.0593994,105.363438 24.1709532,105.338261 C24.1672828,106.745679 24.1886936,108.197919 24.1440368,109.591217 C25.8397726,108.962423 32.3627484,106.503125 32.4966936,108.077568 C32.6233233,109.566041 32.3529351,114.010581 32.1216982,116.143181 C33.5776327,116.077477 36.2925291,115.730534 37.3704096,116.113092 C37.0523056,114.402327 36.5274344,111.736097 36.5329384,110.218149 C35.9346587,106.323191 35.2764277,106.921282 40.1972482,107.144184 C42.6313513,107.254715 42.3095789,107.240591 43.8896988,107.534724 C43.9202857,105.382453 43.9092744,106.468106 43.9257914,103.856526 C41.2323094,104.081271 39.1285419,104.584182 36.5256265,104.784368 C36.5274618,104.870336 36.5286852,104.930513 36.5299087,104.959374 C36.5299087,105.867564 35.3223388,105.06622 35.2593308,102.944652 L35.2593292,102.944649 Z M36.5237886,104.687342 C38.7132008,104.258117 44.2525105,103.118425 44.3087791,103.649588 C44.3283547,103.831963 44.7938871,108.159836 44.0163686,108.022286 C41.623859,107.597973 39.1762967,107.620693 36.7531887,107.688853 C37.2162743,110.526406 37.594327,113.314839 38.076381,116.165291 C36.7954031,116.643027 32.631913,117.361474 31.4372007,116.730837 C31.275702,116.645483 31.5430317,110.346488 31.6146047,108.540574 L31.2763138,108.562066 C28.5436766,108.802162 23.9776912,110.675034 23.6448655,110.666438 C22.7872088,110.644332 23.2111431,104.657279 23.216649,104.643158 C23.4533918,104.069015 29.3077276,104.194283 31.4323209,104.360078 C31.2665399,102.072718 30.8389352,95.92967 30.8572872,95.8848741 C31.1264517,95.2321317 35.3358234,95.2204653 35.9279828,95.9235596 C36.3861743,96.4676139 36.4950638,103.197063 36.5238158,104.687406 L36.5237886,104.687342 Z M39.2607074,87.2499563 C44.196824,88.5548242 48.4795777,91.3420299 51.4104616,95.0195914 C48.7347204,90.6438229 44.1693364,88.1004307 39.2607074,87.2499563 Z M23.621005,124.296619 C22.6617996,123.501413 21.777839,122.593229 20.8320927,121.658019 C21.7160534,122.677965 22.6495693,123.554843 23.621005,124.296619 Z M15.6732883,111.988438 C14.9012763,107.274323 15.5925389,102.032759 17.1971267,97.9259414 C15.0040474,102.080035 14.2901473,106.969146 15.6732883,111.988438 Z M54.196858,102.875248 C54.5253613,112.808204 46.7311757,123.198663 37.6016238,126.347561 C34.3526799,127.011353 30.9324336,126.890387 27.6052117,125.84342 C24.8462705,124.975761 19.480087,120.228485 18.0847545,117.677114 C15.0988632,112.218153 15.1973527,102.745706 17.833942,96.8084207 C18.4982869,95.7227675 19.2666317,94.6954529 20.1273476,93.7375266 C21.0339451,92.8588113 22.086744,91.8407026 22.3265453,91.6073675 C22.9125902,91.1130517 23.5267745,90.6451434 24.1672667,90.2079347 C25.7082379,89.1560537 27.4602553,88.3510246 29.3248294,87.8020596 C31.0260756,87.4698552 32.8979905,87.4219586 35.0078763,87.6202989 C44.1557964,88.48305 51.1296132,93.9377133 53.6224427,100.90724 C54.8869021,106.81385 53.9656276,112.138955 51.6379647,116.458846 C54.4868257,111.928336 55.1780955,107.182897 54.1968677,102.875277 L54.196858,102.875248 Z" id="Shape"></path>
                            <path d="M98.7619951,18.0890027 C98.7457874,46.6594073 99.1951001,75.2370127 99.2176108,103.766188 C99.1482778,101.735001 99.1649361,102.389564 99.1226156,100.375251 C98.549945,73.1338685 98.4184808,45.3578438 98.3716622,18.0888051 C98.3716622,17.9447538 98.4590034,17.8272224 98.5670545,17.8272224 C98.6746553,17.8272224 98.7619965,17.9447538 98.7619965,18.0888051 L98.7619951,18.0890027 Z" id="Shape"></path>
                            <path d="M25.6462328,18.756647 C20.6616163,24.1114206 16.0951071,26.7752612 11.4266417,32.6613579 C15.5672169,26.5784767 20.3261889,23.8580596 25.2432301,18.4308527 C25.335538,18.321872 25.5002441,18.3071449 25.6112542,18.3966858 C25.7228683,18.4868158 25.7385547,18.6476359 25.6462467,18.756616 L25.6462328,18.756647 Z" id="Shape"></path>
                            <path d="M44.6933686,53.6996865 C37.5443359,61.0214481 30.9949607,64.6638067 24.2993579,72.7120643 C30.2378505,64.3947366 37.0632595,60.6750191 44.1153744,53.2542169 C44.2477642,53.1052039 44.4839889,53.0850671 44.6432017,53.2074994 C44.8032808,53.3307372 44.8257785,53.5506319 44.6933886,53.6996441 L44.6933686,53.6996865 Z" id="Shape-Copy-7" transform="translate(34.539509, 62.919795) rotate(37.000000) translate(-34.539509, -62.919795) "></path>
                            <path d="M30.5191007,67.6528603 C24.40832,74.1562672 18.8101087,77.3915187 13.0869064,84.540221 C18.1629534,77.1525226 23.9971102,73.8485586 30.0250484,67.257181 C30.1382113,67.1248232 30.3401291,67.106937 30.4762195,67.2156851 C30.6130504,67.3251486 30.6322807,67.5204656 30.5191177,67.6528226 L30.5191007,67.6528603 Z" id="Shape-Copy-7" transform="translate(21.839883, 75.842436) scale(-1, 1) rotate(136.000000) translate(-21.839883, -75.842436) "></path>
                            <path d="M81.6625702,9.95980195 C67.262567,22.3531466 54.0704294,28.5184668 40.5837516,42.1415313 C52.5454134,28.0630193 66.2935547,21.7667557 80.4983402,9.2057679 C80.7650075,8.95353767 81.2408252,8.91945262 81.561521,9.12669047 C81.8839619,9.33529166 81.929278,9.70750138 81.6626104,9.95973017 L81.6625702,9.95980195 Z" id="Shape-Copy" transform="translate(61.210068, 25.566426) rotate(35.000000) translate(-61.210068, -25.566426) "></path>
                            <path d="M54.9204444,42.1538375 C42.5269067,53.2630192 31.1729332,58.7895066 19.5654601,71.000988 C29.8604097,58.3812512 41.6929145,52.7373885 53.9184357,41.4779343 C54.1479461,41.2518395 54.5574644,41.2212862 54.8334752,41.4070507 C55.1109878,41.5940372 55.1499897,41.9276796 54.9204789,42.1537732 L54.9204444,42.1538375 Z" id="Shape-Copy-5" transform="translate(37.317750, 56.143348) rotate(35.000000) translate(-37.317750, -56.143348) "></path>
                            <path d="M44.425912,63.8252433 C56.3875738,49.7467313 70.135715,43.4504677 84.3405006,30.8894799 C84.6071678,30.6372497 85.0829856,30.6031646 85.4036814,30.8104025 C85.7261222,31.0190037 85.7714384,31.3912134 85.5047707,31.6434422 C71.1047274,44.0368586 57.9125898,50.2021788 44.425912,63.8252433 Z" id="Shape-Copy" transform="translate(65.052228, 47.250138) scale(-1, 1) rotate(35.000000) translate(-65.052228, -47.250138) "></path>
                            <path d="M23.6871578,23.0669849 C21.5797851,24.9924713 19.5047979,26.9606269 17.4530368,28.9674587 C19.2998324,26.648909 21.3975344,24.6301334 23.4923639,22.6301395 C23.5948558,22.5664308 23.7215209,22.6130746 23.7756676,22.7336665 C23.8293308,22.8542581 23.7896878,23.0032918 23.6871956,23.0670006 L23.6871578,23.0669849 Z" id="Shape"></path>
                            <path d="M23.6189845,26.0890387 C22.5478723,26.2534283 21.6062143,26.9264767 20.6263163,27.3759964 C21.5232853,26.7029488 22.3437839,26.0299011 23.5802865,25.7852526 C23.6903923,25.7771563 23.7880596,25.8384064 23.7986554,25.9221852 C23.8092514,26.0063161 23.7290907,26.0809429 23.6189849,26.089039 L23.6189845,26.0890387 Z" id="Shape"></path>
                            <path d="M23.7985784,22.8235971 C22.8508184,23.936261 21.7762637,24.9320205 20.6263163,25.7845341 C21.5033107,24.792932 22.5003573,23.6964432 23.4350597,22.7806214 C23.4460117,22.6706491 23.5361543,22.5911731 23.6364063,22.6027249 C23.7366583,22.6147387 23.8091095,22.7136214 23.7985789,22.8235937 L23.7985784,22.8235971 Z" id="Shape"></path>
                            <path d="M23.7393787,15.0627478 C18.7553795,20.4175214 14.1882871,23.081362 9.51983828,28.9674587 C13.6610047,22.8845774 18.4193538,20.1641604 23.3363774,14.7369535 C23.428685,14.6279727 23.5933906,14.6132457 23.7050037,14.7027866 C23.816014,14.7929166 23.8317003,14.9537367 23.7393927,15.0627168 L23.7393787,15.0627478 Z" id="Shape"></path>
                            <path d="M22.2314193,18.8035725 C20.1240466,20.7290588 18.0495451,22.6972145 15.9972984,24.7040463 C17.844094,22.3860619 19.941796,20.366721 22.0366254,18.3667271 C22.1391174,18.3030184 22.2657825,18.3496622 22.3199291,18.470254 C22.3735923,18.5908457 22.3339493,18.7404483 22.2314571,18.8035882 L22.2314193,18.8035725 Z" id="Shape"></path>
                            <path d="M75.572246,31.6160145 C66.6352908,34.3894031 57.8377358,37.2242509 49.1345593,40.114806 C56.9664579,36.7760798 65.8624015,33.8675071 74.7461631,30.986801 C75.1808115,30.8950376 75.7179734,30.9622215 75.9475989,31.1359168 C76.1751738,31.3096119 76.0070556,31.5250931 75.5724064,31.6160371 L75.572246,31.6160145 Z" id="Shape-Copy-2"></path>
                            <path d="M75.572246,31.6160145 C66.6352908,34.3894031 57.8377358,37.2242509 49.1345593,40.114806 C56.9664579,36.7760798 65.8624015,33.8675071 74.7461631,30.986801 C75.1808115,30.8950376 75.7179734,30.9622215 75.9475989,31.1359168 C76.1751738,31.3096119 76.0070556,31.5250931 75.5724064,31.6160371 L75.572246,31.6160145 Z" id="Shape-Copy-2" transform="translate(62.591816, 35.530257) scale(-1, 1) translate(-62.591816, -35.530257) "></path>
                            <path d="M48.1193579,31.5891681 C41.6668426,34.3625567 35.3149748,37.1974044 29.0312486,40.0879595 C34.6859089,36.7492334 41.1088137,33.8406606 47.5229229,30.9599546 C47.8367407,30.8681912 48.2245736,30.935375 48.3903641,31.1090703 C48.554674,31.2827654 48.4332921,31.4982467 48.1194737,31.5891906 L48.1193579,31.5891681 Z" id="Shape-Copy-3" transform="translate(38.747439, 35.503410) scale(-1, 1) rotate(117.000000) translate(-38.747439, -35.503410) "></path>
                            <path d="M96.011758,30.2331332 C89.5592427,33.0065218 83.2073749,35.8413696 76.9236487,38.7319247 C82.578309,35.3931985 89.0012138,32.4846258 95.415323,29.6039197 C95.7291408,29.5121563 96.1169737,29.5793402 96.2827642,29.7530355 C96.4470741,29.9267306 96.3256922,30.1422118 96.0118738,30.2331558 L96.011758,30.2331332 Z" id="Shape-Copy-4" transform="translate(86.639839, 34.147375) scale(-1, -1) rotate(117.000000) translate(-86.639839, -34.147375) "></path>
                            <path d="M26.0316361,63.2405695 C19.5791208,66.0139581 13.227253,68.8488058 6.94352684,71.7393609 C12.5981871,68.4006348 19.0210919,65.4920621 25.4352011,62.611356 C25.7490189,62.5195926 26.1368518,62.5867764 26.3026423,62.7604718 C26.4669522,62.9341669 26.3455703,63.1496481 26.0317519,63.240592 L26.0316361,63.2405695 Z" id="Shape-Copy-6" transform="translate(16.659717, 67.154812) scale(-1, 1) rotate(117.000000) translate(-16.659717, -67.154812) "></path>
                            <path d="M50.7713546,92.6259518 L60.4142021,104.481631 C60.2793584,104.388533 60.152305,104.305779 60.0348409,104.234587 L60.4723344,104.701293 C60.6461333,104.871059 60.8894519,105.120537 61.1861102,105.430255 L62.5279579,107.079852 C62.178562,106.773786 61.842353,106.489016 61.5271131,106.232235 C59.6392982,104.277793 57.7724562,102.547266 56.6757254,101.832302 L57.139589,102.364724 C57.8593588,103.121678 59.7267964,105.279963 61.6230005,107.494231 C61.0045159,106.986148 60.4585481,106.579071 60.0348384,106.322295 L60.4723319,106.789609 C61.0422722,107.34637 62.3727305,108.769 63.8428298,110.359572 C62.521955,109.125568 61.26941,108.058899 60.384233,107.453461 C58.9117387,105.995536 57.5495136,104.781617 56.6757229,104.212076 L57.1395865,104.744498 C57.9300749,105.575074 60.1025574,108.094798 62.1791538,110.523254 C61.8645178,110.286555 61.5810458,110.088798 61.3371265,109.941545 L61.7752194,110.408251 C62.3133969,110.934588 63.5311902,112.2337 64.9041994,113.717783 L65.0522282,113.891809 C63.581527,112.523332 62.2043232,111.372085 61.3371284,110.846355 L61.7752213,111.313061 C61.9454244,111.479785 62.1839484,111.724395 62.4740119,112.026809 C62.0856615,111.715266 61.7308741,111.449968 61.4228258,111.242475 C60.0833732,109.935454 58.8625854,108.862095 58.0565225,108.336976 L58.5203862,108.869398 C58.9333084,109.302637 59.7213986,110.195886 60.6766923,111.296027 C60.6209567,111.260126 60.5664198,111.225443 60.5148796,111.19441 L60.9523732,111.661116 C61.0380738,111.745087 61.1423535,111.849746 61.2610158,111.970833 C61.8567267,112.660849 62.4961868,113.405631 63.1362469,114.152851 C62.0940519,113.233433 61.1621326,112.491694 60.5148809,112.099221 L60.9523744,112.565927 C61.3431225,112.948054 62.0916594,113.737258 62.9972073,114.708394 C62.1935395,113.998905 61.4557939,113.395898 60.863078,112.977262 C59.4025655,111.532119 58.0523286,110.330366 57.1845319,109.765084 L57.6483955,110.297506 C58.0876872,110.759344 58.9548808,111.743871 59.9952826,112.944402 C59.9137772,112.890247 59.8352675,112.840352 59.7609538,112.795324 L60.1984473,113.26203 C60.3464761,113.406849 60.5466444,113.61069 60.7869666,113.860777 C61.3425237,114.505162 61.9256497,115.184833 62.5045779,115.862072 C61.4126435,114.892153 60.4333736,114.107208 59.7609544,113.700132 L60.1984479,114.166838 C60.589196,114.548965 61.3377329,115.337558 62.2432808,116.308694 C61.2016878,115.389886 60.2703641,114.648752 59.6237143,114.256891 L60.0612078,114.723597 C60.4615445,115.114851 61.2370465,115.933257 62.1725647,116.936649 C62.0934563,116.864848 62.0149473,116.793655 61.9364377,116.72368 C60.1654881,114.842859 58.3298077,113.072787 57.0556816,112.076093 C57.1917241,112.236123 57.3391535,112.403456 57.4967715,112.57809 C57.2091044,112.35356 56.9430121,112.144851 56.7044899,111.956221 L56.8489229,112.121729 C57.5057614,112.812356 59.1178998,114.670055 60.8361129,116.672566 C60.1181426,116.070778 59.4846785,115.590683 59.0070285,115.300441 L59.444522,115.767755 C59.8352701,116.149882 60.583807,116.938475 61.4899569,117.910222 C60.4477619,116.990803 59.5164382,116.249675 58.8697884,115.857203 L59.3072819,116.324517 C59.7076186,116.715771 60.4837225,117.534788 61.4192408,118.538173 C60.794164,117.97046 60.1960579,117.453858 59.6596774,117.020619 C58.0829015,115.434916 56.5936225,114.087128 55.6443229,113.453088 C55.7821637,113.600341 55.9283942,113.753069 56.0824158,113.910058 C56.6122028,114.525842 57.3032037,115.250544 58.081102,116.016016 C57.8407798,115.815825 57.6100468,115.623545 57.3925001,115.441 C57.9480571,116.07443 58.6048987,116.83321 59.3024918,117.642492 C58.9039527,117.333382 58.5485633,117.080863 58.2525096,116.901357 L58.6900031,117.368671 C59.0807511,117.75019 59.829288,118.539391 60.734836,119.510527 C59.693243,118.591108 58.7625149,117.84998 58.1152695,117.458119 L58.5533624,117.925433 C58.9530996,118.316687 59.729201,119.135093 60.6647193,120.138485 C59.542219,119.11928 58.5078176,118.26375 57.7592813,117.76419 C57.3751255,117.396059 57.0035534,117.051047 56.6523618,116.736462 C57.023932,117.131367 57.4362542,117.551829 57.8767423,117.985069 C56.8243587,117.109461 55.9643555,116.382325 55.55143,116.005068 L55.1906473,115.70326 L55.2493793,115.770801 C55.7300232,116.275842 56.7212781,117.405184 57.8917246,118.758447 C57.7514868,118.661698 57.6196395,118.575902 57.4985796,118.502276 L57.9360731,118.968982 C58.2063606,119.233672 58.6486513,119.693075 59.1952141,120.27296 L59.7118167,120.875357 C58.7792954,120.065464 57.9522533,119.416827 57.3613369,119.059036 L57.7988305,119.525742 C58.1991671,119.916996 58.975271,120.736014 59.9107893,121.739399 C58.6510464,120.596059 57.5027767,119.657785 56.7446537,119.198374 L57.1821472,119.665081 C57.7179276,120.188984 58.9273274,121.478963 60.2925494,122.954535 L60.2595876,122.963662 L60.1984583,122.907073 C58.5533588,121.118139 56.7812117,119.353535 55.4070049,118.168822 C55.8750631,118.810162 56.6655502,119.682723 57.6196463,120.642304 C57.1108348,120.251659 56.6242,119.876228 56.1777116,119.529998 C56.7554429,120.192029 57.4146821,120.955674 58.100287,121.753395 C57.5669042,121.319547 57.0910531,120.964191 56.7057029,120.720192 C56.841146,120.843714 56.9795862,120.968452 57.1192246,121.093191 L57.1360052,121.10962 C56.9675997,120.970278 56.8045889,120.833978 56.6475703,120.702546 L57.0449105,121.126658 C57.3721322,121.44672 57.9510604,122.052767 58.6624411,122.811548 C58.6402668,122.81885 58.6168938,122.827368 58.5935207,122.836495 C57.5585173,121.923774 56.6337896,121.188725 55.9907325,120.798691 L56.428226,121.266005 C56.7746256,121.60493 57.403897,122.265132 58.1746037,123.088412 C58.1206661,123.131614 58.0649306,123.179684 58.0073971,123.23323 L57.8893336,123.134048 C57.4146825,122.644828 56.9424291,122.17143 56.4839588,121.726019 C55.6029764,120.990366 54.8945991,120.387964 54.532015,120.056344 L54.0417819,119.646836 C54.1466604,119.799564 54.2737137,119.968114 54.4193449,120.149442 C54.2886964,120.046 54.167037,119.948642 54.0555657,119.858587 C54.3893796,120.227327 54.8220779,120.717765 55.3183057,121.286083 C55.2427931,121.236188 55.1690781,121.189335 55.0995589,121.146741 L55.5370525,121.614055 C55.680886,121.754614 55.8738627,121.951154 56.1045957,122.190896 C56.4144371,122.549292 56.7392637,122.924729 57.0712756,123.311109 C56.2160626,122.557809 55.4369667,121.926812 54.8304696,121.51183 C55.3698458,122.205499 56.2172665,123.116394 57.2115152,124.098485 C57.2067208,124.113697 57.2025257,124.128909 57.1971319,124.144121 L57.2037243,124.151423 L57.1887416,124.169677 L57.1857451,124.178805 L57.1833479,124.176979 L57.1174239,124.25669 C56.0698368,123.331186 55.132519,122.585188 54.4822703,122.190895 L54.6926266,122.415425 C54.2755091,122.089887 53.9039377,121.823981 53.5964977,121.637178 C53.3393952,121.420558 53.0984742,121.227061 52.8773298,121.059728 C53.0762993,121.29947 53.3130257,121.56416 53.5815125,121.84832 C53.7870749,122.146476 54.074742,122.504266 54.4241354,122.902817 L54.1892072,122.706278 C54.6225061,123.336056 55.4225787,124.231745 56.4066388,125.227218 L56.3095514,125.322141 L56.0932016,125.14203 L56.0662328,125.152374 C55.8708591,124.975914 55.6784812,124.803714 55.4896997,124.638207 C55.0821714,124.296849 54.718391,123.990174 54.4187383,123.732176 C54.0747364,123.453491 53.7553038,123.208881 53.4700343,123.006256 C53.9189147,123.605002 54.6266932,124.388121 55.4741126,125.247299 C55.0713783,124.938799 54.678834,124.6376 54.3048636,124.349181 C54.0525558,124.131953 53.8457946,123.951234 53.6971664,123.814934 L53.2075327,123.405426 C53.2536793,123.472967 53.3052196,123.54416 53.3597567,123.617177 C52.7101099,123.112137 52.1575467,122.67707 51.7626035,122.355794 C51.8339209,122.434896 51.9088341,122.518867 51.9873437,122.607097 C51.7985622,122.472623 51.6241639,122.356402 51.4665465,122.260871 L51.9040401,122.727577 C52.2600282,123.076237 52.9144715,123.762607 53.7139447,124.61752 C54.2305473,125.095787 54.7855081,125.591698 55.3590442,126.088832 L55.4651215,126.200793 C55.4165776,126.263467 55.372828,126.323707 55.3350717,126.380904 C54.470874,125.659854 53.7774755,125.069624 53.419086,124.742263 L52.9294523,124.332754 C53.358556,124.956449 54.1466411,125.839965 55.1169199,126.823272 C55.109129,126.847611 55.1031359,126.871342 55.0977421,126.895072 C54.301266,126.228782 53.6642029,125.686017 53.3267926,125.377517 L52.8365595,124.967401 L52.8725179,125.019122 L53.1248257,125.289288 L53.1074458,125.274076 L52.923459,125.090314 C53.1889519,125.458446 53.5647166,125.905071 54.0177947,126.401594 C53.1422108,125.731045 52.3067732,125.087883 51.5912043,124.53173 C51.938802,124.931502 52.3121717,125.362916 52.7005189,125.813191 C51.7140574,124.936978 50.8192937,124.212274 50.1600601,123.780251 C51.4221982,125.107961 53.3531627,126.846394 55.3015139,128.443657 L55.3608453,128.501463 L55.3542529,128.535538 C53.8074409,127.258335 52.4536114,126.125951 51.9004463,125.62091 L51.4102132,125.210793 C51.9160277,125.945841 52.9198695,127.041717 54.1334594,128.235558 C53.0804801,127.35995 52.2210726,126.632814 51.8081471,126.255557 L51.317914,125.84544 C51.7116585,126.418021 52.4080552,127.209659 53.2704535,128.096216 L52.6417808,127.616124 C52.0328854,127.103782 51.5498465,126.688799 51.2705647,126.433843 L50.780931,126.024335 C50.8618376,126.141772 50.9559287,126.268945 51.0608071,126.404028 C49.6476452,125.315454 48.46701,124.392388 47.9366236,123.942106 L47.7855984,123.82467 L47.9965542,124.049808 C48.3968908,124.44167 49.1729948,125.260079 50.108513,126.263464 C49.6758135,125.870993 49.2568991,125.502863 48.8619558,125.17002 C49.2287314,125.539369 49.6368571,125.93306 50.0743545,126.341351 C50.6185247,127.063617 51.5330675,128.049362 52.6148132,129.113593 C51.561834,128.237985 50.7024264,127.510849 50.289501,127.133591 L49.7992679,126.723475 C50.2307686,127.35082 51.0248522,128.240418 52.0023163,129.229811 C50.9840913,128.382194 50.155256,127.680618 49.7519173,127.311878 L49.2622836,126.902369 C49.4594555,127.188964 49.7333388,127.53154 50.0647538,127.912451 C49.184969,127.237644 48.3627234,126.602388 47.6849057,126.071794 C47.8461189,126.244603 48.0145244,126.424713 48.1889226,126.610909 C47.3810603,125.878299 46.6193383,125.229655 45.9768831,124.73739 C45.864813,124.639424 45.7551399,124.54511 45.6478638,124.453838 C46.3220825,125.368386 47.776601,126.806227 49.479829,128.318919 C49.9436926,128.831261 50.4944551,129.39958 51.0967576,129.992241 C50.0431764,129.116633 49.1837689,128.388893 48.7702478,128.011635 L48.2806141,127.602127 C48.7121149,128.228864 49.5067941,129.119071 50.4842645,130.108464 C49.4654439,129.260242 48.6366023,128.558659 48.2332699,128.19053 L47.7436362,127.780413 C48.0624674,128.244076 48.5790674,128.850736 49.221529,129.535277 C47.1317469,127.938015 45.1917912,126.438711 44.4660337,125.822317 L44.1933491,125.610565 C44.3713432,125.811364 44.5643199,126.031026 44.7692829,126.265295 C44.6230523,126.147249 44.4816157,126.035897 44.3455731,125.931846 C45.3991543,127.15429 47.3193347,128.938965 49.3509819,130.64576 C49.4252956,130.719995 49.5008082,130.794838 49.5769202,130.869682 C48.5245366,129.994074 47.6651291,129.266938 47.251608,128.88968 L46.7619743,128.480172 C47.193475,129.106909 47.9875586,129.997116 48.9656247,130.986509 C47.946804,130.138287 47.1179624,129.436704 46.71463,129.068575 L46.2243969,128.658458 C46.6732773,129.31075 47.5141039,130.246599 48.5449126,131.282845 C47.8383285,130.744947 47.1287537,130.202788 46.4563281,129.686187 C46.1932322,129.461049 45.9786807,129.273027 45.8258573,129.133077 L45.3356242,128.723568 C45.3853666,128.795369 45.4405026,128.87143 45.499235,128.949924 C44.2454861,127.982436 43.2164768,127.174981 42.7310396,126.762431 L42.1748832,126.331017 C42.792169,127.169506 44.0692941,128.450967 45.5933273,129.826747 C46.0470023,130.396894 46.6918576,131.100906 47.4463817,131.864551 C46.427561,131.016329 45.5993214,130.314746 45.1959826,129.946617 L44.7057495,129.5365 C45.1378497,130.164454 45.933127,131.054666 46.9111994,132.044664 C46.1308996,131.450177 45.3541988,130.855693 44.6332378,130.30136 C44.506185,130.190008 44.3959126,130.092042 44.3072149,130.011114 L43.8169818,129.601606 C43.8517416,129.651501 43.889498,129.704439 43.9284531,129.757986 C42.7795815,128.869601 41.8458627,128.134552 41.3903895,127.748166 L40.834233,127.316143 C41.4077697,128.095002 42.5494491,129.254766 43.9290544,130.517977 C44.1549928,130.814916 44.4414618,131.155058 44.7752763,131.526232 C44.4570445,131.254241 44.199942,131.02971 44.0243449,130.869071 L43.5341118,130.459563 C44.1124425,131.299878 45.342217,132.612374 46.7919453,134.003972 L46.609756,133.865847 C45.053953,132.581947 43.6905304,131.441656 43.1349765,130.933572 L42.6453428,130.524064 C42.8077548,130.760155 43.0217076,131.033364 43.2770119,131.335173 C40.7431428,129.405678 38.1121901,127.385514 37.2395968,126.644386 L36.6834404,126.212364 C37.3049214,127.056938 38.5952316,128.34996 40.1330524,129.736695 C40.7910884,130.589787 41.9285738,131.781801 43.2350654,133.031624 C41.5671936,131.656456 40.0749239,130.410892 39.4870045,129.873601 L38.9967714,129.464093 C39.2790446,129.874818 39.7177388,130.398115 40.2613109,130.988338 C37.9503819,129.226173 35.6963902,127.489566 34.9017135,126.814758 L34.3455571,126.382736 C35.1264525,127.442714 36.9597315,129.209743 39.014753,130.981038 C39.2898345,131.282237 39.5930837,131.602298 39.9191098,131.933922 L38.2026961,130.693228 C37.8772726,130.415151 37.6141767,130.186362 37.435582,130.022679 L36.9453489,129.613171 C37.0238579,129.726957 37.1143531,129.84987 37.2156364,129.980086 L26.9728751,122.575498 C28.5880042,122.981963 30.2768553,123.199192 32.0160414,123.199192 C38.0948066,123.199192 43.5664728,120.563245 47.384682,116.356225 L47.7652421,116.066587 L47.9312499,115.729488 C51.03626,112.027484 52.9108892,107.228355 52.9108892,101.984497 C52.9108892,98.6250688 52.140778,95.4487816 50.7713614,92.6260714 L50.7713546,92.6259518 Z" id="Shape"></path>
                        </g>
                        <polygon id="Path-25" fill="#FFFFFF" points="102 105.344262 92.3414634 90.295082 82.6829268 74.3606557 73.902439 58.4262295 70.3902439 54 68.6341463 54 59.8536585 59.3114754 55.4634146 55.7704918 48.4390244 65.5081967 30.8780488 74.3606557 36.1463415 82.3278689 30 89.4098361 52.8292683 108"></polygon>
                        <g id="polaroid" transform="translate(65.000000, 88.000000) scale(-1, 1) rotate(52.000000) translate(-65.000000, -88.000000) translate(35.000000, 51.000000)" fill="#212121">
                            <path d="M11.4852952,66.1534374 C11.4902468,65.1087581 11.4982126,64.0643234 11.5087618,63.0198888 C11.5522504,58.712972 11.6448251,54.4067893 11.7772285,50.1023191 C14.0692069,56.2996894 16.3067168,62.5244612 18.5586512,68.7406701 C16.6765852,68.5840905 14.7919357,68.4766867 12.9044875,68.4380311 C12.4052297,68.4277556 11.7679711,68.6293518 11.4788365,68.0336154 C11.3455719,67.7593565 11.4835728,66.4719789 11.4852952,66.1534374 Z M21.7460211,9.1190852 C18.3136511,10.7169308 14.8657802,12.2714723 11.4024085,13.7809972 C11.4032696,13.7717003 11.4069296,13.7648499 11.4069296,13.7550637 C11.4054225,12.6242656 11.0984189,10.8830519 11.401332,9.81146048 C11.2383574,9.22232986 11.4538628,8.98574792 12.0480635,9.10147 C12.4237447,9.10220397 12.7994259,9.10269328 13.1751071,9.1036719 C13.7387366,9.10440587 14.3021508,9.10562915 14.8657802,9.10660777 C17.1592656,9.11076692 19.452751,9.11492606 21.7460211,9.1190852 Z M43.9338183,8.94733699 C47.125494,8.99920397 50.3171697,9.05131561 53.5088453,9.1036719 C53.5587926,18.0908498 53.4791353,27.077783 53.2761167,36.0622696 C52.3413271,33.3289776 51.4039541,30.5978874 50.4792831,27.864106 C50.502965,27.8381725 50.522987,27.8073459 50.5320292,27.7652651 C50.5589404,27.6407355 50.5856364,27.5162058 50.6125477,27.3916761 C50.6274027,27.3224386 50.6153464,27.2637212 50.5901575,27.2157687 C51.0618581,22.6319019 50.8080311,18.0358023 50.5195424,13.4441064 C50.51782,13.4145031 50.5094237,13.3907715 50.5008121,13.3667953 C50.5415019,13.2307668 50.4775608,13.0377335 50.3104957,13.0193844 C48.7160572,12.844211 47.1196812,12.756135 45.5179229,12.7551564 C45.4199659,12.7551564 45.3586082,12.8177882 45.3310511,12.8973012 C44.8679621,11.5795863 44.403366,10.2623607 43.9338183,8.94733699 Z M45.4449395,13.219268 C45.4671144,13.2280756 45.4901504,13.2361492 45.5179229,13.2361492 C47.0488507,13.2371278 48.5746116,13.3198214 50.0986502,13.4800708 C50.3817567,17.9907856 50.6304168,22.5061489 50.1884262,27.0095241 C48.6295106,22.4029043 47.0546636,17.8031348 45.4449395,13.219268 Z M52.9704048,67.432252 C52.897852,68.4735062 52.8362791,68.5938767 51.9335677,68.7438506 C51.4099822,68.8311926 50.7843492,68.7714967 50.2551661,68.7829955 C49.0428676,68.8094183 47.8303538,68.830948 46.61784,68.8480739 C41.9382944,68.9146202 37.2583183,68.9094824 32.5785575,68.8441594 C39.4198309,65.9339813 46.1855374,62.7982308 52.8672808,59.441067 C53.1053917,62.0990052 53.1559849,64.7664849 52.9704048,67.432252 Z M0.0103330732,18.975035 C2.45473682,27.9536499 6.55063088,36.1855761 9.79785139,44.7950057 C10.3403824,46.2335805 10.8779618,47.6750911 11.4129577,49.1173357 C11.3948733,49.1503643 11.3810948,49.1882859 11.3795877,49.2359937 C11.1718328,55.7083569 11.0635419,62.183656 11.054715,68.660423 C11.0544997,68.7910691 11.1520261,68.9001855 11.2663451,68.9006748 C13.7611268,68.9129076 16.2505261,69.0254491 18.7382032,69.2363423 C19.2228212,70.573385 19.7080851,71.9099384 20.1950713,73.2457578 C20.2979799,73.5280903 20.7072464,73.403316 20.603046,73.1178029 C20.1009895,71.7403921 19.6013012,70.3620025 19.100967,68.983613 C19.0945083,68.9371285 19.0807297,68.8916225 19.0540338,68.8546796 C16.251172,61.1340836 13.4655335,53.4039461 10.5987305,45.7144214 C7.26237994,36.7649205 2.97810704,28.2161654 0.435315722,18.9062868 C13.9968694,13.4159711 27.3409801,7.25383111 40.4288956,0.439684048 C40.4390142,0.434301626 40.4435353,0.426227992 40.4521469,0.420356258 C40.4288956,0.479807563 40.4237286,0.549779057 40.4508552,0.622686418 C43.8612656,9.79066476 47.0540177,19.0596858 50.1920861,28.3514599 C51.2080401,31.3592555 52.2403561,34.363626 53.2670746,37.371177 C53.2672898,37.3716663 53.2675051,37.3724002 53.2677204,37.3728896 C55.3353665,43.429583 57.3793307,49.5009557 59.2099423,55.6476823 C46.7000808,62.2607225 33.8789097,68.0849931 20.8054187,73.0955393 C20.5483623,73.1941355 20.6592367,73.6584918 20.9178001,73.5594062 C24.5112071,72.1819954 28.0848074,70.7412187 31.6390316,69.24148 C31.6730474,69.2847841 31.7221335,69.314632 31.7880123,69.3156107 C38.8764387,69.4249717 45.965511,69.3850928 53.0526456,69.1954848 C53.1772986,69.1923042 53.2515737,69.0868577 53.2642758,68.9549883 C53.5725712,65.713302 53.5749394,62.4779767 53.2728874,59.2360456 C55.3493604,58.1894091 57.4185135,57.1234448 59.4781938,56.0339935 C59.5382597,56.0024329 59.5701227,55.9537465 59.5817483,55.9001669 C59.64978,55.8514804 59.6915463,55.7636491 59.6575305,55.6493949 C57.815939,49.4554498 55.7601339,43.3366138 53.676341,37.2334359 C53.6817233,37.1023005 53.6871055,36.9706758 53.6924878,36.8392957 C53.6933489,36.8180107 53.6877514,36.8018634 53.6847373,36.7835143 C53.9015345,27.5064196 53.9848517,18.226389 53.9316751,8.94635837 C53.9310292,8.8162016 53.8554624,8.74402821 53.7687005,8.72323249 C53.7353305,8.66720636 53.6823691,8.62537026 53.60508,8.62414698 C50.3765897,8.57154603 47.1480995,8.51894508 43.9196092,8.46609948 C43.8601891,8.46512085 43.8164852,8.48983107 43.7829,8.52457216 C42.8095735,5.80277889 41.8233295,3.08661271 40.8164178,0.379988088 C40.7582894,0.223897832 40.6241637,0.230258877 40.5305125,0.311484527 C40.5718482,0.145363393 40.4034914,-0.0736033466 40.2153278,0.0242588832 C34.4477062,3.02740606 28.6275537,5.8952587 22.7636974,8.64200683 C22.760468,8.64200683 22.7585304,8.64004959 22.7553011,8.64004959 C19.2800884,8.63368855 15.8050909,8.6273275 12.3298782,8.62096646 C11.7274965,8.61998783 11.2497678,8.42597596 10.993142,9.05498544 C10.7911999,9.54967902 10.9793634,10.7024961 10.9800093,11.219698 C10.981301,12.0647383 10.9825928,12.9100233 10.9838845,13.7550637 C10.9838845,13.8358 11.0135946,13.8945174 11.0564373,13.9331729 C7.47444068,15.4906503 3.87758906,17.0043344 0.264160096,18.4668854 C0.16125143,18.5084768 0.120131022,18.6082963 0.121638053,18.7061585 C0.0363831748,18.7489733 -0.0254050826,18.843655 0.0103330732,18.975035 Z" id="Fill-40"></path>
                            <path d="M5.79650797,21.5304526 C16.9656686,16.9087824 28.0805315,12.1195681 39.1385111,7.16452438 C39.1928088,7.14027458 39.2389187,7.14639826 39.2779183,7.16599407 C39.3837125,7.11504498 39.5319538,7.14419374 39.5879752,7.30071521 C44.2218076,20.2295362 48.8166404,33.1759934 53.3726892,46.1408217 C53.4737432,46.4283901 53.064356,46.5533134 52.9641638,46.2686843 C48.4318164,33.3709717 43.8604695,20.4911402 39.2509849,7.62894492 C28.2684187,12.549941 17.2296156,17.3068222 6.13737669,21.8993436 C7.03285736,25.007238 8.4006416,27.8630813 9.75937622,30.7338665 C11.0920393,33.5497834 12.2508206,36.4046469 13.2374438,39.3993756 C15.4742063,46.1885865 17.813531,52.9243989 20.3465606,59.5786437 C20.3553947,59.6021587 20.3566875,59.6244489 20.3594886,59.647229 C20.3814662,59.5933406 20.4208967,59.5470455 20.4823048,59.5223058 L52.9391697,46.4252058 C53.1964372,46.3213481 53.3071872,46.7862585 53.0516434,46.8893814 L20.594994,59.9864814 C20.4508466,60.0445339 20.3560411,59.9240197 20.3422512,59.7890536 C20.2726554,59.9534134 20.0595586,60.0286123 19.9806977,59.8218766 C17.5032586,53.3131306 15.189359,46.7301655 13.0118499,40.0842489 C11.9222335,36.7588411 10.6404206,33.6068562 9.16037809,30.4857346 C7.84516779,27.7121936 6.55365885,24.9347335 5.69868597,21.9280024 C5.62133333,21.8096928 5.63447682,21.5975682 5.79650797,21.5304526" id="Fill-41"></path>
                            <path d="M53.0745515,65.2158447 L53.0745515,66.9301714 C53.0745515,67.2158926 52.7605009,67.2158926 52.7605009,66.9301714 L52.7605009,65.2158447 C52.7605009,64.9301236 53.0745515,64.9301236 53.0745515,65.2158447" id="Fill-42"></path>
                            <path d="M52.1323997,65.0015539 L52.1323997,67.0224307 C52.1323997,67.1848823 52.1323997,67.1853964 52.1323997,67.0224307 L52.1323997,65.0015539" id="Fill-43"></path>
                            <path d="M52.1359887,64.4116259 C52.0891237,64.2869862 52.5158652,64.233137 52.5631808,64.3589868 C52.8146294,65.0279673 52.8254444,65.6876704 52.5974283,66.358466 C52.5550696,66.4841142 52.1278774,66.4306683 52.1702361,66.3056252 C52.3856347,65.6721409 52.3734678,65.0436985 52.1359887,64.4116259" id="Fill-44"></path>
                            <path d="M41.5017868,66.2070357 C42.254749,65.7058769 43.0364591,65.3061782 43.851486,65.0067113 C43.9674289,64.964211 44.0169283,65.1971025 43.9011758,65.2396027 C43.1017602,65.5331737 42.3350904,65.9237827 41.5962164,66.4156062 C41.4894119,66.4866037 41.3946015,66.2785246 41.5017868,66.2070357" id="Fill-45"></path>
                            <path d="M40.2716028,66.8706633 C41.2370831,66.4323095 42.2145259,66.0490999 43.2061061,65.7207544 C43.3394333,65.6768071 43.3964182,65.9418907 43.2628735,65.986118 C42.2715107,66.3144634 41.2940679,66.6973932 40.3285876,67.1360269 C40.1985229,67.1948099 40.1426255,66.9291664 40.2716028,66.8706633" id="Fill-46"></path>
                            <path d="M55.9630543,55.5236006 C56.5342219,55.350778 57.1055678,55.178154 57.6767354,55.0051327 C57.7856565,54.972356 57.8321842,55.1604744 57.7232631,55.1934498 C57.1520955,55.3662724 56.5809278,55.539095 56.009582,55.711719 C55.9006608,55.744893 55.8541331,55.5563773 55.9630543,55.5236006" id="Fill-47"></path>
                            <path d="M55.322387,55.4476285 C55.8856218,55.0654165 56.4490491,54.6829048 57.012284,54.3006928 C57.1227373,54.2257493 57.2191434,54.4796579 57.107728,54.555201 C56.5444931,54.937413 55.9810658,55.319625 55.4178309,55.7018369 C55.3073776,55.7770802 55.2109715,55.5231716 55.322387,55.4476285" id="Fill-48"></path>
                            <path d="M52.3643123,43.6349201 C52.7004085,44.2654839 53.0365046,44.8957923 53.3726008,45.526356 C53.448674,45.668552 53.2329211,45.7954306 53.1568479,45.6529794 C52.8207518,45.0224156 52.4844012,44.3921072 52.148305,43.7615435 C52.0724862,43.6190922 52.2882391,43.4924689 52.3643123,43.6349201" id="Fill-49"></path>
                            <path d="M52.3718673,42.89593 C53.0099608,43.4870418 53.5536514,44.1300343 53.9994427,44.8265508 C54.0836477,44.958248 53.83686,45.0751558 53.7520722,44.942989 C53.3173528,44.2636096 52.7920183,43.6358761 52.1693673,43.0590844 C52.0490328,42.9473412 52.2506587,42.7834826 52.3718673,42.89593" id="Fill-50"></path>
                            <path d="M21.4277982,59.7859853 C22.0053275,59.6779351 22.5673747,59.5143936 23.1182175,59.2942329 C23.2396311,59.2457344 23.2919856,59.4598046 23.1713869,59.5078519 C22.620544,59.7282382 22.0587006,59.8917797 21.4811712,59.9996043 C21.3550722,60.0232896 21.3008843,59.8096706 21.4277982,59.7859853" id="Fill-51"></path>
                            <path d="M20.7992662,61.2200608 C21.3507836,61.0221475 21.9102505,60.8553594 22.48003,60.7190525 C22.6121622,60.687498 22.6684526,60.8907777 22.5363205,60.9225469 C21.9665409,61.0586391 21.4068592,61.2254272 20.8555566,61.4233405 C20.7275066,61.469277 20.6722904,61.265568 20.7992662,61.2200608" id="Fill-52"></path>
                            <path d="M22.0415685,72.5408157 C22.616062,72.1737386 23.1905555,71.8066616 23.7652198,71.4392583 C23.8679178,71.3740001 23.9120044,71.68365 23.8098191,71.7489081 C23.2353256,72.1159852 22.6606613,72.4827359 22.0861678,72.849813 C21.9834699,72.9153974 21.9393832,72.6060738 22.0415685,72.5408157" id="Fill-53"></path>
                            <path d="M21.4384182,71.2341882 C21.989416,71.0637353 22.5401624,70.8934817 23.0911601,70.7230288 C23.2392156,70.6773753 23.3035657,70.8665681 23.1567671,70.9120222 C22.6057693,71.0824752 22.0550229,71.2527287 21.5040251,71.4231817 C21.3559696,71.4690345 21.2916195,71.279443 21.4384182,71.2341882" id="Fill-54"></path>
                            <path d="M32.7281134,61.7805889 C33.2944615,61.4289673 33.8610056,61.0773457 34.4275497,60.7257241 C34.5457594,60.6521897 34.5963367,61.0064242 34.4787151,61.0795854 C33.912171,61.431207 33.3458229,61.7824553 32.7792788,62.1344502 C32.661069,62.2076113 32.6104917,61.8533768 32.7281134,61.7805889" id="Fill-55"></path>
                            <path d="M31.4729906,60.5097873 C32.0387105,60.3418561 32.6046259,60.1737121 33.1703458,60.0055682 C33.289743,59.9702366 33.3407457,60.1720094 33.2213485,60.2073409 C32.6556286,60.3754849 32.0899087,60.5434161 31.5239933,60.7115601 C31.4045961,60.7471045 31.3537888,60.5451188 31.4729906,60.5097873" id="Fill-56"></path>
                            <path d="M50.8781985,23.662953 C50.8435583,23.5410875 51.269633,23.5422574 51.3038403,23.662953 C51.4882995,24.3147873 51.5454558,24.9664267 51.4753094,25.6225506 C51.4623193,25.7453911 51.0366775,25.745976 51.0496676,25.6225506 C51.1198141,24.9662317 51.0630907,24.3147873 50.8781985,23.662953" id="Fill-57"></path>
                            <path d="M52.1323997,22.8576893 L52.1323997,24.8169198 C52.1323997,25.0618236 51.5042985,25.0618236 51.5042985,24.8169198 L51.5042985,22.8576893 L52.1323997,22.8576893" id="Fill-58"></path>
                            <path d="M53.1945884,11.5249083 C53.2590199,12.1752786 53.3238928,12.8254459 53.3883244,13.4756133 C53.4011225,13.6039011 52.9673126,13.6036981 52.9545146,13.4756133 C52.890083,12.8254459 52.8252101,12.1752786 52.7607785,11.5249083 C52.7479805,11.3966205 53.1817903,11.3970265 53.1945884,11.5249083" id="Fill-59"></path>
                            <path d="M52.5441031,11.5497917 C52.6160358,12.1835698 52.6879685,12.8170919 52.7599012,13.4506139 C52.7783026,13.6125168 52.3671988,13.6117482 52.3487974,13.4506139 C52.2768647,12.8170919 52.204932,12.1835698 52.1329993,11.5497917 C52.1145979,11.3881449 52.5257017,11.3889135 52.5441031,11.5497917" id="Fill-60"></path>
                            <path d="M45.3547495,9.28593627 L47.1075901,9.28593627 L47.1075901,9.64308767 L45.3547495,9.64308767 C45.1794654,9.64308767 45.1794654,9.28593627 45.3547495,9.28593627" id="Fill-61"></path>
                            <path d="M45.3190692,10.0015059 C45.6739312,10.0812363 46.0287932,10.1609667 46.3838586,10.2411775 C46.5107548,10.2695154 46.511975,10.741654 46.3838586,10.7133161 C46.0287932,10.6331054 45.6739312,10.5533749 45.3190692,10.4736445 C45.1919697,10.4448263 45.1907495,9.97268763 45.3190692,10.0015059" id="Fill-62"></path>
                            <path d="M46.0610732,17.1963766 C46.4058421,17.8404299 46.7503787,18.4840601 47.0949153,19.1281133 C47.1590367,19.2480405 46.9622582,19.3533733 46.8979045,19.2330232 C46.5531356,18.5891814 46.208599,17.9451282 45.8640625,17.3012864 C45.799941,17.1815708 45.9967195,17.0760264 46.0610732,17.1963766" id="Fill-63"></path>
                            <path d="M45.5063838,16.4866906 C45.9738081,17.0650179 46.2975484,17.7079658 46.4751997,18.4054883 C46.5175835,18.5724701 46.2329206,18.6438786 46.1902361,18.4763537 C46.0176949,17.7981089 45.7053773,17.1833985 45.2511791,16.6213621 C45.1387568,16.4826179 45.3951638,16.3493039 45.5063838,16.4866906" id="Fill-64"></path>
                            <path d="M37.7374442,3.28507637 C38.2826944,2.83284827 38.8506811,2.45651204 39.4422625,2.15231993 C39.5703169,2.08673437 39.6254425,2.38311867 39.4982461,2.44839192 C38.9233954,2.74383928 38.3734264,3.11080615 37.8438345,3.55022945 C37.7258614,3.64798317 37.6194711,3.38283009 37.7374442,3.28507637" id="Fill-65"></path>
                            <path d="M37.7537488,3.24571354 C38.3186861,2.88234003 38.8836235,2.51896651 39.4487674,2.15526236 C39.5698549,2.07723128 39.6225466,2.39133942 39.5026989,2.46837857 C38.9377616,2.83208272 38.3728242,3.19545624 37.8076803,3.55916039 C37.6865928,3.63719147 37.6339011,3.32308333 37.7537488,3.24571354" id="Fill-66"></path>
                            <path d="M12.6290785,10.3431324 C13.1958389,10.0172591 13.7688104,9.92267548 14.3555627,10.0635936 C14.4759023,10.0926963 14.477261,10.4691163 14.3555627,10.4400136 C13.7862791,10.3033077 13.2307762,10.3894669 12.6797375,10.7061499 C12.5617271,10.7739284 12.5112622,10.410911 12.6290785,10.3431324" id="Fill-67"></path>
                            <path d="M12.562024,10.7145419 L13.6198149,10.7145419 C13.8843636,10.7145419 13.8843636,10.7145419 13.6198149,10.7145419 L12.562024,10.7145419" id="Fill-68"></path>
                            <path d="M12.6227938,17.5298184 C13.1947568,17.1660668 13.7665401,16.8019792 14.3385031,16.4385634 C14.4463528,16.3700451 14.4927282,16.6884538 14.3854177,16.7566362 L12.6698881,17.8478912 C12.5620384,17.9167454 12.515663,17.5980009 12.6227938,17.5298184" id="Fill-69"></path>
                            <path d="M10.730702,18.2743909 C11.6883458,17.5463068 12.6736831,16.933912 13.690519,16.4372064 C13.8184162,16.3745826 13.8731689,16.687372 13.7459059,16.7496662 C12.7461934,17.2378022 11.7773454,17.8380019 10.835768,18.5538908 C10.715904,18.6448601 10.6106266,18.3656898 10.730702,18.2743909" id="Fill-70"></path>
                            <path d="M1.34469638,19.0965436 C1.92031713,18.9974978 2.45501935,18.8288042 2.9573382,18.5867142 C3.09314755,18.5214071 3.21740933,18.6889169 3.08210205,18.7540266 C2.56321497,19.0040088 2.00466452,19.1811863 1.41021623,19.2835862 C1.25557934,19.310222 1.18955742,19.1231794 1.34469638,19.0965436" id="Fill-71"></path>
                            <path d="M1.32719679,19.7835388 C1.6962932,19.6822117 2.0400813,19.5230157 2.36463508,19.3030235 C2.47437192,19.228717 2.57439036,19.4198873 2.46526092,19.4939686 C2.12714189,19.7231929 1.76452441,19.8913957 1.38004054,19.9967758 C1.25572612,20.0310019 1.2026799,19.8175396 1.32719679,19.7835388" id="Fill-72"></path>
                            <path d="M7.79181815,30.0597588 L9.40425044,32.6792836 C9.48699662,32.8137171 9.24994,32.9336953 9.16691427,32.79878 L7.55448198,30.1792552 C7.4717358,30.0448218 7.70879242,29.9250845 7.79181815,30.0597588" id="Fill-73"></path>
                            <path d="M7.09774917,29.3307386 C7.52112914,29.9578449 7.87306628,30.6193585 8.15802576,31.3145017 C8.20491012,31.4289982 8.01209565,31.478568 7.96561722,31.3652378 C7.68674661,30.6848683 7.33968058,30.0406556 6.92543393,29.4269623 C6.85561479,29.3233517 7.028133,29.2275168 7.09774917,29.3307386" id="Fill-74"></path>
                            <path d="M12.8093056,48.6426227 C13.0567445,49.3115913 13.3867479,49.9511658 13.8021191,50.5654006 C13.8785677,50.6783144 13.662218,50.7790652 13.5857693,50.6659487 C13.1604598,50.0367127 12.8215374,49.3809208 12.5677278,48.695532 C12.5221134,48.5722797 12.7636912,48.519573 12.8093056,48.6426227" id="Fill-75"></path>
                            <path d="M13.4516076,47.9167914 C13.8832102,48.5073177 14.21144,49.1492176 14.4390832,49.8381649 C14.4931381,50.0014789 14.2287153,50.0712389 14.1749391,49.9090064 C13.9537044,49.239527 13.6338336,48.6238547 13.2150481,48.0509036 C13.1130684,47.9111133 13.3504638,47.778353 13.4516076,47.9167914" id="Fill-76"></path>
                            <path d="M12.8760746,56.4299204 L12.8760746,58.4233236 C12.8760746,58.6226639 12.562024,58.6226639 12.562024,58.4233236 L12.562024,56.4299204 L12.8760746,56.4299204" id="Fill-77"></path>
                            <path d="M13.6588348,55.8357695 C13.7871352,56.4683811 13.8379802,57.1009927 13.8113697,57.7369339 C13.8042419,57.8988005 13.3371335,57.8993127 13.3442613,57.7369339 C13.3708717,57.1009927 13.3205019,56.468125 13.1917264,55.8357695 C13.1594137,55.6749274 13.6265221,55.6762079 13.6588348,55.8357695" id="Fill-78"></path>
                            <path d="M15.8839198,62.911636 C16.3084322,63.7712305 16.6641478,64.6616101 16.9530549,65.5858097 C16.9936172,65.7158871 16.8049229,65.7718203 16.7645594,65.6423934 C16.4812198,64.7355374 16.1316681,63.8625015 15.715109,63.0191666 C15.6554585,62.8984114 15.8240705,62.790664 15.8839198,62.911636" id="Fill-79"></path>
                            <path d="M15.3270169,62.9204105 C15.6571755,63.5535185 15.9870524,64.1866266 16.317211,64.8197346 C16.3893275,64.9580608 16.1507232,65.079217 16.0780432,64.9396818 C15.7481663,64.3065737 15.4180077,63.6734657 15.0878491,63.0403576 C15.0157325,62.9020315 15.2543369,62.781117 15.3270169,62.9204105" id="Fill-80"></path>
                            <polygon id="Path-15" points="38.6209203 7.1430279 5.65291081 21.4205801 7.27428833 26.3866852 9.97658419 32.5943166 19.7048493 59.2871316 52.1323997 45.6303425 49.4301038 37.5604217"></polygon>
                            <polygon id="Path-16" points="50.8761973 27.8578088 50.8761973 13.4824652 45.8513877 12.8574502"></polygon>
                        </g>
                    </g>
                </g>
            </g>
        </g>
    </g>
</svg>